<svg id="Layer_1" data-name="Layer 1" xmlns="http://www.w3.org/2000/svg" viewBox="0 0 399.29 424.76"><title>Logo-black</title><polygon points="327.42 298.89 327.42 151.35 296.46 133.47 296.45 267.04 98.53 135.95 71.86 151.35 71.86 298.89 102.88 316.8 102.79 180.69 302.76 313.13 327.42 298.89"/><polygon points="129.68 424.76 268.29 424.76 198.99 367.3 129.68 424.76"/><path d="M481.53,187.8,316.83,92.71a35,35,0,0,0-34.95,0L117.19,187.8a35,35,0,0,0-17.48,30.26V408.24a35,35,0,0,0,17.48,30.26l83,47.94a38.76,38.76,0,0,1,4.08-3.91l24.23-20.1-93.87-54.19V218.06L299.36,123l164.69,95.08V408.24l-94.64,54.64,23.69,19.65a38.59,38.59,0,0,1,4.53,4.41l83.9-48.44A34.94,34.94,0,0,0,499,408.24V218.06A34.94,34.94,0,0,0,481.53,187.8Z" transform="translate(-99.71 -88.03)"/></svg>