<svg id="Capa_1" data-name="Capa 1" xmlns="http://www.w3.org/2000/svg" viewBox="0 0 780.88 830.7"><defs><style>.cls-1{fill:#fff;}</style></defs><title>new-white</title><g id="Layer_2" data-name="Layer 2"><g id="Layer_1-2" data-name="Layer 1-2"><polygon class="cls-1" points="640.34 584.54 640.34 295.99 579.78 261.03 579.77 522.24 192.7 265.88 140.54 295.99 140.54 584.54 201.2 619.57 201.02 353.37 592.1 612.39 640.34 584.54"/><polygon class="cls-1" points="253.62 830.7 524.7 830.7 389.16 718.32 253.62 830.7"/><path class="cls-1" d="M746.7,195.12,424.61,9.16a68.35,68.35,0,0,0-68.35,0l-322.09,186A68.37,68.37,0,0,0,0,254.31V626.23a68.36,68.36,0,0,0,34.17,59.19l162.39,93.75a77.2,77.2,0,0,1,8-7.66L252,732.22l-183.58-106V254.31l322.09-186,322.09,186V626.23L527.43,733.09l46.35,38.42a78.49,78.49,0,0,1,8.85,8.64L746.7,685.42a68.34,68.34,0,0,0,34.18-59.19V254.31A68.34,68.34,0,0,0,746.7,195.12Z" transform="translate(0 0)"/></g></g></svg>