<?xml version="1.0" encoding="UTF-8" standalone="no"?>
<!DOCTYPE svg PUBLIC "-//W3C//DTD SVG 1.1//EN"
 "http://www.w3.org/Graphics/SVG/1.1/DTD/svg11.dtd">
<!-- Generated by graphviz version 2.40.1 (20161225.0304)
 -->
<!-- Title: dependencies Pages: 1 -->
<svg width="5799pt" height="284pt"
 viewBox="0.00 0.00 5799.00 284.00" xmlns="http://www.w3.org/2000/svg" xmlns:xlink="http://www.w3.org/1999/xlink">
<g id="graph0" class="graph" transform="scale(1 1) rotate(0) translate(4 280)">
<title>dependencies</title>
<polygon fill="#ffffff" stroke="transparent" points="-4,4 -4,-280 5795,-280 5795,4 -4,4"/>
<text text-anchor="start" x="2874.5091" y="-42.4" font-family="sans-serif" font-weight="bold" font-size="14.00" fill="#000000">Legend</text>
<polygon fill="#ffffb3" stroke="transparent" points="2661.5,-10 2661.5,-30 2681.5,-30 2681.5,-10 2661.5,-10"/>
<text text-anchor="start" x="2685.129" y="-15.4" font-family="sans-serif" font-size="14.00" fill="#000000"> &#160;Declarations</text>
<polygon fill="#8dd3c7" stroke="transparent" points="2774.5,-10 2774.5,-30 2794.5,-30 2794.5,-10 2774.5,-10"/>
<text text-anchor="start" x="2798.2251" y="-15.4" font-family="sans-serif" font-size="14.00" fill="#000000"> &#160;Module</text>
<polygon fill="#80b1d3" stroke="transparent" points="2860.5,-10 2860.5,-30 2880.5,-30 2880.5,-10 2860.5,-10"/>
<text text-anchor="start" x="2884.2812" y="-15.4" font-family="sans-serif" font-size="14.00" fill="#000000"> &#160;Bootstrap</text>
<polygon fill="#fdb462" stroke="transparent" points="2957.5,-10 2957.5,-30 2977.5,-30 2977.5,-10 2957.5,-10"/>
<text text-anchor="start" x="2981.1732" y="-15.4" font-family="sans-serif" font-size="14.00" fill="#000000"> &#160;Providers</text>
<polygon fill="#fb8072" stroke="transparent" points="3053.5,-10 3053.5,-30 3073.5,-30 3073.5,-10 3053.5,-10"/>
<text text-anchor="start" x="3077.2258" y="-15.4" font-family="sans-serif" font-size="14.00" fill="#000000"> &#160;Exports</text>
<g id="clust1" class="cluster">
<title>cluster_AppModule</title>
<polygon fill="none" stroke="#000000" stroke-dasharray="1,5" points="8,-70 8,-268 5783,-268 5783,-70 8,-70"/>
</g>
<g id="clust2" class="cluster">
<title>cluster_AppModule_declarations</title>
<polygon fill="none" stroke="#000000" points="530,-78 530,-130 5775,-130 5775,-78 530,-78"/>
</g>
<g id="clust37" class="cluster">
<title>cluster_AppModule_exports</title>
<polygon fill="none" stroke="#000000" points="2761,-208 2761,-260 2895,-260 2895,-208 2761,-208"/>
</g>
<g id="clust38" class="cluster">
<title>cluster_AppModule_bootstrap</title>
<polygon fill="none" stroke="#000000" points="2903,-208 2903,-260 3027,-260 3027,-208 2903,-208"/>
</g>
<g id="clust39" class="cluster">
<title>cluster_AppModule_providers</title>
<polygon fill="none" stroke="#000000" points="16,-78 16,-130 522,-130 522,-78 16,-78"/>
</g>
<!-- AbbreviatePipe -->
<g id="node1" class="node">
<title>AbbreviatePipe</title>
<polygon fill="#ffffb3" stroke="#000000" points="5766.58,-122 5663.42,-122 5663.42,-86 5766.58,-86 5766.58,-122"/>
<text text-anchor="middle" x="5715" y="-99.8" font-family="Times,serif" font-size="14.00" fill="#000000">AbbreviatePipe</text>
</g>
<!-- AppModule -->
<g id="node34" class="node">
<title>AppModule</title>
<polygon fill="#8dd3c7" stroke="#000000" points="2937.6571,-187 2934.6571,-191 2913.6571,-191 2910.6571,-187 2854.3429,-187 2854.3429,-151 2937.6571,-151 2937.6571,-187"/>
<text text-anchor="middle" x="2896" y="-164.8" font-family="Times,serif" font-size="14.00" fill="#000000">AppModule</text>
</g>
<!-- AbbreviatePipe&#45;&gt;AppModule -->
<g id="edge1" class="edge">
<title>AbbreviatePipe&#45;&gt;AppModule</title>
<path fill="none" stroke="#000000" d="M5715,-122.3802C5715,-146.2785 5715,-185 5715,-185 5715,-185 2947.761,-185 2947.761,-185"/>
<polygon fill="#000000" stroke="#000000" points="2947.761,-181.5001 2937.761,-185 2947.761,-188.5001 2947.761,-181.5001"/>
</g>
<!-- AddDevicesGroupComponent -->
<g id="node2" class="node">
<title>AddDevicesGroupComponent</title>
<polygon fill="#ffffb3" stroke="#000000" points="5645.292,-122 5458.708,-122 5458.708,-86 5645.292,-86 5645.292,-122"/>
<text text-anchor="middle" x="5552" y="-99.8" font-family="Times,serif" font-size="14.00" fill="#000000">AddDevicesGroupComponent</text>
</g>
<!-- AddDevicesGroupComponent&#45;&gt;AppModule -->
<g id="edge2" class="edge">
<title>AddDevicesGroupComponent&#45;&gt;AppModule</title>
<path fill="none" stroke="#000000" d="M5552,-122.3228C5552,-145.6602 5552,-183 5552,-183 5552,-183 2947.7194,-183 2947.7194,-183"/>
<polygon fill="#000000" stroke="#000000" points="2947.7195,-179.5001 2937.7194,-183 2947.7194,-186.5001 2947.7195,-179.5001"/>
</g>
<!-- AddLabelComponent -->
<g id="node3" class="node">
<title>AddLabelComponent</title>
<polygon fill="#ffffb3" stroke="#000000" points="5440.8118,-122 5303.1882,-122 5303.1882,-86 5440.8118,-86 5440.8118,-122"/>
<text text-anchor="middle" x="5372" y="-99.8" font-family="Times,serif" font-size="14.00" fill="#000000">AddLabelComponent</text>
</g>
<!-- AddLabelComponent&#45;&gt;AppModule -->
<g id="edge3" class="edge">
<title>AddLabelComponent&#45;&gt;AppModule</title>
<path fill="none" stroke="#000000" d="M5372,-122.2479C5372,-145.0179 5372,-181 5372,-181 5372,-181 2947.6789,-181 2947.6789,-181"/>
<polygon fill="#000000" stroke="#000000" points="2947.6789,-177.5001 2937.6789,-181 2947.6788,-184.5001 2947.6789,-177.5001"/>
</g>
<!-- AddUserComponent -->
<g id="node4" class="node">
<title>AddUserComponent</title>
<polygon fill="#ffffb3" stroke="#000000" points="5284.8655,-122 5153.1345,-122 5153.1345,-86 5284.8655,-86 5284.8655,-122"/>
<text text-anchor="middle" x="5219" y="-99.8" font-family="Times,serif" font-size="14.00" fill="#000000">AddUserComponent</text>
</g>
<!-- AddUserComponent&#45;&gt;AppModule -->
<g id="edge4" class="edge">
<title>AddUserComponent&#45;&gt;AppModule</title>
<path fill="none" stroke="#000000" d="M5219,-122.1554C5219,-144.3519 5219,-179 5219,-179 5219,-179 2947.8031,-179 2947.8031,-179"/>
<polygon fill="#000000" stroke="#000000" points="2947.8031,-175.5001 2937.8031,-179 2947.803,-182.5001 2947.8031,-175.5001"/>
</g>
<!-- AppComponent -->
<g id="node5" class="node">
<title>AppComponent</title>
<polygon fill="#ffffb3" stroke="#000000" points="5134.9399,-122 5029.0601,-122 5029.0601,-86 5134.9399,-86 5134.9399,-122"/>
<text text-anchor="middle" x="5082" y="-99.8" font-family="Times,serif" font-size="14.00" fill="#000000">AppComponent</text>
</g>
<!-- AppComponent&#45;&gt;AppModule -->
<g id="edge5" class="edge">
<title>AppComponent&#45;&gt;AppModule</title>
<path fill="none" stroke="#000000" d="M5082,-122.0449C5082,-143.6623 5082,-177 5082,-177 5082,-177 2947.7163,-177 2947.7163,-177"/>
<polygon fill="#000000" stroke="#000000" points="2947.7163,-173.5001 2937.7163,-177 2947.7162,-180.5001 2947.7163,-173.5001"/>
</g>
<!-- ApplicationsComponent -->
<g id="node6" class="node">
<title>ApplicationsComponent</title>
<polygon fill="#ffffb3" stroke="#000000" points="5011.3753,-122 4858.6247,-122 4858.6247,-86 5011.3753,-86 5011.3753,-122"/>
<text text-anchor="middle" x="4935" y="-99.8" font-family="Times,serif" font-size="14.00" fill="#000000">ApplicationsComponent</text>
</g>
<!-- ApplicationsComponent&#45;&gt;AppModule -->
<g id="edge6" class="edge">
<title>ApplicationsComponent&#45;&gt;AppModule</title>
<path fill="none" stroke="#000000" d="M4935,-122.2843C4935,-143.3211 4935,-175 4935,-175 4935,-175 2948.1194,-175 2948.1194,-175"/>
<polygon fill="#000000" stroke="#000000" points="2948.1194,-171.5001 2938.1194,-175 2948.1193,-178.5001 2948.1194,-171.5001"/>
</g>
<!-- AppsInfoComponent -->
<g id="node7" class="node">
<title>AppsInfoComponent</title>
<polygon fill="#ffffb3" stroke="#000000" points="4840.205,-122 4705.795,-122 4705.795,-86 4840.205,-86 4840.205,-122"/>
<text text-anchor="middle" x="4773" y="-99.8" font-family="Times,serif" font-size="14.00" fill="#000000">AppsInfoComponent</text>
</g>
<!-- AppsInfoComponent&#45;&gt;AppModule -->
<g id="edge7" class="edge">
<title>AppsInfoComponent&#45;&gt;AppModule</title>
<path fill="none" stroke="#000000" d="M4773,-122.1289C4773,-142.5724 4773,-173 4773,-173 4773,-173 2947.8355,-173 2947.8355,-173"/>
<polygon fill="#000000" stroke="#000000" points="2947.8355,-169.5001 2937.8355,-173 2947.8355,-176.5001 2947.8355,-169.5001"/>
</g>
<!-- AutofocusDirective -->
<g id="node8" class="node">
<title>AutofocusDirective</title>
<polygon fill="#ffffb3" stroke="#000000" points="4688.4004,-122 4561.5996,-122 4561.5996,-86 4688.4004,-86 4688.4004,-122"/>
<text text-anchor="middle" x="4625" y="-99.8" font-family="Times,serif" font-size="14.00" fill="#000000">AutofocusDirective</text>
</g>
<!-- AutofocusDirective&#45;&gt;AppModule -->
<g id="edge8" class="edge">
<title>AutofocusDirective&#45;&gt;AppModule</title>
<path fill="none" stroke="#000000" d="M4625,-122.308C4625,-142.1455 4625,-171 4625,-171 4625,-171 2947.8829,-171 2947.8829,-171"/>
<polygon fill="#000000" stroke="#000000" points="2947.8829,-167.5001 2937.8829,-171 2947.8828,-174.5001 2947.8829,-167.5001"/>
</g>
<!-- ChangePasswordComponent -->
<g id="node9" class="node">
<title>ChangePasswordComponent</title>
<polygon fill="#ffffb3" stroke="#000000" points="4543.752,-122 4366.248,-122 4366.248,-86 4543.752,-86 4543.752,-122"/>
<text text-anchor="middle" x="4455" y="-99.8" font-family="Times,serif" font-size="14.00" fill="#000000">ChangePasswordComponent</text>
</g>
<!-- ChangePasswordComponent&#45;&gt;AppModule -->
<g id="edge9" class="edge">
<title>ChangePasswordComponent&#45;&gt;AppModule</title>
<path fill="none" stroke="#000000" d="M4455,-122.1061C4455,-141.3391 4455,-169 4455,-169 4455,-169 2947.6995,-169 2947.6995,-169"/>
<polygon fill="#000000" stroke="#000000" points="2947.6995,-165.5001 2937.6995,-169 2947.6994,-172.5001 2947.6995,-165.5001"/>
</g>
<!-- ClusterComponent -->
<g id="node10" class="node">
<title>ClusterComponent</title>
<polygon fill="#ffffb3" stroke="#000000" points="4347.7702,-122 4226.2298,-122 4226.2298,-86 4347.7702,-86 4347.7702,-122"/>
<text text-anchor="middle" x="4287" y="-99.8" font-family="Times,serif" font-size="14.00" fill="#000000">ClusterComponent</text>
</g>
<!-- ClusterComponent&#45;&gt;AppModule -->
<g id="edge10" class="edge">
<title>ClusterComponent&#45;&gt;AppModule</title>
<path fill="none" stroke="#000000" d="M4287,-122.2222C4287,-140.8285 4287,-167 4287,-167 4287,-167 2948.0088,-167 2948.0088,-167"/>
<polygon fill="#000000" stroke="#000000" points="2948.0089,-163.5001 2938.0088,-167 2948.0088,-170.5001 2948.0089,-163.5001"/>
</g>
<!-- DebugPanelComponent -->
<g id="node11" class="node">
<title>DebugPanelComponent</title>
<polygon fill="#ffffb3" stroke="#000000" points="4207.7562,-122 4058.2438,-122 4058.2438,-86 4207.7562,-86 4207.7562,-122"/>
<text text-anchor="middle" x="4133" y="-99.8" font-family="Times,serif" font-size="14.00" fill="#000000">DebugPanelComponent</text>
</g>
<!-- DebugPanelComponent&#45;&gt;AppModule -->
<g id="edge11" class="edge">
<title>DebugPanelComponent&#45;&gt;AppModule</title>
<path fill="none" stroke="#000000" d="M4133,-122.302C4133,-140.2699 4133,-165 4133,-165 4133,-165 2947.866,-165 2947.866,-165"/>
<polygon fill="#000000" stroke="#000000" points="2947.866,-161.5001 2937.866,-165 2947.866,-168.5001 2947.866,-161.5001"/>
</g>
<!-- DeployInstanceComponent -->
<g id="node12" class="node">
<title>DeployInstanceComponent</title>
<polygon fill="#ffffb3" stroke="#000000" points="4040.6839,-122 3871.3161,-122 3871.3161,-86 4040.6839,-86 4040.6839,-122"/>
<text text-anchor="middle" x="3956" y="-99.8" font-family="Times,serif" font-size="14.00" fill="#000000">DeployInstanceComponent</text>
</g>
<!-- DeployInstanceComponent&#45;&gt;AppModule -->
<g id="edge12" class="edge">
<title>DeployInstanceComponent&#45;&gt;AppModule</title>
<path fill="none" stroke="#000000" d="M3956,-122.0225C3956,-139.3734 3956,-163 3956,-163 3956,-163 2947.8797,-163 2947.8797,-163"/>
<polygon fill="#000000" stroke="#000000" points="2947.8798,-159.5001 2937.8797,-163 2947.8797,-166.5001 2947.8798,-159.5001"/>
</g>
<!-- DeviceGroupCreatedComponent -->
<g id="node13" class="node">
<title>DeviceGroupCreatedComponent</title>
<polygon fill="#ffffb3" stroke="#000000" points="3853.2724,-122 3652.7276,-122 3652.7276,-86 3853.2724,-86 3853.2724,-122"/>
<text text-anchor="middle" x="3753" y="-99.8" font-family="Times,serif" font-size="14.00" fill="#000000">DeviceGroupCreatedComponent</text>
</g>
<!-- DeviceGroupCreatedComponent&#45;&gt;AppModule -->
<g id="edge13" class="edge">
<title>DeviceGroupCreatedComponent&#45;&gt;AppModule</title>
<path fill="none" stroke="#000000" d="M3753,-122.0352C3753,-138.7344 3753,-161 3753,-161 3753,-161 2947.915,-161 2947.915,-161"/>
<polygon fill="#000000" stroke="#000000" points="2947.9151,-157.5001 2937.915,-161 2947.915,-164.5001 2947.9151,-157.5001"/>
</g>
<!-- DevicesComponent -->
<g id="node14" class="node">
<title>DevicesComponent</title>
<polygon fill="#ffffb3" stroke="#000000" points="3635.4187,-122 3508.5813,-122 3508.5813,-86 3635.4187,-86 3635.4187,-122"/>
<text text-anchor="middle" x="3572" y="-99.8" font-family="Times,serif" font-size="14.00" fill="#000000">DevicesComponent</text>
</g>
<!-- DevicesComponent&#45;&gt;AppModule -->
<g id="edge14" class="edge">
<title>DevicesComponent&#45;&gt;AppModule</title>
<path fill="none" stroke="#000000" d="M3572,-122.0091C3572,-138.0494 3572,-159 3572,-159 3572,-159 2947.7767,-159 2947.7767,-159"/>
<polygon fill="#000000" stroke="#000000" points="2947.7767,-155.5001 2937.7767,-159 2947.7766,-162.5001 2947.7767,-155.5001"/>
</g>
<!-- EditClusterComponent -->
<g id="node15" class="node">
<title>EditClusterComponent</title>
<polygon fill="#ffffb3" stroke="#000000" points="3490.6038,-122 3345.3962,-122 3345.3962,-86 3490.6038,-86 3490.6038,-122"/>
<text text-anchor="middle" x="3418" y="-99.8" font-family="Times,serif" font-size="14.00" fill="#000000">EditClusterComponent</text>
</g>
<!-- EditClusterComponent&#45;&gt;AppModule -->
<g id="edge15" class="edge">
<title>EditClusterComponent&#45;&gt;AppModule</title>
<path fill="none" stroke="#000000" d="M3418,-122.2396C3418,-137.5706 3418,-157 3418,-157 3418,-157 2947.8351,-157 2947.8351,-157"/>
<polygon fill="#000000" stroke="#000000" points="2947.8351,-153.5001 2937.8351,-157 2947.835,-160.5001 2947.8351,-153.5001"/>
</g>
<!-- EditUserComponent -->
<g id="node16" class="node">
<title>EditUserComponent</title>
<polygon fill="#ffffb3" stroke="#000000" points="3327.5926,-122 3196.4074,-122 3196.4074,-86 3327.5926,-86 3327.5926,-122"/>
<text text-anchor="middle" x="3262" y="-99.8" font-family="Times,serif" font-size="14.00" fill="#000000">EditUserComponent</text>
</g>
<!-- EditUserComponent&#45;&gt;AppModule -->
<g id="edge16" class="edge">
<title>EditUserComponent&#45;&gt;AppModule</title>
<path fill="none" stroke="#000000" d="M3262,-122.1243C3262,-136.7832 3262,-155 3262,-155 3262,-155 2947.9849,-155 2947.9849,-155"/>
<polygon fill="#000000" stroke="#000000" points="2947.9849,-151.5001 2937.9849,-155 2947.9848,-158.5001 2947.9849,-151.5001"/>
</g>
<!-- FilterPipe -->
<g id="node17" class="node">
<title>FilterPipe</title>
<polygon fill="#ffffb3" stroke="#000000" points="3178.7177,-122 3107.2823,-122 3107.2823,-86 3178.7177,-86 3178.7177,-122"/>
<text text-anchor="middle" x="3143" y="-99.8" font-family="Times,serif" font-size="14.00" fill="#000000">FilterPipe</text>
</g>
<!-- FilterPipe&#45;&gt;AppModule -->
<g id="edge17" class="edge">
<title>FilterPipe&#45;&gt;AppModule</title>
<path fill="none" stroke="#000000" d="M3143,-122.2458C3143,-136.1772 3143,-153 3143,-153 3143,-153 2947.9002,-153 2947.9002,-153"/>
<polygon fill="#000000" stroke="#000000" points="2947.9002,-149.5001 2937.9002,-153 2947.9001,-156.5001 2947.9002,-149.5001"/>
</g>
<!-- GroupConfigurationComponent -->
<g id="node18" class="node">
<title>GroupConfigurationComponent</title>
<polygon fill="#ffffb3" stroke="#000000" points="3089.6441,-122 2894.3559,-122 2894.3559,-86 3089.6441,-86 3089.6441,-122"/>
<text text-anchor="middle" x="2992" y="-99.8" font-family="Times,serif" font-size="14.00" fill="#000000">GroupConfigurationComponent</text>
</g>
<!-- GroupConfigurationComponent&#45;&gt;AppModule -->
<g id="edge18" class="edge">
<title>GroupConfigurationComponent&#45;&gt;AppModule</title>
<path fill="none" stroke="#000000" d="M2916.0032,-122.1061C2916.0032,-122.1061 2916.0032,-140.991 2916.0032,-140.991"/>
<polygon fill="#000000" stroke="#000000" points="2912.5032,-140.9909 2916.0032,-150.991 2919.5032,-140.991 2912.5032,-140.9909"/>
</g>
<!-- InstanceInfoComponent -->
<g id="node19" class="node">
<title>InstanceInfoComponent</title>
<polygon fill="#ffffb3" stroke="#000000" points="2876.7935,-122 2725.2065,-122 2725.2065,-86 2876.7935,-86 2876.7935,-122"/>
<text text-anchor="middle" x="2801" y="-99.8" font-family="Times,serif" font-size="14.00" fill="#000000">InstanceInfoComponent</text>
</g>
<!-- InstanceInfoComponent&#45;&gt;AppModule -->
<g id="edge19" class="edge">
<title>InstanceInfoComponent&#45;&gt;AppModule</title>
<path fill="none" stroke="#000000" d="M2865.4092,-122.1061C2865.4092,-122.1061 2865.4092,-140.991 2865.4092,-140.991"/>
<polygon fill="#000000" stroke="#000000" points="2861.9093,-140.9909 2865.4092,-150.991 2868.9093,-140.991 2861.9093,-140.9909"/>
</g>
<!-- LoginComponent -->
<g id="node20" class="node">
<title>LoginComponent</title>
<polygon fill="#ffffb3" stroke="#000000" points="2707.2758,-122 2592.7242,-122 2592.7242,-86 2707.2758,-86 2707.2758,-122"/>
<text text-anchor="middle" x="2650" y="-99.8" font-family="Times,serif" font-size="14.00" fill="#000000">LoginComponent</text>
</g>
<!-- LoginComponent&#45;&gt;AppModule -->
<g id="edge20" class="edge">
<title>LoginComponent&#45;&gt;AppModule</title>
<path fill="none" stroke="#000000" d="M2650,-122.2458C2650,-136.1772 2650,-153 2650,-153 2650,-153 2844.2695,-153 2844.2695,-153"/>
<polygon fill="#000000" stroke="#000000" points="2844.2695,-156.5001 2854.2695,-153 2844.2694,-149.5001 2844.2695,-156.5001"/>
</g>
<!-- MainComponent -->
<g id="node21" class="node">
<title>MainComponent</title>
<polygon fill="#ffffb3" stroke="#000000" points="2574.3823,-122 2463.6177,-122 2463.6177,-86 2574.3823,-86 2574.3823,-122"/>
<text text-anchor="middle" x="2519" y="-99.8" font-family="Times,serif" font-size="14.00" fill="#000000">MainComponent</text>
</g>
<!-- MainComponent&#45;&gt;AppModule -->
<g id="edge21" class="edge">
<title>MainComponent&#45;&gt;AppModule</title>
<path fill="none" stroke="#000000" d="M2519,-122.1243C2519,-136.7832 2519,-155 2519,-155 2519,-155 2844.214,-155 2844.214,-155"/>
<polygon fill="#000000" stroke="#000000" points="2844.214,-158.5001 2854.214,-155 2844.2139,-151.5001 2844.214,-158.5001"/>
</g>
<!-- NotificationsComponent -->
<g id="node22" class="node">
<title>NotificationsComponent</title>
<polygon fill="#ffffb3" stroke="#000000" points="2445.427,-122 2290.573,-122 2290.573,-86 2445.427,-86 2445.427,-122"/>
<text text-anchor="middle" x="2368" y="-99.8" font-family="Times,serif" font-size="14.00" fill="#000000">NotificationsComponent</text>
</g>
<!-- NotificationsComponent&#45;&gt;AppModule -->
<g id="edge22" class="edge">
<title>NotificationsComponent&#45;&gt;AppModule</title>
<path fill="none" stroke="#000000" d="M2368,-122.2396C2368,-137.5706 2368,-157 2368,-157 2368,-157 2844.1274,-157 2844.1274,-157"/>
<polygon fill="#000000" stroke="#000000" points="2844.1274,-160.5001 2854.1274,-157 2844.1274,-153.5001 2844.1274,-160.5001"/>
</g>
<!-- OrganizationComponent -->
<g id="node23" class="node">
<title>OrganizationComponent</title>
<polygon fill="#ffffb3" stroke="#000000" points="2273.4158,-122 2118.5842,-122 2118.5842,-86 2273.4158,-86 2273.4158,-122"/>
<text text-anchor="middle" x="2196" y="-99.8" font-family="Times,serif" font-size="14.00" fill="#000000">OrganizationComponent</text>
</g>
<!-- OrganizationComponent&#45;&gt;AppModule -->
<g id="edge23" class="edge">
<title>OrganizationComponent&#45;&gt;AppModule</title>
<path fill="none" stroke="#000000" d="M2196,-122.0091C2196,-138.0494 2196,-159 2196,-159 2196,-159 2844.3081,-159 2844.3081,-159"/>
<polygon fill="#000000" stroke="#000000" points="2844.3082,-162.5001 2854.3081,-159 2844.3081,-155.5001 2844.3082,-162.5001"/>
</g>
<!-- RegisterApplicationComponent -->
<g id="node24" class="node">
<title>RegisterApplicationComponent</title>
<polygon fill="#ffffb3" stroke="#000000" points="2101.0828,-122 1906.9172,-122 1906.9172,-86 2101.0828,-86 2101.0828,-122"/>
<text text-anchor="middle" x="2004" y="-99.8" font-family="Times,serif" font-size="14.00" fill="#000000">RegisterApplicationComponent</text>
</g>
<!-- RegisterApplicationComponent&#45;&gt;AppModule -->
<g id="edge24" class="edge">
<title>RegisterApplicationComponent&#45;&gt;AppModule</title>
<path fill="none" stroke="#000000" d="M2004,-122.0352C2004,-138.7344 2004,-161 2004,-161 2004,-161 2844.1734,-161 2844.1734,-161"/>
<polygon fill="#000000" stroke="#000000" points="2844.1734,-164.5001 2854.1734,-161 2844.1734,-157.5001 2844.1734,-164.5001"/>
</g>
<!-- RegisteredInfoComponent -->
<g id="node25" class="node">
<title>RegisteredInfoComponent</title>
<polygon fill="#ffffb3" stroke="#000000" points="1889.0211,-122 1724.9789,-122 1724.9789,-86 1889.0211,-86 1889.0211,-122"/>
<text text-anchor="middle" x="1807" y="-99.8" font-family="Times,serif" font-size="14.00" fill="#000000">RegisteredInfoComponent</text>
</g>
<!-- RegisteredInfoComponent&#45;&gt;AppModule -->
<g id="edge25" class="edge">
<title>RegisteredInfoComponent&#45;&gt;AppModule</title>
<path fill="none" stroke="#000000" d="M1807,-122.0225C1807,-139.3734 1807,-163 1807,-163 1807,-163 2844.309,-163 2844.309,-163"/>
<polygon fill="#000000" stroke="#000000" points="2844.3091,-166.5001 2854.309,-163 2844.309,-159.5001 2844.3091,-166.5001"/>
</g>
<!-- ResourcesComponent -->
<g id="node26" class="node">
<title>ResourcesComponent</title>
<polygon fill="#ffffb3" stroke="#000000" points="1706.3627,-122 1567.6373,-122 1567.6373,-86 1706.3627,-86 1706.3627,-122"/>
<text text-anchor="middle" x="1637" y="-99.8" font-family="Times,serif" font-size="14.00" fill="#000000">ResourcesComponent</text>
</g>
<!-- ResourcesComponent&#45;&gt;AppModule -->
<g id="edge26" class="edge">
<title>ResourcesComponent&#45;&gt;AppModule</title>
<path fill="none" stroke="#000000" d="M1637,-122.302C1637,-140.2699 1637,-165 1637,-165 1637,-165 2844.1108,-165 2844.1108,-165"/>
<polygon fill="#000000" stroke="#000000" points="2844.1109,-168.5001 2854.1108,-165 2844.1108,-161.5001 2844.1109,-168.5001"/>
</g>
<!-- RuleInfoComponent -->
<g id="node27" class="node">
<title>RuleInfoComponent</title>
<polygon fill="#ffffb3" stroke="#000000" points="1549.5954,-122 1418.4046,-122 1418.4046,-86 1549.5954,-86 1549.5954,-122"/>
<text text-anchor="middle" x="1484" y="-99.8" font-family="Times,serif" font-size="14.00" fill="#000000">RuleInfoComponent</text>
</g>
<!-- RuleInfoComponent&#45;&gt;AppModule -->
<g id="edge27" class="edge">
<title>RuleInfoComponent&#45;&gt;AppModule</title>
<path fill="none" stroke="#000000" d="M1484,-122.2222C1484,-140.8285 1484,-167 1484,-167 1484,-167 2844.1247,-167 2844.1247,-167"/>
<polygon fill="#000000" stroke="#000000" points="2844.1248,-170.5001 2854.1247,-167 2844.1247,-163.5001 2844.1248,-170.5001"/>
</g>
<!-- ServiceInfoComponent -->
<g id="node28" class="node">
<title>ServiceInfoComponent</title>
<polygon fill="#ffffb3" stroke="#000000" points="1400.1317,-122 1253.8683,-122 1253.8683,-86 1400.1317,-86 1400.1317,-122"/>
<text text-anchor="middle" x="1327" y="-99.8" font-family="Times,serif" font-size="14.00" fill="#000000">ServiceInfoComponent</text>
</g>
<!-- ServiceInfoComponent&#45;&gt;AppModule -->
<g id="edge28" class="edge">
<title>ServiceInfoComponent&#45;&gt;AppModule</title>
<path fill="none" stroke="#000000" d="M1327,-122.1061C1327,-141.3391 1327,-169 1327,-169 1327,-169 2844.033,-169 2844.033,-169"/>
<polygon fill="#000000" stroke="#000000" points="2844.0331,-172.5001 2854.033,-169 2844.033,-165.5001 2844.0331,-172.5001"/>
</g>
<!-- ServiceInstancesInfoComponent -->
<g id="node29" class="node">
<title>ServiceInstancesInfoComponent</title>
<polygon fill="#ffffb3" stroke="#000000" points="1235.2156,-122 1036.7844,-122 1036.7844,-86 1235.2156,-86 1235.2156,-122"/>
<text text-anchor="middle" x="1136" y="-99.8" font-family="Times,serif" font-size="14.00" fill="#000000">ServiceInstancesInfoComponent</text>
</g>
<!-- ServiceInstancesInfoComponent&#45;&gt;AppModule -->
<g id="edge29" class="edge">
<title>ServiceInstancesInfoComponent&#45;&gt;AppModule</title>
<path fill="none" stroke="#000000" d="M1136,-122.308C1136,-142.1455 1136,-171 1136,-171 1136,-171 2844.2301,-171 2844.2301,-171"/>
<polygon fill="#000000" stroke="#000000" points="2844.2301,-174.5001 2854.2301,-171 2844.23,-167.5001 2844.2301,-174.5001"/>
</g>
<!-- SidebarComponent -->
<g id="node30" class="node">
<title>SidebarComponent</title>
<polygon fill="#ffffb3" stroke="#000000" points="1019.0954,-122 894.9046,-122 894.9046,-86 1019.0954,-86 1019.0954,-122"/>
<text text-anchor="middle" x="957" y="-99.8" font-family="Times,serif" font-size="14.00" fill="#000000">SidebarComponent</text>
</g>
<!-- SidebarComponent&#45;&gt;AppModule -->
<g id="edge30" class="edge">
<title>SidebarComponent&#45;&gt;AppModule</title>
<path fill="none" stroke="#000000" d="M957,-122.1289C957,-142.5724 957,-173 957,-173 957,-173 2844.1522,-173 2844.1522,-173"/>
<polygon fill="#000000" stroke="#000000" points="2844.1523,-176.5001 2854.1522,-173 2844.1522,-169.5001 2844.1523,-176.5001"/>
</g>
<!-- SortByPipe -->
<g id="node31" class="node">
<title>SortByPipe</title>
<polygon fill="#ffffb3" stroke="#000000" points="877.0594,-122 796.9406,-122 796.9406,-86 877.0594,-86 877.0594,-122"/>
<text text-anchor="middle" x="837" y="-99.8" font-family="Times,serif" font-size="14.00" fill="#000000">SortByPipe</text>
</g>
<!-- SortByPipe&#45;&gt;AppModule -->
<g id="edge31" class="edge">
<title>SortByPipe&#45;&gt;AppModule</title>
<path fill="none" stroke="#000000" d="M837,-122.2843C837,-143.3211 837,-175 837,-175 837,-175 2843.9377,-175 2843.9377,-175"/>
<polygon fill="#000000" stroke="#000000" points="2843.9377,-178.5001 2853.9377,-175 2843.9376,-171.5001 2843.9377,-178.5001"/>
</g>
<!-- TruncatePipe -->
<g id="node32" class="node">
<title>TruncatePipe</title>
<polygon fill="#ffffb3" stroke="#000000" points="778.1361,-122 687.8639,-122 687.8639,-86 778.1361,-86 778.1361,-122"/>
<text text-anchor="middle" x="733" y="-99.8" font-family="Times,serif" font-size="14.00" fill="#000000">TruncatePipe</text>
</g>
<!-- TruncatePipe&#45;&gt;AppModule -->
<g id="edge32" class="edge">
<title>TruncatePipe&#45;&gt;AppModule</title>
<path fill="none" stroke="#000000" d="M733,-122.0449C733,-143.6623 733,-177 733,-177 733,-177 2844.2442,-177 2844.2442,-177"/>
<polygon fill="#000000" stroke="#000000" points="2844.2442,-180.5001 2854.2442,-177 2844.2441,-173.5001 2844.2442,-180.5001"/>
</g>
<!-- UserInfoComponent -->
<g id="node33" class="node">
<title>UserInfoComponent</title>
<polygon fill="#ffffb3" stroke="#000000" points="669.58,-122 538.42,-122 538.42,-86 669.58,-86 669.58,-122"/>
<text text-anchor="middle" x="604" y="-99.8" font-family="Times,serif" font-size="14.00" fill="#000000">UserInfoComponent</text>
</g>
<!-- UserInfoComponent&#45;&gt;AppModule -->
<g id="edge33" class="edge">
<title>UserInfoComponent&#45;&gt;AppModule</title>
<path fill="none" stroke="#000000" d="M604,-122.1554C604,-144.3519 604,-179 604,-179 604,-179 2844.2615,-179 2844.2615,-179"/>
<polygon fill="#000000" stroke="#000000" points="2844.2615,-182.5001 2854.2615,-179 2844.2615,-175.5001 2844.2615,-182.5001"/>
</g>
<!-- LoginComponent  -->
<g id="node35" class="node">
<title>LoginComponent </title>
<polygon fill="#fb8072" stroke="#000000" points="2887.2759,-252 2768.7241,-252 2768.7241,-216 2887.2759,-216 2887.2759,-252"/>
<text text-anchor="middle" x="2828" y="-229.8" font-family="Times,serif" font-size="14.00" fill="#000000">LoginComponent </text>
</g>
<!-- AppModule&#45;&gt;LoginComponent  -->
<g id="edge34" class="edge">
<title>AppModule&#45;&gt;LoginComponent </title>
<path fill="none" stroke="#000000" stroke-dasharray="5,2" d="M2870.6548,-187.1061C2870.6548,-187.1061 2870.6548,-205.991 2870.6548,-205.991"/>
<polygon fill="#000000" stroke="#000000" points="2867.1549,-205.9909 2870.6548,-215.991 2874.1549,-205.991 2867.1549,-205.9909"/>
</g>
<!-- AppComponent  -->
<g id="node36" class="node">
<title>AppComponent </title>
<polygon fill="#80b1d3" stroke="#000000" points="3019.439,-252 2910.561,-252 2910.561,-216 3019.439,-216 3019.439,-252"/>
<text text-anchor="middle" x="2965" y="-229.8" font-family="Times,serif" font-size="14.00" fill="#000000">AppComponent </text>
</g>
<!-- AppModule&#45;&gt;AppComponent  -->
<g id="edge35" class="edge">
<title>AppModule&#45;&gt;AppComponent </title>
<path fill="none" stroke="#000000" stroke-dasharray="1,5" d="M2924.1794,-187.1061C2924.1794,-187.1061 2924.1794,-205.991 2924.1794,-205.991"/>
<polygon fill="#000000" stroke="#000000" points="2920.6794,-205.9909 2924.1794,-215.991 2927.6794,-205.991 2920.6794,-205.9909"/>
</g>
<!-- AuthService -->
<g id="node37" class="node">
<title>AuthService</title>
<ellipse fill="#fdb462" stroke="#000000" cx="455" cy="-104" rx="59.1083" ry="18"/>
<text text-anchor="middle" x="455" y="-99.8" font-family="Times,serif" font-size="14.00" fill="#000000">AuthService</text>
</g>
<!-- AuthService&#45;&gt;AppModule -->
<g id="edge36" class="edge">
<title>AuthService&#45;&gt;AppModule</title>
<path fill="none" stroke="#000000" d="M455,-122.2479C455,-145.0179 455,-181 455,-181 455,-181 2844.1455,-181 2844.1455,-181"/>
<polygon fill="#000000" stroke="#000000" points="2844.1455,-184.5001 2854.1455,-181 2844.1454,-177.5001 2844.1455,-184.5001"/>
</g>
<!-- BackendService -->
<g id="node38" class="node">
<title>BackendService</title>
<ellipse fill="#fdb462" stroke="#000000" cx="304" cy="-104" rx="73.556" ry="18"/>
<text text-anchor="middle" x="304" y="-99.8" font-family="Times,serif" font-size="14.00" fill="#000000">BackendService</text>
</g>
<!-- BackendService&#45;&gt;AppModule -->
<g id="edge37" class="edge">
<title>BackendService&#45;&gt;AppModule</title>
<path fill="none" stroke="#000000" d="M304,-122.3228C304,-145.6602 304,-183 304,-183 304,-183 2844.236,-183 2844.236,-183"/>
<polygon fill="#000000" stroke="#000000" points="2844.2361,-186.5001 2854.236,-183 2844.236,-179.5001 2844.2361,-186.5001"/>
</g>
<!-- UpdateEventsService -->
<g id="node39" class="node">
<title>UpdateEventsService</title>
<ellipse fill="#fdb462" stroke="#000000" cx="118" cy="-104" rx="94.3195" ry="18"/>
<text text-anchor="middle" x="118" y="-99.8" font-family="Times,serif" font-size="14.00" fill="#000000">UpdateEventsService</text>
</g>
<!-- UpdateEventsService&#45;&gt;AppModule -->
<g id="edge38" class="edge">
<title>UpdateEventsService&#45;&gt;AppModule</title>
<path fill="none" stroke="#000000" d="M118,-122.3802C118,-146.2785 118,-185 118,-185 118,-185 2844.3007,-185 2844.3007,-185"/>
<polygon fill="#000000" stroke="#000000" points="2844.3008,-188.5001 2854.3007,-185 2844.3007,-181.5001 2844.3008,-188.5001"/>
</g>
</g>
</svg>
