<?xml version="1.0" encoding="UTF-8" standalone="no"?>
<!DOCTYPE svg PUBLIC "-//W3C//DTD SVG 1.1//EN"
 "http://www.w3.org/Graphics/SVG/1.1/DTD/svg11.dtd">
<!-- Generated by graphviz version 2.40.1 (20161225.0304)
 -->
<!-- Title: dependencies Pages: 1 -->
<svg width="5647pt" height="284pt"
 viewBox="0.00 0.00 5647.00 284.00" xmlns="http://www.w3.org/2000/svg" xmlns:xlink="http://www.w3.org/1999/xlink">
<g id="graph0" class="graph" transform="scale(1 1) rotate(0) translate(4 280)">
<title>dependencies</title>
<polygon fill="#ffffff" stroke="transparent" points="-4,4 -4,-280 5643,-280 5643,4 -4,4"/>
<text text-anchor="start" x="2798.5091" y="-42.4" font-family="sans-serif" font-weight="bold" font-size="14.00" fill="#000000">Legend</text>
<polygon fill="#ffffb3" stroke="transparent" points="2585.5,-10 2585.5,-30 2605.5,-30 2605.5,-10 2585.5,-10"/>
<text text-anchor="start" x="2609.129" y="-15.4" font-family="sans-serif" font-size="14.00" fill="#000000"> &#160;Declarations</text>
<polygon fill="#8dd3c7" stroke="transparent" points="2698.5,-10 2698.5,-30 2718.5,-30 2718.5,-10 2698.5,-10"/>
<text text-anchor="start" x="2722.2251" y="-15.4" font-family="sans-serif" font-size="14.00" fill="#000000"> &#160;Module</text>
<polygon fill="#80b1d3" stroke="transparent" points="2784.5,-10 2784.5,-30 2804.5,-30 2804.5,-10 2784.5,-10"/>
<text text-anchor="start" x="2808.2812" y="-15.4" font-family="sans-serif" font-size="14.00" fill="#000000"> &#160;Bootstrap</text>
<polygon fill="#fdb462" stroke="transparent" points="2881.5,-10 2881.5,-30 2901.5,-30 2901.5,-10 2881.5,-10"/>
<text text-anchor="start" x="2905.1732" y="-15.4" font-family="sans-serif" font-size="14.00" fill="#000000"> &#160;Providers</text>
<polygon fill="#fb8072" stroke="transparent" points="2977.5,-10 2977.5,-30 2997.5,-30 2997.5,-10 2977.5,-10"/>
<text text-anchor="start" x="3001.2258" y="-15.4" font-family="sans-serif" font-size="14.00" fill="#000000"> &#160;Exports</text>
<g id="clust1" class="cluster">
<title>cluster_AppModule</title>
<polygon fill="none" stroke="#000000" stroke-dasharray="1,5" points="8,-70 8,-268 5631,-268 5631,-70 8,-70"/>
</g>
<g id="clust2" class="cluster">
<title>cluster_AppModule_declarations</title>
<polygon fill="none" stroke="#000000" points="530,-78 530,-130 5623,-130 5623,-78 530,-78"/>
</g>
<g id="clust36" class="cluster">
<title>cluster_AppModule_exports</title>
<polygon fill="none" stroke="#000000" points="2666,-208 2666,-260 2800,-260 2800,-208 2666,-208"/>
</g>
<g id="clust37" class="cluster">
<title>cluster_AppModule_bootstrap</title>
<polygon fill="none" stroke="#000000" points="2808,-208 2808,-260 2932,-260 2932,-208 2808,-208"/>
</g>
<g id="clust38" class="cluster">
<title>cluster_AppModule_providers</title>
<polygon fill="none" stroke="#000000" points="16,-78 16,-130 522,-130 522,-78 16,-78"/>
</g>
<!-- AbbreviatePipe -->
<g id="node1" class="node">
<title>AbbreviatePipe</title>
<polygon fill="#ffffb3" stroke="#000000" points="5614.58,-122 5511.42,-122 5511.42,-86 5614.58,-86 5614.58,-122"/>
<text text-anchor="middle" x="5563" y="-99.8" font-family="Times,serif" font-size="14.00" fill="#000000">AbbreviatePipe</text>
</g>
<!-- AppModule -->
<g id="node33" class="node">
<title>AppModule</title>
<polygon fill="#8dd3c7" stroke="#000000" points="2842.6571,-187 2839.6571,-191 2818.6571,-191 2815.6571,-187 2759.3429,-187 2759.3429,-151 2842.6571,-151 2842.6571,-187"/>
<text text-anchor="middle" x="2801" y="-164.8" font-family="Times,serif" font-size="14.00" fill="#000000">AppModule</text>
</g>
<!-- AbbreviatePipe&#45;&gt;AppModule -->
<g id="edge1" class="edge">
<title>AbbreviatePipe&#45;&gt;AppModule</title>
<path fill="none" stroke="#000000" d="M5563,-122.3802C5563,-146.2785 5563,-185 5563,-185 5563,-185 2852.7316,-185 2852.7316,-185"/>
<polygon fill="#000000" stroke="#000000" points="2852.7316,-181.5001 2842.7316,-185 2852.7316,-188.5001 2852.7316,-181.5001"/>
</g>
<!-- AddDevicesGroupComponent -->
<g id="node2" class="node">
<title>AddDevicesGroupComponent</title>
<polygon fill="#ffffb3" stroke="#000000" points="5493.292,-122 5306.708,-122 5306.708,-86 5493.292,-86 5493.292,-122"/>
<text text-anchor="middle" x="5400" y="-99.8" font-family="Times,serif" font-size="14.00" fill="#000000">AddDevicesGroupComponent</text>
</g>
<!-- AddDevicesGroupComponent&#45;&gt;AppModule -->
<g id="edge2" class="edge">
<title>AddDevicesGroupComponent&#45;&gt;AppModule</title>
<path fill="none" stroke="#000000" d="M5400,-122.3228C5400,-145.6602 5400,-183 5400,-183 5400,-183 2852.8768,-183 2852.8768,-183"/>
<polygon fill="#000000" stroke="#000000" points="2852.8768,-179.5001 2842.8768,-183 2852.8767,-186.5001 2852.8768,-179.5001"/>
</g>
<!-- AddLabelComponent -->
<g id="node3" class="node">
<title>AddLabelComponent</title>
<polygon fill="#ffffb3" stroke="#000000" points="5288.8118,-122 5151.1882,-122 5151.1882,-86 5288.8118,-86 5288.8118,-122"/>
<text text-anchor="middle" x="5220" y="-99.8" font-family="Times,serif" font-size="14.00" fill="#000000">AddLabelComponent</text>
</g>
<!-- AddLabelComponent&#45;&gt;AppModule -->
<g id="edge3" class="edge">
<title>AddLabelComponent&#45;&gt;AppModule</title>
<path fill="none" stroke="#000000" d="M5220,-122.2479C5220,-145.0179 5220,-181 5220,-181 5220,-181 2852.7314,-181 2852.7314,-181"/>
<polygon fill="#000000" stroke="#000000" points="2852.7315,-177.5001 2842.7314,-181 2852.7314,-184.5001 2852.7315,-177.5001"/>
</g>
<!-- AddUserComponent -->
<g id="node4" class="node">
<title>AddUserComponent</title>
<polygon fill="#ffffb3" stroke="#000000" points="5132.8655,-122 5001.1345,-122 5001.1345,-86 5132.8655,-86 5132.8655,-122"/>
<text text-anchor="middle" x="5067" y="-99.8" font-family="Times,serif" font-size="14.00" fill="#000000">AddUserComponent</text>
</g>
<!-- AddUserComponent&#45;&gt;AppModule -->
<g id="edge4" class="edge">
<title>AddUserComponent&#45;&gt;AppModule</title>
<path fill="none" stroke="#000000" d="M5067,-122.1554C5067,-144.3519 5067,-179 5067,-179 5067,-179 2852.7554,-179 2852.7554,-179"/>
<polygon fill="#000000" stroke="#000000" points="2852.7555,-175.5001 2842.7554,-179 2852.7554,-182.5001 2852.7555,-175.5001"/>
</g>
<!-- AppComponent -->
<g id="node5" class="node">
<title>AppComponent</title>
<polygon fill="#ffffb3" stroke="#000000" points="4982.9399,-122 4877.0601,-122 4877.0601,-86 4982.9399,-86 4982.9399,-122"/>
<text text-anchor="middle" x="4930" y="-99.8" font-family="Times,serif" font-size="14.00" fill="#000000">AppComponent</text>
</g>
<!-- AppComponent&#45;&gt;AppModule -->
<g id="edge5" class="edge">
<title>AppComponent&#45;&gt;AppModule</title>
<path fill="none" stroke="#000000" d="M4930,-122.0449C4930,-143.6623 4930,-177 4930,-177 4930,-177 2853.049,-177 2853.049,-177"/>
<polygon fill="#000000" stroke="#000000" points="2853.049,-173.5001 2843.049,-177 2853.049,-180.5001 2853.049,-173.5001"/>
</g>
<!-- ApplicationsComponent -->
<g id="node6" class="node">
<title>ApplicationsComponent</title>
<polygon fill="#ffffb3" stroke="#000000" points="4859.3753,-122 4706.6247,-122 4706.6247,-86 4859.3753,-86 4859.3753,-122"/>
<text text-anchor="middle" x="4783" y="-99.8" font-family="Times,serif" font-size="14.00" fill="#000000">ApplicationsComponent</text>
</g>
<!-- ApplicationsComponent&#45;&gt;AppModule -->
<g id="edge6" class="edge">
<title>ApplicationsComponent&#45;&gt;AppModule</title>
<path fill="none" stroke="#000000" d="M4783,-122.2843C4783,-143.3211 4783,-175 4783,-175 4783,-175 2852.8542,-175 2852.8542,-175"/>
<polygon fill="#000000" stroke="#000000" points="2852.8542,-171.5001 2842.8542,-175 2852.8542,-178.5001 2852.8542,-171.5001"/>
</g>
<!-- AutofocusDirective -->
<g id="node7" class="node">
<title>AutofocusDirective</title>
<polygon fill="#ffffb3" stroke="#000000" points="4688.4004,-122 4561.5996,-122 4561.5996,-86 4688.4004,-86 4688.4004,-122"/>
<text text-anchor="middle" x="4625" y="-99.8" font-family="Times,serif" font-size="14.00" fill="#000000">AutofocusDirective</text>
</g>
<!-- AutofocusDirective&#45;&gt;AppModule -->
<g id="edge7" class="edge">
<title>AutofocusDirective&#45;&gt;AppModule</title>
<path fill="none" stroke="#000000" d="M4625,-122.1289C4625,-142.5724 4625,-173 4625,-173 4625,-173 2852.9619,-173 2852.9619,-173"/>
<polygon fill="#000000" stroke="#000000" points="2852.9619,-169.5001 2842.9619,-173 2852.9619,-176.5001 2852.9619,-169.5001"/>
</g>
<!-- ChangePasswordComponent -->
<g id="node8" class="node">
<title>ChangePasswordComponent</title>
<polygon fill="#ffffb3" stroke="#000000" points="4543.752,-122 4366.248,-122 4366.248,-86 4543.752,-86 4543.752,-122"/>
<text text-anchor="middle" x="4455" y="-99.8" font-family="Times,serif" font-size="14.00" fill="#000000">ChangePasswordComponent</text>
</g>
<!-- ChangePasswordComponent&#45;&gt;AppModule -->
<g id="edge8" class="edge">
<title>ChangePasswordComponent&#45;&gt;AppModule</title>
<path fill="none" stroke="#000000" d="M4455,-122.308C4455,-142.1455 4455,-171 4455,-171 4455,-171 2852.7129,-171 2852.7129,-171"/>
<polygon fill="#000000" stroke="#000000" points="2852.7129,-167.5001 2842.7129,-171 2852.7128,-174.5001 2852.7129,-167.5001"/>
</g>
<!-- ClusterComponent -->
<g id="node9" class="node">
<title>ClusterComponent</title>
<polygon fill="#ffffb3" stroke="#000000" points="4347.7702,-122 4226.2298,-122 4226.2298,-86 4347.7702,-86 4347.7702,-122"/>
<text text-anchor="middle" x="4287" y="-99.8" font-family="Times,serif" font-size="14.00" fill="#000000">ClusterComponent</text>
</g>
<!-- ClusterComponent&#45;&gt;AppModule -->
<g id="edge9" class="edge">
<title>ClusterComponent&#45;&gt;AppModule</title>
<path fill="none" stroke="#000000" d="M4287,-122.1061C4287,-141.3391 4287,-169 4287,-169 4287,-169 2852.6864,-169 2852.6864,-169"/>
<polygon fill="#000000" stroke="#000000" points="2852.6864,-165.5001 2842.6864,-169 2852.6864,-172.5001 2852.6864,-165.5001"/>
</g>
<!-- DebugPanelComponent -->
<g id="node10" class="node">
<title>DebugPanelComponent</title>
<polygon fill="#ffffb3" stroke="#000000" points="4207.7562,-122 4058.2438,-122 4058.2438,-86 4207.7562,-86 4207.7562,-122"/>
<text text-anchor="middle" x="4133" y="-99.8" font-family="Times,serif" font-size="14.00" fill="#000000">DebugPanelComponent</text>
</g>
<!-- DebugPanelComponent&#45;&gt;AppModule -->
<g id="edge10" class="edge">
<title>DebugPanelComponent&#45;&gt;AppModule</title>
<path fill="none" stroke="#000000" d="M4133,-122.2222C4133,-140.8285 4133,-167 4133,-167 4133,-167 2852.6937,-167 2852.6937,-167"/>
<polygon fill="#000000" stroke="#000000" points="2852.6937,-163.5001 2842.6937,-167 2852.6936,-170.5001 2852.6937,-163.5001"/>
</g>
<!-- DeployInstanceComponent -->
<g id="node11" class="node">
<title>DeployInstanceComponent</title>
<polygon fill="#ffffb3" stroke="#000000" points="4040.6839,-122 3871.3161,-122 3871.3161,-86 4040.6839,-86 4040.6839,-122"/>
<text text-anchor="middle" x="3956" y="-99.8" font-family="Times,serif" font-size="14.00" fill="#000000">DeployInstanceComponent</text>
</g>
<!-- DeployInstanceComponent&#45;&gt;AppModule -->
<g id="edge11" class="edge">
<title>DeployInstanceComponent&#45;&gt;AppModule</title>
<path fill="none" stroke="#000000" d="M3956,-122.302C3956,-140.2699 3956,-165 3956,-165 3956,-165 2852.7894,-165 2852.7894,-165"/>
<polygon fill="#000000" stroke="#000000" points="2852.7894,-161.5001 2842.7894,-165 2852.7894,-168.5001 2852.7894,-161.5001"/>
</g>
<!-- DeviceGroupCreatedComponent -->
<g id="node12" class="node">
<title>DeviceGroupCreatedComponent</title>
<polygon fill="#ffffb3" stroke="#000000" points="3853.2724,-122 3652.7276,-122 3652.7276,-86 3853.2724,-86 3853.2724,-122"/>
<text text-anchor="middle" x="3753" y="-99.8" font-family="Times,serif" font-size="14.00" fill="#000000">DeviceGroupCreatedComponent</text>
</g>
<!-- DeviceGroupCreatedComponent&#45;&gt;AppModule -->
<g id="edge12" class="edge">
<title>DeviceGroupCreatedComponent&#45;&gt;AppModule</title>
<path fill="none" stroke="#000000" d="M3753,-122.0225C3753,-139.3734 3753,-163 3753,-163 3753,-163 2852.826,-163 2852.826,-163"/>
<polygon fill="#000000" stroke="#000000" points="2852.826,-159.5001 2842.826,-163 2852.826,-166.5001 2852.826,-159.5001"/>
</g>
<!-- DevicesComponent -->
<g id="node13" class="node">
<title>DevicesComponent</title>
<polygon fill="#ffffb3" stroke="#000000" points="3635.4187,-122 3508.5813,-122 3508.5813,-86 3635.4187,-86 3635.4187,-122"/>
<text text-anchor="middle" x="3572" y="-99.8" font-family="Times,serif" font-size="14.00" fill="#000000">DevicesComponent</text>
</g>
<!-- DevicesComponent&#45;&gt;AppModule -->
<g id="edge13" class="edge">
<title>DevicesComponent&#45;&gt;AppModule</title>
<path fill="none" stroke="#000000" d="M3572,-122.0352C3572,-138.7344 3572,-161 3572,-161 3572,-161 2852.7257,-161 2852.7257,-161"/>
<polygon fill="#000000" stroke="#000000" points="2852.7257,-157.5001 2842.7257,-161 2852.7256,-164.5001 2852.7257,-157.5001"/>
</g>
<!-- EditClusterComponent -->
<g id="node14" class="node">
<title>EditClusterComponent</title>
<polygon fill="#ffffb3" stroke="#000000" points="3490.6038,-122 3345.3962,-122 3345.3962,-86 3490.6038,-86 3490.6038,-122"/>
<text text-anchor="middle" x="3418" y="-99.8" font-family="Times,serif" font-size="14.00" fill="#000000">EditClusterComponent</text>
</g>
<!-- EditClusterComponent&#45;&gt;AppModule -->
<g id="edge14" class="edge">
<title>EditClusterComponent&#45;&gt;AppModule</title>
<path fill="none" stroke="#000000" d="M3418,-122.0091C3418,-138.0494 3418,-159 3418,-159 3418,-159 2852.9238,-159 2852.9238,-159"/>
<polygon fill="#000000" stroke="#000000" points="2852.9239,-155.5001 2842.9238,-159 2852.9238,-162.5001 2852.9239,-155.5001"/>
</g>
<!-- EditUserComponent -->
<g id="node15" class="node">
<title>EditUserComponent</title>
<polygon fill="#ffffb3" stroke="#000000" points="3327.5926,-122 3196.4074,-122 3196.4074,-86 3327.5926,-86 3327.5926,-122"/>
<text text-anchor="middle" x="3262" y="-99.8" font-family="Times,serif" font-size="14.00" fill="#000000">EditUserComponent</text>
</g>
<!-- EditUserComponent&#45;&gt;AppModule -->
<g id="edge15" class="edge">
<title>EditUserComponent&#45;&gt;AppModule</title>
<path fill="none" stroke="#000000" d="M3262,-122.2396C3262,-137.5706 3262,-157 3262,-157 3262,-157 2852.7237,-157 2852.7237,-157"/>
<polygon fill="#000000" stroke="#000000" points="2852.7238,-153.5001 2842.7237,-157 2852.7237,-160.5001 2852.7238,-153.5001"/>
</g>
<!-- FilterPipe -->
<g id="node16" class="node">
<title>FilterPipe</title>
<polygon fill="#ffffb3" stroke="#000000" points="3178.7177,-122 3107.2823,-122 3107.2823,-86 3178.7177,-86 3178.7177,-122"/>
<text text-anchor="middle" x="3143" y="-99.8" font-family="Times,serif" font-size="14.00" fill="#000000">FilterPipe</text>
</g>
<!-- FilterPipe&#45;&gt;AppModule -->
<g id="edge16" class="edge">
<title>FilterPipe&#45;&gt;AppModule</title>
<path fill="none" stroke="#000000" d="M3143,-122.1243C3143,-136.7832 3143,-155 3143,-155 3143,-155 2852.9359,-155 2852.9359,-155"/>
<polygon fill="#000000" stroke="#000000" points="2852.9359,-151.5001 2842.9359,-155 2852.9359,-158.5001 2852.9359,-151.5001"/>
</g>
<!-- GroupConfigurationComponent -->
<g id="node17" class="node">
<title>GroupConfigurationComponent</title>
<polygon fill="#ffffb3" stroke="#000000" points="3089.6441,-122 2894.3559,-122 2894.3559,-86 3089.6441,-86 3089.6441,-122"/>
<text text-anchor="middle" x="2992" y="-99.8" font-family="Times,serif" font-size="14.00" fill="#000000">GroupConfigurationComponent</text>
</g>
<!-- GroupConfigurationComponent&#45;&gt;AppModule -->
<g id="edge17" class="edge">
<title>GroupConfigurationComponent&#45;&gt;AppModule</title>
<path fill="none" stroke="#000000" d="M2909.3238,-122.2458C2909.3238,-136.1772 2909.3238,-153 2909.3238,-153 2909.3238,-153 2852.8808,-153 2852.8808,-153"/>
<polygon fill="#000000" stroke="#000000" points="2852.8808,-149.5001 2842.8808,-153 2852.8808,-156.5001 2852.8808,-149.5001"/>
</g>
<!-- InstanceInfoComponent -->
<g id="node18" class="node">
<title>InstanceInfoComponent</title>
<polygon fill="#ffffb3" stroke="#000000" points="2876.7935,-122 2725.2065,-122 2725.2065,-86 2876.7935,-86 2876.7935,-122"/>
<text text-anchor="middle" x="2801" y="-99.8" font-family="Times,serif" font-size="14.00" fill="#000000">InstanceInfoComponent</text>
</g>
<!-- InstanceInfoComponent&#45;&gt;AppModule -->
<g id="edge18" class="edge">
<title>InstanceInfoComponent&#45;&gt;AppModule</title>
<path fill="none" stroke="#000000" d="M2801,-122.1061C2801,-122.1061 2801,-140.991 2801,-140.991"/>
<polygon fill="#000000" stroke="#000000" points="2797.5001,-140.9909 2801,-150.991 2804.5001,-140.991 2797.5001,-140.9909"/>
</g>
<!-- LoginComponent -->
<g id="node19" class="node">
<title>LoginComponent</title>
<polygon fill="#ffffb3" stroke="#000000" points="2707.2758,-122 2592.7242,-122 2592.7242,-86 2707.2758,-86 2707.2758,-122"/>
<text text-anchor="middle" x="2650" y="-99.8" font-family="Times,serif" font-size="14.00" fill="#000000">LoginComponent</text>
</g>
<!-- LoginComponent&#45;&gt;AppModule -->
<g id="edge19" class="edge">
<title>LoginComponent&#45;&gt;AppModule</title>
<path fill="none" stroke="#000000" d="M2690.625,-122.2458C2690.625,-136.1772 2690.625,-153 2690.625,-153 2690.625,-153 2749.2719,-153 2749.2719,-153"/>
<polygon fill="#000000" stroke="#000000" points="2749.272,-156.5001 2759.2719,-153 2749.2719,-149.5001 2749.272,-156.5001"/>
</g>
<!-- MainComponent -->
<g id="node20" class="node">
<title>MainComponent</title>
<polygon fill="#ffffb3" stroke="#000000" points="2574.3823,-122 2463.6177,-122 2463.6177,-86 2574.3823,-86 2574.3823,-122"/>
<text text-anchor="middle" x="2519" y="-99.8" font-family="Times,serif" font-size="14.00" fill="#000000">MainComponent</text>
</g>
<!-- MainComponent&#45;&gt;AppModule -->
<g id="edge20" class="edge">
<title>MainComponent&#45;&gt;AppModule</title>
<path fill="none" stroke="#000000" d="M2519,-122.1243C2519,-136.7832 2519,-155 2519,-155 2519,-155 2749.0863,-155 2749.0863,-155"/>
<polygon fill="#000000" stroke="#000000" points="2749.0863,-158.5001 2759.0863,-155 2749.0862,-151.5001 2749.0863,-158.5001"/>
</g>
<!-- NotificationsComponent -->
<g id="node21" class="node">
<title>NotificationsComponent</title>
<polygon fill="#ffffb3" stroke="#000000" points="2445.427,-122 2290.573,-122 2290.573,-86 2445.427,-86 2445.427,-122"/>
<text text-anchor="middle" x="2368" y="-99.8" font-family="Times,serif" font-size="14.00" fill="#000000">NotificationsComponent</text>
</g>
<!-- NotificationsComponent&#45;&gt;AppModule -->
<g id="edge21" class="edge">
<title>NotificationsComponent&#45;&gt;AppModule</title>
<path fill="none" stroke="#000000" d="M2368,-122.2396C2368,-137.5706 2368,-157 2368,-157 2368,-157 2749.0887,-157 2749.0887,-157"/>
<polygon fill="#000000" stroke="#000000" points="2749.0887,-160.5001 2759.0887,-157 2749.0887,-153.5001 2749.0887,-160.5001"/>
</g>
<!-- OrganizationComponent -->
<g id="node22" class="node">
<title>OrganizationComponent</title>
<polygon fill="#ffffb3" stroke="#000000" points="2273.4158,-122 2118.5842,-122 2118.5842,-86 2273.4158,-86 2273.4158,-122"/>
<text text-anchor="middle" x="2196" y="-99.8" font-family="Times,serif" font-size="14.00" fill="#000000">OrganizationComponent</text>
</g>
<!-- OrganizationComponent&#45;&gt;AppModule -->
<g id="edge22" class="edge">
<title>OrganizationComponent&#45;&gt;AppModule</title>
<path fill="none" stroke="#000000" d="M2196,-122.0091C2196,-138.0494 2196,-159 2196,-159 2196,-159 2748.9379,-159 2748.9379,-159"/>
<polygon fill="#000000" stroke="#000000" points="2748.9379,-162.5001 2758.9379,-159 2748.9379,-155.5001 2748.9379,-162.5001"/>
</g>
<!-- RegisterApplicationComponent -->
<g id="node23" class="node">
<title>RegisterApplicationComponent</title>
<polygon fill="#ffffb3" stroke="#000000" points="2101.0828,-122 1906.9172,-122 1906.9172,-86 2101.0828,-86 2101.0828,-122"/>
<text text-anchor="middle" x="2004" y="-99.8" font-family="Times,serif" font-size="14.00" fill="#000000">RegisterApplicationComponent</text>
</g>
<!-- RegisterApplicationComponent&#45;&gt;AppModule -->
<g id="edge23" class="edge">
<title>RegisterApplicationComponent&#45;&gt;AppModule</title>
<path fill="none" stroke="#000000" d="M2004,-122.0352C2004,-138.7344 2004,-161 2004,-161 2004,-161 2749.272,-161 2749.272,-161"/>
<polygon fill="#000000" stroke="#000000" points="2749.272,-164.5001 2759.272,-161 2749.2719,-157.5001 2749.272,-164.5001"/>
</g>
<!-- RegisteredInfoComponent -->
<g id="node24" class="node">
<title>RegisteredInfoComponent</title>
<polygon fill="#ffffb3" stroke="#000000" points="1889.0211,-122 1724.9789,-122 1724.9789,-86 1889.0211,-86 1889.0211,-122"/>
<text text-anchor="middle" x="1807" y="-99.8" font-family="Times,serif" font-size="14.00" fill="#000000">RegisteredInfoComponent</text>
</g>
<!-- RegisteredInfoComponent&#45;&gt;AppModule -->
<g id="edge24" class="edge">
<title>RegisteredInfoComponent&#45;&gt;AppModule</title>
<path fill="none" stroke="#000000" d="M1807,-122.0225C1807,-139.3734 1807,-163 1807,-163 1807,-163 2749.2398,-163 2749.2398,-163"/>
<polygon fill="#000000" stroke="#000000" points="2749.2398,-166.5001 2759.2398,-163 2749.2398,-159.5001 2749.2398,-166.5001"/>
</g>
<!-- ResourcesComponent -->
<g id="node25" class="node">
<title>ResourcesComponent</title>
<polygon fill="#ffffb3" stroke="#000000" points="1706.3627,-122 1567.6373,-122 1567.6373,-86 1706.3627,-86 1706.3627,-122"/>
<text text-anchor="middle" x="1637" y="-99.8" font-family="Times,serif" font-size="14.00" fill="#000000">ResourcesComponent</text>
</g>
<!-- ResourcesComponent&#45;&gt;AppModule -->
<g id="edge25" class="edge">
<title>ResourcesComponent&#45;&gt;AppModule</title>
<path fill="none" stroke="#000000" d="M1637,-122.302C1637,-140.2699 1637,-165 1637,-165 1637,-165 2749.2294,-165 2749.2294,-165"/>
<polygon fill="#000000" stroke="#000000" points="2749.2295,-168.5001 2759.2294,-165 2749.2294,-161.5001 2749.2295,-168.5001"/>
</g>
<!-- RuleInfoComponent -->
<g id="node26" class="node">
<title>RuleInfoComponent</title>
<polygon fill="#ffffb3" stroke="#000000" points="1549.5954,-122 1418.4046,-122 1418.4046,-86 1549.5954,-86 1549.5954,-122"/>
<text text-anchor="middle" x="1484" y="-99.8" font-family="Times,serif" font-size="14.00" fill="#000000">RuleInfoComponent</text>
</g>
<!-- RuleInfoComponent&#45;&gt;AppModule -->
<g id="edge26" class="edge">
<title>RuleInfoComponent&#45;&gt;AppModule</title>
<path fill="none" stroke="#000000" d="M1484,-122.2222C1484,-140.8285 1484,-167 1484,-167 1484,-167 2749.0419,-167 2749.0419,-167"/>
<polygon fill="#000000" stroke="#000000" points="2749.0419,-170.5001 2759.0419,-167 2749.0419,-163.5001 2749.0419,-170.5001"/>
</g>
<!-- ServiceInfoComponent -->
<g id="node27" class="node">
<title>ServiceInfoComponent</title>
<polygon fill="#ffffb3" stroke="#000000" points="1400.1317,-122 1253.8683,-122 1253.8683,-86 1400.1317,-86 1400.1317,-122"/>
<text text-anchor="middle" x="1327" y="-99.8" font-family="Times,serif" font-size="14.00" fill="#000000">ServiceInfoComponent</text>
</g>
<!-- ServiceInfoComponent&#45;&gt;AppModule -->
<g id="edge27" class="edge">
<title>ServiceInfoComponent&#45;&gt;AppModule</title>
<path fill="none" stroke="#000000" d="M1327,-122.1061C1327,-141.3391 1327,-169 1327,-169 1327,-169 2749.2604,-169 2749.2604,-169"/>
<polygon fill="#000000" stroke="#000000" points="2749.2604,-172.5001 2759.2604,-169 2749.2604,-165.5001 2749.2604,-172.5001"/>
</g>
<!-- ServiceInstancesInfoComponent -->
<g id="node28" class="node">
<title>ServiceInstancesInfoComponent</title>
<polygon fill="#ffffb3" stroke="#000000" points="1235.2156,-122 1036.7844,-122 1036.7844,-86 1235.2156,-86 1235.2156,-122"/>
<text text-anchor="middle" x="1136" y="-99.8" font-family="Times,serif" font-size="14.00" fill="#000000">ServiceInstancesInfoComponent</text>
</g>
<!-- ServiceInstancesInfoComponent&#45;&gt;AppModule -->
<g id="edge28" class="edge">
<title>ServiceInstancesInfoComponent&#45;&gt;AppModule</title>
<path fill="none" stroke="#000000" d="M1136,-122.308C1136,-142.1455 1136,-171 1136,-171 1136,-171 2749.0097,-171 2749.0097,-171"/>
<polygon fill="#000000" stroke="#000000" points="2749.0098,-174.5001 2759.0097,-171 2749.0097,-167.5001 2749.0098,-174.5001"/>
</g>
<!-- SidebarComponent -->
<g id="node29" class="node">
<title>SidebarComponent</title>
<polygon fill="#ffffb3" stroke="#000000" points="1019.0954,-122 894.9046,-122 894.9046,-86 1019.0954,-86 1019.0954,-122"/>
<text text-anchor="middle" x="957" y="-99.8" font-family="Times,serif" font-size="14.00" fill="#000000">SidebarComponent</text>
</g>
<!-- SidebarComponent&#45;&gt;AppModule -->
<g id="edge29" class="edge">
<title>SidebarComponent&#45;&gt;AppModule</title>
<path fill="none" stroke="#000000" d="M957,-122.1289C957,-142.5724 957,-173 957,-173 957,-173 2749.0208,-173 2749.0208,-173"/>
<polygon fill="#000000" stroke="#000000" points="2749.0209,-176.5001 2759.0208,-173 2749.0208,-169.5001 2749.0209,-176.5001"/>
</g>
<!-- SortByPipe -->
<g id="node30" class="node">
<title>SortByPipe</title>
<polygon fill="#ffffb3" stroke="#000000" points="877.0594,-122 796.9406,-122 796.9406,-86 877.0594,-86 877.0594,-122"/>
<text text-anchor="middle" x="837" y="-99.8" font-family="Times,serif" font-size="14.00" fill="#000000">SortByPipe</text>
</g>
<!-- SortByPipe&#45;&gt;AppModule -->
<g id="edge30" class="edge">
<title>SortByPipe&#45;&gt;AppModule</title>
<path fill="none" stroke="#000000" d="M837,-122.2843C837,-143.3211 837,-175 837,-175 837,-175 2749.0705,-175 2749.0705,-175"/>
<polygon fill="#000000" stroke="#000000" points="2749.0705,-178.5001 2759.0705,-175 2749.0704,-171.5001 2749.0705,-178.5001"/>
</g>
<!-- TruncatePipe -->
<g id="node31" class="node">
<title>TruncatePipe</title>
<polygon fill="#ffffb3" stroke="#000000" points="778.1361,-122 687.8639,-122 687.8639,-86 778.1361,-86 778.1361,-122"/>
<text text-anchor="middle" x="733" y="-99.8" font-family="Times,serif" font-size="14.00" fill="#000000">TruncatePipe</text>
</g>
<!-- TruncatePipe&#45;&gt;AppModule -->
<g id="edge31" class="edge">
<title>TruncatePipe&#45;&gt;AppModule</title>
<path fill="none" stroke="#000000" d="M733,-122.0449C733,-143.6623 733,-177 733,-177 733,-177 2749.2236,-177 2749.2236,-177"/>
<polygon fill="#000000" stroke="#000000" points="2749.2236,-180.5001 2759.2236,-177 2749.2236,-173.5001 2749.2236,-180.5001"/>
</g>
<!-- UserInfoComponent -->
<g id="node32" class="node">
<title>UserInfoComponent</title>
<polygon fill="#ffffb3" stroke="#000000" points="669.58,-122 538.42,-122 538.42,-86 669.58,-86 669.58,-122"/>
<text text-anchor="middle" x="604" y="-99.8" font-family="Times,serif" font-size="14.00" fill="#000000">UserInfoComponent</text>
</g>
<!-- UserInfoComponent&#45;&gt;AppModule -->
<g id="edge32" class="edge">
<title>UserInfoComponent&#45;&gt;AppModule</title>
<path fill="none" stroke="#000000" d="M604,-122.1554C604,-144.3519 604,-179 604,-179 604,-179 2749.0738,-179 2749.0738,-179"/>
<polygon fill="#000000" stroke="#000000" points="2749.0738,-182.5001 2759.0738,-179 2749.0738,-175.5001 2749.0738,-182.5001"/>
</g>
<!-- LoginComponent  -->
<g id="node34" class="node">
<title>LoginComponent </title>
<polygon fill="#fb8072" stroke="#000000" points="2792.2759,-252 2673.7241,-252 2673.7241,-216 2792.2759,-216 2792.2759,-252"/>
<text text-anchor="middle" x="2733" y="-229.8" font-family="Times,serif" font-size="14.00" fill="#000000">LoginComponent </text>
</g>
<!-- AppModule&#45;&gt;LoginComponent  -->
<g id="edge33" class="edge">
<title>AppModule&#45;&gt;LoginComponent </title>
<path fill="none" stroke="#000000" stroke-dasharray="5,2" d="M2775.6548,-187.1061C2775.6548,-187.1061 2775.6548,-205.991 2775.6548,-205.991"/>
<polygon fill="#000000" stroke="#000000" points="2772.1549,-205.9909 2775.6548,-215.991 2779.1549,-205.991 2772.1549,-205.9909"/>
</g>
<!-- AppComponent  -->
<g id="node35" class="node">
<title>AppComponent </title>
<polygon fill="#80b1d3" stroke="#000000" points="2924.439,-252 2815.561,-252 2815.561,-216 2924.439,-216 2924.439,-252"/>
<text text-anchor="middle" x="2870" y="-229.8" font-family="Times,serif" font-size="14.00" fill="#000000">AppComponent </text>
</g>
<!-- AppModule&#45;&gt;AppComponent  -->
<g id="edge34" class="edge">
<title>AppModule&#45;&gt;AppComponent </title>
<path fill="none" stroke="#000000" stroke-dasharray="1,5" d="M2829.1794,-187.1061C2829.1794,-187.1061 2829.1794,-205.991 2829.1794,-205.991"/>
<polygon fill="#000000" stroke="#000000" points="2825.6794,-205.9909 2829.1794,-215.991 2832.6794,-205.991 2825.6794,-205.9909"/>
</g>
<!-- AuthService -->
<g id="node36" class="node">
<title>AuthService</title>
<ellipse fill="#fdb462" stroke="#000000" cx="455" cy="-104" rx="59.1083" ry="18"/>
<text text-anchor="middle" x="455" y="-99.8" font-family="Times,serif" font-size="14.00" fill="#000000">AuthService</text>
</g>
<!-- AuthService&#45;&gt;AppModule -->
<g id="edge35" class="edge">
<title>AuthService&#45;&gt;AppModule</title>
<path fill="none" stroke="#000000" d="M455,-122.2479C455,-145.0179 455,-181 455,-181 455,-181 2749.2851,-181 2749.2851,-181"/>
<polygon fill="#000000" stroke="#000000" points="2749.2851,-184.5001 2759.2851,-181 2749.2851,-177.5001 2749.2851,-184.5001"/>
</g>
<!-- BackendService -->
<g id="node37" class="node">
<title>BackendService</title>
<ellipse fill="#fdb462" stroke="#000000" cx="304" cy="-104" rx="73.556" ry="18"/>
<text text-anchor="middle" x="304" y="-99.8" font-family="Times,serif" font-size="14.00" fill="#000000">BackendService</text>
</g>
<!-- BackendService&#45;&gt;AppModule -->
<g id="edge36" class="edge">
<title>BackendService&#45;&gt;AppModule</title>
<path fill="none" stroke="#000000" d="M304,-122.3228C304,-145.6602 304,-183 304,-183 304,-183 2749.2269,-183 2749.2269,-183"/>
<polygon fill="#000000" stroke="#000000" points="2749.227,-186.5001 2759.2269,-183 2749.2269,-179.5001 2749.227,-186.5001"/>
</g>
<!-- UpdateEventsService -->
<g id="node38" class="node">
<title>UpdateEventsService</title>
<ellipse fill="#fdb462" stroke="#000000" cx="118" cy="-104" rx="94.3195" ry="18"/>
<text text-anchor="middle" x="118" y="-99.8" font-family="Times,serif" font-size="14.00" fill="#000000">UpdateEventsService</text>
</g>
<!-- UpdateEventsService&#45;&gt;AppModule -->
<g id="edge37" class="edge">
<title>UpdateEventsService&#45;&gt;AppModule</title>
<path fill="none" stroke="#000000" d="M118,-122.3802C118,-146.2785 118,-185 118,-185 118,-185 2749.1261,-185 2749.1261,-185"/>
<polygon fill="#000000" stroke="#000000" points="2749.1261,-188.5001 2759.1261,-185 2749.1261,-181.5001 2749.1261,-188.5001"/>
</g>
</g>
</svg>
