<?xml version="1.0" encoding="UTF-8" standalone="no"?>
<!DOCTYPE svg PUBLIC "-//W3C//DTD SVG 1.1//EN"
 "http://www.w3.org/Graphics/SVG/1.1/DTD/svg11.dtd">
<!-- Generated by graphviz version 2.40.1 (20161225.0304)
 -->
<!-- Title: dependencies Pages: 1 -->
<svg width="2465pt" height="284pt"
 viewBox="0.00 0.00 2465.00 284.00" xmlns="http://www.w3.org/2000/svg" xmlns:xlink="http://www.w3.org/1999/xlink">
<g id="graph0" class="graph" transform="scale(1 1) rotate(0) translate(4 280)">
<title>dependencies</title>
<polygon fill="#ffffff" stroke="transparent" points="-4,4 -4,-280 2461,-280 2461,4 -4,4"/>
<text text-anchor="start" x="1207.5091" y="-42.4" font-family="sans-serif" font-weight="bold" font-size="14.00" fill="#000000">Legend</text>
<polygon fill="#ffffb3" stroke="transparent" points="994.5,-10 994.5,-30 1014.5,-30 1014.5,-10 994.5,-10"/>
<text text-anchor="start" x="1018.129" y="-15.4" font-family="sans-serif" font-size="14.00" fill="#000000"> &#160;Declarations</text>
<polygon fill="#8dd3c7" stroke="transparent" points="1107.5,-10 1107.5,-30 1127.5,-30 1127.5,-10 1107.5,-10"/>
<text text-anchor="start" x="1131.2251" y="-15.4" font-family="sans-serif" font-size="14.00" fill="#000000"> &#160;Module</text>
<polygon fill="#80b1d3" stroke="transparent" points="1193.5,-10 1193.5,-30 1213.5,-30 1213.5,-10 1193.5,-10"/>
<text text-anchor="start" x="1217.2812" y="-15.4" font-family="sans-serif" font-size="14.00" fill="#000000"> &#160;Bootstrap</text>
<polygon fill="#fdb462" stroke="transparent" points="1290.5,-10 1290.5,-30 1310.5,-30 1310.5,-10 1290.5,-10"/>
<text text-anchor="start" x="1314.1732" y="-15.4" font-family="sans-serif" font-size="14.00" fill="#000000"> &#160;Providers</text>
<polygon fill="#fb8072" stroke="transparent" points="1386.5,-10 1386.5,-30 1406.5,-30 1406.5,-10 1386.5,-10"/>
<text text-anchor="start" x="1410.2258" y="-15.4" font-family="sans-serif" font-size="14.00" fill="#000000"> &#160;Exports</text>
<g id="clust1" class="cluster">
<title>cluster_AppModule</title>
<polygon fill="none" stroke="#000000" stroke-dasharray="1,5" points="8,-70 8,-268 2449,-268 2449,-70 8,-70"/>
</g>
<g id="clust2" class="cluster">
<title>cluster_AppModule_declarations</title>
<polygon fill="none" stroke="#000000" points="324,-78 324,-130 2441,-130 2441,-78 324,-78"/>
</g>
<g id="clust18" class="cluster">
<title>cluster_AppModule_exports</title>
<polygon fill="none" stroke="#000000" points="1111,-208 1111,-260 1245,-260 1245,-208 1111,-208"/>
</g>
<g id="clust19" class="cluster">
<title>cluster_AppModule_bootstrap</title>
<polygon fill="none" stroke="#000000" points="1253,-208 1253,-260 1377,-260 1377,-208 1253,-208"/>
</g>
<g id="clust20" class="cluster">
<title>cluster_AppModule_providers</title>
<polygon fill="none" stroke="#000000" points="16,-78 16,-130 316,-130 316,-78 16,-78"/>
</g>
<!-- AddUserComponent -->
<g id="node1" class="node">
<title>AddUserComponent</title>
<polygon fill="#ffffb3" stroke="#000000" points="2432.8655,-122 2301.1345,-122 2301.1345,-86 2432.8655,-86 2432.8655,-122"/>
<text text-anchor="middle" x="2367" y="-99.8" font-family="Times,serif" font-size="14.00" fill="#000000">AddUserComponent</text>
</g>
<!-- AppModule -->
<g id="node15" class="node">
<title>AppModule</title>
<polygon fill="#8dd3c7" stroke="#000000" points="1287.6571,-187 1284.6571,-191 1263.6571,-191 1260.6571,-187 1204.3429,-187 1204.3429,-151 1287.6571,-151 1287.6571,-187"/>
<text text-anchor="middle" x="1246" y="-164.8" font-family="Times,serif" font-size="14.00" fill="#000000">AppModule</text>
</g>
<!-- AddUserComponent&#45;&gt;AppModule -->
<g id="edge1" class="edge">
<title>AddUserComponent&#45;&gt;AppModule</title>
<path fill="none" stroke="#000000" d="M2367,-122.3228C2367,-145.6602 2367,-183 2367,-183 2367,-183 1297.8986,-183 1297.8986,-183"/>
<polygon fill="#000000" stroke="#000000" points="1297.8986,-179.5001 1287.8986,-183 1297.8986,-186.5001 1297.8986,-179.5001"/>
</g>
<!-- AppComponent -->
<g id="node2" class="node">
<title>AppComponent</title>
<polygon fill="#ffffb3" stroke="#000000" points="2282.9399,-122 2177.0601,-122 2177.0601,-86 2282.9399,-86 2282.9399,-122"/>
<text text-anchor="middle" x="2230" y="-99.8" font-family="Times,serif" font-size="14.00" fill="#000000">AppComponent</text>
</g>
<!-- AppComponent&#45;&gt;AppModule -->
<g id="edge2" class="edge">
<title>AppComponent&#45;&gt;AppModule</title>
<path fill="none" stroke="#000000" d="M2230,-122.2921C2230,-144.2057 2230,-178 2230,-178 2230,-178 1297.9665,-178 1297.9665,-178"/>
<polygon fill="#000000" stroke="#000000" points="1297.9665,-174.5001 1287.9665,-178 1297.9664,-181.5001 1297.9665,-174.5001"/>
</g>
<!-- ApplicationsComponent -->
<g id="node3" class="node">
<title>ApplicationsComponent</title>
<polygon fill="#ffffb3" stroke="#000000" points="2159.3753,-122 2006.6247,-122 2006.6247,-86 2159.3753,-86 2159.3753,-122"/>
<text text-anchor="middle" x="2083" y="-99.8" font-family="Times,serif" font-size="14.00" fill="#000000">ApplicationsComponent</text>
</g>
<!-- ApplicationsComponent&#45;&gt;AppModule -->
<g id="edge3" class="edge">
<title>ApplicationsComponent&#45;&gt;AppModule</title>
<path fill="none" stroke="#000000" d="M2083,-122.0267C2083,-142.7672 2083,-174 2083,-174 2083,-174 1297.7933,-174 1297.7933,-174"/>
<polygon fill="#000000" stroke="#000000" points="1297.7934,-170.5001 1287.7933,-174 1297.7933,-177.5001 1297.7934,-170.5001"/>
</g>
<!-- ClusterComponent -->
<g id="node4" class="node">
<title>ClusterComponent</title>
<polygon fill="#ffffb3" stroke="#000000" points="1988.7702,-122 1867.2298,-122 1867.2298,-86 1988.7702,-86 1988.7702,-122"/>
<text text-anchor="middle" x="1928" y="-99.8" font-family="Times,serif" font-size="14.00" fill="#000000">ClusterComponent</text>
</g>
<!-- ClusterComponent&#45;&gt;AppModule -->
<g id="edge4" class="edge">
<title>ClusterComponent&#45;&gt;AppModule</title>
<path fill="none" stroke="#000000" d="M1928,-122.1061C1928,-141.3391 1928,-169 1928,-169 1928,-169 1297.8912,-169 1297.8912,-169"/>
<polygon fill="#000000" stroke="#000000" points="1297.8912,-165.5001 1287.8912,-169 1297.8911,-172.5001 1297.8912,-165.5001"/>
</g>
<!-- DebugPanelComponent -->
<g id="node5" class="node">
<title>DebugPanelComponent</title>
<polygon fill="#ffffb3" stroke="#000000" points="1848.7562,-122 1699.2438,-122 1699.2438,-86 1848.7562,-86 1848.7562,-122"/>
<text text-anchor="middle" x="1774" y="-99.8" font-family="Times,serif" font-size="14.00" fill="#000000">DebugPanelComponent</text>
</g>
<!-- DebugPanelComponent&#45;&gt;AppModule -->
<g id="edge5" class="edge">
<title>DebugPanelComponent&#45;&gt;AppModule</title>
<path fill="none" stroke="#000000" d="M1774,-122.302C1774,-140.2699 1774,-165 1774,-165 1774,-165 1297.8726,-165 1297.8726,-165"/>
<polygon fill="#000000" stroke="#000000" points="1297.8726,-161.5001 1287.8726,-165 1297.8726,-168.5001 1297.8726,-161.5001"/>
</g>
<!-- EditClusterComponent -->
<g id="node6" class="node">
<title>EditClusterComponent</title>
<polygon fill="#ffffb3" stroke="#000000" points="1681.6038,-122 1536.3962,-122 1536.3962,-86 1681.6038,-86 1681.6038,-122"/>
<text text-anchor="middle" x="1609" y="-99.8" font-family="Times,serif" font-size="14.00" fill="#000000">EditClusterComponent</text>
</g>
<!-- EditClusterComponent&#45;&gt;AppModule -->
<g id="edge6" class="edge">
<title>EditClusterComponent&#45;&gt;AppModule</title>
<path fill="none" stroke="#000000" d="M1609,-122.027C1609,-138.3976 1609,-160 1609,-160 1609,-160 1297.9953,-160 1297.9953,-160"/>
<polygon fill="#000000" stroke="#000000" points="1297.9954,-156.5001 1287.9953,-160 1297.9953,-163.5001 1297.9954,-156.5001"/>
</g>
<!-- EditUserComponent -->
<g id="node7" class="node">
<title>EditUserComponent</title>
<polygon fill="#ffffb3" stroke="#000000" points="1518.5926,-122 1387.4074,-122 1387.4074,-86 1518.5926,-86 1518.5926,-122"/>
<text text-anchor="middle" x="1453" y="-99.8" font-family="Times,serif" font-size="14.00" fill="#000000">EditUserComponent</text>
</g>
<!-- EditUserComponent&#45;&gt;AppModule -->
<g id="edge7" class="edge">
<title>EditUserComponent&#45;&gt;AppModule</title>
<path fill="none" stroke="#000000" d="M1453,-122.1871C1453,-137.1824 1453,-156 1453,-156 1453,-156 1297.8895,-156 1297.8895,-156"/>
<polygon fill="#000000" stroke="#000000" points="1297.8896,-152.5001 1287.8895,-156 1297.8895,-159.5001 1297.8896,-152.5001"/>
</g>
<!-- LoginComponent -->
<g id="node8" class="node">
<title>LoginComponent</title>
<polygon fill="#ffffb3" stroke="#000000" points="1369.2758,-122 1254.7242,-122 1254.7242,-86 1369.2758,-86 1369.2758,-122"/>
<text text-anchor="middle" x="1312" y="-99.8" font-family="Times,serif" font-size="14.00" fill="#000000">LoginComponent</text>
</g>
<!-- LoginComponent&#45;&gt;AppModule -->
<g id="edge8" class="edge">
<title>LoginComponent&#45;&gt;AppModule</title>
<path fill="none" stroke="#000000" d="M1271.2202,-122.1061C1271.2202,-122.1061 1271.2202,-140.991 1271.2202,-140.991"/>
<polygon fill="#000000" stroke="#000000" points="1267.7203,-140.9909 1271.2202,-150.991 1274.7203,-140.991 1267.7203,-140.9909"/>
</g>
<!-- MainComponent -->
<g id="node9" class="node">
<title>MainComponent</title>
<polygon fill="#ffffb3" stroke="#000000" points="1236.3823,-122 1125.6177,-122 1125.6177,-86 1236.3823,-86 1236.3823,-122"/>
<text text-anchor="middle" x="1181" y="-99.8" font-family="Times,serif" font-size="14.00" fill="#000000">MainComponent</text>
</g>
<!-- MainComponent&#45;&gt;AppModule -->
<g id="edge9" class="edge">
<title>MainComponent&#45;&gt;AppModule</title>
<path fill="none" stroke="#000000" d="M1220.3065,-122.1061C1220.3065,-122.1061 1220.3065,-140.991 1220.3065,-140.991"/>
<polygon fill="#000000" stroke="#000000" points="1216.8065,-140.9909 1220.3065,-150.991 1223.8065,-140.991 1216.8065,-140.9909"/>
</g>
<!-- NotificationsComponent -->
<g id="node10" class="node">
<title>NotificationsComponent</title>
<polygon fill="#ffffb3" stroke="#000000" points="1107.427,-122 952.573,-122 952.573,-86 1107.427,-86 1107.427,-122"/>
<text text-anchor="middle" x="1030" y="-99.8" font-family="Times,serif" font-size="14.00" fill="#000000">NotificationsComponent</text>
</g>
<!-- NotificationsComponent&#45;&gt;AppModule -->
<g id="edge10" class="edge">
<title>NotificationsComponent&#45;&gt;AppModule</title>
<path fill="none" stroke="#000000" d="M1030,-122.1871C1030,-137.1824 1030,-156 1030,-156 1030,-156 1194.0969,-156 1194.0969,-156"/>
<polygon fill="#000000" stroke="#000000" points="1194.0969,-159.5001 1204.0969,-156 1194.0969,-152.5001 1194.0969,-159.5001"/>
</g>
<!-- OrganizationComponent -->
<g id="node11" class="node">
<title>OrganizationComponent</title>
<polygon fill="#ffffb3" stroke="#000000" points="935.4158,-122 780.5842,-122 780.5842,-86 935.4158,-86 935.4158,-122"/>
<text text-anchor="middle" x="858" y="-99.8" font-family="Times,serif" font-size="14.00" fill="#000000">OrganizationComponent</text>
</g>
<!-- OrganizationComponent&#45;&gt;AppModule -->
<g id="edge11" class="edge">
<title>OrganizationComponent&#45;&gt;AppModule</title>
<path fill="none" stroke="#000000" d="M858,-122.027C858,-138.3976 858,-160 858,-160 858,-160 1194.1086,-160 1194.1086,-160"/>
<polygon fill="#000000" stroke="#000000" points="1194.1086,-163.5001 1204.1086,-160 1194.1085,-156.5001 1194.1086,-163.5001"/>
</g>
<!-- ResourcesComponent -->
<g id="node12" class="node">
<title>ResourcesComponent</title>
<polygon fill="#ffffb3" stroke="#000000" points="762.3627,-122 623.6373,-122 623.6373,-86 762.3627,-86 762.3627,-122"/>
<text text-anchor="middle" x="693" y="-99.8" font-family="Times,serif" font-size="14.00" fill="#000000">ResourcesComponent</text>
</g>
<!-- ResourcesComponent&#45;&gt;AppModule -->
<g id="edge12" class="edge">
<title>ResourcesComponent&#45;&gt;AppModule</title>
<path fill="none" stroke="#000000" d="M693,-122.302C693,-140.2699 693,-165 693,-165 693,-165 1193.9812,-165 1193.9812,-165"/>
<polygon fill="#000000" stroke="#000000" points="1193.9813,-168.5001 1203.9812,-165 1193.9812,-161.5001 1193.9813,-168.5001"/>
</g>
<!-- SidebarComponent -->
<g id="node13" class="node">
<title>SidebarComponent</title>
<polygon fill="#ffffb3" stroke="#000000" points="606.0954,-122 481.9046,-122 481.9046,-86 606.0954,-86 606.0954,-122"/>
<text text-anchor="middle" x="544" y="-99.8" font-family="Times,serif" font-size="14.00" fill="#000000">SidebarComponent</text>
</g>
<!-- SidebarComponent&#45;&gt;AppModule -->
<g id="edge13" class="edge">
<title>SidebarComponent&#45;&gt;AppModule</title>
<path fill="none" stroke="#000000" d="M544,-122.1061C544,-141.3391 544,-169 544,-169 544,-169 1194.189,-169 1194.189,-169"/>
<polygon fill="#000000" stroke="#000000" points="1194.189,-172.5001 1204.189,-169 1194.189,-165.5001 1194.189,-172.5001"/>
</g>
<!-- UserInfoComponent -->
<g id="node14" class="node">
<title>UserInfoComponent</title>
<polygon fill="#ffffb3" stroke="#000000" points="463.58,-122 332.42,-122 332.42,-86 463.58,-86 463.58,-122"/>
<text text-anchor="middle" x="398" y="-99.8" font-family="Times,serif" font-size="14.00" fill="#000000">UserInfoComponent</text>
</g>
<!-- UserInfoComponent&#45;&gt;AppModule -->
<g id="edge14" class="edge">
<title>UserInfoComponent&#45;&gt;AppModule</title>
<path fill="none" stroke="#000000" d="M398,-122.0267C398,-142.7672 398,-174 398,-174 398,-174 1194.2368,-174 1194.2368,-174"/>
<polygon fill="#000000" stroke="#000000" points="1194.2368,-177.5001 1204.2368,-174 1194.2368,-170.5001 1194.2368,-177.5001"/>
</g>
<!-- LoginComponent  -->
<g id="node16" class="node">
<title>LoginComponent </title>
<polygon fill="#fb8072" stroke="#000000" points="1237.2759,-252 1118.7241,-252 1118.7241,-216 1237.2759,-216 1237.2759,-252"/>
<text text-anchor="middle" x="1178" y="-229.8" font-family="Times,serif" font-size="14.00" fill="#000000">LoginComponent </text>
</g>
<!-- AppModule&#45;&gt;LoginComponent  -->
<g id="edge15" class="edge">
<title>AppModule&#45;&gt;LoginComponent </title>
<path fill="none" stroke="#000000" stroke-dasharray="5,2" d="M1220.6548,-187.1061C1220.6548,-187.1061 1220.6548,-205.991 1220.6548,-205.991"/>
<polygon fill="#000000" stroke="#000000" points="1217.1549,-205.9909 1220.6548,-215.991 1224.1549,-205.991 1217.1549,-205.9909"/>
</g>
<!-- AppComponent  -->
<g id="node17" class="node">
<title>AppComponent </title>
<polygon fill="#80b1d3" stroke="#000000" points="1369.439,-252 1260.561,-252 1260.561,-216 1369.439,-216 1369.439,-252"/>
<text text-anchor="middle" x="1315" y="-229.8" font-family="Times,serif" font-size="14.00" fill="#000000">AppComponent </text>
</g>
<!-- AppModule&#45;&gt;AppComponent  -->
<g id="edge16" class="edge">
<title>AppModule&#45;&gt;AppComponent </title>
<path fill="none" stroke="#000000" stroke-dasharray="1,5" d="M1274.1793,-187.1061C1274.1793,-187.1061 1274.1793,-205.991 1274.1793,-205.991"/>
<polygon fill="#000000" stroke="#000000" points="1270.6794,-205.9909 1274.1793,-215.991 1277.6794,-205.991 1270.6794,-205.9909"/>
</g>
<!-- AuthService -->
<g id="node18" class="node">
<title>AuthService</title>
<ellipse fill="#fdb462" stroke="#000000" cx="249" cy="-104" rx="59.1083" ry="18"/>
<text text-anchor="middle" x="249" y="-99.8" font-family="Times,serif" font-size="14.00" fill="#000000">AuthService</text>
</g>
<!-- AuthService&#45;&gt;AppModule -->
<g id="edge17" class="edge">
<title>AuthService&#45;&gt;AppModule</title>
<path fill="none" stroke="#000000" d="M249,-122.2921C249,-144.2057 249,-178 249,-178 249,-178 1194.1138,-178 1194.1138,-178"/>
<polygon fill="#000000" stroke="#000000" points="1194.1138,-181.5001 1204.1138,-178 1194.1137,-174.5001 1194.1138,-181.5001"/>
</g>
<!-- BackendService -->
<g id="node19" class="node">
<title>BackendService</title>
<ellipse fill="#fdb462" stroke="#000000" cx="98" cy="-104" rx="73.556" ry="18"/>
<text text-anchor="middle" x="98" y="-99.8" font-family="Times,serif" font-size="14.00" fill="#000000">BackendService</text>
</g>
<!-- BackendService&#45;&gt;AppModule -->
<g id="edge18" class="edge">
<title>BackendService&#45;&gt;AppModule</title>
<path fill="none" stroke="#000000" d="M98,-122.3228C98,-145.6602 98,-183 98,-183 98,-183 1194.1229,-183 1194.1229,-183"/>
<polygon fill="#000000" stroke="#000000" points="1194.1229,-186.5001 1204.1229,-183 1194.1228,-179.5001 1194.1229,-186.5001"/>
</g>
</g>
</svg>
