<?xml version="1.0" encoding="UTF-8" standalone="no"?>
<!DOCTYPE svg PUBLIC "-//W3C//DTD SVG 1.1//EN"
 "http://www.w3.org/Graphics/SVG/1.1/DTD/svg11.dtd">
<!-- Generated by graphviz version 2.40.1 (20161225.0304)
 -->
<!-- Title: dependencies Pages: 1 -->
<svg width="6710pt" height="284pt"
 viewBox="0.00 0.00 6710.00 284.00" xmlns="http://www.w3.org/2000/svg" xmlns:xlink="http://www.w3.org/1999/xlink">
<g id="graph0" class="graph" transform="scale(1 1) rotate(0) translate(4 280)">
<title>dependencies</title>
<polygon fill="#ffffff" stroke="transparent" points="-4,4 -4,-280 6706,-280 6706,4 -4,4"/>
<text text-anchor="start" x="3330.0091" y="-42.4" font-family="sans-serif" font-weight="bold" font-size="14.00" fill="#000000">Legend</text>
<polygon fill="#ffffb3" stroke="transparent" points="3117,-10 3117,-30 3137,-30 3137,-10 3117,-10"/>
<text text-anchor="start" x="3140.629" y="-15.4" font-family="sans-serif" font-size="14.00" fill="#000000"> &#160;Declarations</text>
<polygon fill="#8dd3c7" stroke="transparent" points="3230,-10 3230,-30 3250,-30 3250,-10 3230,-10"/>
<text text-anchor="start" x="3253.7251" y="-15.4" font-family="sans-serif" font-size="14.00" fill="#000000"> &#160;Module</text>
<polygon fill="#80b1d3" stroke="transparent" points="3316,-10 3316,-30 3336,-30 3336,-10 3316,-10"/>
<text text-anchor="start" x="3339.7812" y="-15.4" font-family="sans-serif" font-size="14.00" fill="#000000"> &#160;Bootstrap</text>
<polygon fill="#fdb462" stroke="transparent" points="3413,-10 3413,-30 3433,-30 3433,-10 3413,-10"/>
<text text-anchor="start" x="3436.6732" y="-15.4" font-family="sans-serif" font-size="14.00" fill="#000000"> &#160;Providers</text>
<polygon fill="#fb8072" stroke="transparent" points="3509,-10 3509,-30 3529,-30 3529,-10 3509,-10"/>
<text text-anchor="start" x="3532.7258" y="-15.4" font-family="sans-serif" font-size="14.00" fill="#000000"> &#160;Exports</text>
<g id="clust1" class="cluster">
<title>cluster_AppModule</title>
<polygon fill="none" stroke="#000000" stroke-dasharray="1,5" points="8,-70 8,-268 6694,-268 6694,-70 8,-70"/>
</g>
<g id="clust2" class="cluster">
<title>cluster_AppModule_declarations</title>
<polygon fill="none" stroke="#000000" points="530,-78 530,-130 6686,-130 6686,-78 530,-78"/>
</g>
<g id="clust42" class="cluster">
<title>cluster_AppModule_exports</title>
<polygon fill="none" stroke="#000000" points="3277,-208 3277,-260 3411,-260 3411,-208 3277,-208"/>
</g>
<g id="clust43" class="cluster">
<title>cluster_AppModule_bootstrap</title>
<polygon fill="none" stroke="#000000" points="3419,-208 3419,-260 3543,-260 3543,-208 3419,-208"/>
</g>
<g id="clust44" class="cluster">
<title>cluster_AppModule_providers</title>
<polygon fill="none" stroke="#000000" points="16,-78 16,-130 522,-130 522,-78 16,-78"/>
</g>
<!-- AbbreviatePipe -->
<g id="node1" class="node">
<title>AbbreviatePipe</title>
<polygon fill="#ffffb3" stroke="#000000" points="6677.58,-122 6574.42,-122 6574.42,-86 6677.58,-86 6677.58,-122"/>
<text text-anchor="middle" x="6626" y="-99.8" font-family="Times,serif" font-size="14.00" fill="#000000">AbbreviatePipe</text>
</g>
<!-- AppModule -->
<g id="node39" class="node">
<title>AppModule</title>
<polygon fill="#8dd3c7" stroke="#000000" points="3453.6571,-187 3450.6571,-191 3429.6571,-191 3426.6571,-187 3370.3429,-187 3370.3429,-151 3453.6571,-151 3453.6571,-187"/>
<text text-anchor="middle" x="3412" y="-164.8" font-family="Times,serif" font-size="14.00" fill="#000000">AppModule</text>
</g>
<!-- AbbreviatePipe&#45;&gt;AppModule -->
<g id="edge1" class="edge">
<title>AbbreviatePipe&#45;&gt;AppModule</title>
<path fill="none" stroke="#000000" d="M6626,-122.1985C6626,-146.3563 6626,-186 6626,-186 6626,-186 3463.8123,-186 3463.8123,-186"/>
<polygon fill="#000000" stroke="#000000" points="3463.8124,-182.5001 3453.8123,-186 3463.8123,-189.5001 3463.8124,-182.5001"/>
</g>
<!-- AddDevicesGroupComponent -->
<g id="node2" class="node">
<title>AddDevicesGroupComponent</title>
<polygon fill="#ffffb3" stroke="#000000" points="6556.292,-122 6369.708,-122 6369.708,-86 6556.292,-86 6556.292,-122"/>
<text text-anchor="middle" x="6463" y="-99.8" font-family="Times,serif" font-size="14.00" fill="#000000">AddDevicesGroupComponent</text>
</g>
<!-- AddDevicesGroupComponent&#45;&gt;AppModule -->
<g id="edge2" class="edge">
<title>AddDevicesGroupComponent&#45;&gt;AppModule</title>
<path fill="none" stroke="#000000" d="M6463,-122.1532C6463,-145.7566 6463,-184 6463,-184 6463,-184 3463.6809,-184 3463.6809,-184"/>
<polygon fill="#000000" stroke="#000000" points="3463.6809,-180.5001 3453.6809,-184 3463.6809,-187.5001 3463.6809,-180.5001"/>
</g>
<!-- AddLabelComponent -->
<g id="node3" class="node">
<title>AddLabelComponent</title>
<polygon fill="#ffffb3" stroke="#000000" points="6351.8118,-122 6214.1882,-122 6214.1882,-86 6351.8118,-86 6351.8118,-122"/>
<text text-anchor="middle" x="6283" y="-99.8" font-family="Times,serif" font-size="14.00" fill="#000000">AddLabelComponent</text>
</g>
<!-- AddLabelComponent&#45;&gt;AppModule -->
<g id="edge3" class="edge">
<title>AddLabelComponent&#45;&gt;AppModule</title>
<path fill="none" stroke="#000000" d="M6283,-122.0908C6283,-145.1328 6283,-182 6283,-182 6283,-182 3463.6921,-182 3463.6921,-182"/>
<polygon fill="#000000" stroke="#000000" points="3463.6921,-178.5001 3453.6921,-182 3463.692,-185.5001 3463.6921,-178.5001"/>
</g>
<!-- AddUserComponent -->
<g id="node4" class="node">
<title>AddUserComponent</title>
<polygon fill="#ffffb3" stroke="#000000" points="6195.8655,-122 6064.1345,-122 6064.1345,-86 6195.8655,-86 6195.8655,-122"/>
<text text-anchor="middle" x="6130" y="-99.8" font-family="Times,serif" font-size="14.00" fill="#000000">AddUserComponent</text>
</g>
<!-- AddUserComponent&#45;&gt;AppModule -->
<g id="edge4" class="edge">
<title>AddUserComponent&#45;&gt;AppModule</title>
<path fill="none" stroke="#000000" d="M6130,-122.2479C6130,-145.0179 6130,-181 6130,-181 6130,-181 3463.8763,-181 3463.8763,-181"/>
<polygon fill="#000000" stroke="#000000" points="3463.8764,-177.5001 3453.8763,-181 3463.8763,-184.5001 3463.8764,-177.5001"/>
</g>
<!-- AppComponent -->
<g id="node5" class="node">
<title>AppComponent</title>
<polygon fill="#ffffb3" stroke="#000000" points="6045.9399,-122 5940.0601,-122 5940.0601,-86 6045.9399,-86 6045.9399,-122"/>
<text text-anchor="middle" x="5993" y="-99.8" font-family="Times,serif" font-size="14.00" fill="#000000">AppComponent</text>
</g>
<!-- AppComponent&#45;&gt;AppModule -->
<g id="edge5" class="edge">
<title>AppComponent&#45;&gt;AppModule</title>
<path fill="none" stroke="#000000" d="M5993,-122.1554C5993,-144.3519 5993,-179 5993,-179 5993,-179 3463.85,-179 3463.85,-179"/>
<polygon fill="#000000" stroke="#000000" points="3463.8501,-175.5001 3453.85,-179 3463.85,-182.5001 3463.8501,-175.5001"/>
</g>
<!-- ApplicationsComponent -->
<g id="node6" class="node">
<title>ApplicationsComponent</title>
<polygon fill="#ffffb3" stroke="#000000" points="5922.3753,-122 5769.6247,-122 5769.6247,-86 5922.3753,-86 5922.3753,-122"/>
<text text-anchor="middle" x="5846" y="-99.8" font-family="Times,serif" font-size="14.00" fill="#000000">ApplicationsComponent</text>
</g>
<!-- ApplicationsComponent&#45;&gt;AppModule -->
<g id="edge6" class="edge">
<title>ApplicationsComponent&#45;&gt;AppModule</title>
<path fill="none" stroke="#000000" d="M5846,-122.0449C5846,-143.6623 5846,-177 5846,-177 5846,-177 3463.7345,-177 3463.7345,-177"/>
<polygon fill="#000000" stroke="#000000" points="3463.7346,-173.5001 3453.7345,-177 3463.7345,-180.5001 3463.7346,-173.5001"/>
</g>
<!-- AssetInfoComponent -->
<g id="node7" class="node">
<title>AssetInfoComponent</title>
<polygon fill="#ffffb3" stroke="#000000" points="5751.7548,-122 5616.2452,-122 5616.2452,-86 5751.7548,-86 5751.7548,-122"/>
<text text-anchor="middle" x="5684" y="-99.8" font-family="Times,serif" font-size="14.00" fill="#000000">AssetInfoComponent</text>
</g>
<!-- AssetInfoComponent&#45;&gt;AppModule -->
<g id="edge7" class="edge">
<title>AssetInfoComponent&#45;&gt;AppModule</title>
<path fill="none" stroke="#000000" d="M5684,-122.2843C5684,-143.3211 5684,-175 5684,-175 5684,-175 3463.866,-175 3463.866,-175"/>
<polygon fill="#000000" stroke="#000000" points="3463.866,-171.5001 3453.866,-175 3463.866,-178.5001 3463.866,-171.5001"/>
</g>
<!-- AutofocusDirective -->
<g id="node8" class="node">
<title>AutofocusDirective</title>
<polygon fill="#ffffb3" stroke="#000000" points="5598.4004,-122 5471.5996,-122 5471.5996,-86 5598.4004,-86 5598.4004,-122"/>
<text text-anchor="middle" x="5535" y="-99.8" font-family="Times,serif" font-size="14.00" fill="#000000">AutofocusDirective</text>
</g>
<!-- AutofocusDirective&#45;&gt;AppModule -->
<g id="edge8" class="edge">
<title>AutofocusDirective&#45;&gt;AppModule</title>
<path fill="none" stroke="#000000" d="M5535,-122.0267C5535,-142.7672 5535,-174 5535,-174 5535,-174 3463.9305,-174 3463.9305,-174"/>
<polygon fill="#000000" stroke="#000000" points="3463.9305,-170.5001 3453.9305,-174 3463.9305,-177.5001 3463.9305,-170.5001"/>
</g>
<!-- ChangePasswordComponent -->
<g id="node9" class="node">
<title>ChangePasswordComponent</title>
<polygon fill="#ffffb3" stroke="#000000" points="5453.752,-122 5276.248,-122 5276.248,-86 5453.752,-86 5453.752,-122"/>
<text text-anchor="middle" x="5365" y="-99.8" font-family="Times,serif" font-size="14.00" fill="#000000">ChangePasswordComponent</text>
</g>
<!-- ChangePasswordComponent&#45;&gt;AppModule -->
<g id="edge9" class="edge">
<title>ChangePasswordComponent&#45;&gt;AppModule</title>
<path fill="none" stroke="#000000" d="M5365,-122.2228C5365,-142.3652 5365,-172 5365,-172 5365,-172 3463.6947,-172 3463.6947,-172"/>
<polygon fill="#000000" stroke="#000000" points="3463.6947,-168.5001 3453.6947,-172 3463.6947,-175.5001 3463.6947,-168.5001"/>
</g>
<!-- ClusterComponent -->
<g id="node10" class="node">
<title>ClusterComponent</title>
<polygon fill="#ffffb3" stroke="#000000" points="5257.7702,-122 5136.2298,-122 5136.2298,-86 5257.7702,-86 5257.7702,-122"/>
<text text-anchor="middle" x="5197" y="-99.8" font-family="Times,serif" font-size="14.00" fill="#000000">ClusterComponent</text>
</g>
<!-- ClusterComponent&#45;&gt;AppModule -->
<g id="edge10" class="edge">
<title>ClusterComponent&#45;&gt;AppModule</title>
<path fill="none" stroke="#000000" d="M5197,-122.0348C5197,-141.5762 5197,-170 5197,-170 5197,-170 3463.9283,-170 3463.9283,-170"/>
<polygon fill="#000000" stroke="#000000" points="3463.9283,-166.5001 3453.9283,-170 3463.9283,-173.5001 3463.9283,-166.5001"/>
</g>
<!-- ContextualMenuComponent -->
<g id="node11" class="node">
<title>ContextualMenuComponent</title>
<polygon fill="#ffffb3" stroke="#000000" points="5117.9297,-122 4942.0703,-122 4942.0703,-86 5117.9297,-86 5117.9297,-122"/>
<text text-anchor="middle" x="5030" y="-99.8" font-family="Times,serif" font-size="14.00" fill="#000000">ContextualMenuComponent</text>
</g>
<!-- ContextualMenuComponent&#45;&gt;AppModule -->
<g id="edge11" class="edge">
<title>ContextualMenuComponent&#45;&gt;AppModule</title>
<path fill="none" stroke="#000000" d="M5000.7618,-122.2222C5000.7618,-140.8285 5000.7618,-167 5000.7618,-167 5000.7618,-167 3463.6789,-167 3463.6789,-167"/>
<polygon fill="#000000" stroke="#000000" points="3463.6789,-163.5001 3453.6789,-167 3463.6788,-170.5001 3463.6789,-163.5001"/>
</g>
<!-- ContextualMenuComponent&#45;&gt;AppModule -->
<g id="edge12" class="edge">
<title>ContextualMenuComponent&#45;&gt;AppModule</title>
<path fill="none" stroke="#000000" d="M5059.2382,-122.1061C5059.2382,-141.3391 5059.2382,-169 5059.2382,-169 5059.2382,-169 3463.9571,-169 3463.9571,-169"/>
<polygon fill="#000000" stroke="#000000" points="3463.9572,-165.5001 3453.9571,-169 3463.9571,-172.5001 3463.9572,-165.5001"/>
</g>
<!-- DebugPanelComponent -->
<g id="node12" class="node">
<title>DebugPanelComponent</title>
<polygon fill="#ffffb3" stroke="#000000" points="4923.7562,-122 4774.2438,-122 4774.2438,-86 4923.7562,-86 4923.7562,-122"/>
<text text-anchor="middle" x="4849" y="-99.8" font-family="Times,serif" font-size="14.00" fill="#000000">DebugPanelComponent</text>
</g>
<!-- DebugPanelComponent&#45;&gt;AppModule -->
<g id="edge13" class="edge">
<title>DebugPanelComponent&#45;&gt;AppModule</title>
<path fill="none" stroke="#000000" d="M4849,-122.302C4849,-140.2699 4849,-165 4849,-165 4849,-165 3463.8418,-165 3463.8418,-165"/>
<polygon fill="#000000" stroke="#000000" points="3463.8419,-161.5001 3453.8418,-165 3463.8418,-168.5001 3463.8419,-161.5001"/>
</g>
<!-- DeployInstanceComponent -->
<g id="node13" class="node">
<title>DeployInstanceComponent</title>
<polygon fill="#ffffb3" stroke="#000000" points="4756.6839,-122 4587.3161,-122 4587.3161,-86 4756.6839,-86 4756.6839,-122"/>
<text text-anchor="middle" x="4672" y="-99.8" font-family="Times,serif" font-size="14.00" fill="#000000">DeployInstanceComponent</text>
</g>
<!-- DeployInstanceComponent&#45;&gt;AppModule -->
<g id="edge14" class="edge">
<title>DeployInstanceComponent&#45;&gt;AppModule</title>
<path fill="none" stroke="#000000" d="M4672,-122.0225C4672,-139.3734 4672,-163 4672,-163 4672,-163 3463.9225,-163 3463.9225,-163"/>
<polygon fill="#000000" stroke="#000000" points="3463.9225,-159.5001 3453.9225,-163 3463.9224,-166.5001 3463.9225,-159.5001"/>
</g>
<!-- DeviceGroupCreatedComponent -->
<g id="node14" class="node">
<title>DeviceGroupCreatedComponent</title>
<polygon fill="#ffffb3" stroke="#000000" points="4569.2724,-122 4368.7276,-122 4368.7276,-86 4569.2724,-86 4569.2724,-122"/>
<text text-anchor="middle" x="4469" y="-99.8" font-family="Times,serif" font-size="14.00" fill="#000000">DeviceGroupCreatedComponent</text>
</g>
<!-- DeviceGroupCreatedComponent&#45;&gt;AppModule -->
<g id="edge15" class="edge">
<title>DeviceGroupCreatedComponent&#45;&gt;AppModule</title>
<path fill="none" stroke="#000000" d="M4469,-122.0336C4469,-139.0597 4469,-162 4469,-162 4469,-162 3463.7612,-162 3463.7612,-162"/>
<polygon fill="#000000" stroke="#000000" points="3463.7612,-158.5001 3453.7612,-162 3463.7612,-165.5001 3463.7612,-158.5001"/>
</g>
<!-- DeviceInfoComponent -->
<g id="node15" class="node">
<title>DeviceInfoComponent</title>
<polygon fill="#ffffb3" stroke="#000000" points="4351.2949,-122 4206.7051,-122 4206.7051,-86 4351.2949,-86 4351.2949,-122"/>
<text text-anchor="middle" x="4279" y="-99.8" font-family="Times,serif" font-size="14.00" fill="#000000">DeviceInfoComponent</text>
</g>
<!-- DeviceInfoComponent&#45;&gt;AppModule -->
<g id="edge16" class="edge">
<title>DeviceInfoComponent&#45;&gt;AppModule</title>
<path fill="none" stroke="#000000" d="M4279,-122.027C4279,-138.3976 4279,-160 4279,-160 4279,-160 3463.8172,-160 3463.8172,-160"/>
<polygon fill="#000000" stroke="#000000" points="3463.8172,-156.5001 3453.8172,-160 3463.8172,-163.5001 3463.8172,-156.5001"/>
</g>
<!-- DevicesComponent -->
<g id="node16" class="node">
<title>DevicesComponent</title>
<polygon fill="#ffffb3" stroke="#000000" points="4189.4187,-122 4062.5813,-122 4062.5813,-86 4189.4187,-86 4189.4187,-122"/>
<text text-anchor="middle" x="4126" y="-99.8" font-family="Times,serif" font-size="14.00" fill="#000000">DevicesComponent</text>
</g>
<!-- DevicesComponent&#45;&gt;AppModule -->
<g id="edge17" class="edge">
<title>DevicesComponent&#45;&gt;AppModule</title>
<path fill="none" stroke="#000000" d="M4126,-122.2819C4126,-137.9478 4126,-158 4126,-158 4126,-158 3463.7357,-158 3463.7357,-158"/>
<polygon fill="#000000" stroke="#000000" points="3463.7358,-154.5001 3453.7357,-158 3463.7357,-161.5001 3463.7358,-154.5001"/>
</g>
<!-- EdgeControllerInfoComponent -->
<g id="node17" class="node">
<title>EdgeControllerInfoComponent</title>
<polygon fill="#ffffb3" stroke="#000000" points="4044.465,-122 3853.535,-122 3853.535,-86 4044.465,-86 4044.465,-122"/>
<text text-anchor="middle" x="3949" y="-99.8" font-family="Times,serif" font-size="14.00" fill="#000000">EdgeControllerInfoComponent</text>
</g>
<!-- EdgeControllerInfoComponent&#45;&gt;AppModule -->
<g id="edge18" class="edge">
<title>EdgeControllerInfoComponent&#45;&gt;AppModule</title>
<path fill="none" stroke="#000000" d="M3949,-122.2396C3949,-137.5706 3949,-157 3949,-157 3949,-157 3463.6906,-157 3463.6906,-157"/>
<polygon fill="#000000" stroke="#000000" points="3463.6907,-153.5001 3453.6906,-157 3463.6906,-160.5001 3463.6907,-153.5001"/>
</g>
<!-- EditClusterComponent -->
<g id="node18" class="node">
<title>EditClusterComponent</title>
<polygon fill="#ffffb3" stroke="#000000" points="3835.6038,-122 3690.3962,-122 3690.3962,-86 3835.6038,-86 3835.6038,-122"/>
<text text-anchor="middle" x="3763" y="-99.8" font-family="Times,serif" font-size="14.00" fill="#000000">EditClusterComponent</text>
</g>
<!-- EditClusterComponent&#45;&gt;AppModule -->
<g id="edge19" class="edge">
<title>EditClusterComponent&#45;&gt;AppModule</title>
<path fill="none" stroke="#000000" d="M3763,-122.1243C3763,-136.7832 3763,-155 3763,-155 3763,-155 3463.9902,-155 3463.9902,-155"/>
<polygon fill="#000000" stroke="#000000" points="3463.9902,-151.5001 3453.9902,-155 3463.9901,-158.5001 3463.9902,-151.5001"/>
</g>
<!-- EditUserComponent -->
<g id="node19" class="node">
<title>EditUserComponent</title>
<polygon fill="#ffffb3" stroke="#000000" points="3672.5926,-122 3541.4074,-122 3541.4074,-86 3672.5926,-86 3672.5926,-122"/>
<text text-anchor="middle" x="3607" y="-99.8" font-family="Times,serif" font-size="14.00" fill="#000000">EditUserComponent</text>
</g>
<!-- EditUserComponent&#45;&gt;AppModule -->
<g id="edge20" class="edge">
<title>EditUserComponent&#45;&gt;AppModule</title>
<path fill="none" stroke="#000000" d="M3607,-122.2458C3607,-136.1772 3607,-153 3607,-153 3607,-153 3463.8324,-153 3463.8324,-153"/>
<polygon fill="#000000" stroke="#000000" points="3463.8324,-149.5001 3453.8324,-153 3463.8324,-156.5001 3463.8324,-149.5001"/>
</g>
<!-- FilterPipe -->
<g id="node20" class="node">
<title>FilterPipe</title>
<polygon fill="#ffffb3" stroke="#000000" points="3523.7177,-122 3452.2823,-122 3452.2823,-86 3523.7177,-86 3523.7177,-122"/>
<text text-anchor="middle" x="3488" y="-99.8" font-family="Times,serif" font-size="14.00" fill="#000000">FilterPipe</text>
</g>
<!-- FilterPipe&#45;&gt;AppModule -->
<g id="edge21" class="edge">
<title>FilterPipe&#45;&gt;AppModule</title>
<path fill="none" stroke="#000000" d="M3452.1661,-104C3447.1182,-104 3443.6066,-104 3443.6066,-104 3443.6066,-104 3443.6066,-140.8939 3443.6066,-140.8939"/>
<polygon fill="#000000" stroke="#000000" points="3440.1067,-140.8938 3443.6066,-150.8939 3447.1067,-140.8939 3440.1067,-140.8938"/>
</g>
<!-- GroupConfigurationComponent -->
<g id="node21" class="node">
<title>GroupConfigurationComponent</title>
<polygon fill="#ffffb3" stroke="#000000" points="3434.6441,-122 3239.3559,-122 3239.3559,-86 3434.6441,-86 3434.6441,-122"/>
<text text-anchor="middle" x="3337" y="-99.8" font-family="Times,serif" font-size="14.00" fill="#000000">GroupConfigurationComponent</text>
</g>
<!-- GroupConfigurationComponent&#45;&gt;AppModule -->
<g id="edge22" class="edge">
<title>GroupConfigurationComponent&#45;&gt;AppModule</title>
<path fill="none" stroke="#000000" d="M3402.4969,-122.1061C3402.4969,-122.1061 3402.4969,-140.991 3402.4969,-140.991"/>
<polygon fill="#000000" stroke="#000000" points="3398.9969,-140.9909 3402.4969,-150.991 3405.9969,-140.991 3398.9969,-140.9909"/>
</g>
<!-- InfrastructureComponent -->
<g id="node22" class="node">
<title>InfrastructureComponent</title>
<polygon fill="#ffffb3" stroke="#000000" points="3220.5058,-122 3063.4942,-122 3063.4942,-86 3220.5058,-86 3220.5058,-122"/>
<text text-anchor="middle" x="3142" y="-99.8" font-family="Times,serif" font-size="14.00" fill="#000000">InfrastructureComponent</text>
</g>
<!-- InfrastructureComponent&#45;&gt;AppModule -->
<g id="edge23" class="edge">
<title>InfrastructureComponent&#45;&gt;AppModule</title>
<path fill="none" stroke="#000000" d="M3142,-122.2458C3142,-136.1772 3142,-153 3142,-153 3142,-153 3360.1087,-153 3360.1087,-153"/>
<polygon fill="#000000" stroke="#000000" points="3360.1088,-156.5001 3370.1087,-153 3360.1087,-149.5001 3360.1088,-156.5001"/>
</g>
<!-- InstallAgentComponent -->
<g id="node23" class="node">
<title>InstallAgentComponent</title>
<polygon fill="#ffffb3" stroke="#000000" points="3045.0365,-122 2894.9635,-122 2894.9635,-86 3045.0365,-86 3045.0365,-122"/>
<text text-anchor="middle" x="2970" y="-99.8" font-family="Times,serif" font-size="14.00" fill="#000000">InstallAgentComponent</text>
</g>
<!-- InstallAgentComponent&#45;&gt;AppModule -->
<g id="edge24" class="edge">
<title>InstallAgentComponent&#45;&gt;AppModule</title>
<path fill="none" stroke="#000000" d="M2970,-122.1243C2970,-136.7832 2970,-155 2970,-155 2970,-155 3360.0192,-155 3360.0192,-155"/>
<polygon fill="#000000" stroke="#000000" points="3360.0193,-158.5001 3370.0192,-155 3360.0192,-151.5001 3360.0193,-158.5001"/>
</g>
<!-- InstanceInfoComponent -->
<g id="node24" class="node">
<title>InstanceInfoComponent</title>
<polygon fill="#ffffb3" stroke="#000000" points="2876.7935,-122 2725.2065,-122 2725.2065,-86 2876.7935,-86 2876.7935,-122"/>
<text text-anchor="middle" x="2801" y="-99.8" font-family="Times,serif" font-size="14.00" fill="#000000">InstanceInfoComponent</text>
</g>
<!-- InstanceInfoComponent&#45;&gt;AppModule -->
<g id="edge25" class="edge">
<title>InstanceInfoComponent&#45;&gt;AppModule</title>
<path fill="none" stroke="#000000" d="M2801,-122.2396C2801,-137.5706 2801,-157 2801,-157 2801,-157 3360.0035,-157 3360.0035,-157"/>
<polygon fill="#000000" stroke="#000000" points="3360.0035,-160.5001 3370.0035,-157 3360.0035,-153.5001 3360.0035,-160.5001"/>
</g>
<!-- LoginComponent -->
<g id="node25" class="node">
<title>LoginComponent</title>
<polygon fill="#ffffb3" stroke="#000000" points="2707.2758,-122 2592.7242,-122 2592.7242,-86 2707.2758,-86 2707.2758,-122"/>
<text text-anchor="middle" x="2650" y="-99.8" font-family="Times,serif" font-size="14.00" fill="#000000">LoginComponent</text>
</g>
<!-- LoginComponent&#45;&gt;AppModule -->
<g id="edge26" class="edge">
<title>LoginComponent&#45;&gt;AppModule</title>
<path fill="none" stroke="#000000" d="M2650,-122.2819C2650,-137.9478 2650,-158 2650,-158 2650,-158 3360.2187,-158 3360.2187,-158"/>
<polygon fill="#000000" stroke="#000000" points="3360.2187,-161.5001 3370.2187,-158 3360.2187,-154.5001 3360.2187,-161.5001"/>
</g>
<!-- MainComponent -->
<g id="node26" class="node">
<title>MainComponent</title>
<polygon fill="#ffffb3" stroke="#000000" points="2574.3823,-122 2463.6177,-122 2463.6177,-86 2574.3823,-86 2574.3823,-122"/>
<text text-anchor="middle" x="2519" y="-99.8" font-family="Times,serif" font-size="14.00" fill="#000000">MainComponent</text>
</g>
<!-- MainComponent&#45;&gt;AppModule -->
<g id="edge27" class="edge">
<title>MainComponent&#45;&gt;AppModule</title>
<path fill="none" stroke="#000000" d="M2519,-122.027C2519,-138.3976 2519,-160 2519,-160 2519,-160 3360.1265,-160 3360.1265,-160"/>
<polygon fill="#000000" stroke="#000000" points="3360.1265,-163.5001 3370.1265,-160 3360.1265,-156.5001 3360.1265,-163.5001"/>
</g>
<!-- NotificationsComponent -->
<g id="node27" class="node">
<title>NotificationsComponent</title>
<polygon fill="#ffffb3" stroke="#000000" points="2445.427,-122 2290.573,-122 2290.573,-86 2445.427,-86 2445.427,-122"/>
<text text-anchor="middle" x="2368" y="-99.8" font-family="Times,serif" font-size="14.00" fill="#000000">NotificationsComponent</text>
</g>
<!-- NotificationsComponent&#45;&gt;AppModule -->
<g id="edge28" class="edge">
<title>NotificationsComponent&#45;&gt;AppModule</title>
<path fill="none" stroke="#000000" d="M2368,-122.0336C2368,-139.0597 2368,-162 2368,-162 2368,-162 3360.1059,-162 3360.1059,-162"/>
<polygon fill="#000000" stroke="#000000" points="3360.1059,-165.5001 3370.1059,-162 3360.1059,-158.5001 3360.1059,-165.5001"/>
</g>
<!-- OrganizationComponent -->
<g id="node28" class="node">
<title>OrganizationComponent</title>
<polygon fill="#ffffb3" stroke="#000000" points="2273.4158,-122 2118.5842,-122 2118.5842,-86 2273.4158,-86 2273.4158,-122"/>
<text text-anchor="middle" x="2196" y="-99.8" font-family="Times,serif" font-size="14.00" fill="#000000">OrganizationComponent</text>
</g>
<!-- OrganizationComponent&#45;&gt;AppModule -->
<g id="edge29" class="edge">
<title>OrganizationComponent&#45;&gt;AppModule</title>
<path fill="none" stroke="#000000" d="M2196,-122.0225C2196,-139.3734 2196,-163 2196,-163 2196,-163 3360.1425,-163 3360.1425,-163"/>
<polygon fill="#000000" stroke="#000000" points="3360.1426,-166.5001 3370.1425,-163 3360.1425,-159.5001 3360.1426,-166.5001"/>
</g>
<!-- RegisterApplicationComponent -->
<g id="node29" class="node">
<title>RegisterApplicationComponent</title>
<polygon fill="#ffffb3" stroke="#000000" points="2101.0828,-122 1906.9172,-122 1906.9172,-86 2101.0828,-86 2101.0828,-122"/>
<text text-anchor="middle" x="2004" y="-99.8" font-family="Times,serif" font-size="14.00" fill="#000000">RegisterApplicationComponent</text>
</g>
<!-- RegisterApplicationComponent&#45;&gt;AppModule -->
<g id="edge30" class="edge">
<title>RegisterApplicationComponent&#45;&gt;AppModule</title>
<path fill="none" stroke="#000000" d="M2004,-122.302C2004,-140.2699 2004,-165 2004,-165 2004,-165 3360.2434,-165 3360.2434,-165"/>
<polygon fill="#000000" stroke="#000000" points="3360.2434,-168.5001 3370.2434,-165 3360.2433,-161.5001 3360.2434,-168.5001"/>
</g>
<!-- RegisteredInfoComponent -->
<g id="node30" class="node">
<title>RegisteredInfoComponent</title>
<polygon fill="#ffffb3" stroke="#000000" points="1889.0211,-122 1724.9789,-122 1724.9789,-86 1889.0211,-86 1889.0211,-122"/>
<text text-anchor="middle" x="1807" y="-99.8" font-family="Times,serif" font-size="14.00" fill="#000000">RegisteredInfoComponent</text>
</g>
<!-- RegisteredInfoComponent&#45;&gt;AppModule -->
<g id="edge31" class="edge">
<title>RegisteredInfoComponent&#45;&gt;AppModule</title>
<path fill="none" stroke="#000000" d="M1807,-122.2222C1807,-140.8285 1807,-167 1807,-167 1807,-167 3360.3049,-167 3360.3049,-167"/>
<polygon fill="#000000" stroke="#000000" points="3360.3049,-170.5001 3370.3049,-167 3360.3048,-163.5001 3360.3049,-170.5001"/>
</g>
<!-- ResourcesComponent -->
<g id="node31" class="node">
<title>ResourcesComponent</title>
<polygon fill="#ffffb3" stroke="#000000" points="1706.3627,-122 1567.6373,-122 1567.6373,-86 1706.3627,-86 1706.3627,-122"/>
<text text-anchor="middle" x="1637" y="-99.8" font-family="Times,serif" font-size="14.00" fill="#000000">ResourcesComponent</text>
</g>
<!-- ResourcesComponent&#45;&gt;AppModule -->
<g id="edge32" class="edge">
<title>ResourcesComponent&#45;&gt;AppModule</title>
<path fill="none" stroke="#000000" d="M1637,-122.1061C1637,-141.3391 1637,-169 1637,-169 1637,-169 3360.3066,-169 3360.3066,-169"/>
<polygon fill="#000000" stroke="#000000" points="3360.3066,-172.5001 3370.3066,-169 3360.3065,-165.5001 3360.3066,-172.5001"/>
</g>
<!-- RuleInfoComponent -->
<g id="node32" class="node">
<title>RuleInfoComponent</title>
<polygon fill="#ffffb3" stroke="#000000" points="1549.5954,-122 1418.4046,-122 1418.4046,-86 1549.5954,-86 1549.5954,-122"/>
<text text-anchor="middle" x="1484" y="-99.8" font-family="Times,serif" font-size="14.00" fill="#000000">RuleInfoComponent</text>
</g>
<!-- RuleInfoComponent&#45;&gt;AppModule -->
<g id="edge33" class="edge">
<title>RuleInfoComponent&#45;&gt;AppModule</title>
<path fill="none" stroke="#000000" d="M1484,-122.0348C1484,-141.5762 1484,-170 1484,-170 1484,-170 3359.9379,-170 3359.9379,-170"/>
<polygon fill="#000000" stroke="#000000" points="3359.938,-173.5001 3369.9379,-170 3359.9379,-166.5001 3359.938,-173.5001"/>
</g>
<!-- ServiceInfoComponent -->
<g id="node33" class="node">
<title>ServiceInfoComponent</title>
<polygon fill="#ffffb3" stroke="#000000" points="1400.1317,-122 1253.8683,-122 1253.8683,-86 1400.1317,-86 1400.1317,-122"/>
<text text-anchor="middle" x="1327" y="-99.8" font-family="Times,serif" font-size="14.00" fill="#000000">ServiceInfoComponent</text>
</g>
<!-- ServiceInfoComponent&#45;&gt;AppModule -->
<g id="edge34" class="edge">
<title>ServiceInfoComponent&#45;&gt;AppModule</title>
<path fill="none" stroke="#000000" d="M1327,-122.2228C1327,-142.3652 1327,-172 1327,-172 1327,-172 3359.8802,-172 3359.8802,-172"/>
<polygon fill="#000000" stroke="#000000" points="3359.8802,-175.5001 3369.8802,-172 3359.8801,-168.5001 3359.8802,-175.5001"/>
</g>
<!-- ServiceInstancesInfoComponent -->
<g id="node34" class="node">
<title>ServiceInstancesInfoComponent</title>
<polygon fill="#ffffb3" stroke="#000000" points="1235.2156,-122 1036.7844,-122 1036.7844,-86 1235.2156,-86 1235.2156,-122"/>
<text text-anchor="middle" x="1136" y="-99.8" font-family="Times,serif" font-size="14.00" fill="#000000">ServiceInstancesInfoComponent</text>
</g>
<!-- ServiceInstancesInfoComponent&#45;&gt;AppModule -->
<g id="edge35" class="edge">
<title>ServiceInstancesInfoComponent&#45;&gt;AppModule</title>
<path fill="none" stroke="#000000" d="M1136,-122.0267C1136,-142.7672 1136,-174 1136,-174 1136,-174 3360.0603,-174 3360.0603,-174"/>
<polygon fill="#000000" stroke="#000000" points="3360.0603,-177.5001 3370.0603,-174 3360.0603,-170.5001 3360.0603,-177.5001"/>
</g>
<!-- SidebarComponent -->
<g id="node35" class="node">
<title>SidebarComponent</title>
<polygon fill="#ffffb3" stroke="#000000" points="1019.0954,-122 894.9046,-122 894.9046,-86 1019.0954,-86 1019.0954,-122"/>
<text text-anchor="middle" x="957" y="-99.8" font-family="Times,serif" font-size="14.00" fill="#000000">SidebarComponent</text>
</g>
<!-- SidebarComponent&#45;&gt;AppModule -->
<g id="edge36" class="edge">
<title>SidebarComponent&#45;&gt;AppModule</title>
<path fill="none" stroke="#000000" d="M957,-122.2843C957,-143.3211 957,-175 957,-175 957,-175 3360.1626,-175 3360.1626,-175"/>
<polygon fill="#000000" stroke="#000000" points="3360.1626,-178.5001 3370.1626,-175 3360.1625,-171.5001 3360.1626,-178.5001"/>
</g>
<!-- SortByPipe -->
<g id="node36" class="node">
<title>SortByPipe</title>
<polygon fill="#ffffb3" stroke="#000000" points="877.0594,-122 796.9406,-122 796.9406,-86 877.0594,-86 877.0594,-122"/>
<text text-anchor="middle" x="837" y="-99.8" font-family="Times,serif" font-size="14.00" fill="#000000">SortByPipe</text>
</g>
<!-- SortByPipe&#45;&gt;AppModule -->
<g id="edge37" class="edge">
<title>SortByPipe&#45;&gt;AppModule</title>
<path fill="none" stroke="#000000" d="M837,-122.0449C837,-143.6623 837,-177 837,-177 837,-177 3360.2472,-177 3360.2472,-177"/>
<polygon fill="#000000" stroke="#000000" points="3360.2473,-180.5001 3370.2472,-177 3360.2472,-173.5001 3360.2473,-180.5001"/>
</g>
<!-- TruncatePipe -->
<g id="node37" class="node">
<title>TruncatePipe</title>
<polygon fill="#ffffb3" stroke="#000000" points="778.1361,-122 687.8639,-122 687.8639,-86 778.1361,-86 778.1361,-122"/>
<text text-anchor="middle" x="733" y="-99.8" font-family="Times,serif" font-size="14.00" fill="#000000">TruncatePipe</text>
</g>
<!-- TruncatePipe&#45;&gt;AppModule -->
<g id="edge38" class="edge">
<title>TruncatePipe&#45;&gt;AppModule</title>
<path fill="none" stroke="#000000" d="M733,-122.1554C733,-144.3519 733,-179 733,-179 733,-179 3360.1885,-179 3360.1885,-179"/>
<polygon fill="#000000" stroke="#000000" points="3360.1886,-182.5001 3370.1885,-179 3360.1885,-175.5001 3360.1886,-182.5001"/>
</g>
<!-- UserInfoComponent -->
<g id="node38" class="node">
<title>UserInfoComponent</title>
<polygon fill="#ffffb3" stroke="#000000" points="669.58,-122 538.42,-122 538.42,-86 669.58,-86 669.58,-122"/>
<text text-anchor="middle" x="604" y="-99.8" font-family="Times,serif" font-size="14.00" fill="#000000">UserInfoComponent</text>
</g>
<!-- UserInfoComponent&#45;&gt;AppModule -->
<g id="edge39" class="edge">
<title>UserInfoComponent&#45;&gt;AppModule</title>
<path fill="none" stroke="#000000" d="M604,-122.2479C604,-145.0179 604,-181 604,-181 604,-181 3360.1266,-181 3360.1266,-181"/>
<polygon fill="#000000" stroke="#000000" points="3360.1267,-184.5001 3370.1266,-181 3360.1266,-177.5001 3360.1267,-184.5001"/>
</g>
<!-- LoginComponent  -->
<g id="node40" class="node">
<title>LoginComponent </title>
<polygon fill="#fb8072" stroke="#000000" points="3403.2759,-252 3284.7241,-252 3284.7241,-216 3403.2759,-216 3403.2759,-252"/>
<text text-anchor="middle" x="3344" y="-229.8" font-family="Times,serif" font-size="14.00" fill="#000000">LoginComponent </text>
</g>
<!-- AppModule&#45;&gt;LoginComponent  -->
<g id="edge40" class="edge">
<title>AppModule&#45;&gt;LoginComponent </title>
<path fill="none" stroke="#000000" stroke-dasharray="5,2" d="M3386.6548,-187.1061C3386.6548,-187.1061 3386.6548,-205.991 3386.6548,-205.991"/>
<polygon fill="#000000" stroke="#000000" points="3383.1549,-205.9909 3386.6548,-215.991 3390.1549,-205.991 3383.1549,-205.9909"/>
</g>
<!-- AppComponent  -->
<g id="node41" class="node">
<title>AppComponent </title>
<polygon fill="#80b1d3" stroke="#000000" points="3535.439,-252 3426.561,-252 3426.561,-216 3535.439,-216 3535.439,-252"/>
<text text-anchor="middle" x="3481" y="-229.8" font-family="Times,serif" font-size="14.00" fill="#000000">AppComponent </text>
</g>
<!-- AppModule&#45;&gt;AppComponent  -->
<g id="edge41" class="edge">
<title>AppModule&#45;&gt;AppComponent </title>
<path fill="none" stroke="#000000" stroke-dasharray="1,5" d="M3440.1794,-187.1061C3440.1794,-187.1061 3440.1794,-205.991 3440.1794,-205.991"/>
<polygon fill="#000000" stroke="#000000" points="3436.6794,-205.9909 3440.1794,-215.991 3443.6794,-205.991 3436.6794,-205.9909"/>
</g>
<!-- AuthService -->
<g id="node42" class="node">
<title>AuthService</title>
<ellipse fill="#fdb462" stroke="#000000" cx="455" cy="-104" rx="59.1083" ry="18"/>
<text text-anchor="middle" x="455" y="-99.8" font-family="Times,serif" font-size="14.00" fill="#000000">AuthService</text>
</g>
<!-- AuthService&#45;&gt;AppModule -->
<g id="edge42" class="edge">
<title>AuthService&#45;&gt;AppModule</title>
<path fill="none" stroke="#000000" d="M455,-122.0908C455,-145.1328 455,-182 455,-182 455,-182 3360.1989,-182 3360.1989,-182"/>
<polygon fill="#000000" stroke="#000000" points="3360.199,-185.5001 3370.1989,-182 3360.1989,-178.5001 3360.199,-185.5001"/>
</g>
<!-- BackendService -->
<g id="node43" class="node">
<title>BackendService</title>
<ellipse fill="#fdb462" stroke="#000000" cx="304" cy="-104" rx="73.556" ry="18"/>
<text text-anchor="middle" x="304" y="-99.8" font-family="Times,serif" font-size="14.00" fill="#000000">BackendService</text>
</g>
<!-- BackendService&#45;&gt;AppModule -->
<g id="edge43" class="edge">
<title>BackendService&#45;&gt;AppModule</title>
<path fill="none" stroke="#000000" d="M304,-122.1532C304,-145.7566 304,-184 304,-184 304,-184 3360.1241,-184 3360.1241,-184"/>
<polygon fill="#000000" stroke="#000000" points="3360.1242,-187.5001 3370.1241,-184 3360.1241,-180.5001 3360.1242,-187.5001"/>
</g>
<!-- UpdateEventsService -->
<g id="node44" class="node">
<title>UpdateEventsService</title>
<ellipse fill="#fdb462" stroke="#000000" cx="118" cy="-104" rx="94.3195" ry="18"/>
<text text-anchor="middle" x="118" y="-99.8" font-family="Times,serif" font-size="14.00" fill="#000000">UpdateEventsService</text>
</g>
<!-- UpdateEventsService&#45;&gt;AppModule -->
<g id="edge44" class="edge">
<title>UpdateEventsService&#45;&gt;AppModule</title>
<path fill="none" stroke="#000000" d="M118,-122.1985C118,-146.3563 118,-186 118,-186 118,-186 3360.052,-186 3360.052,-186"/>
<polygon fill="#000000" stroke="#000000" points="3360.052,-189.5001 3370.052,-186 3360.052,-182.5001 3360.052,-189.5001"/>
</g>
</g>
</svg>
