<?xml version="1.0" encoding="UTF-8" standalone="no"?>
<!DOCTYPE svg PUBLIC "-//W3C//DTD SVG 1.1//EN"
 "http://www.w3.org/Graphics/SVG/1.1/DTD/svg11.dtd">
<!-- Generated by graphviz version 2.40.1 (20161225.0304)
 -->
<!-- Title: dependencies Pages: 1 -->
<svg width="3437pt" height="284pt"
 viewBox="0.00 0.00 3437.00 284.00" xmlns="http://www.w3.org/2000/svg" xmlns:xlink="http://www.w3.org/1999/xlink">
<g id="graph0" class="graph" transform="scale(1 1) rotate(0) translate(4 280)">
<title>dependencies</title>
<polygon fill="#ffffff" stroke="transparent" points="-4,4 -4,-280 3433,-280 3433,4 -4,4"/>
<text text-anchor="start" x="1693.5091" y="-42.4" font-family="sans-serif" font-weight="bold" font-size="14.00" fill="#000000">Legend</text>
<polygon fill="#ffffb3" stroke="transparent" points="1480.5,-10 1480.5,-30 1500.5,-30 1500.5,-10 1480.5,-10"/>
<text text-anchor="start" x="1504.129" y="-15.4" font-family="sans-serif" font-size="14.00" fill="#000000"> &#160;Declarations</text>
<polygon fill="#8dd3c7" stroke="transparent" points="1593.5,-10 1593.5,-30 1613.5,-30 1613.5,-10 1593.5,-10"/>
<text text-anchor="start" x="1617.2251" y="-15.4" font-family="sans-serif" font-size="14.00" fill="#000000"> &#160;Module</text>
<polygon fill="#80b1d3" stroke="transparent" points="1679.5,-10 1679.5,-30 1699.5,-30 1699.5,-10 1679.5,-10"/>
<text text-anchor="start" x="1703.2812" y="-15.4" font-family="sans-serif" font-size="14.00" fill="#000000"> &#160;Bootstrap</text>
<polygon fill="#fdb462" stroke="transparent" points="1776.5,-10 1776.5,-30 1796.5,-30 1796.5,-10 1776.5,-10"/>
<text text-anchor="start" x="1800.1732" y="-15.4" font-family="sans-serif" font-size="14.00" fill="#000000"> &#160;Providers</text>
<polygon fill="#fb8072" stroke="transparent" points="1872.5,-10 1872.5,-30 1892.5,-30 1892.5,-10 1872.5,-10"/>
<text text-anchor="start" x="1896.2258" y="-15.4" font-family="sans-serif" font-size="14.00" fill="#000000"> &#160;Exports</text>
<g id="clust1" class="cluster">
<title>cluster_AppModule</title>
<polygon fill="none" stroke="#000000" stroke-dasharray="1,5" points="8,-70 8,-268 3421,-268 3421,-70 8,-70"/>
</g>
<g id="clust2" class="cluster">
<title>cluster_AppModule_declarations</title>
<polygon fill="none" stroke="#000000" points="530,-78 530,-130 3413,-130 3413,-78 530,-78"/>
</g>
<g id="clust24" class="cluster">
<title>cluster_AppModule_exports</title>
<polygon fill="none" stroke="#000000" points="1590,-208 1590,-260 1724,-260 1724,-208 1590,-208"/>
</g>
<g id="clust25" class="cluster">
<title>cluster_AppModule_bootstrap</title>
<polygon fill="none" stroke="#000000" points="1732,-208 1732,-260 1856,-260 1856,-208 1732,-208"/>
</g>
<g id="clust26" class="cluster">
<title>cluster_AppModule_providers</title>
<polygon fill="none" stroke="#000000" points="16,-78 16,-130 522,-130 522,-78 16,-78"/>
</g>
<!-- AbbreviatePipe -->
<g id="node1" class="node">
<title>AbbreviatePipe</title>
<polygon fill="#ffffb3" stroke="#000000" points="3404.58,-122 3301.42,-122 3301.42,-86 3404.58,-86 3404.58,-122"/>
<text text-anchor="middle" x="3353" y="-99.8" font-family="Times,serif" font-size="14.00" fill="#000000">AbbreviatePipe</text>
</g>
<!-- AppModule -->
<g id="node21" class="node">
<title>AppModule</title>
<polygon fill="#8dd3c7" stroke="#000000" points="1766.6571,-187 1763.6571,-191 1742.6571,-191 1739.6571,-187 1683.3429,-187 1683.3429,-151 1766.6571,-151 1766.6571,-187"/>
<text text-anchor="middle" x="1725" y="-164.8" font-family="Times,serif" font-size="14.00" fill="#000000">AppModule</text>
</g>
<!-- AbbreviatePipe&#45;&gt;AppModule -->
<g id="edge1" class="edge">
<title>AbbreviatePipe&#45;&gt;AppModule</title>
<path fill="none" stroke="#000000" d="M3353,-122.1532C3353,-145.7566 3353,-184 3353,-184 3353,-184 1776.8789,-184 1776.8789,-184"/>
<polygon fill="#000000" stroke="#000000" points="1776.879,-180.5001 1766.8789,-184 1776.8789,-187.5001 1776.879,-180.5001"/>
</g>
<!-- AddUserComponent -->
<g id="node2" class="node">
<title>AddUserComponent</title>
<polygon fill="#ffffb3" stroke="#000000" points="3283.8655,-122 3152.1345,-122 3152.1345,-86 3283.8655,-86 3283.8655,-122"/>
<text text-anchor="middle" x="3218" y="-99.8" font-family="Times,serif" font-size="14.00" fill="#000000">AddUserComponent</text>
</g>
<!-- AddUserComponent&#45;&gt;AppModule -->
<g id="edge2" class="edge">
<title>AddUserComponent&#45;&gt;AppModule</title>
<path fill="none" stroke="#000000" d="M3218,-122.2479C3218,-145.0179 3218,-181 3218,-181 3218,-181 1776.8828,-181 1776.8828,-181"/>
<polygon fill="#000000" stroke="#000000" points="1776.8828,-177.5001 1766.8828,-181 1776.8827,-184.5001 1776.8828,-177.5001"/>
</g>
<!-- AppComponent -->
<g id="node3" class="node">
<title>AppComponent</title>
<polygon fill="#ffffb3" stroke="#000000" points="3133.9399,-122 3028.0601,-122 3028.0601,-86 3133.9399,-86 3133.9399,-122"/>
<text text-anchor="middle" x="3081" y="-99.8" font-family="Times,serif" font-size="14.00" fill="#000000">AppComponent</text>
</g>
<!-- AppComponent&#45;&gt;AppModule -->
<g id="edge3" class="edge">
<title>AppComponent&#45;&gt;AppModule</title>
<path fill="none" stroke="#000000" d="M3081,-122.2921C3081,-144.2057 3081,-178 3081,-178 3081,-178 1776.6953,-178 1776.6953,-178"/>
<polygon fill="#000000" stroke="#000000" points="1776.6953,-174.5001 1766.6953,-178 1776.6953,-181.5001 1776.6953,-174.5001"/>
</g>
<!-- ApplicationsComponent -->
<g id="node4" class="node">
<title>ApplicationsComponent</title>
<polygon fill="#ffffb3" stroke="#000000" points="3010.3753,-122 2857.6247,-122 2857.6247,-86 3010.3753,-86 3010.3753,-122"/>
<text text-anchor="middle" x="2934" y="-99.8" font-family="Times,serif" font-size="14.00" fill="#000000">ApplicationsComponent</text>
</g>
<!-- ApplicationsComponent&#45;&gt;AppModule -->
<g id="edge4" class="edge">
<title>ApplicationsComponent&#45;&gt;AppModule</title>
<path fill="none" stroke="#000000" d="M2934,-122.2843C2934,-143.3211 2934,-175 2934,-175 2934,-175 1776.9676,-175 1776.9676,-175"/>
<polygon fill="#000000" stroke="#000000" points="1776.9676,-171.5001 1766.9676,-175 1776.9676,-178.5001 1776.9676,-171.5001"/>
</g>
<!-- AppsInfoComponent -->
<g id="node5" class="node">
<title>AppsInfoComponent</title>
<polygon fill="#ffffb3" stroke="#000000" points="2839.205,-122 2704.795,-122 2704.795,-86 2839.205,-86 2839.205,-122"/>
<text text-anchor="middle" x="2772" y="-99.8" font-family="Times,serif" font-size="14.00" fill="#000000">AppsInfoComponent</text>
</g>
<!-- AppsInfoComponent&#45;&gt;AppModule -->
<g id="edge5" class="edge">
<title>AppsInfoComponent&#45;&gt;AppModule</title>
<path fill="none" stroke="#000000" d="M2772,-122.2228C2772,-142.3652 2772,-172 2772,-172 2772,-172 1776.6897,-172 1776.6897,-172"/>
<polygon fill="#000000" stroke="#000000" points="1776.6898,-168.5001 1766.6897,-172 1776.6897,-175.5001 1776.6898,-168.5001"/>
</g>
<!-- ChangePasswordComponent -->
<g id="node6" class="node">
<title>ChangePasswordComponent</title>
<polygon fill="#ffffb3" stroke="#000000" points="2686.752,-122 2509.248,-122 2509.248,-86 2686.752,-86 2686.752,-122"/>
<text text-anchor="middle" x="2598" y="-99.8" font-family="Times,serif" font-size="14.00" fill="#000000">ChangePasswordComponent</text>
</g>
<!-- ChangePasswordComponent&#45;&gt;AppModule -->
<g id="edge6" class="edge">
<title>ChangePasswordComponent&#45;&gt;AppModule</title>
<path fill="none" stroke="#000000" d="M2598,-122.1061C2598,-141.3391 2598,-169 2598,-169 2598,-169 1776.8125,-169 1776.8125,-169"/>
<polygon fill="#000000" stroke="#000000" points="1776.8125,-165.5001 1766.8125,-169 1776.8125,-172.5001 1776.8125,-165.5001"/>
</g>
<!-- ClusterComponent -->
<g id="node7" class="node">
<title>ClusterComponent</title>
<polygon fill="#ffffb3" stroke="#000000" points="2490.7702,-122 2369.2298,-122 2369.2298,-86 2490.7702,-86 2490.7702,-122"/>
<text text-anchor="middle" x="2430" y="-99.8" font-family="Times,serif" font-size="14.00" fill="#000000">ClusterComponent</text>
</g>
<!-- ClusterComponent&#45;&gt;AppModule -->
<g id="edge7" class="edge">
<title>ClusterComponent&#45;&gt;AppModule</title>
<path fill="none" stroke="#000000" d="M2430,-122.2667C2430,-140.5552 2430,-166 2430,-166 2430,-166 1776.729,-166 1776.729,-166"/>
<polygon fill="#000000" stroke="#000000" points="1776.729,-162.5001 1766.729,-166 1776.7289,-169.5001 1776.729,-162.5001"/>
</g>
<!-- DebugPanelComponent -->
<g id="node8" class="node">
<title>DebugPanelComponent</title>
<polygon fill="#ffffb3" stroke="#000000" points="2350.7562,-122 2201.2438,-122 2201.2438,-86 2350.7562,-86 2350.7562,-122"/>
<text text-anchor="middle" x="2276" y="-99.8" font-family="Times,serif" font-size="14.00" fill="#000000">DebugPanelComponent</text>
</g>
<!-- DebugPanelComponent&#45;&gt;AppModule -->
<g id="edge8" class="edge">
<title>DebugPanelComponent&#45;&gt;AppModule</title>
<path fill="none" stroke="#000000" d="M2276,-122.0225C2276,-139.3734 2276,-163 2276,-163 2276,-163 1776.8668,-163 1776.8668,-163"/>
<polygon fill="#000000" stroke="#000000" points="1776.8668,-159.5001 1766.8668,-163 1776.8668,-166.5001 1776.8668,-159.5001"/>
</g>
<!-- EditClusterComponent -->
<g id="node9" class="node">
<title>EditClusterComponent</title>
<polygon fill="#ffffb3" stroke="#000000" points="2183.6038,-122 2038.3962,-122 2038.3962,-86 2183.6038,-86 2183.6038,-122"/>
<text text-anchor="middle" x="2111" y="-99.8" font-family="Times,serif" font-size="14.00" fill="#000000">EditClusterComponent</text>
</g>
<!-- EditClusterComponent&#45;&gt;AppModule -->
<g id="edge9" class="edge">
<title>EditClusterComponent&#45;&gt;AppModule</title>
<path fill="none" stroke="#000000" d="M2111,-122.027C2111,-138.3976 2111,-160 2111,-160 2111,-160 1776.6755,-160 1776.6755,-160"/>
<polygon fill="#000000" stroke="#000000" points="1776.6755,-156.5001 1766.6755,-160 1776.6755,-163.5001 1776.6755,-156.5001"/>
</g>
<!-- EditUserComponent -->
<g id="node10" class="node">
<title>EditUserComponent</title>
<polygon fill="#ffffb3" stroke="#000000" points="2020.5926,-122 1889.4074,-122 1889.4074,-86 2020.5926,-86 2020.5926,-122"/>
<text text-anchor="middle" x="1955" y="-99.8" font-family="Times,serif" font-size="14.00" fill="#000000">EditUserComponent</text>
</g>
<!-- EditUserComponent&#45;&gt;AppModule -->
<g id="edge10" class="edge">
<title>EditUserComponent&#45;&gt;AppModule</title>
<path fill="none" stroke="#000000" d="M1955,-122.2396C1955,-137.5706 1955,-157 1955,-157 1955,-157 1776.9181,-157 1776.9181,-157"/>
<polygon fill="#000000" stroke="#000000" points="1776.9181,-153.5001 1766.9181,-157 1776.9181,-160.5001 1776.9181,-153.5001"/>
</g>
<!-- FilterPipe -->
<g id="node11" class="node">
<title>FilterPipe</title>
<polygon fill="#ffffb3" stroke="#000000" points="1871.7177,-122 1800.2823,-122 1800.2823,-86 1871.7177,-86 1871.7177,-122"/>
<text text-anchor="middle" x="1836" y="-99.8" font-family="Times,serif" font-size="14.00" fill="#000000">FilterPipe</text>
</g>
<!-- FilterPipe&#45;&gt;AppModule -->
<g id="edge11" class="edge">
<title>FilterPipe&#45;&gt;AppModule</title>
<path fill="none" stroke="#000000" d="M1824.4304,-122.0511C1824.4304,-136.373 1824.4304,-154 1824.4304,-154 1824.4304,-154 1776.8793,-154 1776.8793,-154"/>
<polygon fill="#000000" stroke="#000000" points="1776.8793,-150.5001 1766.8793,-154 1776.8792,-157.5001 1776.8793,-150.5001"/>
</g>
<!-- LoginComponent -->
<g id="node12" class="node">
<title>LoginComponent</title>
<polygon fill="#ffffb3" stroke="#000000" points="1782.2758,-122 1667.7242,-122 1667.7242,-86 1782.2758,-86 1782.2758,-122"/>
<text text-anchor="middle" x="1725" y="-99.8" font-family="Times,serif" font-size="14.00" fill="#000000">LoginComponent</text>
</g>
<!-- LoginComponent&#45;&gt;AppModule -->
<g id="edge12" class="edge">
<title>LoginComponent&#45;&gt;AppModule</title>
<path fill="none" stroke="#000000" d="M1725,-122.1061C1725,-122.1061 1725,-140.991 1725,-140.991"/>
<polygon fill="#000000" stroke="#000000" points="1721.5001,-140.9909 1725,-150.991 1728.5001,-140.991 1721.5001,-140.9909"/>
</g>
<!-- MainComponent -->
<g id="node13" class="node">
<title>MainComponent</title>
<polygon fill="#ffffb3" stroke="#000000" points="1649.3823,-122 1538.6177,-122 1538.6177,-86 1649.3823,-86 1649.3823,-122"/>
<text text-anchor="middle" x="1594" y="-99.8" font-family="Times,serif" font-size="14.00" fill="#000000">MainComponent</text>
</g>
<!-- MainComponent&#45;&gt;AppModule -->
<g id="edge13" class="edge">
<title>MainComponent&#45;&gt;AppModule</title>
<path fill="none" stroke="#000000" d="M1623.6517,-122.0511C1623.6517,-136.373 1623.6517,-154 1623.6517,-154 1623.6517,-154 1673.1926,-154 1673.1926,-154"/>
<polygon fill="#000000" stroke="#000000" points="1673.1927,-157.5001 1683.1926,-154 1673.1926,-150.5001 1673.1927,-157.5001"/>
</g>
<!-- NotificationsComponent -->
<g id="node14" class="node">
<title>NotificationsComponent</title>
<polygon fill="#ffffb3" stroke="#000000" points="1520.427,-122 1365.573,-122 1365.573,-86 1520.427,-86 1520.427,-122"/>
<text text-anchor="middle" x="1443" y="-99.8" font-family="Times,serif" font-size="14.00" fill="#000000">NotificationsComponent</text>
</g>
<!-- NotificationsComponent&#45;&gt;AppModule -->
<g id="edge14" class="edge">
<title>NotificationsComponent&#45;&gt;AppModule</title>
<path fill="none" stroke="#000000" d="M1443,-122.2396C1443,-137.5706 1443,-157 1443,-157 1443,-157 1673.0863,-157 1673.0863,-157"/>
<polygon fill="#000000" stroke="#000000" points="1673.0863,-160.5001 1683.0863,-157 1673.0862,-153.5001 1673.0863,-160.5001"/>
</g>
<!-- OrganizationComponent -->
<g id="node15" class="node">
<title>OrganizationComponent</title>
<polygon fill="#ffffb3" stroke="#000000" points="1348.4158,-122 1193.5842,-122 1193.5842,-86 1348.4158,-86 1348.4158,-122"/>
<text text-anchor="middle" x="1271" y="-99.8" font-family="Times,serif" font-size="14.00" fill="#000000">OrganizationComponent</text>
</g>
<!-- OrganizationComponent&#45;&gt;AppModule -->
<g id="edge15" class="edge">
<title>OrganizationComponent&#45;&gt;AppModule</title>
<path fill="none" stroke="#000000" d="M1271,-122.027C1271,-138.3976 1271,-160 1271,-160 1271,-160 1673.1025,-160 1673.1025,-160"/>
<polygon fill="#000000" stroke="#000000" points="1673.1026,-163.5001 1683.1025,-160 1673.1025,-156.5001 1673.1026,-163.5001"/>
</g>
<!-- ResourcesComponent -->
<g id="node16" class="node">
<title>ResourcesComponent</title>
<polygon fill="#ffffb3" stroke="#000000" points="1175.3627,-122 1036.6373,-122 1036.6373,-86 1175.3627,-86 1175.3627,-122"/>
<text text-anchor="middle" x="1106" y="-99.8" font-family="Times,serif" font-size="14.00" fill="#000000">ResourcesComponent</text>
</g>
<!-- ResourcesComponent&#45;&gt;AppModule -->
<g id="edge16" class="edge">
<title>ResourcesComponent&#45;&gt;AppModule</title>
<path fill="none" stroke="#000000" d="M1106,-122.0225C1106,-139.3734 1106,-163 1106,-163 1106,-163 1672.9403,-163 1672.9403,-163"/>
<polygon fill="#000000" stroke="#000000" points="1672.9403,-166.5001 1682.9403,-163 1672.9402,-159.5001 1672.9403,-166.5001"/>
</g>
<!-- SidebarComponent -->
<g id="node17" class="node">
<title>SidebarComponent</title>
<polygon fill="#ffffb3" stroke="#000000" points="1019.0954,-122 894.9046,-122 894.9046,-86 1019.0954,-86 1019.0954,-122"/>
<text text-anchor="middle" x="957" y="-99.8" font-family="Times,serif" font-size="14.00" fill="#000000">SidebarComponent</text>
</g>
<!-- SidebarComponent&#45;&gt;AppModule -->
<g id="edge17" class="edge">
<title>SidebarComponent&#45;&gt;AppModule</title>
<path fill="none" stroke="#000000" d="M957,-122.2667C957,-140.5552 957,-166 957,-166 957,-166 1673.1636,-166 1673.1636,-166"/>
<polygon fill="#000000" stroke="#000000" points="1673.1636,-169.5001 1683.1636,-166 1673.1635,-162.5001 1673.1636,-169.5001"/>
</g>
<!-- SortByPipe -->
<g id="node18" class="node">
<title>SortByPipe</title>
<polygon fill="#ffffb3" stroke="#000000" points="877.0594,-122 796.9406,-122 796.9406,-86 877.0594,-86 877.0594,-122"/>
<text text-anchor="middle" x="837" y="-99.8" font-family="Times,serif" font-size="14.00" fill="#000000">SortByPipe</text>
</g>
<!-- SortByPipe&#45;&gt;AppModule -->
<g id="edge18" class="edge">
<title>SortByPipe&#45;&gt;AppModule</title>
<path fill="none" stroke="#000000" d="M837,-122.1061C837,-141.3391 837,-169 837,-169 837,-169 1673.0646,-169 1673.0646,-169"/>
<polygon fill="#000000" stroke="#000000" points="1673.0646,-172.5001 1683.0646,-169 1673.0646,-165.5001 1673.0646,-172.5001"/>
</g>
<!-- TruncatePipe -->
<g id="node19" class="node">
<title>TruncatePipe</title>
<polygon fill="#ffffb3" stroke="#000000" points="778.1361,-122 687.8639,-122 687.8639,-86 778.1361,-86 778.1361,-122"/>
<text text-anchor="middle" x="733" y="-99.8" font-family="Times,serif" font-size="14.00" fill="#000000">TruncatePipe</text>
</g>
<!-- TruncatePipe&#45;&gt;AppModule -->
<g id="edge19" class="edge">
<title>TruncatePipe&#45;&gt;AppModule</title>
<path fill="none" stroke="#000000" d="M733,-122.2228C733,-142.3652 733,-172 733,-172 733,-172 1673.3238,-172 1673.3238,-172"/>
<polygon fill="#000000" stroke="#000000" points="1673.3239,-175.5001 1683.3238,-172 1673.3238,-168.5001 1673.3239,-175.5001"/>
</g>
<!-- UserInfoComponent -->
<g id="node20" class="node">
<title>UserInfoComponent</title>
<polygon fill="#ffffb3" stroke="#000000" points="669.58,-122 538.42,-122 538.42,-86 669.58,-86 669.58,-122"/>
<text text-anchor="middle" x="604" y="-99.8" font-family="Times,serif" font-size="14.00" fill="#000000">UserInfoComponent</text>
</g>
<!-- UserInfoComponent&#45;&gt;AppModule -->
<g id="edge20" class="edge">
<title>UserInfoComponent&#45;&gt;AppModule</title>
<path fill="none" stroke="#000000" d="M604,-122.2843C604,-143.3211 604,-175 604,-175 604,-175 1673.1014,-175 1673.1014,-175"/>
<polygon fill="#000000" stroke="#000000" points="1673.1014,-178.5001 1683.1014,-175 1673.1014,-171.5001 1673.1014,-178.5001"/>
</g>
<!-- LoginComponent  -->
<g id="node22" class="node">
<title>LoginComponent </title>
<polygon fill="#fb8072" stroke="#000000" points="1716.2759,-252 1597.7241,-252 1597.7241,-216 1716.2759,-216 1716.2759,-252"/>
<text text-anchor="middle" x="1657" y="-229.8" font-family="Times,serif" font-size="14.00" fill="#000000">LoginComponent </text>
</g>
<!-- AppModule&#45;&gt;LoginComponent  -->
<g id="edge21" class="edge">
<title>AppModule&#45;&gt;LoginComponent </title>
<path fill="none" stroke="#000000" stroke-dasharray="5,2" d="M1699.6548,-187.1061C1699.6548,-187.1061 1699.6548,-205.991 1699.6548,-205.991"/>
<polygon fill="#000000" stroke="#000000" points="1696.1549,-205.9909 1699.6548,-215.991 1703.1549,-205.991 1696.1549,-205.9909"/>
</g>
<!-- AppComponent  -->
<g id="node23" class="node">
<title>AppComponent </title>
<polygon fill="#80b1d3" stroke="#000000" points="1848.439,-252 1739.561,-252 1739.561,-216 1848.439,-216 1848.439,-252"/>
<text text-anchor="middle" x="1794" y="-229.8" font-family="Times,serif" font-size="14.00" fill="#000000">AppComponent </text>
</g>
<!-- AppModule&#45;&gt;AppComponent  -->
<g id="edge22" class="edge">
<title>AppModule&#45;&gt;AppComponent </title>
<path fill="none" stroke="#000000" stroke-dasharray="1,5" d="M1753.1794,-187.1061C1753.1794,-187.1061 1753.1794,-205.991 1753.1794,-205.991"/>
<polygon fill="#000000" stroke="#000000" points="1749.6794,-205.9909 1753.1794,-215.991 1756.6794,-205.991 1749.6794,-205.9909"/>
</g>
<!-- AuthService -->
<g id="node24" class="node">
<title>AuthService</title>
<ellipse fill="#fdb462" stroke="#000000" cx="455" cy="-104" rx="59.1083" ry="18"/>
<text text-anchor="middle" x="455" y="-99.8" font-family="Times,serif" font-size="14.00" fill="#000000">AuthService</text>
</g>
<!-- AuthService&#45;&gt;AppModule -->
<g id="edge23" class="edge">
<title>AuthService&#45;&gt;AppModule</title>
<path fill="none" stroke="#000000" d="M455,-122.2921C455,-144.2057 455,-178 455,-178 455,-178 1673.1066,-178 1673.1066,-178"/>
<polygon fill="#000000" stroke="#000000" points="1673.1066,-181.5001 1683.1066,-178 1673.1065,-174.5001 1673.1066,-181.5001"/>
</g>
<!-- BackendService -->
<g id="node25" class="node">
<title>BackendService</title>
<ellipse fill="#fdb462" stroke="#000000" cx="304" cy="-104" rx="73.556" ry="18"/>
<text text-anchor="middle" x="304" y="-99.8" font-family="Times,serif" font-size="14.00" fill="#000000">BackendService</text>
</g>
<!-- BackendService&#45;&gt;AppModule -->
<g id="edge24" class="edge">
<title>BackendService&#45;&gt;AppModule</title>
<path fill="none" stroke="#000000" d="M304,-122.2479C304,-145.0179 304,-181 304,-181 304,-181 1673.2417,-181 1673.2417,-181"/>
<polygon fill="#000000" stroke="#000000" points="1673.2418,-184.5001 1683.2417,-181 1673.2417,-177.5001 1673.2418,-184.5001"/>
</g>
<!-- UpdateEventsService -->
<g id="node26" class="node">
<title>UpdateEventsService</title>
<ellipse fill="#fdb462" stroke="#000000" cx="118" cy="-104" rx="94.3195" ry="18"/>
<text text-anchor="middle" x="118" y="-99.8" font-family="Times,serif" font-size="14.00" fill="#000000">UpdateEventsService</text>
</g>
<!-- UpdateEventsService&#45;&gt;AppModule -->
<g id="edge25" class="edge">
<title>UpdateEventsService&#45;&gt;AppModule</title>
<path fill="none" stroke="#000000" d="M118,-122.1532C118,-145.7566 118,-184 118,-184 118,-184 1673.2529,-184 1673.2529,-184"/>
<polygon fill="#000000" stroke="#000000" points="1673.2529,-187.5001 1683.2529,-184 1673.2529,-180.5001 1673.2529,-187.5001"/>
</g>
</g>
</svg>
