<?xml version="1.0" encoding="UTF-8" standalone="no"?>
<!DOCTYPE svg PUBLIC "-//W3C//DTD SVG 1.1//EN"
 "http://www.w3.org/Graphics/SVG/1.1/DTD/svg11.dtd">
<!-- Generated by graphviz version 2.40.1 (20161225.0304)
 -->
<!-- Title: dependencies Pages: 1 -->
<svg width="7088pt" height="284pt"
 viewBox="0.00 0.00 7088.00 284.00" xmlns="http://www.w3.org/2000/svg" xmlns:xlink="http://www.w3.org/1999/xlink">
<g id="graph0" class="graph" transform="scale(1 1) rotate(0) translate(4 280)">
<title>dependencies</title>
<polygon fill="#ffffff" stroke="transparent" points="-4,4 -4,-280 7084,-280 7084,4 -4,4"/>
<text text-anchor="start" x="3519.0091" y="-42.4" font-family="sans-serif" font-weight="bold" font-size="14.00" fill="#000000">Legend</text>
<polygon fill="#ffffb3" stroke="transparent" points="3306,-10 3306,-30 3326,-30 3326,-10 3306,-10"/>
<text text-anchor="start" x="3329.629" y="-15.4" font-family="sans-serif" font-size="14.00" fill="#000000"> &#160;Declarations</text>
<polygon fill="#8dd3c7" stroke="transparent" points="3419,-10 3419,-30 3439,-30 3439,-10 3419,-10"/>
<text text-anchor="start" x="3442.7251" y="-15.4" font-family="sans-serif" font-size="14.00" fill="#000000"> &#160;Module</text>
<polygon fill="#80b1d3" stroke="transparent" points="3505,-10 3505,-30 3525,-30 3525,-10 3505,-10"/>
<text text-anchor="start" x="3528.7812" y="-15.4" font-family="sans-serif" font-size="14.00" fill="#000000"> &#160;Bootstrap</text>
<polygon fill="#fdb462" stroke="transparent" points="3602,-10 3602,-30 3622,-30 3622,-10 3602,-10"/>
<text text-anchor="start" x="3625.6732" y="-15.4" font-family="sans-serif" font-size="14.00" fill="#000000"> &#160;Providers</text>
<polygon fill="#fb8072" stroke="transparent" points="3698,-10 3698,-30 3718,-30 3718,-10 3698,-10"/>
<text text-anchor="start" x="3721.7258" y="-15.4" font-family="sans-serif" font-size="14.00" fill="#000000"> &#160;Exports</text>
<g id="clust1" class="cluster">
<title>cluster_AppModule</title>
<polygon fill="none" stroke="#000000" stroke-dasharray="1,5" points="8,-70 8,-268 7072,-268 7072,-70 8,-70"/>
</g>
<g id="clust2" class="cluster">
<title>cluster_AppModule_declarations</title>
<polygon fill="none" stroke="#000000" points="530,-78 530,-130 7064,-130 7064,-78 530,-78"/>
</g>
<g id="clust44" class="cluster">
<title>cluster_AppModule_exports</title>
<polygon fill="none" stroke="#000000" points="3439,-208 3439,-260 3573,-260 3573,-208 3439,-208"/>
</g>
<g id="clust45" class="cluster">
<title>cluster_AppModule_bootstrap</title>
<polygon fill="none" stroke="#000000" points="3581,-208 3581,-260 3705,-260 3705,-208 3581,-208"/>
</g>
<g id="clust46" class="cluster">
<title>cluster_AppModule_providers</title>
<polygon fill="none" stroke="#000000" points="16,-78 16,-130 522,-130 522,-78 16,-78"/>
</g>
<!-- AbbreviatePipe -->
<g id="node1" class="node">
<title>AbbreviatePipe</title>
<polygon fill="#ffffb3" stroke="#000000" points="7055.58,-122 6952.42,-122 6952.42,-86 7055.58,-86 7055.58,-122"/>
<text text-anchor="middle" x="7004" y="-99.8" font-family="Times,serif" font-size="14.00" fill="#000000">AbbreviatePipe</text>
</g>
<!-- AppModule -->
<g id="node41" class="node">
<title>AppModule</title>
<polygon fill="#8dd3c7" stroke="#000000" points="3615.6571,-187 3612.6571,-191 3591.6571,-191 3588.6571,-187 3532.3429,-187 3532.3429,-151 3615.6571,-151 3615.6571,-187"/>
<text text-anchor="middle" x="3574" y="-164.8" font-family="Times,serif" font-size="14.00" fill="#000000">AppModule</text>
</g>
<!-- AbbreviatePipe&#45;&gt;AppModule -->
<g id="edge1" class="edge">
<title>AbbreviatePipe&#45;&gt;AppModule</title>
<path fill="none" stroke="#000000" d="M7004,-122.1985C7004,-146.3563 7004,-186 7004,-186 7004,-186 3625.8237,-186 3625.8237,-186"/>
<polygon fill="#000000" stroke="#000000" points="3625.8237,-182.5001 3615.8237,-186 3625.8237,-189.5001 3625.8237,-182.5001"/>
</g>
<!-- AddDevicesGroupComponent -->
<g id="node2" class="node">
<title>AddDevicesGroupComponent</title>
<polygon fill="#ffffb3" stroke="#000000" points="6934.292,-122 6747.708,-122 6747.708,-86 6934.292,-86 6934.292,-122"/>
<text text-anchor="middle" x="6841" y="-99.8" font-family="Times,serif" font-size="14.00" fill="#000000">AddDevicesGroupComponent</text>
</g>
<!-- AddDevicesGroupComponent&#45;&gt;AppModule -->
<g id="edge2" class="edge">
<title>AddDevicesGroupComponent&#45;&gt;AppModule</title>
<path fill="none" stroke="#000000" d="M6841,-122.1532C6841,-145.7566 6841,-184 6841,-184 6841,-184 3625.9024,-184 3625.9024,-184"/>
<polygon fill="#000000" stroke="#000000" points="3625.9024,-180.5001 3615.9024,-184 3625.9023,-187.5001 3625.9024,-180.5001"/>
</g>
<!-- AddLabelComponent -->
<g id="node3" class="node">
<title>AddLabelComponent</title>
<polygon fill="#ffffb3" stroke="#000000" points="6729.8118,-122 6592.1882,-122 6592.1882,-86 6729.8118,-86 6729.8118,-122"/>
<text text-anchor="middle" x="6661" y="-99.8" font-family="Times,serif" font-size="14.00" fill="#000000">AddLabelComponent</text>
</g>
<!-- AddLabelComponent&#45;&gt;AppModule -->
<g id="edge3" class="edge">
<title>AddLabelComponent&#45;&gt;AppModule</title>
<path fill="none" stroke="#000000" d="M6661,-122.3228C6661,-145.6602 6661,-183 6661,-183 6661,-183 3625.8823,-183 3625.8823,-183"/>
<polygon fill="#000000" stroke="#000000" points="3625.8824,-179.5001 3615.8823,-183 3625.8823,-186.5001 3625.8824,-179.5001"/>
</g>
<!-- AddUserComponent -->
<g id="node4" class="node">
<title>AddUserComponent</title>
<polygon fill="#ffffb3" stroke="#000000" points="6573.8655,-122 6442.1345,-122 6442.1345,-86 6573.8655,-86 6573.8655,-122"/>
<text text-anchor="middle" x="6508" y="-99.8" font-family="Times,serif" font-size="14.00" fill="#000000">AddUserComponent</text>
</g>
<!-- AddUserComponent&#45;&gt;AppModule -->
<g id="edge4" class="edge">
<title>AddUserComponent&#45;&gt;AppModule</title>
<path fill="none" stroke="#000000" d="M6508,-122.2479C6508,-145.0179 6508,-181 6508,-181 6508,-181 3625.7573,-181 3625.7573,-181"/>
<polygon fill="#000000" stroke="#000000" points="3625.7574,-177.5001 3615.7573,-181 3625.7573,-184.5001 3625.7574,-177.5001"/>
</g>
<!-- AgentJoinTokenInfoComponent -->
<g id="node5" class="node">
<title>AgentJoinTokenInfoComponent</title>
<polygon fill="#ffffb3" stroke="#000000" points="6423.9678,-122 6226.0322,-122 6226.0322,-86 6423.9678,-86 6423.9678,-122"/>
<text text-anchor="middle" x="6325" y="-99.8" font-family="Times,serif" font-size="14.00" fill="#000000">AgentJoinTokenInfoComponent</text>
</g>
<!-- AgentJoinTokenInfoComponent&#45;&gt;AppModule -->
<g id="edge5" class="edge">
<title>AgentJoinTokenInfoComponent&#45;&gt;AppModule</title>
<path fill="none" stroke="#000000" d="M6325,-122.1554C6325,-144.3519 6325,-179 6325,-179 6325,-179 3625.8377,-179 3625.8377,-179"/>
<polygon fill="#000000" stroke="#000000" points="3625.8377,-175.5001 3615.8377,-179 3625.8376,-182.5001 3625.8377,-175.5001"/>
</g>
<!-- AppComponent -->
<g id="node6" class="node">
<title>AppComponent</title>
<polygon fill="#ffffb3" stroke="#000000" points="6207.9399,-122 6102.0601,-122 6102.0601,-86 6207.9399,-86 6207.9399,-122"/>
<text text-anchor="middle" x="6155" y="-99.8" font-family="Times,serif" font-size="14.00" fill="#000000">AppComponent</text>
</g>
<!-- AppComponent&#45;&gt;AppModule -->
<g id="edge6" class="edge">
<title>AppComponent&#45;&gt;AppModule</title>
<path fill="none" stroke="#000000" d="M6155,-122.2921C6155,-144.2057 6155,-178 6155,-178 6155,-178 3625.85,-178 3625.85,-178"/>
<polygon fill="#000000" stroke="#000000" points="3625.8501,-174.5001 3615.85,-178 3625.85,-181.5001 3625.8501,-174.5001"/>
</g>
<!-- ApplicationsComponent -->
<g id="node7" class="node">
<title>ApplicationsComponent</title>
<polygon fill="#ffffb3" stroke="#000000" points="6084.3753,-122 5931.6247,-122 5931.6247,-86 6084.3753,-86 6084.3753,-122"/>
<text text-anchor="middle" x="6008" y="-99.8" font-family="Times,serif" font-size="14.00" fill="#000000">ApplicationsComponent</text>
</g>
<!-- ApplicationsComponent&#45;&gt;AppModule -->
<g id="edge7" class="edge">
<title>ApplicationsComponent&#45;&gt;AppModule</title>
<path fill="none" stroke="#000000" d="M6008,-122.1686C6008,-143.498 6008,-176 6008,-176 6008,-176 3625.7345,-176 3625.7345,-176"/>
<polygon fill="#000000" stroke="#000000" points="3625.7346,-172.5001 3615.7345,-176 3625.7345,-179.5001 3625.7346,-172.5001"/>
</g>
<!-- AssetInfoComponent -->
<g id="node8" class="node">
<title>AssetInfoComponent</title>
<polygon fill="#ffffb3" stroke="#000000" points="5913.7548,-122 5778.2452,-122 5778.2452,-86 5913.7548,-86 5913.7548,-122"/>
<text text-anchor="middle" x="5846" y="-99.8" font-family="Times,serif" font-size="14.00" fill="#000000">AssetInfoComponent</text>
</g>
<!-- AssetInfoComponent&#45;&gt;AppModule -->
<g id="edge8" class="edge">
<title>AssetInfoComponent&#45;&gt;AppModule</title>
<path fill="none" stroke="#000000" d="M5846,-122.0267C5846,-142.7672 5846,-174 5846,-174 5846,-174 3625.866,-174 3625.866,-174"/>
<polygon fill="#000000" stroke="#000000" points="3625.866,-170.5001 3615.866,-174 3625.866,-177.5001 3625.866,-170.5001"/>
</g>
<!-- AutofocusDirective -->
<g id="node9" class="node">
<title>AutofocusDirective</title>
<polygon fill="#ffffb3" stroke="#000000" points="5760.4004,-122 5633.5996,-122 5633.5996,-86 5760.4004,-86 5760.4004,-122"/>
<text text-anchor="middle" x="5697" y="-99.8" font-family="Times,serif" font-size="14.00" fill="#000000">AutofocusDirective</text>
</g>
<!-- AutofocusDirective&#45;&gt;AppModule -->
<g id="edge9" class="edge">
<title>AutofocusDirective&#45;&gt;AppModule</title>
<path fill="none" stroke="#000000" d="M5697,-122.1289C5697,-142.5724 5697,-173 5697,-173 5697,-173 3625.9305,-173 3625.9305,-173"/>
<polygon fill="#000000" stroke="#000000" points="3625.9305,-169.5001 3615.9305,-173 3625.9305,-176.5001 3625.9305,-169.5001"/>
</g>
<!-- ChangePasswordComponent -->
<g id="node10" class="node">
<title>ChangePasswordComponent</title>
<polygon fill="#ffffb3" stroke="#000000" points="5615.752,-122 5438.248,-122 5438.248,-86 5615.752,-86 5615.752,-122"/>
<text text-anchor="middle" x="5527" y="-99.8" font-family="Times,serif" font-size="14.00" fill="#000000">ChangePasswordComponent</text>
</g>
<!-- ChangePasswordComponent&#45;&gt;AppModule -->
<g id="edge10" class="edge">
<title>ChangePasswordComponent&#45;&gt;AppModule</title>
<path fill="none" stroke="#000000" d="M5527,-122.308C5527,-142.1455 5527,-171 5527,-171 5527,-171 3625.6947,-171 3625.6947,-171"/>
<polygon fill="#000000" stroke="#000000" points="3625.6947,-167.5001 3615.6947,-171 3625.6947,-174.5001 3625.6947,-167.5001"/>
</g>
<!-- ClusterComponent -->
<g id="node11" class="node">
<title>ClusterComponent</title>
<polygon fill="#ffffb3" stroke="#000000" points="5419.7702,-122 5298.2298,-122 5298.2298,-86 5419.7702,-86 5419.7702,-122"/>
<text text-anchor="middle" x="5359" y="-99.8" font-family="Times,serif" font-size="14.00" fill="#000000">ClusterComponent</text>
</g>
<!-- ClusterComponent&#45;&gt;AppModule -->
<g id="edge11" class="edge">
<title>ClusterComponent&#45;&gt;AppModule</title>
<path fill="none" stroke="#000000" d="M5359,-122.1061C5359,-141.3391 5359,-169 5359,-169 5359,-169 3625.9283,-169 3625.9283,-169"/>
<polygon fill="#000000" stroke="#000000" points="3625.9283,-165.5001 3615.9283,-169 3625.9283,-172.5001 3625.9283,-165.5001"/>
</g>
<!-- ContextualMenuComponent -->
<g id="node12" class="node">
<title>ContextualMenuComponent</title>
<polygon fill="#ffffb3" stroke="#000000" points="5279.9297,-122 5104.0703,-122 5104.0703,-86 5279.9297,-86 5279.9297,-122"/>
<text text-anchor="middle" x="5192" y="-99.8" font-family="Times,serif" font-size="14.00" fill="#000000">ContextualMenuComponent</text>
</g>
<!-- ContextualMenuComponent&#45;&gt;AppModule -->
<g id="edge12" class="edge">
<title>ContextualMenuComponent&#45;&gt;AppModule</title>
<path fill="none" stroke="#000000" d="M5221.2382,-122.1686C5221.2382,-141.0898 5221.2382,-168 5221.2382,-168 5221.2382,-168 3625.9571,-168 3625.9571,-168"/>
<polygon fill="#000000" stroke="#000000" points="3625.9572,-164.5001 3615.9571,-168 3625.9571,-171.5001 3625.9572,-164.5001"/>
</g>
<!-- ContextualMenuComponent&#45;&gt;AppModule -->
<g id="edge13" class="edge">
<title>ContextualMenuComponent&#45;&gt;AppModule</title>
<path fill="none" stroke="#000000" d="M5162.7618,-122.2667C5162.7618,-140.5552 5162.7618,-166 5162.7618,-166 5162.7618,-166 3625.6789,-166 3625.6789,-166"/>
<polygon fill="#000000" stroke="#000000" points="3625.6789,-162.5001 3615.6789,-166 3625.6788,-169.5001 3625.6789,-162.5001"/>
</g>
<!-- DebugPanelComponent -->
<g id="node13" class="node">
<title>DebugPanelComponent</title>
<polygon fill="#ffffb3" stroke="#000000" points="5085.7562,-122 4936.2438,-122 4936.2438,-86 5085.7562,-86 5085.7562,-122"/>
<text text-anchor="middle" x="5011" y="-99.8" font-family="Times,serif" font-size="14.00" fill="#000000">DebugPanelComponent</text>
</g>
<!-- DebugPanelComponent&#45;&gt;AppModule -->
<g id="edge14" class="edge">
<title>DebugPanelComponent&#45;&gt;AppModule</title>
<path fill="none" stroke="#000000" d="M5011,-122.302C5011,-140.2699 5011,-165 5011,-165 5011,-165 3625.8418,-165 3625.8418,-165"/>
<polygon fill="#000000" stroke="#000000" points="3625.8419,-161.5001 3615.8418,-165 3625.8418,-168.5001 3625.8419,-161.5001"/>
</g>
<!-- DeployInstanceComponent -->
<g id="node14" class="node">
<title>DeployInstanceComponent</title>
<polygon fill="#ffffb3" stroke="#000000" points="4918.6839,-122 4749.3161,-122 4749.3161,-86 4918.6839,-86 4918.6839,-122"/>
<text text-anchor="middle" x="4834" y="-99.8" font-family="Times,serif" font-size="14.00" fill="#000000">DeployInstanceComponent</text>
</g>
<!-- DeployInstanceComponent&#45;&gt;AppModule -->
<g id="edge15" class="edge">
<title>DeployInstanceComponent&#45;&gt;AppModule</title>
<path fill="none" stroke="#000000" d="M4834,-122.0225C4834,-139.3734 4834,-163 4834,-163 4834,-163 3625.9225,-163 3625.9225,-163"/>
<polygon fill="#000000" stroke="#000000" points="3625.9225,-159.5001 3615.9225,-163 3625.9224,-166.5001 3625.9225,-159.5001"/>
</g>
<!-- DeviceGroupCreatedComponent -->
<g id="node15" class="node">
<title>DeviceGroupCreatedComponent</title>
<polygon fill="#ffffb3" stroke="#000000" points="4731.2724,-122 4530.7276,-122 4530.7276,-86 4731.2724,-86 4731.2724,-122"/>
<text text-anchor="middle" x="4631" y="-99.8" font-family="Times,serif" font-size="14.00" fill="#000000">DeviceGroupCreatedComponent</text>
</g>
<!-- DeviceGroupCreatedComponent&#45;&gt;AppModule -->
<g id="edge16" class="edge">
<title>DeviceGroupCreatedComponent&#45;&gt;AppModule</title>
<path fill="none" stroke="#000000" d="M4631,-122.0352C4631,-138.7344 4631,-161 4631,-161 4631,-161 3625.7612,-161 3625.7612,-161"/>
<polygon fill="#000000" stroke="#000000" points="3625.7612,-157.5001 3615.7612,-161 3625.7612,-164.5001 3625.7612,-157.5001"/>
</g>
<!-- DeviceInfoComponent -->
<g id="node16" class="node">
<title>DeviceInfoComponent</title>
<polygon fill="#ffffb3" stroke="#000000" points="4513.2949,-122 4368.7051,-122 4368.7051,-86 4513.2949,-86 4513.2949,-122"/>
<text text-anchor="middle" x="4441" y="-99.8" font-family="Times,serif" font-size="14.00" fill="#000000">DeviceInfoComponent</text>
</g>
<!-- DeviceInfoComponent&#45;&gt;AppModule -->
<g id="edge17" class="edge">
<title>DeviceInfoComponent&#45;&gt;AppModule</title>
<path fill="none" stroke="#000000" d="M4441,-122.027C4441,-138.3976 4441,-160 4441,-160 4441,-160 3625.8172,-160 3625.8172,-160"/>
<polygon fill="#000000" stroke="#000000" points="3625.8172,-156.5001 3615.8172,-160 3625.8172,-163.5001 3625.8172,-156.5001"/>
</g>
<!-- DevicesComponent -->
<g id="node17" class="node">
<title>DevicesComponent</title>
<polygon fill="#ffffb3" stroke="#000000" points="4351.4187,-122 4224.5813,-122 4224.5813,-86 4351.4187,-86 4351.4187,-122"/>
<text text-anchor="middle" x="4288" y="-99.8" font-family="Times,serif" font-size="14.00" fill="#000000">DevicesComponent</text>
</g>
<!-- DevicesComponent&#45;&gt;AppModule -->
<g id="edge18" class="edge">
<title>DevicesComponent&#45;&gt;AppModule</title>
<path fill="none" stroke="#000000" d="M4288,-122.2819C4288,-137.9478 4288,-158 4288,-158 4288,-158 3625.7357,-158 3625.7357,-158"/>
<polygon fill="#000000" stroke="#000000" points="3625.7358,-154.5001 3615.7357,-158 3625.7357,-161.5001 3625.7358,-154.5001"/>
</g>
<!-- EdgeControllerInfoComponent -->
<g id="node18" class="node">
<title>EdgeControllerInfoComponent</title>
<polygon fill="#ffffb3" stroke="#000000" points="4206.465,-122 4015.535,-122 4015.535,-86 4206.465,-86 4206.465,-122"/>
<text text-anchor="middle" x="4111" y="-99.8" font-family="Times,serif" font-size="14.00" fill="#000000">EdgeControllerInfoComponent</text>
</g>
<!-- EdgeControllerInfoComponent&#45;&gt;AppModule -->
<g id="edge19" class="edge">
<title>EdgeControllerInfoComponent&#45;&gt;AppModule</title>
<path fill="none" stroke="#000000" d="M4111,-122.1871C4111,-137.1824 4111,-156 4111,-156 4111,-156 3625.6906,-156 3625.6906,-156"/>
<polygon fill="#000000" stroke="#000000" points="3625.6907,-152.5001 3615.6906,-156 3625.6906,-159.5001 3625.6907,-152.5001"/>
</g>
<!-- EditClusterComponent -->
<g id="node19" class="node">
<title>EditClusterComponent</title>
<polygon fill="#ffffb3" stroke="#000000" points="3997.6038,-122 3852.3962,-122 3852.3962,-86 3997.6038,-86 3997.6038,-122"/>
<text text-anchor="middle" x="3925" y="-99.8" font-family="Times,serif" font-size="14.00" fill="#000000">EditClusterComponent</text>
</g>
<!-- EditClusterComponent&#45;&gt;AppModule -->
<g id="edge20" class="edge">
<title>EditClusterComponent&#45;&gt;AppModule</title>
<path fill="none" stroke="#000000" d="M3925,-122.1243C3925,-136.7832 3925,-155 3925,-155 3925,-155 3625.9902,-155 3625.9902,-155"/>
<polygon fill="#000000" stroke="#000000" points="3625.9902,-151.5001 3615.9902,-155 3625.9901,-158.5001 3625.9902,-151.5001"/>
</g>
<!-- EditUserComponent -->
<g id="node20" class="node">
<title>EditUserComponent</title>
<polygon fill="#ffffb3" stroke="#000000" points="3834.5926,-122 3703.4074,-122 3703.4074,-86 3834.5926,-86 3834.5926,-122"/>
<text text-anchor="middle" x="3769" y="-99.8" font-family="Times,serif" font-size="14.00" fill="#000000">EditUserComponent</text>
</g>
<!-- EditUserComponent&#45;&gt;AppModule -->
<g id="edge21" class="edge">
<title>EditUserComponent&#45;&gt;AppModule</title>
<path fill="none" stroke="#000000" d="M3769,-122.2458C3769,-136.1772 3769,-153 3769,-153 3769,-153 3625.8324,-153 3625.8324,-153"/>
<polygon fill="#000000" stroke="#000000" points="3625.8324,-149.5001 3615.8324,-153 3625.8324,-156.5001 3625.8324,-149.5001"/>
</g>
<!-- FilterPipe -->
<g id="node21" class="node">
<title>FilterPipe</title>
<polygon fill="#ffffb3" stroke="#000000" points="3685.7177,-122 3614.2823,-122 3614.2823,-86 3685.7177,-86 3685.7177,-122"/>
<text text-anchor="middle" x="3650" y="-99.8" font-family="Times,serif" font-size="14.00" fill="#000000">FilterPipe</text>
</g>
<!-- FilterPipe&#45;&gt;AppModule -->
<g id="edge22" class="edge">
<title>FilterPipe&#45;&gt;AppModule</title>
<path fill="none" stroke="#000000" d="M3614.1661,-104C3609.1182,-104 3605.6066,-104 3605.6066,-104 3605.6066,-104 3605.6066,-140.8939 3605.6066,-140.8939"/>
<polygon fill="#000000" stroke="#000000" points="3602.1067,-140.8938 3605.6066,-150.8939 3609.1067,-140.8939 3602.1067,-140.8938"/>
</g>
<!-- GroupConfigurationComponent -->
<g id="node22" class="node">
<title>GroupConfigurationComponent</title>
<polygon fill="#ffffb3" stroke="#000000" points="3596.6441,-122 3401.3559,-122 3401.3559,-86 3596.6441,-86 3596.6441,-122"/>
<text text-anchor="middle" x="3499" y="-99.8" font-family="Times,serif" font-size="14.00" fill="#000000">GroupConfigurationComponent</text>
</g>
<!-- GroupConfigurationComponent&#45;&gt;AppModule -->
<g id="edge23" class="edge">
<title>GroupConfigurationComponent&#45;&gt;AppModule</title>
<path fill="none" stroke="#000000" d="M3564.4969,-122.1061C3564.4969,-122.1061 3564.4969,-140.991 3564.4969,-140.991"/>
<polygon fill="#000000" stroke="#000000" points="3560.9969,-140.9909 3564.4969,-150.991 3567.9969,-140.991 3560.9969,-140.9909"/>
</g>
<!-- InfrastructureComponent -->
<g id="node23" class="node">
<title>InfrastructureComponent</title>
<polygon fill="#ffffb3" stroke="#000000" points="3382.5058,-122 3225.4942,-122 3225.4942,-86 3382.5058,-86 3382.5058,-122"/>
<text text-anchor="middle" x="3304" y="-99.8" font-family="Times,serif" font-size="14.00" fill="#000000">InfrastructureComponent</text>
</g>
<!-- InfrastructureComponent&#45;&gt;AppModule -->
<g id="edge24" class="edge">
<title>InfrastructureComponent&#45;&gt;AppModule</title>
<path fill="none" stroke="#000000" d="M3304,-122.2458C3304,-136.1772 3304,-153 3304,-153 3304,-153 3522.1087,-153 3522.1087,-153"/>
<polygon fill="#000000" stroke="#000000" points="3522.1088,-156.5001 3532.1087,-153 3522.1087,-149.5001 3522.1088,-156.5001"/>
</g>
<!-- InstallAgentComponent -->
<g id="node24" class="node">
<title>InstallAgentComponent</title>
<polygon fill="#ffffb3" stroke="#000000" points="3207.0365,-122 3056.9635,-122 3056.9635,-86 3207.0365,-86 3207.0365,-122"/>
<text text-anchor="middle" x="3132" y="-99.8" font-family="Times,serif" font-size="14.00" fill="#000000">InstallAgentComponent</text>
</g>
<!-- InstallAgentComponent&#45;&gt;AppModule -->
<g id="edge25" class="edge">
<title>InstallAgentComponent&#45;&gt;AppModule</title>
<path fill="none" stroke="#000000" d="M3132,-122.1243C3132,-136.7832 3132,-155 3132,-155 3132,-155 3522.0192,-155 3522.0192,-155"/>
<polygon fill="#000000" stroke="#000000" points="3522.0193,-158.5001 3532.0192,-155 3522.0192,-151.5001 3522.0193,-158.5001"/>
</g>
<!-- InstanceInfoComponent -->
<g id="node25" class="node">
<title>InstanceInfoComponent</title>
<polygon fill="#ffffb3" stroke="#000000" points="3038.7935,-122 2887.2065,-122 2887.2065,-86 3038.7935,-86 3038.7935,-122"/>
<text text-anchor="middle" x="2963" y="-99.8" font-family="Times,serif" font-size="14.00" fill="#000000">InstanceInfoComponent</text>
</g>
<!-- InstanceInfoComponent&#45;&gt;AppModule -->
<g id="edge26" class="edge">
<title>InstanceInfoComponent&#45;&gt;AppModule</title>
<path fill="none" stroke="#000000" d="M2963,-122.1871C2963,-137.1824 2963,-156 2963,-156 2963,-156 3522.0035,-156 3522.0035,-156"/>
<polygon fill="#000000" stroke="#000000" points="3522.0035,-159.5001 3532.0035,-156 3522.0035,-152.5001 3522.0035,-159.5001"/>
</g>
<!-- LoginComponent -->
<g id="node26" class="node">
<title>LoginComponent</title>
<polygon fill="#ffffb3" stroke="#000000" points="2869.2758,-122 2754.7242,-122 2754.7242,-86 2869.2758,-86 2869.2758,-122"/>
<text text-anchor="middle" x="2812" y="-99.8" font-family="Times,serif" font-size="14.00" fill="#000000">LoginComponent</text>
</g>
<!-- LoginComponent&#45;&gt;AppModule -->
<g id="edge27" class="edge">
<title>LoginComponent&#45;&gt;AppModule</title>
<path fill="none" stroke="#000000" d="M2812,-122.2819C2812,-137.9478 2812,-158 2812,-158 2812,-158 3522.2187,-158 3522.2187,-158"/>
<polygon fill="#000000" stroke="#000000" points="3522.2187,-161.5001 3532.2187,-158 3522.2187,-154.5001 3522.2187,-161.5001"/>
</g>
<!-- MainComponent -->
<g id="node27" class="node">
<title>MainComponent</title>
<polygon fill="#ffffb3" stroke="#000000" points="2736.3823,-122 2625.6177,-122 2625.6177,-86 2736.3823,-86 2736.3823,-122"/>
<text text-anchor="middle" x="2681" y="-99.8" font-family="Times,serif" font-size="14.00" fill="#000000">MainComponent</text>
</g>
<!-- MainComponent&#45;&gt;AppModule -->
<g id="edge28" class="edge">
<title>MainComponent&#45;&gt;AppModule</title>
<path fill="none" stroke="#000000" d="M2681,-122.027C2681,-138.3976 2681,-160 2681,-160 2681,-160 3522.1265,-160 3522.1265,-160"/>
<polygon fill="#000000" stroke="#000000" points="3522.1265,-163.5001 3532.1265,-160 3522.1265,-156.5001 3522.1265,-163.5001"/>
</g>
<!-- NotificationsComponent -->
<g id="node28" class="node">
<title>NotificationsComponent</title>
<polygon fill="#ffffb3" stroke="#000000" points="2607.427,-122 2452.573,-122 2452.573,-86 2607.427,-86 2607.427,-122"/>
<text text-anchor="middle" x="2530" y="-99.8" font-family="Times,serif" font-size="14.00" fill="#000000">NotificationsComponent</text>
</g>
<!-- NotificationsComponent&#45;&gt;AppModule -->
<g id="edge29" class="edge">
<title>NotificationsComponent&#45;&gt;AppModule</title>
<path fill="none" stroke="#000000" d="M2530,-122.0352C2530,-138.7344 2530,-161 2530,-161 2530,-161 3522.1059,-161 3522.1059,-161"/>
<polygon fill="#000000" stroke="#000000" points="3522.1059,-164.5001 3532.1059,-161 3522.1059,-157.5001 3522.1059,-164.5001"/>
</g>
<!-- OrganizationComponent -->
<g id="node29" class="node">
<title>OrganizationComponent</title>
<polygon fill="#ffffb3" stroke="#000000" points="2435.4158,-122 2280.5842,-122 2280.5842,-86 2435.4158,-86 2435.4158,-122"/>
<text text-anchor="middle" x="2358" y="-99.8" font-family="Times,serif" font-size="14.00" fill="#000000">OrganizationComponent</text>
</g>
<!-- OrganizationComponent&#45;&gt;AppModule -->
<g id="edge30" class="edge">
<title>OrganizationComponent&#45;&gt;AppModule</title>
<path fill="none" stroke="#000000" d="M2358,-122.0225C2358,-139.3734 2358,-163 2358,-163 2358,-163 3522.1425,-163 3522.1425,-163"/>
<polygon fill="#000000" stroke="#000000" points="3522.1426,-166.5001 3532.1425,-163 3522.1425,-159.5001 3522.1426,-166.5001"/>
</g>
<!-- RegisterApplicationComponent -->
<g id="node30" class="node">
<title>RegisterApplicationComponent</title>
<polygon fill="#ffffb3" stroke="#000000" points="2263.0828,-122 2068.9172,-122 2068.9172,-86 2263.0828,-86 2263.0828,-122"/>
<text text-anchor="middle" x="2166" y="-99.8" font-family="Times,serif" font-size="14.00" fill="#000000">RegisterApplicationComponent</text>
</g>
<!-- RegisterApplicationComponent&#45;&gt;AppModule -->
<g id="edge31" class="edge">
<title>RegisterApplicationComponent&#45;&gt;AppModule</title>
<path fill="none" stroke="#000000" d="M2166,-122.302C2166,-140.2699 2166,-165 2166,-165 2166,-165 3522.2434,-165 3522.2434,-165"/>
<polygon fill="#000000" stroke="#000000" points="3522.2434,-168.5001 3532.2434,-165 3522.2433,-161.5001 3522.2434,-168.5001"/>
</g>
<!-- RegisteredInfoComponent -->
<g id="node31" class="node">
<title>RegisteredInfoComponent</title>
<polygon fill="#ffffb3" stroke="#000000" points="2051.0211,-122 1886.9789,-122 1886.9789,-86 2051.0211,-86 2051.0211,-122"/>
<text text-anchor="middle" x="1969" y="-99.8" font-family="Times,serif" font-size="14.00" fill="#000000">RegisteredInfoComponent</text>
</g>
<!-- RegisteredInfoComponent&#45;&gt;AppModule -->
<g id="edge32" class="edge">
<title>RegisteredInfoComponent&#45;&gt;AppModule</title>
<path fill="none" stroke="#000000" d="M1969,-122.2667C1969,-140.5552 1969,-166 1969,-166 1969,-166 3522.3049,-166 3522.3049,-166"/>
<polygon fill="#000000" stroke="#000000" points="3522.3049,-169.5001 3532.3049,-166 3522.3048,-162.5001 3522.3049,-169.5001"/>
</g>
<!-- ResourcesComponent -->
<g id="node32" class="node">
<title>ResourcesComponent</title>
<polygon fill="#ffffb3" stroke="#000000" points="1868.3627,-122 1729.6373,-122 1729.6373,-86 1868.3627,-86 1868.3627,-122"/>
<text text-anchor="middle" x="1799" y="-99.8" font-family="Times,serif" font-size="14.00" fill="#000000">ResourcesComponent</text>
</g>
<!-- ResourcesComponent&#45;&gt;AppModule -->
<g id="edge33" class="edge">
<title>ResourcesComponent&#45;&gt;AppModule</title>
<path fill="none" stroke="#000000" d="M1799,-122.1686C1799,-141.0898 1799,-168 1799,-168 1799,-168 3522.3066,-168 3522.3066,-168"/>
<polygon fill="#000000" stroke="#000000" points="3522.3066,-171.5001 3532.3066,-168 3522.3065,-164.5001 3522.3066,-171.5001"/>
</g>
<!-- RuleInfoComponent -->
<g id="node33" class="node">
<title>RuleInfoComponent</title>
<polygon fill="#ffffb3" stroke="#000000" points="1711.5954,-122 1580.4046,-122 1580.4046,-86 1711.5954,-86 1711.5954,-122"/>
<text text-anchor="middle" x="1646" y="-99.8" font-family="Times,serif" font-size="14.00" fill="#000000">RuleInfoComponent</text>
</g>
<!-- RuleInfoComponent&#45;&gt;AppModule -->
<g id="edge34" class="edge">
<title>RuleInfoComponent&#45;&gt;AppModule</title>
<path fill="none" stroke="#000000" d="M1646,-122.1061C1646,-141.3391 1646,-169 1646,-169 1646,-169 3521.9379,-169 3521.9379,-169"/>
<polygon fill="#000000" stroke="#000000" points="3521.938,-172.5001 3531.9379,-169 3521.9379,-165.5001 3521.938,-172.5001"/>
</g>
<!-- ServiceInfoComponent -->
<g id="node34" class="node">
<title>ServiceInfoComponent</title>
<polygon fill="#ffffb3" stroke="#000000" points="1562.1317,-122 1415.8683,-122 1415.8683,-86 1562.1317,-86 1562.1317,-122"/>
<text text-anchor="middle" x="1489" y="-99.8" font-family="Times,serif" font-size="14.00" fill="#000000">ServiceInfoComponent</text>
</g>
<!-- ServiceInfoComponent&#45;&gt;AppModule -->
<g id="edge35" class="edge">
<title>ServiceInfoComponent&#45;&gt;AppModule</title>
<path fill="none" stroke="#000000" d="M1489,-122.308C1489,-142.1455 1489,-171 1489,-171 1489,-171 3521.8802,-171 3521.8802,-171"/>
<polygon fill="#000000" stroke="#000000" points="3521.8802,-174.5001 3531.8802,-171 3521.8801,-167.5001 3521.8802,-174.5001"/>
</g>
<!-- ServiceInstancesInfoComponent -->
<g id="node35" class="node">
<title>ServiceInstancesInfoComponent</title>
<polygon fill="#ffffb3" stroke="#000000" points="1397.2156,-122 1198.7844,-122 1198.7844,-86 1397.2156,-86 1397.2156,-122"/>
<text text-anchor="middle" x="1298" y="-99.8" font-family="Times,serif" font-size="14.00" fill="#000000">ServiceInstancesInfoComponent</text>
</g>
<!-- ServiceInstancesInfoComponent&#45;&gt;AppModule -->
<g id="edge36" class="edge">
<title>ServiceInstancesInfoComponent&#45;&gt;AppModule</title>
<path fill="none" stroke="#000000" d="M1298,-122.1289C1298,-142.5724 1298,-173 1298,-173 1298,-173 3522.0603,-173 3522.0603,-173"/>
<polygon fill="#000000" stroke="#000000" points="3522.0603,-176.5001 3532.0603,-173 3522.0603,-169.5001 3522.0603,-176.5001"/>
</g>
<!-- SidebarComponent -->
<g id="node36" class="node">
<title>SidebarComponent</title>
<polygon fill="#ffffb3" stroke="#000000" points="1181.0954,-122 1056.9046,-122 1056.9046,-86 1181.0954,-86 1181.0954,-122"/>
<text text-anchor="middle" x="1119" y="-99.8" font-family="Times,serif" font-size="14.00" fill="#000000">SidebarComponent</text>
</g>
<!-- SidebarComponent&#45;&gt;AppModule -->
<g id="edge37" class="edge">
<title>SidebarComponent&#45;&gt;AppModule</title>
<path fill="none" stroke="#000000" d="M1119,-122.0267C1119,-142.7672 1119,-174 1119,-174 1119,-174 3522.1626,-174 3522.1626,-174"/>
<polygon fill="#000000" stroke="#000000" points="3522.1626,-177.5001 3532.1626,-174 3522.1625,-170.5001 3522.1626,-177.5001"/>
</g>
<!-- SimpleLogComponent -->
<g id="node37" class="node">
<title>SimpleLogComponent</title>
<polygon fill="#ffffb3" stroke="#000000" points="1038.5547,-122 895.4453,-122 895.4453,-86 1038.5547,-86 1038.5547,-122"/>
<text text-anchor="middle" x="967" y="-99.8" font-family="Times,serif" font-size="14.00" fill="#000000">SimpleLogComponent</text>
</g>
<!-- SimpleLogComponent&#45;&gt;AppModule -->
<g id="edge38" class="edge">
<title>SimpleLogComponent&#45;&gt;AppModule</title>
<path fill="none" stroke="#000000" d="M967,-122.1686C967,-143.498 967,-176 967,-176 967,-176 3522.2595,-176 3522.2595,-176"/>
<polygon fill="#000000" stroke="#000000" points="3522.2595,-179.5001 3532.2595,-176 3522.2595,-172.5001 3522.2595,-179.5001"/>
</g>
<!-- SortByPipe -->
<g id="node38" class="node">
<title>SortByPipe</title>
<polygon fill="#ffffb3" stroke="#000000" points="877.0594,-122 796.9406,-122 796.9406,-86 877.0594,-86 877.0594,-122"/>
<text text-anchor="middle" x="837" y="-99.8" font-family="Times,serif" font-size="14.00" fill="#000000">SortByPipe</text>
</g>
<!-- SortByPipe&#45;&gt;AppModule -->
<g id="edge39" class="edge">
<title>SortByPipe&#45;&gt;AppModule</title>
<path fill="none" stroke="#000000" d="M837,-122.2921C837,-144.2057 837,-178 837,-178 837,-178 3522.1035,-178 3522.1035,-178"/>
<polygon fill="#000000" stroke="#000000" points="3522.1035,-181.5001 3532.1035,-178 3522.1035,-174.5001 3522.1035,-181.5001"/>
</g>
<!-- TruncatePipe -->
<g id="node39" class="node">
<title>TruncatePipe</title>
<polygon fill="#ffffb3" stroke="#000000" points="778.1361,-122 687.8639,-122 687.8639,-86 778.1361,-86 778.1361,-122"/>
<text text-anchor="middle" x="733" y="-99.8" font-family="Times,serif" font-size="14.00" fill="#000000">TruncatePipe</text>
</g>
<!-- TruncatePipe&#45;&gt;AppModule -->
<g id="edge40" class="edge">
<title>TruncatePipe&#45;&gt;AppModule</title>
<path fill="none" stroke="#000000" d="M733,-122.1554C733,-144.3519 733,-179 733,-179 733,-179 3522.1908,-179 3522.1908,-179"/>
<polygon fill="#000000" stroke="#000000" points="3522.1908,-182.5001 3532.1908,-179 3522.1908,-175.5001 3522.1908,-182.5001"/>
</g>
<!-- UserInfoComponent -->
<g id="node40" class="node">
<title>UserInfoComponent</title>
<polygon fill="#ffffb3" stroke="#000000" points="669.58,-122 538.42,-122 538.42,-86 669.58,-86 669.58,-122"/>
<text text-anchor="middle" x="604" y="-99.8" font-family="Times,serif" font-size="14.00" fill="#000000">UserInfoComponent</text>
</g>
<!-- UserInfoComponent&#45;&gt;AppModule -->
<g id="edge41" class="edge">
<title>UserInfoComponent&#45;&gt;AppModule</title>
<path fill="none" stroke="#000000" d="M604,-122.2479C604,-145.0179 604,-181 604,-181 604,-181 3522.2991,-181 3522.2991,-181"/>
<polygon fill="#000000" stroke="#000000" points="3522.2991,-184.5001 3532.2991,-181 3522.299,-177.5001 3522.2991,-184.5001"/>
</g>
<!-- LoginComponent  -->
<g id="node42" class="node">
<title>LoginComponent </title>
<polygon fill="#fb8072" stroke="#000000" points="3565.2759,-252 3446.7241,-252 3446.7241,-216 3565.2759,-216 3565.2759,-252"/>
<text text-anchor="middle" x="3506" y="-229.8" font-family="Times,serif" font-size="14.00" fill="#000000">LoginComponent </text>
</g>
<!-- AppModule&#45;&gt;LoginComponent  -->
<g id="edge42" class="edge">
<title>AppModule&#45;&gt;LoginComponent </title>
<path fill="none" stroke="#000000" stroke-dasharray="5,2" d="M3548.6548,-187.1061C3548.6548,-187.1061 3548.6548,-205.991 3548.6548,-205.991"/>
<polygon fill="#000000" stroke="#000000" points="3545.1549,-205.9909 3548.6548,-215.991 3552.1549,-205.991 3545.1549,-205.9909"/>
</g>
<!-- AppComponent  -->
<g id="node43" class="node">
<title>AppComponent </title>
<polygon fill="#80b1d3" stroke="#000000" points="3697.439,-252 3588.561,-252 3588.561,-216 3697.439,-216 3697.439,-252"/>
<text text-anchor="middle" x="3643" y="-229.8" font-family="Times,serif" font-size="14.00" fill="#000000">AppComponent </text>
</g>
<!-- AppModule&#45;&gt;AppComponent  -->
<g id="edge43" class="edge">
<title>AppModule&#45;&gt;AppComponent </title>
<path fill="none" stroke="#000000" stroke-dasharray="1,5" d="M3602.1794,-187.1061C3602.1794,-187.1061 3602.1794,-205.991 3602.1794,-205.991"/>
<polygon fill="#000000" stroke="#000000" points="3598.6794,-205.9909 3602.1794,-215.991 3605.6794,-205.991 3598.6794,-205.9909"/>
</g>
<!-- AuthService -->
<g id="node44" class="node">
<title>AuthService</title>
<ellipse fill="#fdb462" stroke="#000000" cx="455" cy="-104" rx="59.1083" ry="18"/>
<text text-anchor="middle" x="455" y="-99.8" font-family="Times,serif" font-size="14.00" fill="#000000">AuthService</text>
</g>
<!-- AuthService&#45;&gt;AppModule -->
<g id="edge44" class="edge">
<title>AuthService&#45;&gt;AppModule</title>
<path fill="none" stroke="#000000" d="M455,-122.3228C455,-145.6602 455,-183 455,-183 455,-183 3522.2674,-183 3522.2674,-183"/>
<polygon fill="#000000" stroke="#000000" points="3522.2674,-186.5001 3532.2674,-183 3522.2674,-179.5001 3522.2674,-186.5001"/>
</g>
<!-- BackendService -->
<g id="node45" class="node">
<title>BackendService</title>
<ellipse fill="#fdb462" stroke="#000000" cx="304" cy="-104" rx="73.556" ry="18"/>
<text text-anchor="middle" x="304" y="-99.8" font-family="Times,serif" font-size="14.00" fill="#000000">BackendService</text>
</g>
<!-- BackendService&#45;&gt;AppModule -->
<g id="edge45" class="edge">
<title>BackendService&#45;&gt;AppModule</title>
<path fill="none" stroke="#000000" d="M304,-122.1532C304,-145.7566 304,-184 304,-184 304,-184 3522.0592,-184 3522.0592,-184"/>
<polygon fill="#000000" stroke="#000000" points="3522.0592,-187.5001 3532.0592,-184 3522.0591,-180.5001 3522.0592,-187.5001"/>
</g>
<!-- UpdateEventsService -->
<g id="node46" class="node">
<title>UpdateEventsService</title>
<ellipse fill="#fdb462" stroke="#000000" cx="118" cy="-104" rx="94.3195" ry="18"/>
<text text-anchor="middle" x="118" y="-99.8" font-family="Times,serif" font-size="14.00" fill="#000000">UpdateEventsService</text>
</g>
<!-- UpdateEventsService&#45;&gt;AppModule -->
<g id="edge46" class="edge">
<title>UpdateEventsService&#45;&gt;AppModule</title>
<path fill="none" stroke="#000000" d="M118,-122.1985C118,-146.3563 118,-186 118,-186 118,-186 3522.1672,-186 3522.1672,-186"/>
<polygon fill="#000000" stroke="#000000" points="3522.1673,-189.5001 3532.1672,-186 3522.1672,-182.5001 3522.1673,-189.5001"/>
</g>
</g>
</svg>
