<?xml version="1.0" encoding="UTF-8" standalone="no"?>
<!DOCTYPE svg PUBLIC "-//W3C//DTD SVG 1.1//EN"
 "http://www.w3.org/Graphics/SVG/1.1/DTD/svg11.dtd">
<!-- Generated by graphviz version 2.40.1 (20161225.0304)
 -->
<!-- Title: dependencies Pages: 1 -->
<svg width="2671pt" height="284pt"
 viewBox="0.00 0.00 2671.00 284.00" xmlns="http://www.w3.org/2000/svg" xmlns:xlink="http://www.w3.org/1999/xlink">
<g id="graph0" class="graph" transform="scale(1 1) rotate(0) translate(4 280)">
<title>dependencies</title>
<polygon fill="#ffffff" stroke="transparent" points="-4,4 -4,-280 2667,-280 2667,4 -4,4"/>
<text text-anchor="start" x="1310.5091" y="-42.4" font-family="sans-serif" font-weight="bold" font-size="14.00" fill="#000000">Legend</text>
<polygon fill="#ffffb3" stroke="transparent" points="1097.5,-10 1097.5,-30 1117.5,-30 1117.5,-10 1097.5,-10"/>
<text text-anchor="start" x="1121.129" y="-15.4" font-family="sans-serif" font-size="14.00" fill="#000000"> &#160;Declarations</text>
<polygon fill="#8dd3c7" stroke="transparent" points="1210.5,-10 1210.5,-30 1230.5,-30 1230.5,-10 1210.5,-10"/>
<text text-anchor="start" x="1234.2251" y="-15.4" font-family="sans-serif" font-size="14.00" fill="#000000"> &#160;Module</text>
<polygon fill="#80b1d3" stroke="transparent" points="1296.5,-10 1296.5,-30 1316.5,-30 1316.5,-10 1296.5,-10"/>
<text text-anchor="start" x="1320.2812" y="-15.4" font-family="sans-serif" font-size="14.00" fill="#000000"> &#160;Bootstrap</text>
<polygon fill="#fdb462" stroke="transparent" points="1393.5,-10 1393.5,-30 1413.5,-30 1413.5,-10 1393.5,-10"/>
<text text-anchor="start" x="1417.1732" y="-15.4" font-family="sans-serif" font-size="14.00" fill="#000000"> &#160;Providers</text>
<polygon fill="#fb8072" stroke="transparent" points="1489.5,-10 1489.5,-30 1509.5,-30 1509.5,-10 1489.5,-10"/>
<text text-anchor="start" x="1513.2258" y="-15.4" font-family="sans-serif" font-size="14.00" fill="#000000"> &#160;Exports</text>
<g id="clust1" class="cluster">
<title>cluster_AppModule</title>
<polygon fill="none" stroke="#000000" stroke-dasharray="1,5" points="8,-70 8,-268 2655,-268 2655,-70 8,-70"/>
</g>
<g id="clust2" class="cluster">
<title>cluster_AppModule_declarations</title>
<polygon fill="none" stroke="#000000" points="530,-78 530,-130 2647,-130 2647,-78 530,-78"/>
</g>
<g id="clust18" class="cluster">
<title>cluster_AppModule_exports</title>
<polygon fill="none" stroke="#000000" points="1252,-208 1252,-260 1386,-260 1386,-208 1252,-208"/>
</g>
<g id="clust19" class="cluster">
<title>cluster_AppModule_bootstrap</title>
<polygon fill="none" stroke="#000000" points="1394,-208 1394,-260 1518,-260 1518,-208 1394,-208"/>
</g>
<g id="clust20" class="cluster">
<title>cluster_AppModule_providers</title>
<polygon fill="none" stroke="#000000" points="16,-78 16,-130 522,-130 522,-78 16,-78"/>
</g>
<!-- AddUserComponent -->
<g id="node1" class="node">
<title>AddUserComponent</title>
<polygon fill="#ffffb3" stroke="#000000" points="2638.8655,-122 2507.1345,-122 2507.1345,-86 2638.8655,-86 2638.8655,-122"/>
<text text-anchor="middle" x="2573" y="-99.8" font-family="Times,serif" font-size="14.00" fill="#000000">AddUserComponent</text>
</g>
<!-- AppModule -->
<g id="node15" class="node">
<title>AppModule</title>
<polygon fill="#8dd3c7" stroke="#000000" points="1428.6571,-187 1425.6571,-191 1404.6571,-191 1401.6571,-187 1345.3429,-187 1345.3429,-151 1428.6571,-151 1428.6571,-187"/>
<text text-anchor="middle" x="1387" y="-164.8" font-family="Times,serif" font-size="14.00" fill="#000000">AppModule</text>
</g>
<!-- AddUserComponent&#45;&gt;AppModule -->
<g id="edge1" class="edge">
<title>AddUserComponent&#45;&gt;AppModule</title>
<path fill="none" stroke="#000000" d="M2573,-122.3228C2573,-145.6602 2573,-183 2573,-183 2573,-183 1438.862,-183 1438.862,-183"/>
<polygon fill="#000000" stroke="#000000" points="1438.862,-179.5001 1428.862,-183 1438.862,-186.5001 1438.862,-179.5001"/>
</g>
<!-- AppComponent -->
<g id="node2" class="node">
<title>AppComponent</title>
<polygon fill="#ffffb3" stroke="#000000" points="2488.9399,-122 2383.0601,-122 2383.0601,-86 2488.9399,-86 2488.9399,-122"/>
<text text-anchor="middle" x="2436" y="-99.8" font-family="Times,serif" font-size="14.00" fill="#000000">AppComponent</text>
</g>
<!-- AppComponent&#45;&gt;AppModule -->
<g id="edge2" class="edge">
<title>AppComponent&#45;&gt;AppModule</title>
<path fill="none" stroke="#000000" d="M2436,-122.1554C2436,-144.3519 2436,-179 2436,-179 2436,-179 1438.7694,-179 1438.7694,-179"/>
<polygon fill="#000000" stroke="#000000" points="1438.7694,-175.5001 1428.7694,-179 1438.7693,-182.5001 1438.7694,-175.5001"/>
</g>
<!-- ApplicationsComponent -->
<g id="node3" class="node">
<title>ApplicationsComponent</title>
<polygon fill="#ffffb3" stroke="#000000" points="2365.3753,-122 2212.6247,-122 2212.6247,-86 2365.3753,-86 2365.3753,-122"/>
<text text-anchor="middle" x="2289" y="-99.8" font-family="Times,serif" font-size="14.00" fill="#000000">ApplicationsComponent</text>
</g>
<!-- ApplicationsComponent&#45;&gt;AppModule -->
<g id="edge3" class="edge">
<title>ApplicationsComponent&#45;&gt;AppModule</title>
<path fill="none" stroke="#000000" d="M2289,-122.2843C2289,-143.3211 2289,-175 2289,-175 2289,-175 1438.6963,-175 1438.6963,-175"/>
<polygon fill="#000000" stroke="#000000" points="1438.6963,-171.5001 1428.6963,-175 1438.6963,-178.5001 1438.6963,-171.5001"/>
</g>
<!-- ClusterComponent -->
<g id="node4" class="node">
<title>ClusterComponent</title>
<polygon fill="#ffffb3" stroke="#000000" points="2194.7702,-122 2073.2298,-122 2073.2298,-86 2194.7702,-86 2194.7702,-122"/>
<text text-anchor="middle" x="2134" y="-99.8" font-family="Times,serif" font-size="14.00" fill="#000000">ClusterComponent</text>
</g>
<!-- ClusterComponent&#45;&gt;AppModule -->
<g id="edge4" class="edge">
<title>ClusterComponent&#45;&gt;AppModule</title>
<path fill="none" stroke="#000000" d="M2134,-122.308C2134,-142.1455 2134,-171 2134,-171 2134,-171 1438.7626,-171 1438.7626,-171"/>
<polygon fill="#000000" stroke="#000000" points="1438.7626,-167.5001 1428.7626,-171 1438.7626,-174.5001 1438.7626,-167.5001"/>
</g>
<!-- DebugPanelComponent -->
<g id="node5" class="node">
<title>DebugPanelComponent</title>
<polygon fill="#ffffb3" stroke="#000000" points="2054.7562,-122 1905.2438,-122 1905.2438,-86 2054.7562,-86 2054.7562,-122"/>
<text text-anchor="middle" x="1980" y="-99.8" font-family="Times,serif" font-size="14.00" fill="#000000">DebugPanelComponent</text>
</g>
<!-- DebugPanelComponent&#45;&gt;AppModule -->
<g id="edge5" class="edge">
<title>DebugPanelComponent&#45;&gt;AppModule</title>
<path fill="none" stroke="#000000" d="M1980,-122.2222C1980,-140.8285 1980,-167 1980,-167 1980,-167 1438.6986,-167 1438.6986,-167"/>
<polygon fill="#000000" stroke="#000000" points="1438.6986,-163.5001 1428.6986,-167 1438.6986,-170.5001 1438.6986,-163.5001"/>
</g>
<!-- EditClusterComponent -->
<g id="node6" class="node">
<title>EditClusterComponent</title>
<polygon fill="#ffffb3" stroke="#000000" points="1887.6038,-122 1742.3962,-122 1742.3962,-86 1887.6038,-86 1887.6038,-122"/>
<text text-anchor="middle" x="1815" y="-99.8" font-family="Times,serif" font-size="14.00" fill="#000000">EditClusterComponent</text>
</g>
<!-- EditClusterComponent&#45;&gt;AppModule -->
<g id="edge6" class="edge">
<title>EditClusterComponent&#45;&gt;AppModule</title>
<path fill="none" stroke="#000000" d="M1815,-122.0225C1815,-139.3734 1815,-163 1815,-163 1815,-163 1438.8177,-163 1438.8177,-163"/>
<polygon fill="#000000" stroke="#000000" points="1438.8178,-159.5001 1428.8177,-163 1438.8177,-166.5001 1438.8178,-159.5001"/>
</g>
<!-- EditUserComponent -->
<g id="node7" class="node">
<title>EditUserComponent</title>
<polygon fill="#ffffb3" stroke="#000000" points="1724.5926,-122 1593.4074,-122 1593.4074,-86 1724.5926,-86 1724.5926,-122"/>
<text text-anchor="middle" x="1659" y="-99.8" font-family="Times,serif" font-size="14.00" fill="#000000">EditUserComponent</text>
</g>
<!-- EditUserComponent&#45;&gt;AppModule -->
<g id="edge7" class="edge">
<title>EditUserComponent&#45;&gt;AppModule</title>
<path fill="none" stroke="#000000" d="M1659,-122.0091C1659,-138.0494 1659,-159 1659,-159 1659,-159 1438.9039,-159 1438.9039,-159"/>
<polygon fill="#000000" stroke="#000000" points="1438.9039,-155.5001 1428.9039,-159 1438.9039,-162.5001 1438.9039,-155.5001"/>
</g>
<!-- LoginComponent -->
<g id="node8" class="node">
<title>LoginComponent</title>
<polygon fill="#ffffb3" stroke="#000000" points="1575.2758,-122 1460.7242,-122 1460.7242,-86 1575.2758,-86 1575.2758,-122"/>
<text text-anchor="middle" x="1518" y="-99.8" font-family="Times,serif" font-size="14.00" fill="#000000">LoginComponent</text>
</g>
<!-- LoginComponent&#45;&gt;AppModule -->
<g id="edge8" class="edge">
<title>LoginComponent&#45;&gt;AppModule</title>
<path fill="none" stroke="#000000" d="M1485.5408,-122.1243C1485.5408,-136.7832 1485.5408,-155 1485.5408,-155 1485.5408,-155 1438.7902,-155 1438.7902,-155"/>
<polygon fill="#000000" stroke="#000000" points="1438.7902,-151.5001 1428.7902,-155 1438.7902,-158.5001 1438.7902,-151.5001"/>
</g>
<!-- MainComponent -->
<g id="node9" class="node">
<title>MainComponent</title>
<polygon fill="#ffffb3" stroke="#000000" points="1442.3823,-122 1331.6177,-122 1331.6177,-86 1442.3823,-86 1442.3823,-122"/>
<text text-anchor="middle" x="1387" y="-99.8" font-family="Times,serif" font-size="14.00" fill="#000000">MainComponent</text>
</g>
<!-- MainComponent&#45;&gt;AppModule -->
<g id="edge9" class="edge">
<title>MainComponent&#45;&gt;AppModule</title>
<path fill="none" stroke="#000000" d="M1387,-122.1061C1387,-122.1061 1387,-140.991 1387,-140.991"/>
<polygon fill="#000000" stroke="#000000" points="1383.5001,-140.9909 1387,-150.991 1390.5001,-140.991 1383.5001,-140.9909"/>
</g>
<!-- NotificationsComponent -->
<g id="node10" class="node">
<title>NotificationsComponent</title>
<polygon fill="#ffffb3" stroke="#000000" points="1313.427,-122 1158.573,-122 1158.573,-86 1313.427,-86 1313.427,-122"/>
<text text-anchor="middle" x="1236" y="-99.8" font-family="Times,serif" font-size="14.00" fill="#000000">NotificationsComponent</text>
</g>
<!-- NotificationsComponent&#45;&gt;AppModule -->
<g id="edge10" class="edge">
<title>NotificationsComponent&#45;&gt;AppModule</title>
<path fill="none" stroke="#000000" d="M1286.5377,-122.1243C1286.5377,-136.7832 1286.5377,-155 1286.5377,-155 1286.5377,-155 1335.2677,-155 1335.2677,-155"/>
<polygon fill="#000000" stroke="#000000" points="1335.2677,-158.5001 1345.2677,-155 1335.2677,-151.5001 1335.2677,-158.5001"/>
</g>
<!-- OrganizationComponent -->
<g id="node11" class="node">
<title>OrganizationComponent</title>
<polygon fill="#ffffb3" stroke="#000000" points="1141.4158,-122 986.5842,-122 986.5842,-86 1141.4158,-86 1141.4158,-122"/>
<text text-anchor="middle" x="1064" y="-99.8" font-family="Times,serif" font-size="14.00" fill="#000000">OrganizationComponent</text>
</g>
<!-- OrganizationComponent&#45;&gt;AppModule -->
<g id="edge11" class="edge">
<title>OrganizationComponent&#45;&gt;AppModule</title>
<path fill="none" stroke="#000000" d="M1064,-122.0091C1064,-138.0494 1064,-159 1064,-159 1064,-159 1335.1045,-159 1335.1045,-159"/>
<polygon fill="#000000" stroke="#000000" points="1335.1046,-162.5001 1345.1045,-159 1335.1045,-155.5001 1335.1046,-162.5001"/>
</g>
<!-- ResourcesComponent -->
<g id="node12" class="node">
<title>ResourcesComponent</title>
<polygon fill="#ffffb3" stroke="#000000" points="968.3627,-122 829.6373,-122 829.6373,-86 968.3627,-86 968.3627,-122"/>
<text text-anchor="middle" x="899" y="-99.8" font-family="Times,serif" font-size="14.00" fill="#000000">ResourcesComponent</text>
</g>
<!-- ResourcesComponent&#45;&gt;AppModule -->
<g id="edge12" class="edge">
<title>ResourcesComponent&#45;&gt;AppModule</title>
<path fill="none" stroke="#000000" d="M899,-122.0225C899,-139.3734 899,-163 899,-163 899,-163 1334.971,-163 1334.971,-163"/>
<polygon fill="#000000" stroke="#000000" points="1334.9711,-166.5001 1344.971,-163 1334.971,-159.5001 1334.9711,-166.5001"/>
</g>
<!-- SidebarComponent -->
<g id="node13" class="node">
<title>SidebarComponent</title>
<polygon fill="#ffffb3" stroke="#000000" points="812.0954,-122 687.9046,-122 687.9046,-86 812.0954,-86 812.0954,-122"/>
<text text-anchor="middle" x="750" y="-99.8" font-family="Times,serif" font-size="14.00" fill="#000000">SidebarComponent</text>
</g>
<!-- SidebarComponent&#45;&gt;AppModule -->
<g id="edge13" class="edge">
<title>SidebarComponent&#45;&gt;AppModule</title>
<path fill="none" stroke="#000000" d="M750,-122.2222C750,-140.8285 750,-167 750,-167 750,-167 1335.2047,-167 1335.2047,-167"/>
<polygon fill="#000000" stroke="#000000" points="1335.2047,-170.5001 1345.2047,-167 1335.2046,-163.5001 1335.2047,-170.5001"/>
</g>
<!-- UserInfoComponent -->
<g id="node14" class="node">
<title>UserInfoComponent</title>
<polygon fill="#ffffb3" stroke="#000000" points="669.58,-122 538.42,-122 538.42,-86 669.58,-86 669.58,-122"/>
<text text-anchor="middle" x="604" y="-99.8" font-family="Times,serif" font-size="14.00" fill="#000000">UserInfoComponent</text>
</g>
<!-- UserInfoComponent&#45;&gt;AppModule -->
<g id="edge14" class="edge">
<title>UserInfoComponent&#45;&gt;AppModule</title>
<path fill="none" stroke="#000000" d="M604,-122.308C604,-142.1455 604,-171 604,-171 604,-171 1335.1793,-171 1335.1793,-171"/>
<polygon fill="#000000" stroke="#000000" points="1335.1794,-174.5001 1345.1793,-171 1335.1793,-167.5001 1335.1794,-174.5001"/>
</g>
<!-- LoginComponent  -->
<g id="node16" class="node">
<title>LoginComponent </title>
<polygon fill="#fb8072" stroke="#000000" points="1378.2759,-252 1259.7241,-252 1259.7241,-216 1378.2759,-216 1378.2759,-252"/>
<text text-anchor="middle" x="1319" y="-229.8" font-family="Times,serif" font-size="14.00" fill="#000000">LoginComponent </text>
</g>
<!-- AppModule&#45;&gt;LoginComponent  -->
<g id="edge15" class="edge">
<title>AppModule&#45;&gt;LoginComponent </title>
<path fill="none" stroke="#000000" stroke-dasharray="5,2" d="M1361.6548,-187.1061C1361.6548,-187.1061 1361.6548,-205.991 1361.6548,-205.991"/>
<polygon fill="#000000" stroke="#000000" points="1358.1549,-205.9909 1361.6548,-215.991 1365.1549,-205.991 1358.1549,-205.9909"/>
</g>
<!-- AppComponent  -->
<g id="node17" class="node">
<title>AppComponent </title>
<polygon fill="#80b1d3" stroke="#000000" points="1510.439,-252 1401.561,-252 1401.561,-216 1510.439,-216 1510.439,-252"/>
<text text-anchor="middle" x="1456" y="-229.8" font-family="Times,serif" font-size="14.00" fill="#000000">AppComponent </text>
</g>
<!-- AppModule&#45;&gt;AppComponent  -->
<g id="edge16" class="edge">
<title>AppModule&#45;&gt;AppComponent </title>
<path fill="none" stroke="#000000" stroke-dasharray="1,5" d="M1415.1793,-187.1061C1415.1793,-187.1061 1415.1793,-205.991 1415.1793,-205.991"/>
<polygon fill="#000000" stroke="#000000" points="1411.6794,-205.9909 1415.1793,-215.991 1418.6794,-205.991 1411.6794,-205.9909"/>
</g>
<!-- AuthService -->
<g id="node18" class="node">
<title>AuthService</title>
<ellipse fill="#fdb462" stroke="#000000" cx="455" cy="-104" rx="59.1083" ry="18"/>
<text text-anchor="middle" x="455" y="-99.8" font-family="Times,serif" font-size="14.00" fill="#000000">AuthService</text>
</g>
<!-- AuthService&#45;&gt;AppModule -->
<g id="edge17" class="edge">
<title>AuthService&#45;&gt;AppModule</title>
<path fill="none" stroke="#000000" d="M455,-122.2843C455,-143.3211 455,-175 455,-175 455,-175 1335.1433,-175 1335.1433,-175"/>
<polygon fill="#000000" stroke="#000000" points="1335.1433,-178.5001 1345.1433,-175 1335.1433,-171.5001 1335.1433,-178.5001"/>
</g>
<!-- BackendService -->
<g id="node19" class="node">
<title>BackendService</title>
<ellipse fill="#fdb462" stroke="#000000" cx="304" cy="-104" rx="73.556" ry="18"/>
<text text-anchor="middle" x="304" y="-99.8" font-family="Times,serif" font-size="14.00" fill="#000000">BackendService</text>
</g>
<!-- BackendService&#45;&gt;AppModule -->
<g id="edge18" class="edge">
<title>BackendService&#45;&gt;AppModule</title>
<path fill="none" stroke="#000000" d="M304,-122.1554C304,-144.3519 304,-179 304,-179 304,-179 1335.2087,-179 1335.2087,-179"/>
<polygon fill="#000000" stroke="#000000" points="1335.2087,-182.5001 1345.2087,-179 1335.2087,-175.5001 1335.2087,-182.5001"/>
</g>
<!-- UpdateEventsService -->
<g id="node20" class="node">
<title>UpdateEventsService</title>
<ellipse fill="#fdb462" stroke="#000000" cx="118" cy="-104" rx="94.3195" ry="18"/>
<text text-anchor="middle" x="118" y="-99.8" font-family="Times,serif" font-size="14.00" fill="#000000">UpdateEventsService</text>
</g>
<!-- UpdateEventsService&#45;&gt;AppModule -->
<g id="edge19" class="edge">
<title>UpdateEventsService&#45;&gt;AppModule</title>
<path fill="none" stroke="#000000" d="M118,-122.3228C118,-145.6602 118,-183 118,-183 118,-183 1335.1395,-183 1335.1395,-183"/>
<polygon fill="#000000" stroke="#000000" points="1335.1396,-186.5001 1345.1395,-183 1335.1395,-179.5001 1335.1396,-186.5001"/>
</g>
</g>
</svg>
