<?xml version="1.0" encoding="UTF-8" standalone="no"?>
<!DOCTYPE svg PUBLIC "-//W3C//DTD SVG 1.1//EN"
 "http://www.w3.org/Graphics/SVG/1.1/DTD/svg11.dtd">
<!-- Generated by graphviz version 2.40.1 (20161225.0304)
 -->
<!-- Title: dependencies Pages: 1 -->
<svg width="6202pt" height="284pt"
 viewBox="0.00 0.00 6202.00 284.00" xmlns="http://www.w3.org/2000/svg" xmlns:xlink="http://www.w3.org/1999/xlink">
<g id="graph0" class="graph" transform="scale(1 1) rotate(0) translate(4 280)">
<title>dependencies</title>
<polygon fill="#ffffff" stroke="transparent" points="-4,4 -4,-280 6198,-280 6198,4 -4,4"/>
<text text-anchor="start" x="3076.0091" y="-42.4" font-family="sans-serif" font-weight="bold" font-size="14.00" fill="#000000">Legend</text>
<polygon fill="#ffffb3" stroke="transparent" points="2863,-10 2863,-30 2883,-30 2883,-10 2863,-10"/>
<text text-anchor="start" x="2886.629" y="-15.4" font-family="sans-serif" font-size="14.00" fill="#000000"> &#160;Declarations</text>
<polygon fill="#8dd3c7" stroke="transparent" points="2976,-10 2976,-30 2996,-30 2996,-10 2976,-10"/>
<text text-anchor="start" x="2999.7251" y="-15.4" font-family="sans-serif" font-size="14.00" fill="#000000"> &#160;Module</text>
<polygon fill="#80b1d3" stroke="transparent" points="3062,-10 3062,-30 3082,-30 3082,-10 3062,-10"/>
<text text-anchor="start" x="3085.7812" y="-15.4" font-family="sans-serif" font-size="14.00" fill="#000000"> &#160;Bootstrap</text>
<polygon fill="#fdb462" stroke="transparent" points="3159,-10 3159,-30 3179,-30 3179,-10 3159,-10"/>
<text text-anchor="start" x="3182.6732" y="-15.4" font-family="sans-serif" font-size="14.00" fill="#000000"> &#160;Providers</text>
<polygon fill="#fb8072" stroke="transparent" points="3255,-10 3255,-30 3275,-30 3275,-10 3255,-10"/>
<text text-anchor="start" x="3278.7258" y="-15.4" font-family="sans-serif" font-size="14.00" fill="#000000"> &#160;Exports</text>
<g id="clust1" class="cluster">
<title>cluster_AppModule</title>
<polygon fill="none" stroke="#000000" stroke-dasharray="1,5" points="8,-70 8,-268 6186,-268 6186,-70 8,-70"/>
</g>
<g id="clust2" class="cluster">
<title>cluster_AppModule_declarations</title>
<polygon fill="none" stroke="#000000" points="530,-78 530,-130 6178,-130 6178,-78 530,-78"/>
</g>
<g id="clust39" class="cluster">
<title>cluster_AppModule_exports</title>
<polygon fill="none" stroke="#000000" points="2935,-208 2935,-260 3069,-260 3069,-208 2935,-208"/>
</g>
<g id="clust40" class="cluster">
<title>cluster_AppModule_bootstrap</title>
<polygon fill="none" stroke="#000000" points="3077,-208 3077,-260 3201,-260 3201,-208 3077,-208"/>
</g>
<g id="clust41" class="cluster">
<title>cluster_AppModule_providers</title>
<polygon fill="none" stroke="#000000" points="16,-78 16,-130 522,-130 522,-78 16,-78"/>
</g>
<!-- AbbreviatePipe -->
<g id="node1" class="node">
<title>AbbreviatePipe</title>
<polygon fill="#ffffb3" stroke="#000000" points="6169.58,-122 6066.42,-122 6066.42,-86 6169.58,-86 6169.58,-122"/>
<text text-anchor="middle" x="6118" y="-99.8" font-family="Times,serif" font-size="14.00" fill="#000000">AbbreviatePipe</text>
</g>
<!-- AppModule -->
<g id="node36" class="node">
<title>AppModule</title>
<polygon fill="#8dd3c7" stroke="#000000" points="3111.6571,-187 3108.6571,-191 3087.6571,-191 3084.6571,-187 3028.3429,-187 3028.3429,-151 3111.6571,-151 3111.6571,-187"/>
<text text-anchor="middle" x="3070" y="-164.8" font-family="Times,serif" font-size="14.00" fill="#000000">AppModule</text>
</g>
<!-- AbbreviatePipe&#45;&gt;AppModule -->
<g id="edge1" class="edge">
<title>AbbreviatePipe&#45;&gt;AppModule</title>
<path fill="none" stroke="#000000" d="M6118,-122.1985C6118,-146.3563 6118,-186 6118,-186 6118,-186 3121.9275,-186 3121.9275,-186"/>
<polygon fill="#000000" stroke="#000000" points="3121.9276,-182.5001 3111.9275,-186 3121.9275,-189.5001 3121.9276,-182.5001"/>
</g>
<!-- AddDevicesGroupComponent -->
<g id="node2" class="node">
<title>AddDevicesGroupComponent</title>
<polygon fill="#ffffb3" stroke="#000000" points="6048.292,-122 5861.708,-122 5861.708,-86 6048.292,-86 6048.292,-122"/>
<text text-anchor="middle" x="5955" y="-99.8" font-family="Times,serif" font-size="14.00" fill="#000000">AddDevicesGroupComponent</text>
</g>
<!-- AddDevicesGroupComponent&#45;&gt;AppModule -->
<g id="edge2" class="edge">
<title>AddDevicesGroupComponent&#45;&gt;AppModule</title>
<path fill="none" stroke="#000000" d="M5955,-122.1532C5955,-145.7566 5955,-184 5955,-184 5955,-184 3121.8954,-184 3121.8954,-184"/>
<polygon fill="#000000" stroke="#000000" points="3121.8954,-180.5001 3111.8954,-184 3121.8953,-187.5001 3121.8954,-180.5001"/>
</g>
<!-- AddLabelComponent -->
<g id="node3" class="node">
<title>AddLabelComponent</title>
<polygon fill="#ffffb3" stroke="#000000" points="5843.8118,-122 5706.1882,-122 5706.1882,-86 5843.8118,-86 5843.8118,-122"/>
<text text-anchor="middle" x="5775" y="-99.8" font-family="Times,serif" font-size="14.00" fill="#000000">AddLabelComponent</text>
</g>
<!-- AddLabelComponent&#45;&gt;AppModule -->
<g id="edge3" class="edge">
<title>AddLabelComponent&#45;&gt;AppModule</title>
<path fill="none" stroke="#000000" d="M5775,-122.0908C5775,-145.1328 5775,-182 5775,-182 5775,-182 3121.676,-182 3121.676,-182"/>
<polygon fill="#000000" stroke="#000000" points="3121.6761,-178.5001 3111.676,-182 3121.676,-185.5001 3121.6761,-178.5001"/>
</g>
<!-- AddUserComponent -->
<g id="node4" class="node">
<title>AddUserComponent</title>
<polygon fill="#ffffb3" stroke="#000000" points="5687.8655,-122 5556.1345,-122 5556.1345,-86 5687.8655,-86 5687.8655,-122"/>
<text text-anchor="middle" x="5622" y="-99.8" font-family="Times,serif" font-size="14.00" fill="#000000">AddUserComponent</text>
</g>
<!-- AddUserComponent&#45;&gt;AppModule -->
<g id="edge4" class="edge">
<title>AddUserComponent&#45;&gt;AppModule</title>
<path fill="none" stroke="#000000" d="M5622,-122.0109C5622,-144.4852 5622,-180 5622,-180 5622,-180 3121.9029,-180 3121.9029,-180"/>
<polygon fill="#000000" stroke="#000000" points="3121.9029,-176.5001 3111.9029,-180 3121.9028,-183.5001 3121.9029,-176.5001"/>
</g>
<!-- AppComponent -->
<g id="node5" class="node">
<title>AppComponent</title>
<polygon fill="#ffffb3" stroke="#000000" points="5537.9399,-122 5432.0601,-122 5432.0601,-86 5537.9399,-86 5537.9399,-122"/>
<text text-anchor="middle" x="5485" y="-99.8" font-family="Times,serif" font-size="14.00" fill="#000000">AppComponent</text>
</g>
<!-- AppComponent&#45;&gt;AppModule -->
<g id="edge5" class="edge">
<title>AppComponent&#45;&gt;AppModule</title>
<path fill="none" stroke="#000000" d="M5485,-122.2921C5485,-144.2057 5485,-178 5485,-178 5485,-178 3121.6624,-178 3121.6624,-178"/>
<polygon fill="#000000" stroke="#000000" points="3121.6625,-174.5001 3111.6624,-178 3121.6624,-181.5001 3121.6625,-174.5001"/>
</g>
<!-- ApplicationsComponent -->
<g id="node6" class="node">
<title>ApplicationsComponent</title>
<polygon fill="#ffffb3" stroke="#000000" points="5414.3753,-122 5261.6247,-122 5261.6247,-86 5414.3753,-86 5414.3753,-122"/>
<text text-anchor="middle" x="5338" y="-99.8" font-family="Times,serif" font-size="14.00" fill="#000000">ApplicationsComponent</text>
</g>
<!-- ApplicationsComponent&#45;&gt;AppModule -->
<g id="edge6" class="edge">
<title>ApplicationsComponent&#45;&gt;AppModule</title>
<path fill="none" stroke="#000000" d="M5338,-122.1686C5338,-143.498 5338,-176 5338,-176 5338,-176 3121.7923,-176 3121.7923,-176"/>
<polygon fill="#000000" stroke="#000000" points="3121.7923,-172.5001 3111.7923,-176 3121.7922,-179.5001 3121.7923,-172.5001"/>
</g>
<!-- AutofocusDirective -->
<g id="node7" class="node">
<title>AutofocusDirective</title>
<polygon fill="#ffffb3" stroke="#000000" points="5243.4004,-122 5116.5996,-122 5116.5996,-86 5243.4004,-86 5243.4004,-122"/>
<text text-anchor="middle" x="5180" y="-99.8" font-family="Times,serif" font-size="14.00" fill="#000000">AutofocusDirective</text>
</g>
<!-- AutofocusDirective&#45;&gt;AppModule -->
<g id="edge7" class="edge">
<title>AutofocusDirective&#45;&gt;AppModule</title>
<path fill="none" stroke="#000000" d="M5180,-122.0267C5180,-142.7672 5180,-174 5180,-174 5180,-174 3121.6737,-174 3121.6737,-174"/>
<polygon fill="#000000" stroke="#000000" points="3121.6738,-170.5001 3111.6737,-174 3121.6737,-177.5001 3121.6738,-170.5001"/>
</g>
<!-- ChangePasswordComponent -->
<g id="node8" class="node">
<title>ChangePasswordComponent</title>
<polygon fill="#ffffb3" stroke="#000000" points="5098.752,-122 4921.248,-122 4921.248,-86 5098.752,-86 5098.752,-122"/>
<text text-anchor="middle" x="5010" y="-99.8" font-family="Times,serif" font-size="14.00" fill="#000000">ChangePasswordComponent</text>
</g>
<!-- ChangePasswordComponent&#45;&gt;AppModule -->
<g id="edge8" class="edge">
<title>ChangePasswordComponent&#45;&gt;AppModule</title>
<path fill="none" stroke="#000000" d="M5010,-122.2228C5010,-142.3652 5010,-172 5010,-172 5010,-172 3121.8694,-172 3121.8694,-172"/>
<polygon fill="#000000" stroke="#000000" points="3121.8694,-168.5001 3111.8694,-172 3121.8693,-175.5001 3121.8694,-168.5001"/>
</g>
<!-- ClusterComponent -->
<g id="node9" class="node">
<title>ClusterComponent</title>
<polygon fill="#ffffb3" stroke="#000000" points="4902.7702,-122 4781.2298,-122 4781.2298,-86 4902.7702,-86 4902.7702,-122"/>
<text text-anchor="middle" x="4842" y="-99.8" font-family="Times,serif" font-size="14.00" fill="#000000">ClusterComponent</text>
</g>
<!-- ClusterComponent&#45;&gt;AppModule -->
<g id="edge9" class="edge">
<title>ClusterComponent&#45;&gt;AppModule</title>
<path fill="none" stroke="#000000" d="M4842,-122.0348C4842,-141.5762 4842,-170 4842,-170 4842,-170 3122.0547,-170 3122.0547,-170"/>
<polygon fill="#000000" stroke="#000000" points="3122.0548,-166.5001 3112.0547,-170 3122.0547,-173.5001 3122.0548,-166.5001"/>
</g>
<!-- ContextualMenuComponent -->
<g id="node10" class="node">
<title>ContextualMenuComponent</title>
<polygon fill="#ffffb3" stroke="#000000" points="4762.9297,-122 4587.0703,-122 4587.0703,-86 4762.9297,-86 4762.9297,-122"/>
<text text-anchor="middle" x="4675" y="-99.8" font-family="Times,serif" font-size="14.00" fill="#000000">ContextualMenuComponent</text>
</g>
<!-- ContextualMenuComponent&#45;&gt;AppModule -->
<g id="edge10" class="edge">
<title>ContextualMenuComponent&#45;&gt;AppModule</title>
<path fill="none" stroke="#000000" d="M4675,-122.1061C4675,-141.3391 4675,-169 4675,-169 4675,-169 3121.6951,-169 3121.6951,-169"/>
<polygon fill="#000000" stroke="#000000" points="3121.6952,-165.5001 3111.6951,-169 3121.6951,-172.5001 3121.6952,-165.5001"/>
</g>
<!-- DebugPanelComponent -->
<g id="node11" class="node">
<title>DebugPanelComponent</title>
<polygon fill="#ffffb3" stroke="#000000" points="4568.7562,-122 4419.2438,-122 4419.2438,-86 4568.7562,-86 4568.7562,-122"/>
<text text-anchor="middle" x="4494" y="-99.8" font-family="Times,serif" font-size="14.00" fill="#000000">DebugPanelComponent</text>
</g>
<!-- DebugPanelComponent&#45;&gt;AppModule -->
<g id="edge11" class="edge">
<title>DebugPanelComponent&#45;&gt;AppModule</title>
<path fill="none" stroke="#000000" d="M4494,-122.2222C4494,-140.8285 4494,-167 4494,-167 4494,-167 3121.8464,-167 3121.8464,-167"/>
<polygon fill="#000000" stroke="#000000" points="3121.8465,-163.5001 3111.8464,-167 3121.8464,-170.5001 3121.8465,-163.5001"/>
</g>
<!-- DeployInstanceComponent -->
<g id="node12" class="node">
<title>DeployInstanceComponent</title>
<polygon fill="#ffffb3" stroke="#000000" points="4401.6839,-122 4232.3161,-122 4232.3161,-86 4401.6839,-86 4401.6839,-122"/>
<text text-anchor="middle" x="4317" y="-99.8" font-family="Times,serif" font-size="14.00" fill="#000000">DeployInstanceComponent</text>
</g>
<!-- DeployInstanceComponent&#45;&gt;AppModule -->
<g id="edge12" class="edge">
<title>DeployInstanceComponent&#45;&gt;AppModule</title>
<path fill="none" stroke="#000000" d="M4317,-122.302C4317,-140.2699 4317,-165 4317,-165 4317,-165 3121.8465,-165 3121.8465,-165"/>
<polygon fill="#000000" stroke="#000000" points="3121.8465,-161.5001 3111.8465,-165 3121.8465,-168.5001 3121.8465,-161.5001"/>
</g>
<!-- DeviceGroupCreatedComponent -->
<g id="node13" class="node">
<title>DeviceGroupCreatedComponent</title>
<polygon fill="#ffffb3" stroke="#000000" points="4214.2724,-122 4013.7276,-122 4013.7276,-86 4214.2724,-86 4214.2724,-122"/>
<text text-anchor="middle" x="4114" y="-99.8" font-family="Times,serif" font-size="14.00" fill="#000000">DeviceGroupCreatedComponent</text>
</g>
<!-- DeviceGroupCreatedComponent&#45;&gt;AppModule -->
<g id="edge13" class="edge">
<title>DeviceGroupCreatedComponent&#45;&gt;AppModule</title>
<path fill="none" stroke="#000000" d="M4114,-122.0225C4114,-139.3734 4114,-163 4114,-163 4114,-163 3121.8941,-163 3121.8941,-163"/>
<polygon fill="#000000" stroke="#000000" points="3121.8941,-159.5001 3111.8941,-163 3121.8941,-166.5001 3121.8941,-159.5001"/>
</g>
<!-- DevicesComponent -->
<g id="node14" class="node">
<title>DevicesComponent</title>
<polygon fill="#ffffb3" stroke="#000000" points="3996.4187,-122 3869.5813,-122 3869.5813,-86 3996.4187,-86 3996.4187,-122"/>
<text text-anchor="middle" x="3933" y="-99.8" font-family="Times,serif" font-size="14.00" fill="#000000">DevicesComponent</text>
</g>
<!-- DevicesComponent&#45;&gt;AppModule -->
<g id="edge14" class="edge">
<title>DevicesComponent&#45;&gt;AppModule</title>
<path fill="none" stroke="#000000" d="M3933,-122.0352C3933,-138.7344 3933,-161 3933,-161 3933,-161 3121.9159,-161 3121.9159,-161"/>
<polygon fill="#000000" stroke="#000000" points="3121.916,-157.5001 3111.9159,-161 3121.9159,-164.5001 3121.916,-157.5001"/>
</g>
<!-- EdgeControllerComponent -->
<g id="node15" class="node">
<title>EdgeControllerComponent</title>
<polygon fill="#ffffb3" stroke="#000000" points="3851.6442,-122 3684.3558,-122 3684.3558,-86 3851.6442,-86 3851.6442,-122"/>
<text text-anchor="middle" x="3768" y="-99.8" font-family="Times,serif" font-size="14.00" fill="#000000">EdgeControllerComponent</text>
</g>
<!-- EdgeControllerComponent&#45;&gt;AppModule -->
<g id="edge15" class="edge">
<title>EdgeControllerComponent&#45;&gt;AppModule</title>
<path fill="none" stroke="#000000" d="M3768,-122.0091C3768,-138.0494 3768,-159 3768,-159 3768,-159 3121.8316,-159 3121.8316,-159"/>
<polygon fill="#000000" stroke="#000000" points="3121.8316,-155.5001 3111.8316,-159 3121.8316,-162.5001 3121.8316,-155.5001"/>
</g>
<!-- EditClusterComponent -->
<g id="node16" class="node">
<title>EditClusterComponent</title>
<polygon fill="#ffffb3" stroke="#000000" points="3666.6038,-122 3521.3962,-122 3521.3962,-86 3666.6038,-86 3666.6038,-122"/>
<text text-anchor="middle" x="3594" y="-99.8" font-family="Times,serif" font-size="14.00" fill="#000000">EditClusterComponent</text>
</g>
<!-- EditClusterComponent&#45;&gt;AppModule -->
<g id="edge16" class="edge">
<title>EditClusterComponent&#45;&gt;AppModule</title>
<path fill="none" stroke="#000000" d="M3594,-122.2396C3594,-137.5706 3594,-157 3594,-157 3594,-157 3121.9953,-157 3121.9953,-157"/>
<polygon fill="#000000" stroke="#000000" points="3121.9954,-153.5001 3111.9953,-157 3121.9953,-160.5001 3121.9954,-153.5001"/>
</g>
<!-- EditUserComponent -->
<g id="node17" class="node">
<title>EditUserComponent</title>
<polygon fill="#ffffb3" stroke="#000000" points="3503.5926,-122 3372.4074,-122 3372.4074,-86 3503.5926,-86 3503.5926,-122"/>
<text text-anchor="middle" x="3438" y="-99.8" font-family="Times,serif" font-size="14.00" fill="#000000">EditUserComponent</text>
</g>
<!-- EditUserComponent&#45;&gt;AppModule -->
<g id="edge17" class="edge">
<title>EditUserComponent&#45;&gt;AppModule</title>
<path fill="none" stroke="#000000" d="M3438,-122.1243C3438,-136.7832 3438,-155 3438,-155 3438,-155 3121.856,-155 3121.856,-155"/>
<polygon fill="#000000" stroke="#000000" points="3121.856,-151.5001 3111.856,-155 3121.856,-158.5001 3121.856,-151.5001"/>
</g>
<!-- FilterPipe -->
<g id="node18" class="node">
<title>FilterPipe</title>
<polygon fill="#ffffb3" stroke="#000000" points="3354.7177,-122 3283.2823,-122 3283.2823,-86 3354.7177,-86 3354.7177,-122"/>
<text text-anchor="middle" x="3319" y="-99.8" font-family="Times,serif" font-size="14.00" fill="#000000">FilterPipe</text>
</g>
<!-- FilterPipe&#45;&gt;AppModule -->
<g id="edge18" class="edge">
<title>FilterPipe&#45;&gt;AppModule</title>
<path fill="none" stroke="#000000" d="M3319,-122.2458C3319,-136.1772 3319,-153 3319,-153 3319,-153 3121.677,-153 3121.677,-153"/>
<polygon fill="#000000" stroke="#000000" points="3121.677,-149.5001 3111.677,-153 3121.677,-156.5001 3121.677,-149.5001"/>
</g>
<!-- GroupConfigurationComponent -->
<g id="node19" class="node">
<title>GroupConfigurationComponent</title>
<polygon fill="#ffffb3" stroke="#000000" points="3265.6441,-122 3070.3559,-122 3070.3559,-86 3265.6441,-86 3265.6441,-122"/>
<text text-anchor="middle" x="3168" y="-99.8" font-family="Times,serif" font-size="14.00" fill="#000000">GroupConfigurationComponent</text>
</g>
<!-- GroupConfigurationComponent&#45;&gt;AppModule -->
<g id="edge19" class="edge">
<title>GroupConfigurationComponent&#45;&gt;AppModule</title>
<path fill="none" stroke="#000000" d="M3091.0032,-122.1061C3091.0032,-122.1061 3091.0032,-140.991 3091.0032,-140.991"/>
<polygon fill="#000000" stroke="#000000" points="3087.5032,-140.9909 3091.0032,-150.991 3094.5032,-140.991 3087.5032,-140.9909"/>
</g>
<!-- InfrastructureComponent -->
<g id="node20" class="node">
<title>InfrastructureComponent</title>
<polygon fill="#ffffb3" stroke="#000000" points="3051.5058,-122 2894.4942,-122 2894.4942,-86 3051.5058,-86 3051.5058,-122"/>
<text text-anchor="middle" x="2973" y="-99.8" font-family="Times,serif" font-size="14.00" fill="#000000">InfrastructureComponent</text>
</g>
<!-- InfrastructureComponent&#45;&gt;AppModule -->
<g id="edge20" class="edge">
<title>InfrastructureComponent&#45;&gt;AppModule</title>
<path fill="none" stroke="#000000" d="M3039.9622,-122.1061C3039.9622,-122.1061 3039.9622,-140.991 3039.9622,-140.991"/>
<polygon fill="#000000" stroke="#000000" points="3036.4622,-140.9909 3039.9622,-150.991 3043.4622,-140.991 3036.4622,-140.9909"/>
</g>
<!-- InstanceInfoComponent -->
<g id="node21" class="node">
<title>InstanceInfoComponent</title>
<polygon fill="#ffffb3" stroke="#000000" points="2876.7935,-122 2725.2065,-122 2725.2065,-86 2876.7935,-86 2876.7935,-122"/>
<text text-anchor="middle" x="2801" y="-99.8" font-family="Times,serif" font-size="14.00" fill="#000000">InstanceInfoComponent</text>
</g>
<!-- InstanceInfoComponent&#45;&gt;AppModule -->
<g id="edge21" class="edge">
<title>InstanceInfoComponent&#45;&gt;AppModule</title>
<path fill="none" stroke="#000000" d="M2801,-122.2458C2801,-136.1772 2801,-153 2801,-153 2801,-153 3018.2639,-153 3018.2639,-153"/>
<polygon fill="#000000" stroke="#000000" points="3018.2639,-156.5001 3028.2639,-153 3018.2639,-149.5001 3018.2639,-156.5001"/>
</g>
<!-- LoginComponent -->
<g id="node22" class="node">
<title>LoginComponent</title>
<polygon fill="#ffffb3" stroke="#000000" points="2707.2758,-122 2592.7242,-122 2592.7242,-86 2707.2758,-86 2707.2758,-122"/>
<text text-anchor="middle" x="2650" y="-99.8" font-family="Times,serif" font-size="14.00" fill="#000000">LoginComponent</text>
</g>
<!-- LoginComponent&#45;&gt;AppModule -->
<g id="edge22" class="edge">
<title>LoginComponent&#45;&gt;AppModule</title>
<path fill="none" stroke="#000000" d="M2650,-122.1243C2650,-136.7832 2650,-155 2650,-155 2650,-155 3018.1933,-155 3018.1933,-155"/>
<polygon fill="#000000" stroke="#000000" points="3018.1933,-158.5001 3028.1933,-155 3018.1933,-151.5001 3018.1933,-158.5001"/>
</g>
<!-- MainComponent -->
<g id="node23" class="node">
<title>MainComponent</title>
<polygon fill="#ffffb3" stroke="#000000" points="2574.3823,-122 2463.6177,-122 2463.6177,-86 2574.3823,-86 2574.3823,-122"/>
<text text-anchor="middle" x="2519" y="-99.8" font-family="Times,serif" font-size="14.00" fill="#000000">MainComponent</text>
</g>
<!-- MainComponent&#45;&gt;AppModule -->
<g id="edge23" class="edge">
<title>MainComponent&#45;&gt;AppModule</title>
<path fill="none" stroke="#000000" d="M2519,-122.2396C2519,-137.5706 2519,-157 2519,-157 2519,-157 3018.1332,-157 3018.1332,-157"/>
<polygon fill="#000000" stroke="#000000" points="3018.1332,-160.5001 3028.1332,-157 3018.1332,-153.5001 3018.1332,-160.5001"/>
</g>
<!-- NotificationsComponent -->
<g id="node24" class="node">
<title>NotificationsComponent</title>
<polygon fill="#ffffb3" stroke="#000000" points="2445.427,-122 2290.573,-122 2290.573,-86 2445.427,-86 2445.427,-122"/>
<text text-anchor="middle" x="2368" y="-99.8" font-family="Times,serif" font-size="14.00" fill="#000000">NotificationsComponent</text>
</g>
<!-- NotificationsComponent&#45;&gt;AppModule -->
<g id="edge24" class="edge">
<title>NotificationsComponent&#45;&gt;AppModule</title>
<path fill="none" stroke="#000000" d="M2368,-122.0091C2368,-138.0494 2368,-159 2368,-159 2368,-159 3018.189,-159 3018.189,-159"/>
<polygon fill="#000000" stroke="#000000" points="3018.189,-162.5001 3028.189,-159 3018.189,-155.5001 3018.189,-162.5001"/>
</g>
<!-- OrganizationComponent -->
<g id="node25" class="node">
<title>OrganizationComponent</title>
<polygon fill="#ffffb3" stroke="#000000" points="2273.4158,-122 2118.5842,-122 2118.5842,-86 2273.4158,-86 2273.4158,-122"/>
<text text-anchor="middle" x="2196" y="-99.8" font-family="Times,serif" font-size="14.00" fill="#000000">OrganizationComponent</text>
</g>
<!-- OrganizationComponent&#45;&gt;AppModule -->
<g id="edge25" class="edge">
<title>OrganizationComponent&#45;&gt;AppModule</title>
<path fill="none" stroke="#000000" d="M2196,-122.0352C2196,-138.7344 2196,-161 2196,-161 2196,-161 3018.1396,-161 3018.1396,-161"/>
<polygon fill="#000000" stroke="#000000" points="3018.1396,-164.5001 3028.1396,-161 3018.1396,-157.5001 3018.1396,-164.5001"/>
</g>
<!-- RegisterApplicationComponent -->
<g id="node26" class="node">
<title>RegisterApplicationComponent</title>
<polygon fill="#ffffb3" stroke="#000000" points="2101.0828,-122 1906.9172,-122 1906.9172,-86 2101.0828,-86 2101.0828,-122"/>
<text text-anchor="middle" x="2004" y="-99.8" font-family="Times,serif" font-size="14.00" fill="#000000">RegisterApplicationComponent</text>
</g>
<!-- RegisterApplicationComponent&#45;&gt;AppModule -->
<g id="edge26" class="edge">
<title>RegisterApplicationComponent&#45;&gt;AppModule</title>
<path fill="none" stroke="#000000" d="M2004,-122.0225C2004,-139.3734 2004,-163 2004,-163 2004,-163 3018.2115,-163 3018.2115,-163"/>
<polygon fill="#000000" stroke="#000000" points="3018.2116,-166.5001 3028.2115,-163 3018.2115,-159.5001 3018.2116,-166.5001"/>
</g>
<!-- RegisteredInfoComponent -->
<g id="node27" class="node">
<title>RegisteredInfoComponent</title>
<polygon fill="#ffffb3" stroke="#000000" points="1889.0211,-122 1724.9789,-122 1724.9789,-86 1889.0211,-86 1889.0211,-122"/>
<text text-anchor="middle" x="1807" y="-99.8" font-family="Times,serif" font-size="14.00" fill="#000000">RegisteredInfoComponent</text>
</g>
<!-- RegisteredInfoComponent&#45;&gt;AppModule -->
<g id="edge27" class="edge">
<title>RegisteredInfoComponent&#45;&gt;AppModule</title>
<path fill="none" stroke="#000000" d="M1807,-122.302C1807,-140.2699 1807,-165 1807,-165 1807,-165 3018.3375,-165 3018.3375,-165"/>
<polygon fill="#000000" stroke="#000000" points="3018.3375,-168.5001 3028.3375,-165 3018.3374,-161.5001 3018.3375,-168.5001"/>
</g>
<!-- ResourcesComponent -->
<g id="node28" class="node">
<title>ResourcesComponent</title>
<polygon fill="#ffffb3" stroke="#000000" points="1706.3627,-122 1567.6373,-122 1567.6373,-86 1706.3627,-86 1706.3627,-122"/>
<text text-anchor="middle" x="1637" y="-99.8" font-family="Times,serif" font-size="14.00" fill="#000000">ResourcesComponent</text>
</g>
<!-- ResourcesComponent&#45;&gt;AppModule -->
<g id="edge28" class="edge">
<title>ResourcesComponent&#45;&gt;AppModule</title>
<path fill="none" stroke="#000000" d="M1637,-122.2222C1637,-140.8285 1637,-167 1637,-167 1637,-167 3018.2746,-167 3018.2746,-167"/>
<polygon fill="#000000" stroke="#000000" points="3018.2747,-170.5001 3028.2746,-167 3018.2746,-163.5001 3018.2747,-170.5001"/>
</g>
<!-- RuleInfoComponent -->
<g id="node29" class="node">
<title>RuleInfoComponent</title>
<polygon fill="#ffffb3" stroke="#000000" points="1549.5954,-122 1418.4046,-122 1418.4046,-86 1549.5954,-86 1549.5954,-122"/>
<text text-anchor="middle" x="1484" y="-99.8" font-family="Times,serif" font-size="14.00" fill="#000000">RuleInfoComponent</text>
</g>
<!-- RuleInfoComponent&#45;&gt;AppModule -->
<g id="edge29" class="edge">
<title>RuleInfoComponent&#45;&gt;AppModule</title>
<path fill="none" stroke="#000000" d="M1484,-122.1061C1484,-141.3391 1484,-169 1484,-169 1484,-169 3017.9869,-169 3017.9869,-169"/>
<polygon fill="#000000" stroke="#000000" points="3017.9869,-172.5001 3027.9869,-169 3017.9868,-165.5001 3017.9869,-172.5001"/>
</g>
<!-- ServiceInfoComponent -->
<g id="node30" class="node">
<title>ServiceInfoComponent</title>
<polygon fill="#ffffb3" stroke="#000000" points="1400.1317,-122 1253.8683,-122 1253.8683,-86 1400.1317,-86 1400.1317,-122"/>
<text text-anchor="middle" x="1327" y="-99.8" font-family="Times,serif" font-size="14.00" fill="#000000">ServiceInfoComponent</text>
</g>
<!-- ServiceInfoComponent&#45;&gt;AppModule -->
<g id="edge30" class="edge">
<title>ServiceInfoComponent&#45;&gt;AppModule</title>
<path fill="none" stroke="#000000" d="M1327,-122.0348C1327,-141.5762 1327,-170 1327,-170 1327,-170 3018.2068,-170 3018.2068,-170"/>
<polygon fill="#000000" stroke="#000000" points="3018.2068,-173.5001 3028.2068,-170 3018.2068,-166.5001 3018.2068,-173.5001"/>
</g>
<!-- ServiceInstancesInfoComponent -->
<g id="node31" class="node">
<title>ServiceInstancesInfoComponent</title>
<polygon fill="#ffffb3" stroke="#000000" points="1235.2156,-122 1036.7844,-122 1036.7844,-86 1235.2156,-86 1235.2156,-122"/>
<text text-anchor="middle" x="1136" y="-99.8" font-family="Times,serif" font-size="14.00" fill="#000000">ServiceInstancesInfoComponent</text>
</g>
<!-- ServiceInstancesInfoComponent&#45;&gt;AppModule -->
<g id="edge31" class="edge">
<title>ServiceInstancesInfoComponent&#45;&gt;AppModule</title>
<path fill="none" stroke="#000000" d="M1136,-122.2228C1136,-142.3652 1136,-172 1136,-172 1136,-172 3018.2601,-172 3018.2601,-172"/>
<polygon fill="#000000" stroke="#000000" points="3018.2602,-175.5001 3028.2601,-172 3018.2601,-168.5001 3018.2602,-175.5001"/>
</g>
<!-- SidebarComponent -->
<g id="node32" class="node">
<title>SidebarComponent</title>
<polygon fill="#ffffb3" stroke="#000000" points="1019.0954,-122 894.9046,-122 894.9046,-86 1019.0954,-86 1019.0954,-122"/>
<text text-anchor="middle" x="957" y="-99.8" font-family="Times,serif" font-size="14.00" fill="#000000">SidebarComponent</text>
</g>
<!-- SidebarComponent&#45;&gt;AppModule -->
<g id="edge32" class="edge">
<title>SidebarComponent&#45;&gt;AppModule</title>
<path fill="none" stroke="#000000" d="M957,-122.0267C957,-142.7672 957,-174 957,-174 957,-174 3018.267,-174 3018.267,-174"/>
<polygon fill="#000000" stroke="#000000" points="3018.267,-177.5001 3028.267,-174 3018.267,-170.5001 3018.267,-177.5001"/>
</g>
<!-- SortByPipe -->
<g id="node33" class="node">
<title>SortByPipe</title>
<polygon fill="#ffffb3" stroke="#000000" points="877.0594,-122 796.9406,-122 796.9406,-86 877.0594,-86 877.0594,-122"/>
<text text-anchor="middle" x="837" y="-99.8" font-family="Times,serif" font-size="14.00" fill="#000000">SortByPipe</text>
</g>
<!-- SortByPipe&#45;&gt;AppModule -->
<g id="edge33" class="edge">
<title>SortByPipe&#45;&gt;AppModule</title>
<path fill="none" stroke="#000000" d="M837,-122.1686C837,-143.498 837,-176 837,-176 837,-176 3017.8781,-176 3017.8781,-176"/>
<polygon fill="#000000" stroke="#000000" points="3017.8781,-179.5001 3027.8781,-176 3017.8781,-172.5001 3017.8781,-179.5001"/>
</g>
<!-- TruncatePipe -->
<g id="node34" class="node">
<title>TruncatePipe</title>
<polygon fill="#ffffb3" stroke="#000000" points="778.1361,-122 687.8639,-122 687.8639,-86 778.1361,-86 778.1361,-122"/>
<text text-anchor="middle" x="733" y="-99.8" font-family="Times,serif" font-size="14.00" fill="#000000">TruncatePipe</text>
</g>
<!-- TruncatePipe&#45;&gt;AppModule -->
<g id="edge34" class="edge">
<title>TruncatePipe&#45;&gt;AppModule</title>
<path fill="none" stroke="#000000" d="M733,-122.2921C733,-144.2057 733,-178 733,-178 733,-178 3018.1954,-178 3018.1954,-178"/>
<polygon fill="#000000" stroke="#000000" points="3018.1954,-181.5001 3028.1954,-178 3018.1954,-174.5001 3018.1954,-181.5001"/>
</g>
<!-- UserInfoComponent -->
<g id="node35" class="node">
<title>UserInfoComponent</title>
<polygon fill="#ffffb3" stroke="#000000" points="669.58,-122 538.42,-122 538.42,-86 669.58,-86 669.58,-122"/>
<text text-anchor="middle" x="604" y="-99.8" font-family="Times,serif" font-size="14.00" fill="#000000">UserInfoComponent</text>
</g>
<!-- UserInfoComponent&#45;&gt;AppModule -->
<g id="edge35" class="edge">
<title>UserInfoComponent&#45;&gt;AppModule</title>
<path fill="none" stroke="#000000" d="M604,-122.0109C604,-144.4852 604,-180 604,-180 604,-180 3018.2326,-180 3018.2326,-180"/>
<polygon fill="#000000" stroke="#000000" points="3018.2327,-183.5001 3028.2326,-180 3018.2326,-176.5001 3018.2327,-183.5001"/>
</g>
<!-- LoginComponent  -->
<g id="node37" class="node">
<title>LoginComponent </title>
<polygon fill="#fb8072" stroke="#000000" points="3061.2759,-252 2942.7241,-252 2942.7241,-216 3061.2759,-216 3061.2759,-252"/>
<text text-anchor="middle" x="3002" y="-229.8" font-family="Times,serif" font-size="14.00" fill="#000000">LoginComponent </text>
</g>
<!-- AppModule&#45;&gt;LoginComponent  -->
<g id="edge36" class="edge">
<title>AppModule&#45;&gt;LoginComponent </title>
<path fill="none" stroke="#000000" stroke-dasharray="5,2" d="M3044.6548,-187.1061C3044.6548,-187.1061 3044.6548,-205.991 3044.6548,-205.991"/>
<polygon fill="#000000" stroke="#000000" points="3041.1549,-205.9909 3044.6548,-215.991 3048.1549,-205.991 3041.1549,-205.9909"/>
</g>
<!-- AppComponent  -->
<g id="node38" class="node">
<title>AppComponent </title>
<polygon fill="#80b1d3" stroke="#000000" points="3193.439,-252 3084.561,-252 3084.561,-216 3193.439,-216 3193.439,-252"/>
<text text-anchor="middle" x="3139" y="-229.8" font-family="Times,serif" font-size="14.00" fill="#000000">AppComponent </text>
</g>
<!-- AppModule&#45;&gt;AppComponent  -->
<g id="edge37" class="edge">
<title>AppModule&#45;&gt;AppComponent </title>
<path fill="none" stroke="#000000" stroke-dasharray="1,5" d="M3098.1794,-187.1061C3098.1794,-187.1061 3098.1794,-205.991 3098.1794,-205.991"/>
<polygon fill="#000000" stroke="#000000" points="3094.6794,-205.9909 3098.1794,-215.991 3101.6794,-205.991 3094.6794,-205.9909"/>
</g>
<!-- AuthService -->
<g id="node39" class="node">
<title>AuthService</title>
<ellipse fill="#fdb462" stroke="#000000" cx="455" cy="-104" rx="59.1083" ry="18"/>
<text text-anchor="middle" x="455" y="-99.8" font-family="Times,serif" font-size="14.00" fill="#000000">AuthService</text>
</g>
<!-- AuthService&#45;&gt;AppModule -->
<g id="edge38" class="edge">
<title>AuthService&#45;&gt;AppModule</title>
<path fill="none" stroke="#000000" d="M455,-122.0908C455,-145.1328 455,-182 455,-182 455,-182 3018.1314,-182 3018.1314,-182"/>
<polygon fill="#000000" stroke="#000000" points="3018.1314,-185.5001 3028.1314,-182 3018.1314,-178.5001 3018.1314,-185.5001"/>
</g>
<!-- BackendService -->
<g id="node40" class="node">
<title>BackendService</title>
<ellipse fill="#fdb462" stroke="#000000" cx="304" cy="-104" rx="73.556" ry="18"/>
<text text-anchor="middle" x="304" y="-99.8" font-family="Times,serif" font-size="14.00" fill="#000000">BackendService</text>
</g>
<!-- BackendService&#45;&gt;AppModule -->
<g id="edge39" class="edge">
<title>BackendService&#45;&gt;AppModule</title>
<path fill="none" stroke="#000000" d="M304,-122.1532C304,-145.7566 304,-184 304,-184 304,-184 3018.208,-184 3018.208,-184"/>
<polygon fill="#000000" stroke="#000000" points="3018.208,-187.5001 3028.208,-184 3018.2079,-180.5001 3018.208,-187.5001"/>
</g>
<!-- UpdateEventsService -->
<g id="node41" class="node">
<title>UpdateEventsService</title>
<ellipse fill="#fdb462" stroke="#000000" cx="118" cy="-104" rx="94.3195" ry="18"/>
<text text-anchor="middle" x="118" y="-99.8" font-family="Times,serif" font-size="14.00" fill="#000000">UpdateEventsService</text>
</g>
<!-- UpdateEventsService&#45;&gt;AppModule -->
<g id="edge40" class="edge">
<title>UpdateEventsService&#45;&gt;AppModule</title>
<path fill="none" stroke="#000000" d="M118,-122.1985C118,-146.3563 118,-186 118,-186 118,-186 3018.2696,-186 3018.2696,-186"/>
<polygon fill="#000000" stroke="#000000" points="3018.2696,-189.5001 3028.2696,-186 3018.2696,-182.5001 3018.2696,-189.5001"/>
</g>
</g>
</svg>
