<?xml version="1.0" encoding="UTF-8" standalone="no"?>
<!DOCTYPE svg PUBLIC "-//W3C//DTD SVG 1.1//EN"
 "http://www.w3.org/Graphics/SVG/1.1/DTD/svg11.dtd">
<!-- Generated by graphviz version 2.40.1 (20161225.0304)
 -->
<!-- Title: dependencies Pages: 1 -->
<svg width="1856pt" height="284pt"
 viewBox="0.00 0.00 1856.00 284.00" xmlns="http://www.w3.org/2000/svg" xmlns:xlink="http://www.w3.org/1999/xlink">
<g id="graph0" class="graph" transform="scale(1 1) rotate(0) translate(4 280)">
<title>dependencies</title>
<polygon fill="#ffffff" stroke="transparent" points="-4,4 -4,-280 1852,-280 1852,4 -4,4"/>
<text text-anchor="start" x="903.0091" y="-42.4" font-family="sans-serif" font-weight="bold" font-size="14.00" fill="#000000">Legend</text>
<polygon fill="#ffffb3" stroke="transparent" points="690,-10 690,-30 710,-30 710,-10 690,-10"/>
<text text-anchor="start" x="713.629" y="-15.4" font-family="sans-serif" font-size="14.00" fill="#000000"> &#160;Declarations</text>
<polygon fill="#8dd3c7" stroke="transparent" points="803,-10 803,-30 823,-30 823,-10 803,-10"/>
<text text-anchor="start" x="826.7251" y="-15.4" font-family="sans-serif" font-size="14.00" fill="#000000"> &#160;Module</text>
<polygon fill="#80b1d3" stroke="transparent" points="889,-10 889,-30 909,-30 909,-10 889,-10"/>
<text text-anchor="start" x="912.7812" y="-15.4" font-family="sans-serif" font-size="14.00" fill="#000000"> &#160;Bootstrap</text>
<polygon fill="#fdb462" stroke="transparent" points="986,-10 986,-30 1006,-30 1006,-10 986,-10"/>
<text text-anchor="start" x="1009.6732" y="-15.4" font-family="sans-serif" font-size="14.00" fill="#000000"> &#160;Providers</text>
<polygon fill="#fb8072" stroke="transparent" points="1082,-10 1082,-30 1102,-30 1102,-10 1082,-10"/>
<text text-anchor="start" x="1105.7258" y="-15.4" font-family="sans-serif" font-size="14.00" fill="#000000"> &#160;Exports</text>
<g id="clust1" class="cluster">
<title>cluster_AppModule</title>
<polygon fill="none" stroke="#000000" stroke-dasharray="1,5" points="8,-70 8,-268 1840,-268 1840,-70 8,-70"/>
</g>
<g id="clust2" class="cluster">
<title>cluster_AppModule_declarations</title>
<polygon fill="none" stroke="#000000" points="324,-78 324,-130 1832,-130 1832,-78 324,-78"/>
</g>
<g id="clust14" class="cluster">
<title>cluster_AppModule_exports</title>
<polygon fill="none" stroke="#000000" points="809,-208 809,-260 943,-260 943,-208 809,-208"/>
</g>
<g id="clust15" class="cluster">
<title>cluster_AppModule_bootstrap</title>
<polygon fill="none" stroke="#000000" points="951,-208 951,-260 1075,-260 1075,-208 951,-208"/>
</g>
<g id="clust16" class="cluster">
<title>cluster_AppModule_providers</title>
<polygon fill="none" stroke="#000000" points="16,-78 16,-130 316,-130 316,-78 16,-78"/>
</g>
<!-- AppComponent -->
<g id="node1" class="node">
<title>AppComponent</title>
<polygon fill="#ffffb3" stroke="#000000" points="1823.9399,-122 1718.0601,-122 1718.0601,-86 1823.9399,-86 1823.9399,-122"/>
<text text-anchor="middle" x="1771" y="-99.8" font-family="Times,serif" font-size="14.00" fill="#000000">AppComponent</text>
</g>
<!-- AppModule -->
<g id="node11" class="node">
<title>AppModule</title>
<polygon fill="#8dd3c7" stroke="#000000" points="985.6571,-187 982.6571,-191 961.6571,-191 958.6571,-187 902.3429,-187 902.3429,-151 985.6571,-151 985.6571,-187"/>
<text text-anchor="middle" x="944" y="-164.8" font-family="Times,serif" font-size="14.00" fill="#000000">AppModule</text>
</g>
<!-- AppComponent&#45;&gt;AppModule -->
<g id="edge1" class="edge">
<title>AppComponent&#45;&gt;AppModule</title>
<path fill="none" stroke="#000000" d="M1771,-122.2479C1771,-145.0179 1771,-181 1771,-181 1771,-181 995.8625,-181 995.8625,-181"/>
<polygon fill="#000000" stroke="#000000" points="995.8625,-177.5001 985.8625,-181 995.8624,-184.5001 995.8625,-177.5001"/>
</g>
<!-- DebugPanelComponent -->
<g id="node2" class="node">
<title>DebugPanelComponent</title>
<polygon fill="#ffffb3" stroke="#000000" points="1699.7562,-122 1550.2438,-122 1550.2438,-86 1699.7562,-86 1699.7562,-122"/>
<text text-anchor="middle" x="1625" y="-99.8" font-family="Times,serif" font-size="14.00" fill="#000000">DebugPanelComponent</text>
</g>
<!-- DebugPanelComponent&#45;&gt;AppModule -->
<g id="edge2" class="edge">
<title>DebugPanelComponent&#45;&gt;AppModule</title>
<path fill="none" stroke="#000000" d="M1625,-122.2843C1625,-143.3211 1625,-175 1625,-175 1625,-175 995.8297,-175 995.8297,-175"/>
<polygon fill="#000000" stroke="#000000" points="995.8298,-171.5001 985.8297,-175 995.8297,-178.5001 995.8298,-171.5001"/>
</g>
<!-- EditClusterComponent -->
<g id="node3" class="node">
<title>EditClusterComponent</title>
<polygon fill="#ffffb3" stroke="#000000" points="1532.6038,-122 1387.3962,-122 1387.3962,-86 1532.6038,-86 1532.6038,-122"/>
<text text-anchor="middle" x="1460" y="-99.8" font-family="Times,serif" font-size="14.00" fill="#000000">EditClusterComponent</text>
</g>
<!-- EditClusterComponent&#45;&gt;AppModule -->
<g id="edge3" class="edge">
<title>EditClusterComponent&#45;&gt;AppModule</title>
<path fill="none" stroke="#000000" d="M1460,-122.1061C1460,-141.3391 1460,-169 1460,-169 1460,-169 995.7894,-169 995.7894,-169"/>
<polygon fill="#000000" stroke="#000000" points="995.7894,-165.5001 985.7894,-169 995.7893,-172.5001 995.7894,-165.5001"/>
</g>
<!-- LoginComponent -->
<g id="node4" class="node">
<title>LoginComponent</title>
<polygon fill="#ffffb3" stroke="#000000" points="1369.2758,-122 1254.7242,-122 1254.7242,-86 1369.2758,-86 1369.2758,-122"/>
<text text-anchor="middle" x="1312" y="-99.8" font-family="Times,serif" font-size="14.00" fill="#000000">LoginComponent</text>
</g>
<!-- LoginComponent&#45;&gt;AppModule -->
<g id="edge4" class="edge">
<title>LoginComponent&#45;&gt;AppModule</title>
<path fill="none" stroke="#000000" d="M1312,-122.0225C1312,-139.3734 1312,-163 1312,-163 1312,-163 995.856,-163 995.856,-163"/>
<polygon fill="#000000" stroke="#000000" points="995.856,-159.5001 985.856,-163 995.856,-166.5001 995.856,-159.5001"/>
</g>
<!-- MainComponent -->
<g id="node5" class="node">
<title>MainComponent</title>
<polygon fill="#ffffb3" stroke="#000000" points="1236.3823,-122 1125.6177,-122 1125.6177,-86 1236.3823,-86 1236.3823,-122"/>
<text text-anchor="middle" x="1181" y="-99.8" font-family="Times,serif" font-size="14.00" fill="#000000">MainComponent</text>
</g>
<!-- MainComponent&#45;&gt;AppModule -->
<g id="edge5" class="edge">
<title>MainComponent&#45;&gt;AppModule</title>
<path fill="none" stroke="#000000" d="M1181,-122.2396C1181,-137.5706 1181,-157 1181,-157 1181,-157 995.8253,-157 995.8253,-157"/>
<polygon fill="#000000" stroke="#000000" points="995.8253,-153.5001 985.8253,-157 995.8253,-160.5001 995.8253,-153.5001"/>
</g>
<!-- NotificationsComponent -->
<g id="node6" class="node">
<title>NotificationsComponent</title>
<polygon fill="#ffffb3" stroke="#000000" points="1107.427,-122 952.573,-122 952.573,-86 1107.427,-86 1107.427,-122"/>
<text text-anchor="middle" x="1030" y="-99.8" font-family="Times,serif" font-size="14.00" fill="#000000">NotificationsComponent</text>
</g>
<!-- NotificationsComponent&#45;&gt;AppModule -->
<g id="edge6" class="edge">
<title>NotificationsComponent&#45;&gt;AppModule</title>
<path fill="none" stroke="#000000" d="M969.3075,-122.1061C969.3075,-122.1061 969.3075,-140.991 969.3075,-140.991"/>
<polygon fill="#000000" stroke="#000000" points="965.8076,-140.9909 969.3075,-150.991 972.8076,-140.991 965.8076,-140.9909"/>
</g>
<!-- OrganizationComponent -->
<g id="node7" class="node">
<title>OrganizationComponent</title>
<polygon fill="#ffffb3" stroke="#000000" points="935.4158,-122 780.5842,-122 780.5842,-86 935.4158,-86 935.4158,-122"/>
<text text-anchor="middle" x="858" y="-99.8" font-family="Times,serif" font-size="14.00" fill="#000000">OrganizationComponent</text>
</g>
<!-- OrganizationComponent&#45;&gt;AppModule -->
<g id="edge7" class="edge">
<title>OrganizationComponent&#45;&gt;AppModule</title>
<path fill="none" stroke="#000000" d="M918.6897,-122.1061C918.6897,-122.1061 918.6897,-140.991 918.6897,-140.991"/>
<polygon fill="#000000" stroke="#000000" points="915.1898,-140.9909 918.6897,-150.991 922.1898,-140.991 915.1898,-140.9909"/>
</g>
<!-- ResourcesComponent -->
<g id="node8" class="node">
<title>ResourcesComponent</title>
<polygon fill="#ffffb3" stroke="#000000" points="762.3627,-122 623.6373,-122 623.6373,-86 762.3627,-86 762.3627,-122"/>
<text text-anchor="middle" x="693" y="-99.8" font-family="Times,serif" font-size="14.00" fill="#000000">ResourcesComponent</text>
</g>
<!-- ResourcesComponent&#45;&gt;AppModule -->
<g id="edge8" class="edge">
<title>ResourcesComponent&#45;&gt;AppModule</title>
<path fill="none" stroke="#000000" d="M693,-122.2396C693,-137.5706 693,-157 693,-157 693,-157 892.2707,-157 892.2707,-157"/>
<polygon fill="#000000" stroke="#000000" points="892.2707,-160.5001 902.2707,-157 892.2707,-153.5001 892.2707,-160.5001"/>
</g>
<!-- SidebarComponent -->
<g id="node9" class="node">
<title>SidebarComponent</title>
<polygon fill="#ffffb3" stroke="#000000" points="606.0954,-122 481.9046,-122 481.9046,-86 606.0954,-86 606.0954,-122"/>
<text text-anchor="middle" x="544" y="-99.8" font-family="Times,serif" font-size="14.00" fill="#000000">SidebarComponent</text>
</g>
<!-- SidebarComponent&#45;&gt;AppModule -->
<g id="edge9" class="edge">
<title>SidebarComponent&#45;&gt;AppModule</title>
<path fill="none" stroke="#000000" d="M544,-122.0225C544,-139.3734 544,-163 544,-163 544,-163 892.325,-163 892.325,-163"/>
<polygon fill="#000000" stroke="#000000" points="892.325,-166.5001 902.325,-163 892.3249,-159.5001 892.325,-166.5001"/>
</g>
<!-- UserInfoComponent -->
<g id="node10" class="node">
<title>UserInfoComponent</title>
<polygon fill="#ffffb3" stroke="#000000" points="463.58,-122 332.42,-122 332.42,-86 463.58,-86 463.58,-122"/>
<text text-anchor="middle" x="398" y="-99.8" font-family="Times,serif" font-size="14.00" fill="#000000">UserInfoComponent</text>
</g>
<!-- UserInfoComponent&#45;&gt;AppModule -->
<g id="edge10" class="edge">
<title>UserInfoComponent&#45;&gt;AppModule</title>
<path fill="none" stroke="#000000" d="M398,-122.1061C398,-141.3391 398,-169 398,-169 398,-169 892.0629,-169 892.0629,-169"/>
<polygon fill="#000000" stroke="#000000" points="892.0629,-172.5001 902.0629,-169 892.0629,-165.5001 892.0629,-172.5001"/>
</g>
<!-- LoginComponent  -->
<g id="node12" class="node">
<title>LoginComponent </title>
<polygon fill="#fb8072" stroke="#000000" points="935.2759,-252 816.7241,-252 816.7241,-216 935.2759,-216 935.2759,-252"/>
<text text-anchor="middle" x="876" y="-229.8" font-family="Times,serif" font-size="14.00" fill="#000000">LoginComponent </text>
</g>
<!-- AppModule&#45;&gt;LoginComponent  -->
<g id="edge11" class="edge">
<title>AppModule&#45;&gt;LoginComponent </title>
<path fill="none" stroke="#000000" stroke-dasharray="5,2" d="M918.6548,-187.1061C918.6548,-187.1061 918.6548,-205.991 918.6548,-205.991"/>
<polygon fill="#000000" stroke="#000000" points="915.1549,-205.9909 918.6548,-215.991 922.1549,-205.991 915.1549,-205.9909"/>
</g>
<!-- AppComponent  -->
<g id="node13" class="node">
<title>AppComponent </title>
<polygon fill="#80b1d3" stroke="#000000" points="1067.439,-252 958.561,-252 958.561,-216 1067.439,-216 1067.439,-252"/>
<text text-anchor="middle" x="1013" y="-229.8" font-family="Times,serif" font-size="14.00" fill="#000000">AppComponent </text>
</g>
<!-- AppModule&#45;&gt;AppComponent  -->
<g id="edge12" class="edge">
<title>AppModule&#45;&gt;AppComponent </title>
<path fill="none" stroke="#000000" stroke-dasharray="1,5" d="M972.1794,-187.1061C972.1794,-187.1061 972.1794,-205.991 972.1794,-205.991"/>
<polygon fill="#000000" stroke="#000000" points="968.6794,-205.9909 972.1794,-215.991 975.6794,-205.991 968.6794,-205.9909"/>
</g>
<!-- AuthService -->
<g id="node14" class="node">
<title>AuthService</title>
<ellipse fill="#fdb462" stroke="#000000" cx="249" cy="-104" rx="59.1083" ry="18"/>
<text text-anchor="middle" x="249" y="-99.8" font-family="Times,serif" font-size="14.00" fill="#000000">AuthService</text>
</g>
<!-- AuthService&#45;&gt;AppModule -->
<g id="edge13" class="edge">
<title>AuthService&#45;&gt;AppModule</title>
<path fill="none" stroke="#000000" d="M249,-122.2843C249,-143.3211 249,-175 249,-175 249,-175 892.0898,-175 892.0898,-175"/>
<polygon fill="#000000" stroke="#000000" points="892.0898,-178.5001 902.0898,-175 892.0897,-171.5001 892.0898,-178.5001"/>
</g>
<!-- BackendService -->
<g id="node15" class="node">
<title>BackendService</title>
<ellipse fill="#fdb462" stroke="#000000" cx="98" cy="-104" rx="73.556" ry="18"/>
<text text-anchor="middle" x="98" y="-99.8" font-family="Times,serif" font-size="14.00" fill="#000000">BackendService</text>
</g>
<!-- BackendService&#45;&gt;AppModule -->
<g id="edge14" class="edge">
<title>BackendService&#45;&gt;AppModule</title>
<path fill="none" stroke="#000000" d="M98,-122.2479C98,-145.0179 98,-181 98,-181 98,-181 892.3353,-181 892.3353,-181"/>
<polygon fill="#000000" stroke="#000000" points="892.3353,-184.5001 902.3353,-181 892.3353,-177.5001 892.3353,-184.5001"/>
</g>
</g>
</svg>
