<?xml version="1.0" encoding="UTF-8" standalone="no"?>
<!DOCTYPE svg PUBLIC "-//W3C//DTD SVG 1.1//EN"
 "http://www.w3.org/Graphics/SVG/1.1/DTD/svg11.dtd">
<!-- Generated by graphviz version 2.40.1 (20161225.0304)
 -->
<!-- Title: dependencies Pages: 1 -->
<svg width="4561pt" height="284pt"
 viewBox="0.00 0.00 4561.00 284.00" xmlns="http://www.w3.org/2000/svg" xmlns:xlink="http://www.w3.org/1999/xlink">
<g id="graph0" class="graph" transform="scale(1 1) rotate(0) translate(4 280)">
<title>dependencies</title>
<polygon fill="#ffffff" stroke="transparent" points="-4,4 -4,-280 4557,-280 4557,4 -4,4"/>
<text text-anchor="start" x="2255.5091" y="-42.4" font-family="sans-serif" font-weight="bold" font-size="14.00" fill="#000000">Legend</text>
<polygon fill="#ffffb3" stroke="transparent" points="2042.5,-10 2042.5,-30 2062.5,-30 2062.5,-10 2042.5,-10"/>
<text text-anchor="start" x="2066.129" y="-15.4" font-family="sans-serif" font-size="14.00" fill="#000000"> &#160;Declarations</text>
<polygon fill="#8dd3c7" stroke="transparent" points="2155.5,-10 2155.5,-30 2175.5,-30 2175.5,-10 2155.5,-10"/>
<text text-anchor="start" x="2179.2251" y="-15.4" font-family="sans-serif" font-size="14.00" fill="#000000"> &#160;Module</text>
<polygon fill="#80b1d3" stroke="transparent" points="2241.5,-10 2241.5,-30 2261.5,-30 2261.5,-10 2241.5,-10"/>
<text text-anchor="start" x="2265.2812" y="-15.4" font-family="sans-serif" font-size="14.00" fill="#000000"> &#160;Bootstrap</text>
<polygon fill="#fdb462" stroke="transparent" points="2338.5,-10 2338.5,-30 2358.5,-30 2358.5,-10 2338.5,-10"/>
<text text-anchor="start" x="2362.1732" y="-15.4" font-family="sans-serif" font-size="14.00" fill="#000000"> &#160;Providers</text>
<polygon fill="#fb8072" stroke="transparent" points="2434.5,-10 2434.5,-30 2454.5,-30 2454.5,-10 2434.5,-10"/>
<text text-anchor="start" x="2458.2258" y="-15.4" font-family="sans-serif" font-size="14.00" fill="#000000"> &#160;Exports</text>
<g id="clust1" class="cluster">
<title>cluster_AppModule</title>
<polygon fill="none" stroke="#000000" stroke-dasharray="1,5" points="8,-70 8,-268 4545,-268 4545,-70 8,-70"/>
</g>
<g id="clust2" class="cluster">
<title>cluster_AppModule_declarations</title>
<polygon fill="none" stroke="#000000" points="530,-78 530,-130 4537,-130 4537,-78 530,-78"/>
</g>
<g id="clust30" class="cluster">
<title>cluster_AppModule_exports</title>
<polygon fill="none" stroke="#000000" points="2033,-208 2033,-260 2167,-260 2167,-208 2033,-208"/>
</g>
<g id="clust31" class="cluster">
<title>cluster_AppModule_bootstrap</title>
<polygon fill="none" stroke="#000000" points="2175,-208 2175,-260 2299,-260 2299,-208 2175,-208"/>
</g>
<g id="clust32" class="cluster">
<title>cluster_AppModule_providers</title>
<polygon fill="none" stroke="#000000" points="16,-78 16,-130 522,-130 522,-78 16,-78"/>
</g>
<!-- AbbreviatePipe -->
<g id="node1" class="node">
<title>AbbreviatePipe</title>
<polygon fill="#ffffb3" stroke="#000000" points="4528.58,-122 4425.42,-122 4425.42,-86 4528.58,-86 4528.58,-122"/>
<text text-anchor="middle" x="4477" y="-99.8" font-family="Times,serif" font-size="14.00" fill="#000000">AbbreviatePipe</text>
</g>
<!-- AppModule -->
<g id="node27" class="node">
<title>AppModule</title>
<polygon fill="#8dd3c7" stroke="#000000" points="2209.6571,-187 2206.6571,-191 2185.6571,-191 2182.6571,-187 2126.3429,-187 2126.3429,-151 2209.6571,-151 2209.6571,-187"/>
<text text-anchor="middle" x="2168" y="-164.8" font-family="Times,serif" font-size="14.00" fill="#000000">AppModule</text>
</g>
<!-- AbbreviatePipe&#45;&gt;AppModule -->
<g id="edge1" class="edge">
<title>AbbreviatePipe&#45;&gt;AppModule</title>
<path fill="none" stroke="#000000" d="M4477,-122.3802C4477,-146.2785 4477,-185 4477,-185 4477,-185 2220.0481,-185 2220.0481,-185"/>
<polygon fill="#000000" stroke="#000000" points="2220.0481,-181.5001 2210.0481,-185 2220.048,-188.5001 2220.0481,-181.5001"/>
</g>
<!-- AddDevicesGroupComponent -->
<g id="node2" class="node">
<title>AddDevicesGroupComponent</title>
<polygon fill="#ffffb3" stroke="#000000" points="4407.292,-122 4220.708,-122 4220.708,-86 4407.292,-86 4407.292,-122"/>
<text text-anchor="middle" x="4314" y="-99.8" font-family="Times,serif" font-size="14.00" fill="#000000">AddDevicesGroupComponent</text>
</g>
<!-- AddDevicesGroupComponent&#45;&gt;AppModule -->
<g id="edge2" class="edge">
<title>AddDevicesGroupComponent&#45;&gt;AppModule</title>
<path fill="none" stroke="#000000" d="M4314,-122.3228C4314,-145.6602 4314,-183 4314,-183 4314,-183 2219.9049,-183 2219.9049,-183"/>
<polygon fill="#000000" stroke="#000000" points="2219.905,-179.5001 2209.9049,-183 2219.9049,-186.5001 2219.905,-179.5001"/>
</g>
<!-- AddLabelComponent -->
<g id="node3" class="node">
<title>AddLabelComponent</title>
<polygon fill="#ffffb3" stroke="#000000" points="4202.8118,-122 4065.1882,-122 4065.1882,-86 4202.8118,-86 4202.8118,-122"/>
<text text-anchor="middle" x="4134" y="-99.8" font-family="Times,serif" font-size="14.00" fill="#000000">AddLabelComponent</text>
</g>
<!-- AddLabelComponent&#45;&gt;AppModule -->
<g id="edge3" class="edge">
<title>AddLabelComponent&#45;&gt;AppModule</title>
<path fill="none" stroke="#000000" d="M4134,-122.0109C4134,-144.4852 4134,-180 4134,-180 4134,-180 2219.9722,-180 2219.9722,-180"/>
<polygon fill="#000000" stroke="#000000" points="2219.9723,-176.5001 2209.9722,-180 2219.9722,-183.5001 2219.9723,-176.5001"/>
</g>
<!-- AddUserComponent -->
<g id="node4" class="node">
<title>AddUserComponent</title>
<polygon fill="#ffffb3" stroke="#000000" points="4046.8655,-122 3915.1345,-122 3915.1345,-86 4046.8655,-86 4046.8655,-122"/>
<text text-anchor="middle" x="3981" y="-99.8" font-family="Times,serif" font-size="14.00" fill="#000000">AddUserComponent</text>
</g>
<!-- AddUserComponent&#45;&gt;AppModule -->
<g id="edge4" class="edge">
<title>AddUserComponent&#45;&gt;AppModule</title>
<path fill="none" stroke="#000000" d="M3981,-122.2921C3981,-144.2057 3981,-178 3981,-178 3981,-178 2219.7088,-178 2219.7088,-178"/>
<polygon fill="#000000" stroke="#000000" points="2219.7089,-174.5001 2209.7088,-178 2219.7088,-181.5001 2219.7089,-174.5001"/>
</g>
<!-- AppComponent -->
<g id="node5" class="node">
<title>AppComponent</title>
<polygon fill="#ffffb3" stroke="#000000" points="3896.9399,-122 3791.0601,-122 3791.0601,-86 3896.9399,-86 3896.9399,-122"/>
<text text-anchor="middle" x="3844" y="-99.8" font-family="Times,serif" font-size="14.00" fill="#000000">AppComponent</text>
</g>
<!-- AppComponent&#45;&gt;AppModule -->
<g id="edge5" class="edge">
<title>AppComponent&#45;&gt;AppModule</title>
<path fill="none" stroke="#000000" d="M3844,-122.2843C3844,-143.3211 3844,-175 3844,-175 3844,-175 2219.8476,-175 2219.8476,-175"/>
<polygon fill="#000000" stroke="#000000" points="2219.8476,-171.5001 2209.8476,-175 2219.8476,-178.5001 2219.8476,-171.5001"/>
</g>
<!-- ApplicationsComponent -->
<g id="node6" class="node">
<title>ApplicationsComponent</title>
<polygon fill="#ffffb3" stroke="#000000" points="3773.3753,-122 3620.6247,-122 3620.6247,-86 3773.3753,-86 3773.3753,-122"/>
<text text-anchor="middle" x="3697" y="-99.8" font-family="Times,serif" font-size="14.00" fill="#000000">ApplicationsComponent</text>
</g>
<!-- ApplicationsComponent&#45;&gt;AppModule -->
<g id="edge6" class="edge">
<title>ApplicationsComponent&#45;&gt;AppModule</title>
<path fill="none" stroke="#000000" d="M3697,-122.1289C3697,-142.5724 3697,-173 3697,-173 3697,-173 2219.69,-173 2219.69,-173"/>
<polygon fill="#000000" stroke="#000000" points="2219.6901,-169.5001 2209.69,-173 2219.69,-176.5001 2219.6901,-169.5001"/>
</g>
<!-- AppsInfoComponent -->
<g id="node7" class="node">
<title>AppsInfoComponent</title>
<polygon fill="#ffffb3" stroke="#000000" points="3602.205,-122 3467.795,-122 3467.795,-86 3602.205,-86 3602.205,-122"/>
<text text-anchor="middle" x="3535" y="-99.8" font-family="Times,serif" font-size="14.00" fill="#000000">AppsInfoComponent</text>
</g>
<!-- AppsInfoComponent&#45;&gt;AppModule -->
<g id="edge7" class="edge">
<title>AppsInfoComponent&#45;&gt;AppModule</title>
<path fill="none" stroke="#000000" d="M3535,-122.308C3535,-142.1455 3535,-171 3535,-171 3535,-171 2219.658,-171 2219.658,-171"/>
<polygon fill="#000000" stroke="#000000" points="2219.658,-167.5001 2209.658,-171 2219.658,-174.5001 2219.658,-167.5001"/>
</g>
<!-- ChangePasswordComponent -->
<g id="node8" class="node">
<title>ChangePasswordComponent</title>
<polygon fill="#ffffb3" stroke="#000000" points="3449.752,-122 3272.248,-122 3272.248,-86 3449.752,-86 3449.752,-122"/>
<text text-anchor="middle" x="3361" y="-99.8" font-family="Times,serif" font-size="14.00" fill="#000000">ChangePasswordComponent</text>
</g>
<!-- ChangePasswordComponent&#45;&gt;AppModule -->
<g id="edge8" class="edge">
<title>ChangePasswordComponent&#45;&gt;AppModule</title>
<path fill="none" stroke="#000000" d="M3361,-122.1686C3361,-141.0898 3361,-168 3361,-168 3361,-168 2219.76,-168 2219.76,-168"/>
<polygon fill="#000000" stroke="#000000" points="2219.76,-164.5001 2209.76,-168 2219.7599,-171.5001 2219.76,-164.5001"/>
</g>
<!-- ClusterComponent -->
<g id="node9" class="node">
<title>ClusterComponent</title>
<polygon fill="#ffffb3" stroke="#000000" points="3253.7702,-122 3132.2298,-122 3132.2298,-86 3253.7702,-86 3253.7702,-122"/>
<text text-anchor="middle" x="3193" y="-99.8" font-family="Times,serif" font-size="14.00" fill="#000000">ClusterComponent</text>
</g>
<!-- ClusterComponent&#45;&gt;AppModule -->
<g id="edge9" class="edge">
<title>ClusterComponent&#45;&gt;AppModule</title>
<path fill="none" stroke="#000000" d="M3193,-122.2667C3193,-140.5552 3193,-166 3193,-166 3193,-166 2219.7709,-166 2219.7709,-166"/>
<polygon fill="#000000" stroke="#000000" points="2219.7709,-162.5001 2209.7709,-166 2219.7708,-169.5001 2219.7709,-162.5001"/>
</g>
<!-- DebugPanelComponent -->
<g id="node10" class="node">
<title>DebugPanelComponent</title>
<polygon fill="#ffffb3" stroke="#000000" points="3113.7562,-122 2964.2438,-122 2964.2438,-86 3113.7562,-86 3113.7562,-122"/>
<text text-anchor="middle" x="3039" y="-99.8" font-family="Times,serif" font-size="14.00" fill="#000000">DebugPanelComponent</text>
</g>
<!-- DebugPanelComponent&#45;&gt;AppModule -->
<g id="edge10" class="edge">
<title>DebugPanelComponent&#45;&gt;AppModule</title>
<path fill="none" stroke="#000000" d="M3039,-122.0225C3039,-139.3734 3039,-163 3039,-163 3039,-163 2219.7167,-163 2219.7167,-163"/>
<polygon fill="#000000" stroke="#000000" points="2219.7167,-159.5001 2209.7167,-163 2219.7167,-166.5001 2219.7167,-159.5001"/>
</g>
<!-- DeployInstanceComponent -->
<g id="node11" class="node">
<title>DeployInstanceComponent</title>
<polygon fill="#ffffb3" stroke="#000000" points="2946.6839,-122 2777.3161,-122 2777.3161,-86 2946.6839,-86 2946.6839,-122"/>
<text text-anchor="middle" x="2862" y="-99.8" font-family="Times,serif" font-size="14.00" fill="#000000">DeployInstanceComponent</text>
</g>
<!-- DeployInstanceComponent&#45;&gt;AppModule -->
<g id="edge11" class="edge">
<title>DeployInstanceComponent&#45;&gt;AppModule</title>
<path fill="none" stroke="#000000" d="M2862,-122.0352C2862,-138.7344 2862,-161 2862,-161 2862,-161 2219.8499,-161 2219.8499,-161"/>
<polygon fill="#000000" stroke="#000000" points="2219.85,-157.5001 2209.8499,-161 2219.8499,-164.5001 2219.85,-157.5001"/>
</g>
<!-- DeviceGroupCreatedComponent -->
<g id="node12" class="node">
<title>DeviceGroupCreatedComponent</title>
<polygon fill="#ffffb3" stroke="#000000" points="2759.2724,-122 2558.7276,-122 2558.7276,-86 2759.2724,-86 2759.2724,-122"/>
<text text-anchor="middle" x="2659" y="-99.8" font-family="Times,serif" font-size="14.00" fill="#000000">DeviceGroupCreatedComponent</text>
</g>
<!-- DeviceGroupCreatedComponent&#45;&gt;AppModule -->
<g id="edge12" class="edge">
<title>DeviceGroupCreatedComponent&#45;&gt;AppModule</title>
<path fill="none" stroke="#000000" d="M2659,-122.0091C2659,-138.0494 2659,-159 2659,-159 2659,-159 2219.8624,-159 2219.8624,-159"/>
<polygon fill="#000000" stroke="#000000" points="2219.8624,-155.5001 2209.8624,-159 2219.8623,-162.5001 2219.8624,-155.5001"/>
</g>
<!-- DevicesComponent -->
<g id="node13" class="node">
<title>DevicesComponent</title>
<polygon fill="#ffffb3" stroke="#000000" points="2541.4187,-122 2414.5813,-122 2414.5813,-86 2541.4187,-86 2541.4187,-122"/>
<text text-anchor="middle" x="2478" y="-99.8" font-family="Times,serif" font-size="14.00" fill="#000000">DevicesComponent</text>
</g>
<!-- DevicesComponent&#45;&gt;AppModule -->
<g id="edge13" class="edge">
<title>DevicesComponent&#45;&gt;AppModule</title>
<path fill="none" stroke="#000000" d="M2478,-122.1871C2478,-137.1824 2478,-156 2478,-156 2478,-156 2219.808,-156 2219.808,-156"/>
<polygon fill="#000000" stroke="#000000" points="2219.808,-152.5001 2209.808,-156 2219.8079,-159.5001 2219.808,-152.5001"/>
</g>
<!-- EditClusterComponent -->
<g id="node14" class="node">
<title>EditClusterComponent</title>
<polygon fill="#ffffb3" stroke="#000000" points="2396.6038,-122 2251.3962,-122 2251.3962,-86 2396.6038,-86 2396.6038,-122"/>
<text text-anchor="middle" x="2324" y="-99.8" font-family="Times,serif" font-size="14.00" fill="#000000">EditClusterComponent</text>
</g>
<!-- EditClusterComponent&#45;&gt;AppModule -->
<g id="edge14" class="edge">
<title>EditClusterComponent&#45;&gt;AppModule</title>
<path fill="none" stroke="#000000" d="M2271.4588,-122.0511C2271.4588,-136.373 2271.4588,-154 2271.4588,-154 2271.4588,-154 2219.7824,-154 2219.7824,-154"/>
<polygon fill="#000000" stroke="#000000" points="2219.7825,-150.5001 2209.7824,-154 2219.7824,-157.5001 2219.7825,-150.5001"/>
</g>
<!-- EditUserComponent -->
<g id="node15" class="node">
<title>EditUserComponent</title>
<polygon fill="#ffffb3" stroke="#000000" points="2233.5926,-122 2102.4074,-122 2102.4074,-86 2233.5926,-86 2233.5926,-122"/>
<text text-anchor="middle" x="2168" y="-99.8" font-family="Times,serif" font-size="14.00" fill="#000000">EditUserComponent</text>
</g>
<!-- EditUserComponent&#45;&gt;AppModule -->
<g id="edge15" class="edge">
<title>EditUserComponent&#45;&gt;AppModule</title>
<path fill="none" stroke="#000000" d="M2168,-122.1061C2168,-122.1061 2168,-140.991 2168,-140.991"/>
<polygon fill="#000000" stroke="#000000" points="2164.5001,-140.9909 2168,-150.991 2171.5001,-140.991 2164.5001,-140.9909"/>
</g>
<!-- FilterPipe -->
<g id="node16" class="node">
<title>FilterPipe</title>
<polygon fill="#ffffb3" stroke="#000000" points="2084.7177,-122 2013.2823,-122 2013.2823,-86 2084.7177,-86 2084.7177,-122"/>
<text text-anchor="middle" x="2049" y="-99.8" font-family="Times,serif" font-size="14.00" fill="#000000">FilterPipe</text>
</g>
<!-- FilterPipe&#45;&gt;AppModule -->
<g id="edge16" class="edge">
<title>FilterPipe&#45;&gt;AppModule</title>
<path fill="none" stroke="#000000" d="M2062.7355,-122.0511C2062.7355,-136.373 2062.7355,-154 2062.7355,-154 2062.7355,-154 2116.0942,-154 2116.0942,-154"/>
<polygon fill="#000000" stroke="#000000" points="2116.0942,-157.5001 2126.0942,-154 2116.0942,-150.5001 2116.0942,-157.5001"/>
</g>
<!-- GroupConfigurationComponent -->
<g id="node17" class="node">
<title>GroupConfigurationComponent</title>
<polygon fill="#ffffb3" stroke="#000000" points="1995.6441,-122 1800.3559,-122 1800.3559,-86 1995.6441,-86 1995.6441,-122"/>
<text text-anchor="middle" x="1898" y="-99.8" font-family="Times,serif" font-size="14.00" fill="#000000">GroupConfigurationComponent</text>
</g>
<!-- GroupConfigurationComponent&#45;&gt;AppModule -->
<g id="edge17" class="edge">
<title>GroupConfigurationComponent&#45;&gt;AppModule</title>
<path fill="none" stroke="#000000" d="M1898,-122.1871C1898,-137.1824 1898,-156 1898,-156 1898,-156 2116.1087,-156 2116.1087,-156"/>
<polygon fill="#000000" stroke="#000000" points="2116.1088,-159.5001 2126.1087,-156 2116.1087,-152.5001 2116.1088,-159.5001"/>
</g>
<!-- LoginComponent -->
<g id="node18" class="node">
<title>LoginComponent</title>
<polygon fill="#ffffb3" stroke="#000000" points="1782.2758,-122 1667.7242,-122 1667.7242,-86 1782.2758,-86 1782.2758,-122"/>
<text text-anchor="middle" x="1725" y="-99.8" font-family="Times,serif" font-size="14.00" fill="#000000">LoginComponent</text>
</g>
<!-- LoginComponent&#45;&gt;AppModule -->
<g id="edge18" class="edge">
<title>LoginComponent&#45;&gt;AppModule</title>
<path fill="none" stroke="#000000" d="M1725,-122.0091C1725,-138.0494 1725,-159 1725,-159 1725,-159 2116.3236,-159 2116.3236,-159"/>
<polygon fill="#000000" stroke="#000000" points="2116.3237,-162.5001 2126.3236,-159 2116.3236,-155.5001 2116.3237,-162.5001"/>
</g>
<!-- MainComponent -->
<g id="node19" class="node">
<title>MainComponent</title>
<polygon fill="#ffffb3" stroke="#000000" points="1649.3823,-122 1538.6177,-122 1538.6177,-86 1649.3823,-86 1649.3823,-122"/>
<text text-anchor="middle" x="1594" y="-99.8" font-family="Times,serif" font-size="14.00" fill="#000000">MainComponent</text>
</g>
<!-- MainComponent&#45;&gt;AppModule -->
<g id="edge19" class="edge">
<title>MainComponent&#45;&gt;AppModule</title>
<path fill="none" stroke="#000000" d="M1594,-122.0352C1594,-138.7344 1594,-161 1594,-161 1594,-161 2116.257,-161 2116.257,-161"/>
<polygon fill="#000000" stroke="#000000" points="2116.257,-164.5001 2126.257,-161 2116.2569,-157.5001 2116.257,-164.5001"/>
</g>
<!-- NotificationsComponent -->
<g id="node20" class="node">
<title>NotificationsComponent</title>
<polygon fill="#ffffb3" stroke="#000000" points="1520.427,-122 1365.573,-122 1365.573,-86 1520.427,-86 1520.427,-122"/>
<text text-anchor="middle" x="1443" y="-99.8" font-family="Times,serif" font-size="14.00" fill="#000000">NotificationsComponent</text>
</g>
<!-- NotificationsComponent&#45;&gt;AppModule -->
<g id="edge20" class="edge">
<title>NotificationsComponent&#45;&gt;AppModule</title>
<path fill="none" stroke="#000000" d="M1443,-122.0225C1443,-139.3734 1443,-163 1443,-163 1443,-163 2116.1524,-163 2116.1524,-163"/>
<polygon fill="#000000" stroke="#000000" points="2116.1525,-166.5001 2126.1524,-163 2116.1524,-159.5001 2116.1525,-166.5001"/>
</g>
<!-- OrganizationComponent -->
<g id="node21" class="node">
<title>OrganizationComponent</title>
<polygon fill="#ffffb3" stroke="#000000" points="1348.4158,-122 1193.5842,-122 1193.5842,-86 1348.4158,-86 1348.4158,-122"/>
<text text-anchor="middle" x="1271" y="-99.8" font-family="Times,serif" font-size="14.00" fill="#000000">OrganizationComponent</text>
</g>
<!-- OrganizationComponent&#45;&gt;AppModule -->
<g id="edge21" class="edge">
<title>OrganizationComponent&#45;&gt;AppModule</title>
<path fill="none" stroke="#000000" d="M1271,-122.2667C1271,-140.5552 1271,-166 1271,-166 1271,-166 2116.2374,-166 2116.2374,-166"/>
<polygon fill="#000000" stroke="#000000" points="2116.2374,-169.5001 2126.2374,-166 2116.2373,-162.5001 2116.2374,-169.5001"/>
</g>
<!-- ResourcesComponent -->
<g id="node22" class="node">
<title>ResourcesComponent</title>
<polygon fill="#ffffb3" stroke="#000000" points="1175.3627,-122 1036.6373,-122 1036.6373,-86 1175.3627,-86 1175.3627,-122"/>
<text text-anchor="middle" x="1106" y="-99.8" font-family="Times,serif" font-size="14.00" fill="#000000">ResourcesComponent</text>
</g>
<!-- ResourcesComponent&#45;&gt;AppModule -->
<g id="edge22" class="edge">
<title>ResourcesComponent&#45;&gt;AppModule</title>
<path fill="none" stroke="#000000" d="M1106,-122.1686C1106,-141.0898 1106,-168 1106,-168 1106,-168 2116.0412,-168 2116.0412,-168"/>
<polygon fill="#000000" stroke="#000000" points="2116.0413,-171.5001 2126.0412,-168 2116.0412,-164.5001 2116.0413,-171.5001"/>
</g>
<!-- SidebarComponent -->
<g id="node23" class="node">
<title>SidebarComponent</title>
<polygon fill="#ffffb3" stroke="#000000" points="1019.0954,-122 894.9046,-122 894.9046,-86 1019.0954,-86 1019.0954,-122"/>
<text text-anchor="middle" x="957" y="-99.8" font-family="Times,serif" font-size="14.00" fill="#000000">SidebarComponent</text>
</g>
<!-- SidebarComponent&#45;&gt;AppModule -->
<g id="edge23" class="edge">
<title>SidebarComponent&#45;&gt;AppModule</title>
<path fill="none" stroke="#000000" d="M957,-122.308C957,-142.1455 957,-171 957,-171 957,-171 2116.3146,-171 2116.3146,-171"/>
<polygon fill="#000000" stroke="#000000" points="2116.3147,-174.5001 2126.3146,-171 2116.3146,-167.5001 2116.3147,-174.5001"/>
</g>
<!-- SortByPipe -->
<g id="node24" class="node">
<title>SortByPipe</title>
<polygon fill="#ffffb3" stroke="#000000" points="877.0594,-122 796.9406,-122 796.9406,-86 877.0594,-86 877.0594,-122"/>
<text text-anchor="middle" x="837" y="-99.8" font-family="Times,serif" font-size="14.00" fill="#000000">SortByPipe</text>
</g>
<!-- SortByPipe&#45;&gt;AppModule -->
<g id="edge24" class="edge">
<title>SortByPipe&#45;&gt;AppModule</title>
<path fill="none" stroke="#000000" d="M837,-122.1289C837,-142.5724 837,-173 837,-173 837,-173 2116.3376,-173 2116.3376,-173"/>
<polygon fill="#000000" stroke="#000000" points="2116.3377,-176.5001 2126.3376,-173 2116.3376,-169.5001 2116.3377,-176.5001"/>
</g>
<!-- TruncatePipe -->
<g id="node25" class="node">
<title>TruncatePipe</title>
<polygon fill="#ffffb3" stroke="#000000" points="778.1361,-122 687.8639,-122 687.8639,-86 778.1361,-86 778.1361,-122"/>
<text text-anchor="middle" x="733" y="-99.8" font-family="Times,serif" font-size="14.00" fill="#000000">TruncatePipe</text>
</g>
<!-- TruncatePipe&#45;&gt;AppModule -->
<g id="edge25" class="edge">
<title>TruncatePipe&#45;&gt;AppModule</title>
<path fill="none" stroke="#000000" d="M733,-122.2843C733,-143.3211 733,-175 733,-175 733,-175 2116.2164,-175 2116.2164,-175"/>
<polygon fill="#000000" stroke="#000000" points="2116.2164,-178.5001 2126.2164,-175 2116.2164,-171.5001 2116.2164,-178.5001"/>
</g>
<!-- UserInfoComponent -->
<g id="node26" class="node">
<title>UserInfoComponent</title>
<polygon fill="#ffffb3" stroke="#000000" points="669.58,-122 538.42,-122 538.42,-86 669.58,-86 669.58,-122"/>
<text text-anchor="middle" x="604" y="-99.8" font-family="Times,serif" font-size="14.00" fill="#000000">UserInfoComponent</text>
</g>
<!-- UserInfoComponent&#45;&gt;AppModule -->
<g id="edge26" class="edge">
<title>UserInfoComponent&#45;&gt;AppModule</title>
<path fill="none" stroke="#000000" d="M604,-122.2921C604,-144.2057 604,-178 604,-178 604,-178 2116.1668,-178 2116.1668,-178"/>
<polygon fill="#000000" stroke="#000000" points="2116.1668,-181.5001 2126.1668,-178 2116.1667,-174.5001 2116.1668,-181.5001"/>
</g>
<!-- LoginComponent  -->
<g id="node28" class="node">
<title>LoginComponent </title>
<polygon fill="#fb8072" stroke="#000000" points="2159.2759,-252 2040.7241,-252 2040.7241,-216 2159.2759,-216 2159.2759,-252"/>
<text text-anchor="middle" x="2100" y="-229.8" font-family="Times,serif" font-size="14.00" fill="#000000">LoginComponent </text>
</g>
<!-- AppModule&#45;&gt;LoginComponent  -->
<g id="edge27" class="edge">
<title>AppModule&#45;&gt;LoginComponent </title>
<path fill="none" stroke="#000000" stroke-dasharray="5,2" d="M2142.6548,-187.1061C2142.6548,-187.1061 2142.6548,-205.991 2142.6548,-205.991"/>
<polygon fill="#000000" stroke="#000000" points="2139.1549,-205.9909 2142.6548,-215.991 2146.1549,-205.991 2139.1549,-205.9909"/>
</g>
<!-- AppComponent  -->
<g id="node29" class="node">
<title>AppComponent </title>
<polygon fill="#80b1d3" stroke="#000000" points="2291.439,-252 2182.561,-252 2182.561,-216 2291.439,-216 2291.439,-252"/>
<text text-anchor="middle" x="2237" y="-229.8" font-family="Times,serif" font-size="14.00" fill="#000000">AppComponent </text>
</g>
<!-- AppModule&#45;&gt;AppComponent  -->
<g id="edge28" class="edge">
<title>AppModule&#45;&gt;AppComponent </title>
<path fill="none" stroke="#000000" stroke-dasharray="1,5" d="M2196.1794,-187.1061C2196.1794,-187.1061 2196.1794,-205.991 2196.1794,-205.991"/>
<polygon fill="#000000" stroke="#000000" points="2192.6794,-205.9909 2196.1794,-215.991 2199.6794,-205.991 2192.6794,-205.9909"/>
</g>
<!-- AuthService -->
<g id="node30" class="node">
<title>AuthService</title>
<ellipse fill="#fdb462" stroke="#000000" cx="455" cy="-104" rx="59.1083" ry="18"/>
<text text-anchor="middle" x="455" y="-99.8" font-family="Times,serif" font-size="14.00" fill="#000000">AuthService</text>
</g>
<!-- AuthService&#45;&gt;AppModule -->
<g id="edge29" class="edge">
<title>AuthService&#45;&gt;AppModule</title>
<path fill="none" stroke="#000000" d="M455,-122.0109C455,-144.4852 455,-180 455,-180 455,-180 2116.0813,-180 2116.0813,-180"/>
<polygon fill="#000000" stroke="#000000" points="2116.0814,-183.5001 2126.0813,-180 2116.0813,-176.5001 2116.0814,-183.5001"/>
</g>
<!-- BackendService -->
<g id="node31" class="node">
<title>BackendService</title>
<ellipse fill="#fdb462" stroke="#000000" cx="304" cy="-104" rx="73.556" ry="18"/>
<text text-anchor="middle" x="304" y="-99.8" font-family="Times,serif" font-size="14.00" fill="#000000">BackendService</text>
</g>
<!-- BackendService&#45;&gt;AppModule -->
<g id="edge30" class="edge">
<title>BackendService&#45;&gt;AppModule</title>
<path fill="none" stroke="#000000" d="M304,-122.3228C304,-145.6602 304,-183 304,-183 304,-183 2116.011,-183 2116.011,-183"/>
<polygon fill="#000000" stroke="#000000" points="2116.011,-186.5001 2126.011,-183 2116.0109,-179.5001 2116.011,-186.5001"/>
</g>
<!-- UpdateEventsService -->
<g id="node32" class="node">
<title>UpdateEventsService</title>
<ellipse fill="#fdb462" stroke="#000000" cx="118" cy="-104" rx="94.3195" ry="18"/>
<text text-anchor="middle" x="118" y="-99.8" font-family="Times,serif" font-size="14.00" fill="#000000">UpdateEventsService</text>
</g>
<!-- UpdateEventsService&#45;&gt;AppModule -->
<g id="edge31" class="edge">
<title>UpdateEventsService&#45;&gt;AppModule</title>
<path fill="none" stroke="#000000" d="M118,-122.3802C118,-146.2785 118,-185 118,-185 118,-185 2116.1215,-185 2116.1215,-185"/>
<polygon fill="#000000" stroke="#000000" points="2116.1216,-188.5001 2126.1215,-185 2116.1215,-181.5001 2116.1216,-188.5001"/>
</g>
</g>
</svg>
