<?xml version="1.0" encoding="UTF-8" standalone="no"?>
<!DOCTYPE svg PUBLIC "-//W3C//DTD SVG 1.1//EN"
 "http://www.w3.org/Graphics/SVG/1.1/DTD/svg11.dtd">
<!-- Generated by graphviz version 2.40.1 (20161225.0304)
 -->
<!-- Title: dependencies Pages: 1 -->
<svg width="3020pt" height="284pt"
 viewBox="0.00 0.00 3020.00 284.00" xmlns="http://www.w3.org/2000/svg" xmlns:xlink="http://www.w3.org/1999/xlink">
<g id="graph0" class="graph" transform="scale(1 1) rotate(0) translate(4 280)">
<title>dependencies</title>
<polygon fill="#ffffff" stroke="transparent" points="-4,4 -4,-280 3016,-280 3016,4 -4,4"/>
<text text-anchor="start" x="1485.0091" y="-42.4" font-family="sans-serif" font-weight="bold" font-size="14.00" fill="#000000">Legend</text>
<polygon fill="#ffffb3" stroke="transparent" points="1272,-10 1272,-30 1292,-30 1292,-10 1272,-10"/>
<text text-anchor="start" x="1295.629" y="-15.4" font-family="sans-serif" font-size="14.00" fill="#000000"> &#160;Declarations</text>
<polygon fill="#8dd3c7" stroke="transparent" points="1385,-10 1385,-30 1405,-30 1405,-10 1385,-10"/>
<text text-anchor="start" x="1408.7251" y="-15.4" font-family="sans-serif" font-size="14.00" fill="#000000"> &#160;Module</text>
<polygon fill="#80b1d3" stroke="transparent" points="1471,-10 1471,-30 1491,-30 1491,-10 1471,-10"/>
<text text-anchor="start" x="1494.7812" y="-15.4" font-family="sans-serif" font-size="14.00" fill="#000000"> &#160;Bootstrap</text>
<polygon fill="#fdb462" stroke="transparent" points="1568,-10 1568,-30 1588,-30 1588,-10 1568,-10"/>
<text text-anchor="start" x="1591.6732" y="-15.4" font-family="sans-serif" font-size="14.00" fill="#000000"> &#160;Providers</text>
<polygon fill="#fb8072" stroke="transparent" points="1664,-10 1664,-30 1684,-30 1684,-10 1664,-10"/>
<text text-anchor="start" x="1687.7258" y="-15.4" font-family="sans-serif" font-size="14.00" fill="#000000"> &#160;Exports</text>
<g id="clust1" class="cluster">
<title>cluster_AppModule</title>
<polygon fill="none" stroke="#000000" stroke-dasharray="1,5" points="8,-70 8,-268 3004,-268 3004,-70 8,-70"/>
</g>
<g id="clust2" class="cluster">
<title>cluster_AppModule_declarations</title>
<polygon fill="none" stroke="#000000" points="530,-78 530,-130 2996,-130 2996,-78 530,-78"/>
</g>
<g id="clust20" class="cluster">
<title>cluster_AppModule_exports</title>
<polygon fill="none" stroke="#000000" points="1383,-208 1383,-260 1517,-260 1517,-208 1383,-208"/>
</g>
<g id="clust21" class="cluster">
<title>cluster_AppModule_bootstrap</title>
<polygon fill="none" stroke="#000000" points="1525,-208 1525,-260 1649,-260 1649,-208 1525,-208"/>
</g>
<g id="clust22" class="cluster">
<title>cluster_AppModule_providers</title>
<polygon fill="none" stroke="#000000" points="16,-78 16,-130 522,-130 522,-78 16,-78"/>
</g>
<!-- AddUserComponent -->
<g id="node1" class="node">
<title>AddUserComponent</title>
<polygon fill="#ffffb3" stroke="#000000" points="2987.8655,-122 2856.1345,-122 2856.1345,-86 2987.8655,-86 2987.8655,-122"/>
<text text-anchor="middle" x="2922" y="-99.8" font-family="Times,serif" font-size="14.00" fill="#000000">AddUserComponent</text>
</g>
<!-- AppModule -->
<g id="node17" class="node">
<title>AppModule</title>
<polygon fill="#8dd3c7" stroke="#000000" points="1559.6571,-187 1556.6571,-191 1535.6571,-191 1532.6571,-187 1476.3429,-187 1476.3429,-151 1559.6571,-151 1559.6571,-187"/>
<text text-anchor="middle" x="1518" y="-164.8" font-family="Times,serif" font-size="14.00" fill="#000000">AppModule</text>
</g>
<!-- AddUserComponent&#45;&gt;AppModule -->
<g id="edge1" class="edge">
<title>AddUserComponent&#45;&gt;AppModule</title>
<path fill="none" stroke="#000000" d="M2922,-122.1532C2922,-145.7566 2922,-184 2922,-184 2922,-184 1570.0189,-184 1570.0189,-184"/>
<polygon fill="#000000" stroke="#000000" points="1570.019,-180.5001 1560.0189,-184 1570.0189,-187.5001 1570.019,-180.5001"/>
</g>
<!-- AppComponent -->
<g id="node2" class="node">
<title>AppComponent</title>
<polygon fill="#ffffb3" stroke="#000000" points="2837.9399,-122 2732.0601,-122 2732.0601,-86 2837.9399,-86 2837.9399,-122"/>
<text text-anchor="middle" x="2785" y="-99.8" font-family="Times,serif" font-size="14.00" fill="#000000">AppComponent</text>
</g>
<!-- AppComponent&#45;&gt;AppModule -->
<g id="edge2" class="edge">
<title>AppComponent&#45;&gt;AppModule</title>
<path fill="none" stroke="#000000" d="M2785,-122.0109C2785,-144.4852 2785,-180 2785,-180 2785,-180 1569.7945,-180 1569.7945,-180"/>
<polygon fill="#000000" stroke="#000000" points="1569.7945,-176.5001 1559.7945,-180 1569.7944,-183.5001 1569.7945,-176.5001"/>
</g>
<!-- ApplicationsComponent -->
<g id="node3" class="node">
<title>ApplicationsComponent</title>
<polygon fill="#ffffb3" stroke="#000000" points="2714.3753,-122 2561.6247,-122 2561.6247,-86 2714.3753,-86 2714.3753,-122"/>
<text text-anchor="middle" x="2638" y="-99.8" font-family="Times,serif" font-size="14.00" fill="#000000">ApplicationsComponent</text>
</g>
<!-- ApplicationsComponent&#45;&gt;AppModule -->
<g id="edge3" class="edge">
<title>ApplicationsComponent&#45;&gt;AppModule</title>
<path fill="none" stroke="#000000" d="M2638,-122.0449C2638,-143.6623 2638,-177 2638,-177 2638,-177 1569.8612,-177 1569.8612,-177"/>
<polygon fill="#000000" stroke="#000000" points="1569.8613,-173.5001 1559.8612,-177 1569.8612,-180.5001 1569.8613,-173.5001"/>
</g>
<!-- AppsInfoComponent -->
<g id="node4" class="node">
<title>AppsInfoComponent</title>
<polygon fill="#ffffb3" stroke="#000000" points="2543.205,-122 2408.795,-122 2408.795,-86 2543.205,-86 2543.205,-122"/>
<text text-anchor="middle" x="2476" y="-99.8" font-family="Times,serif" font-size="14.00" fill="#000000">AppsInfoComponent</text>
</g>
<!-- AppsInfoComponent&#45;&gt;AppModule -->
<g id="edge4" class="edge">
<title>AppsInfoComponent&#45;&gt;AppModule</title>
<path fill="none" stroke="#000000" d="M2476,-122.1289C2476,-142.5724 2476,-173 2476,-173 2476,-173 1569.7801,-173 1569.7801,-173"/>
<polygon fill="#000000" stroke="#000000" points="1569.7801,-169.5001 1559.7801,-173 1569.78,-176.5001 1569.7801,-169.5001"/>
</g>
<!-- ChangePasswordComponent -->
<g id="node5" class="node">
<title>ChangePasswordComponent</title>
<polygon fill="#ffffb3" stroke="#000000" points="2390.752,-122 2213.248,-122 2213.248,-86 2390.752,-86 2390.752,-122"/>
<text text-anchor="middle" x="2302" y="-99.8" font-family="Times,serif" font-size="14.00" fill="#000000">ChangePasswordComponent</text>
</g>
<!-- ChangePasswordComponent&#45;&gt;AppModule -->
<g id="edge5" class="edge">
<title>ChangePasswordComponent&#45;&gt;AppModule</title>
<path fill="none" stroke="#000000" d="M2302,-122.1061C2302,-141.3391 2302,-169 2302,-169 2302,-169 1569.8741,-169 1569.8741,-169"/>
<polygon fill="#000000" stroke="#000000" points="1569.8741,-165.5001 1559.8741,-169 1569.874,-172.5001 1569.8741,-165.5001"/>
</g>
<!-- ClusterComponent -->
<g id="node6" class="node">
<title>ClusterComponent</title>
<polygon fill="#ffffb3" stroke="#000000" points="2194.7702,-122 2073.2298,-122 2073.2298,-86 2194.7702,-86 2194.7702,-122"/>
<text text-anchor="middle" x="2134" y="-99.8" font-family="Times,serif" font-size="14.00" fill="#000000">ClusterComponent</text>
</g>
<!-- ClusterComponent&#45;&gt;AppModule -->
<g id="edge6" class="edge">
<title>ClusterComponent&#45;&gt;AppModule</title>
<path fill="none" stroke="#000000" d="M2134,-122.2667C2134,-140.5552 2134,-166 2134,-166 2134,-166 1569.8559,-166 1569.8559,-166"/>
<polygon fill="#000000" stroke="#000000" points="1569.8559,-162.5001 1559.8559,-166 1569.8559,-169.5001 1569.8559,-162.5001"/>
</g>
<!-- DebugPanelComponent -->
<g id="node7" class="node">
<title>DebugPanelComponent</title>
<polygon fill="#ffffb3" stroke="#000000" points="2054.7562,-122 1905.2438,-122 1905.2438,-86 2054.7562,-86 2054.7562,-122"/>
<text text-anchor="middle" x="1980" y="-99.8" font-family="Times,serif" font-size="14.00" fill="#000000">DebugPanelComponent</text>
</g>
<!-- DebugPanelComponent&#45;&gt;AppModule -->
<g id="edge7" class="edge">
<title>DebugPanelComponent&#45;&gt;AppModule</title>
<path fill="none" stroke="#000000" d="M1980,-122.0336C1980,-139.0597 1980,-162 1980,-162 1980,-162 1569.8143,-162 1569.8143,-162"/>
<polygon fill="#000000" stroke="#000000" points="1569.8143,-158.5001 1559.8143,-162 1569.8142,-165.5001 1569.8143,-158.5001"/>
</g>
<!-- EditClusterComponent -->
<g id="node8" class="node">
<title>EditClusterComponent</title>
<polygon fill="#ffffb3" stroke="#000000" points="1887.6038,-122 1742.3962,-122 1742.3962,-86 1887.6038,-86 1887.6038,-122"/>
<text text-anchor="middle" x="1815" y="-99.8" font-family="Times,serif" font-size="14.00" fill="#000000">EditClusterComponent</text>
</g>
<!-- EditClusterComponent&#45;&gt;AppModule -->
<g id="edge8" class="edge">
<title>EditClusterComponent&#45;&gt;AppModule</title>
<path fill="none" stroke="#000000" d="M1815,-122.0091C1815,-138.0494 1815,-159 1815,-159 1815,-159 1569.9229,-159 1569.9229,-159"/>
<polygon fill="#000000" stroke="#000000" points="1569.923,-155.5001 1559.9229,-159 1569.9229,-162.5001 1569.923,-155.5001"/>
</g>
<!-- EditUserComponent -->
<g id="node9" class="node">
<title>EditUserComponent</title>
<polygon fill="#ffffb3" stroke="#000000" points="1724.5926,-122 1593.4074,-122 1593.4074,-86 1724.5926,-86 1724.5926,-122"/>
<text text-anchor="middle" x="1659" y="-99.8" font-family="Times,serif" font-size="14.00" fill="#000000">EditUserComponent</text>
</g>
<!-- EditUserComponent&#45;&gt;AppModule -->
<g id="edge9" class="edge">
<title>EditUserComponent&#45;&gt;AppModule</title>
<path fill="none" stroke="#000000" d="M1617.4616,-122.1243C1617.4616,-136.7832 1617.4616,-155 1617.4616,-155 1617.4616,-155 1569.8924,-155 1569.8924,-155"/>
<polygon fill="#000000" stroke="#000000" points="1569.8924,-151.5001 1559.8924,-155 1569.8924,-158.5001 1569.8924,-151.5001"/>
</g>
<!-- LoginComponent -->
<g id="node10" class="node">
<title>LoginComponent</title>
<polygon fill="#ffffb3" stroke="#000000" points="1575.2758,-122 1460.7242,-122 1460.7242,-86 1575.2758,-86 1575.2758,-122"/>
<text text-anchor="middle" x="1518" y="-99.8" font-family="Times,serif" font-size="14.00" fill="#000000">LoginComponent</text>
</g>
<!-- LoginComponent&#45;&gt;AppModule -->
<g id="edge10" class="edge">
<title>LoginComponent&#45;&gt;AppModule</title>
<path fill="none" stroke="#000000" d="M1518,-122.1061C1518,-122.1061 1518,-140.991 1518,-140.991"/>
<polygon fill="#000000" stroke="#000000" points="1514.5001,-140.9909 1518,-150.991 1521.5001,-140.991 1514.5001,-140.9909"/>
</g>
<!-- MainComponent -->
<g id="node11" class="node">
<title>MainComponent</title>
<polygon fill="#ffffb3" stroke="#000000" points="1442.3823,-122 1331.6177,-122 1331.6177,-86 1442.3823,-86 1442.3823,-122"/>
<text text-anchor="middle" x="1387" y="-99.8" font-family="Times,serif" font-size="14.00" fill="#000000">MainComponent</text>
</g>
<!-- MainComponent&#45;&gt;AppModule -->
<g id="edge11" class="edge">
<title>MainComponent&#45;&gt;AppModule</title>
<path fill="none" stroke="#000000" d="M1416.6517,-122.1243C1416.6517,-136.7832 1416.6517,-155 1416.6517,-155 1416.6517,-155 1466.1926,-155 1466.1926,-155"/>
<polygon fill="#000000" stroke="#000000" points="1466.1927,-158.5001 1476.1926,-155 1466.1926,-151.5001 1466.1927,-158.5001"/>
</g>
<!-- NotificationsComponent -->
<g id="node12" class="node">
<title>NotificationsComponent</title>
<polygon fill="#ffffb3" stroke="#000000" points="1313.427,-122 1158.573,-122 1158.573,-86 1313.427,-86 1313.427,-122"/>
<text text-anchor="middle" x="1236" y="-99.8" font-family="Times,serif" font-size="14.00" fill="#000000">NotificationsComponent</text>
</g>
<!-- NotificationsComponent&#45;&gt;AppModule -->
<g id="edge12" class="edge">
<title>NotificationsComponent&#45;&gt;AppModule</title>
<path fill="none" stroke="#000000" d="M1236,-122.0091C1236,-138.0494 1236,-159 1236,-159 1236,-159 1466.0863,-159 1466.0863,-159"/>
<polygon fill="#000000" stroke="#000000" points="1466.0863,-162.5001 1476.0863,-159 1466.0862,-155.5001 1466.0863,-162.5001"/>
</g>
<!-- OrganizationComponent -->
<g id="node13" class="node">
<title>OrganizationComponent</title>
<polygon fill="#ffffb3" stroke="#000000" points="1141.4158,-122 986.5842,-122 986.5842,-86 1141.4158,-86 1141.4158,-122"/>
<text text-anchor="middle" x="1064" y="-99.8" font-family="Times,serif" font-size="14.00" fill="#000000">OrganizationComponent</text>
</g>
<!-- OrganizationComponent&#45;&gt;AppModule -->
<g id="edge13" class="edge">
<title>OrganizationComponent&#45;&gt;AppModule</title>
<path fill="none" stroke="#000000" d="M1064,-122.0336C1064,-139.0597 1064,-162 1064,-162 1064,-162 1466.1025,-162 1466.1025,-162"/>
<polygon fill="#000000" stroke="#000000" points="1466.1026,-165.5001 1476.1025,-162 1466.1025,-158.5001 1466.1026,-165.5001"/>
</g>
<!-- ResourcesComponent -->
<g id="node14" class="node">
<title>ResourcesComponent</title>
<polygon fill="#ffffb3" stroke="#000000" points="968.3627,-122 829.6373,-122 829.6373,-86 968.3627,-86 968.3627,-122"/>
<text text-anchor="middle" x="899" y="-99.8" font-family="Times,serif" font-size="14.00" fill="#000000">ResourcesComponent</text>
</g>
<!-- ResourcesComponent&#45;&gt;AppModule -->
<g id="edge14" class="edge">
<title>ResourcesComponent&#45;&gt;AppModule</title>
<path fill="none" stroke="#000000" d="M899,-122.2667C899,-140.5552 899,-166 899,-166 899,-166 1465.9403,-166 1465.9403,-166"/>
<polygon fill="#000000" stroke="#000000" points="1465.9403,-169.5001 1475.9403,-166 1465.9402,-162.5001 1465.9403,-169.5001"/>
</g>
<!-- SidebarComponent -->
<g id="node15" class="node">
<title>SidebarComponent</title>
<polygon fill="#ffffb3" stroke="#000000" points="812.0954,-122 687.9046,-122 687.9046,-86 812.0954,-86 812.0954,-122"/>
<text text-anchor="middle" x="750" y="-99.8" font-family="Times,serif" font-size="14.00" fill="#000000">SidebarComponent</text>
</g>
<!-- SidebarComponent&#45;&gt;AppModule -->
<g id="edge15" class="edge">
<title>SidebarComponent&#45;&gt;AppModule</title>
<path fill="none" stroke="#000000" d="M750,-122.1061C750,-141.3391 750,-169 750,-169 750,-169 1466.1636,-169 1466.1636,-169"/>
<polygon fill="#000000" stroke="#000000" points="1466.1636,-172.5001 1476.1636,-169 1466.1635,-165.5001 1466.1636,-172.5001"/>
</g>
<!-- UserInfoComponent -->
<g id="node16" class="node">
<title>UserInfoComponent</title>
<polygon fill="#ffffb3" stroke="#000000" points="669.58,-122 538.42,-122 538.42,-86 669.58,-86 669.58,-122"/>
<text text-anchor="middle" x="604" y="-99.8" font-family="Times,serif" font-size="14.00" fill="#000000">UserInfoComponent</text>
</g>
<!-- UserInfoComponent&#45;&gt;AppModule -->
<g id="edge16" class="edge">
<title>UserInfoComponent&#45;&gt;AppModule</title>
<path fill="none" stroke="#000000" d="M604,-122.1289C604,-142.5724 604,-173 604,-173 604,-173 1466.0511,-173 1466.0511,-173"/>
<polygon fill="#000000" stroke="#000000" points="1466.0511,-176.5001 1476.0511,-173 1466.0511,-169.5001 1466.0511,-176.5001"/>
</g>
<!-- LoginComponent  -->
<g id="node18" class="node">
<title>LoginComponent </title>
<polygon fill="#fb8072" stroke="#000000" points="1509.2759,-252 1390.7241,-252 1390.7241,-216 1509.2759,-216 1509.2759,-252"/>
<text text-anchor="middle" x="1450" y="-229.8" font-family="Times,serif" font-size="14.00" fill="#000000">LoginComponent </text>
</g>
<!-- AppModule&#45;&gt;LoginComponent  -->
<g id="edge17" class="edge">
<title>AppModule&#45;&gt;LoginComponent </title>
<path fill="none" stroke="#000000" stroke-dasharray="5,2" d="M1492.6548,-187.1061C1492.6548,-187.1061 1492.6548,-205.991 1492.6548,-205.991"/>
<polygon fill="#000000" stroke="#000000" points="1489.1549,-205.9909 1492.6548,-215.991 1496.1549,-205.991 1489.1549,-205.9909"/>
</g>
<!-- AppComponent  -->
<g id="node19" class="node">
<title>AppComponent </title>
<polygon fill="#80b1d3" stroke="#000000" points="1641.439,-252 1532.561,-252 1532.561,-216 1641.439,-216 1641.439,-252"/>
<text text-anchor="middle" x="1587" y="-229.8" font-family="Times,serif" font-size="14.00" fill="#000000">AppComponent </text>
</g>
<!-- AppModule&#45;&gt;AppComponent  -->
<g id="edge18" class="edge">
<title>AppModule&#45;&gt;AppComponent </title>
<path fill="none" stroke="#000000" stroke-dasharray="1,5" d="M1546.1793,-187.1061C1546.1793,-187.1061 1546.1793,-205.991 1546.1793,-205.991"/>
<polygon fill="#000000" stroke="#000000" points="1542.6794,-205.9909 1546.1793,-215.991 1549.6794,-205.991 1542.6794,-205.9909"/>
</g>
<!-- AuthService -->
<g id="node20" class="node">
<title>AuthService</title>
<ellipse fill="#fdb462" stroke="#000000" cx="455" cy="-104" rx="59.1083" ry="18"/>
<text text-anchor="middle" x="455" y="-99.8" font-family="Times,serif" font-size="14.00" fill="#000000">AuthService</text>
</g>
<!-- AuthService&#45;&gt;AppModule -->
<g id="edge19" class="edge">
<title>AuthService&#45;&gt;AppModule</title>
<path fill="none" stroke="#000000" d="M455,-122.0449C455,-143.6623 455,-177 455,-177 455,-177 1466.3291,-177 1466.3291,-177"/>
<polygon fill="#000000" stroke="#000000" points="1466.3292,-180.5001 1476.3291,-177 1466.3291,-173.5001 1466.3292,-180.5001"/>
</g>
<!-- BackendService -->
<g id="node21" class="node">
<title>BackendService</title>
<ellipse fill="#fdb462" stroke="#000000" cx="304" cy="-104" rx="73.556" ry="18"/>
<text text-anchor="middle" x="304" y="-99.8" font-family="Times,serif" font-size="14.00" fill="#000000">BackendService</text>
</g>
<!-- BackendService&#45;&gt;AppModule -->
<g id="edge20" class="edge">
<title>BackendService&#45;&gt;AppModule</title>
<path fill="none" stroke="#000000" d="M304,-122.0109C304,-144.4852 304,-180 304,-180 304,-180 1466.2114,-180 1466.2114,-180"/>
<polygon fill="#000000" stroke="#000000" points="1466.2114,-183.5001 1476.2114,-180 1466.2113,-176.5001 1466.2114,-183.5001"/>
</g>
<!-- UpdateEventsService -->
<g id="node22" class="node">
<title>UpdateEventsService</title>
<ellipse fill="#fdb462" stroke="#000000" cx="118" cy="-104" rx="94.3195" ry="18"/>
<text text-anchor="middle" x="118" y="-99.8" font-family="Times,serif" font-size="14.00" fill="#000000">UpdateEventsService</text>
</g>
<!-- UpdateEventsService&#45;&gt;AppModule -->
<g id="edge21" class="edge">
<title>UpdateEventsService&#45;&gt;AppModule</title>
<path fill="none" stroke="#000000" d="M118,-122.1532C118,-145.7566 118,-184 118,-184 118,-184 1466.1008,-184 1466.1008,-184"/>
<polygon fill="#000000" stroke="#000000" points="1466.1008,-187.5001 1476.1008,-184 1466.1007,-180.5001 1466.1008,-187.5001"/>
</g>
</g>
</svg>
