<?xml version="1.0" encoding="UTF-8" standalone="no"?>
<!DOCTYPE svg PUBLIC "-//W3C//DTD SVG 1.1//EN"
 "http://www.w3.org/Graphics/SVG/1.1/DTD/svg11.dtd">
<!-- Generated by graphviz version 2.40.1 (20161225.0304)
 -->
<!-- Title: dependencies Pages: 1 -->
<svg width="5823pt" height="284pt"
 viewBox="0.00 0.00 5823.00 284.00" xmlns="http://www.w3.org/2000/svg" xmlns:xlink="http://www.w3.org/1999/xlink">
<g id="graph0" class="graph" transform="scale(1 1) rotate(0) translate(4 280)">
<title>dependencies</title>
<polygon fill="#ffffff" stroke="transparent" points="-4,4 -4,-280 5819,-280 5819,4 -4,4"/>
<text text-anchor="start" x="2886.5091" y="-42.4" font-family="sans-serif" font-weight="bold" font-size="14.00" fill="#000000">Legend</text>
<polygon fill="#ffffb3" stroke="transparent" points="2673.5,-10 2673.5,-30 2693.5,-30 2693.5,-10 2673.5,-10"/>
<text text-anchor="start" x="2697.129" y="-15.4" font-family="sans-serif" font-size="14.00" fill="#000000"> &#160;Declarations</text>
<polygon fill="#8dd3c7" stroke="transparent" points="2786.5,-10 2786.5,-30 2806.5,-30 2806.5,-10 2786.5,-10"/>
<text text-anchor="start" x="2810.2251" y="-15.4" font-family="sans-serif" font-size="14.00" fill="#000000"> &#160;Module</text>
<polygon fill="#80b1d3" stroke="transparent" points="2872.5,-10 2872.5,-30 2892.5,-30 2892.5,-10 2872.5,-10"/>
<text text-anchor="start" x="2896.2812" y="-15.4" font-family="sans-serif" font-size="14.00" fill="#000000"> &#160;Bootstrap</text>
<polygon fill="#fdb462" stroke="transparent" points="2969.5,-10 2969.5,-30 2989.5,-30 2989.5,-10 2969.5,-10"/>
<text text-anchor="start" x="2993.1732" y="-15.4" font-family="sans-serif" font-size="14.00" fill="#000000"> &#160;Providers</text>
<polygon fill="#fb8072" stroke="transparent" points="3065.5,-10 3065.5,-30 3085.5,-30 3085.5,-10 3065.5,-10"/>
<text text-anchor="start" x="3089.2258" y="-15.4" font-family="sans-serif" font-size="14.00" fill="#000000"> &#160;Exports</text>
<g id="clust1" class="cluster">
<title>cluster_AppModule</title>
<polygon fill="none" stroke="#000000" stroke-dasharray="1,5" points="8,-70 8,-268 5807,-268 5807,-70 8,-70"/>
</g>
<g id="clust2" class="cluster">
<title>cluster_AppModule_declarations</title>
<polygon fill="none" stroke="#000000" points="530,-78 530,-130 5799,-130 5799,-78 530,-78"/>
</g>
<g id="clust37" class="cluster">
<title>cluster_AppModule_exports</title>
<polygon fill="none" stroke="#000000" points="2752,-208 2752,-260 2886,-260 2886,-208 2752,-208"/>
</g>
<g id="clust38" class="cluster">
<title>cluster_AppModule_bootstrap</title>
<polygon fill="none" stroke="#000000" points="2894,-208 2894,-260 3018,-260 3018,-208 2894,-208"/>
</g>
<g id="clust39" class="cluster">
<title>cluster_AppModule_providers</title>
<polygon fill="none" stroke="#000000" points="16,-78 16,-130 522,-130 522,-78 16,-78"/>
</g>
<!-- AbbreviatePipe -->
<g id="node1" class="node">
<title>AbbreviatePipe</title>
<polygon fill="#ffffb3" stroke="#000000" points="5790.58,-122 5687.42,-122 5687.42,-86 5790.58,-86 5790.58,-122"/>
<text text-anchor="middle" x="5739" y="-99.8" font-family="Times,serif" font-size="14.00" fill="#000000">AbbreviatePipe</text>
</g>
<!-- AppModule -->
<g id="node34" class="node">
<title>AppModule</title>
<polygon fill="#8dd3c7" stroke="#000000" points="2928.6571,-187 2925.6571,-191 2904.6571,-191 2901.6571,-187 2845.3429,-187 2845.3429,-151 2928.6571,-151 2928.6571,-187"/>
<text text-anchor="middle" x="2887" y="-164.8" font-family="Times,serif" font-size="14.00" fill="#000000">AppModule</text>
</g>
<!-- AbbreviatePipe&#45;&gt;AppModule -->
<g id="edge1" class="edge">
<title>AbbreviatePipe&#45;&gt;AppModule</title>
<path fill="none" stroke="#000000" d="M5739,-122.3802C5739,-146.2785 5739,-185 5739,-185 5739,-185 2938.6932,-185 2938.6932,-185"/>
<polygon fill="#000000" stroke="#000000" points="2938.6932,-181.5001 2928.6932,-185 2938.6931,-188.5001 2938.6932,-181.5001"/>
</g>
<!-- AddDevicesGroupComponent -->
<g id="node2" class="node">
<title>AddDevicesGroupComponent</title>
<polygon fill="#ffffb3" stroke="#000000" points="5669.292,-122 5482.708,-122 5482.708,-86 5669.292,-86 5669.292,-122"/>
<text text-anchor="middle" x="5576" y="-99.8" font-family="Times,serif" font-size="14.00" fill="#000000">AddDevicesGroupComponent</text>
</g>
<!-- AddDevicesGroupComponent&#45;&gt;AppModule -->
<g id="edge2" class="edge">
<title>AddDevicesGroupComponent&#45;&gt;AppModule</title>
<path fill="none" stroke="#000000" d="M5576,-122.3228C5576,-145.6602 5576,-183 5576,-183 5576,-183 2938.6981,-183 2938.6981,-183"/>
<polygon fill="#000000" stroke="#000000" points="2938.6981,-179.5001 2928.6981,-183 2938.6981,-186.5001 2938.6981,-179.5001"/>
</g>
<!-- AddLabelComponent -->
<g id="node3" class="node">
<title>AddLabelComponent</title>
<polygon fill="#ffffb3" stroke="#000000" points="5464.8118,-122 5327.1882,-122 5327.1882,-86 5464.8118,-86 5464.8118,-122"/>
<text text-anchor="middle" x="5396" y="-99.8" font-family="Times,serif" font-size="14.00" fill="#000000">AddLabelComponent</text>
</g>
<!-- AddLabelComponent&#45;&gt;AppModule -->
<g id="edge3" class="edge">
<title>AddLabelComponent&#45;&gt;AppModule</title>
<path fill="none" stroke="#000000" d="M5396,-122.2479C5396,-145.0179 5396,-181 5396,-181 5396,-181 2938.7141,-181 2938.7141,-181"/>
<polygon fill="#000000" stroke="#000000" points="2938.7141,-177.5001 2928.7141,-181 2938.714,-184.5001 2938.7141,-177.5001"/>
</g>
<!-- AddUserComponent -->
<g id="node4" class="node">
<title>AddUserComponent</title>
<polygon fill="#ffffb3" stroke="#000000" points="5308.8655,-122 5177.1345,-122 5177.1345,-86 5308.8655,-86 5308.8655,-122"/>
<text text-anchor="middle" x="5243" y="-99.8" font-family="Times,serif" font-size="14.00" fill="#000000">AddUserComponent</text>
</g>
<!-- AddUserComponent&#45;&gt;AppModule -->
<g id="edge4" class="edge">
<title>AddUserComponent&#45;&gt;AppModule</title>
<path fill="none" stroke="#000000" d="M5243,-122.1554C5243,-144.3519 5243,-179 5243,-179 5243,-179 2938.8927,-179 2938.8927,-179"/>
<polygon fill="#000000" stroke="#000000" points="2938.8927,-175.5001 2928.8927,-179 2938.8927,-182.5001 2938.8927,-175.5001"/>
</g>
<!-- AppComponent -->
<g id="node5" class="node">
<title>AppComponent</title>
<polygon fill="#ffffb3" stroke="#000000" points="5158.9399,-122 5053.0601,-122 5053.0601,-86 5158.9399,-86 5158.9399,-122"/>
<text text-anchor="middle" x="5106" y="-99.8" font-family="Times,serif" font-size="14.00" fill="#000000">AppComponent</text>
</g>
<!-- AppComponent&#45;&gt;AppModule -->
<g id="edge5" class="edge">
<title>AppComponent&#45;&gt;AppModule</title>
<path fill="none" stroke="#000000" d="M5106,-122.0449C5106,-143.6623 5106,-177 5106,-177 5106,-177 2938.8578,-177 2938.8578,-177"/>
<polygon fill="#000000" stroke="#000000" points="2938.8578,-173.5001 2928.8578,-177 2938.8578,-180.5001 2938.8578,-173.5001"/>
</g>
<!-- ApplicationsComponent -->
<g id="node6" class="node">
<title>ApplicationsComponent</title>
<polygon fill="#ffffb3" stroke="#000000" points="5035.3753,-122 4882.6247,-122 4882.6247,-86 5035.3753,-86 5035.3753,-122"/>
<text text-anchor="middle" x="4959" y="-99.8" font-family="Times,serif" font-size="14.00" fill="#000000">ApplicationsComponent</text>
</g>
<!-- ApplicationsComponent&#45;&gt;AppModule -->
<g id="edge6" class="edge">
<title>ApplicationsComponent&#45;&gt;AppModule</title>
<path fill="none" stroke="#000000" d="M4959,-122.2843C4959,-143.3211 4959,-175 4959,-175 4959,-175 2938.8572,-175 2938.8572,-175"/>
<polygon fill="#000000" stroke="#000000" points="2938.8572,-171.5001 2928.8572,-175 2938.8572,-178.5001 2938.8572,-171.5001"/>
</g>
<!-- AutofocusDirective -->
<g id="node7" class="node">
<title>AutofocusDirective</title>
<polygon fill="#ffffb3" stroke="#000000" points="4864.4004,-122 4737.5996,-122 4737.5996,-86 4864.4004,-86 4864.4004,-122"/>
<text text-anchor="middle" x="4801" y="-99.8" font-family="Times,serif" font-size="14.00" fill="#000000">AutofocusDirective</text>
</g>
<!-- AutofocusDirective&#45;&gt;AppModule -->
<g id="edge7" class="edge">
<title>AutofocusDirective&#45;&gt;AppModule</title>
<path fill="none" stroke="#000000" d="M4801,-122.1289C4801,-142.5724 4801,-173 4801,-173 4801,-173 2938.7566,-173 2938.7566,-173"/>
<polygon fill="#000000" stroke="#000000" points="2938.7567,-169.5001 2928.7566,-173 2938.7566,-176.5001 2938.7567,-169.5001"/>
</g>
<!-- ChangePasswordComponent -->
<g id="node8" class="node">
<title>ChangePasswordComponent</title>
<polygon fill="#ffffb3" stroke="#000000" points="4719.752,-122 4542.248,-122 4542.248,-86 4719.752,-86 4719.752,-122"/>
<text text-anchor="middle" x="4631" y="-99.8" font-family="Times,serif" font-size="14.00" fill="#000000">ChangePasswordComponent</text>
</g>
<!-- ChangePasswordComponent&#45;&gt;AppModule -->
<g id="edge8" class="edge">
<title>ChangePasswordComponent&#45;&gt;AppModule</title>
<path fill="none" stroke="#000000" d="M4631,-122.308C4631,-142.1455 4631,-171 4631,-171 4631,-171 2938.8172,-171 2938.8172,-171"/>
<polygon fill="#000000" stroke="#000000" points="2938.8172,-167.5001 2928.8172,-171 2938.8172,-174.5001 2938.8172,-167.5001"/>
</g>
<!-- ClusterComponent -->
<g id="node9" class="node">
<title>ClusterComponent</title>
<polygon fill="#ffffb3" stroke="#000000" points="4523.7702,-122 4402.2298,-122 4402.2298,-86 4523.7702,-86 4523.7702,-122"/>
<text text-anchor="middle" x="4463" y="-99.8" font-family="Times,serif" font-size="14.00" fill="#000000">ClusterComponent</text>
</g>
<!-- ClusterComponent&#45;&gt;AppModule -->
<g id="edge9" class="edge">
<title>ClusterComponent&#45;&gt;AppModule</title>
<path fill="none" stroke="#000000" d="M4463,-122.1061C4463,-141.3391 4463,-169 4463,-169 4463,-169 2938.7482,-169 2938.7482,-169"/>
<polygon fill="#000000" stroke="#000000" points="2938.7483,-165.5001 2928.7482,-169 2938.7482,-172.5001 2938.7483,-165.5001"/>
</g>
<!-- DebugPanelComponent -->
<g id="node10" class="node">
<title>DebugPanelComponent</title>
<polygon fill="#ffffb3" stroke="#000000" points="4383.7562,-122 4234.2438,-122 4234.2438,-86 4383.7562,-86 4383.7562,-122"/>
<text text-anchor="middle" x="4309" y="-99.8" font-family="Times,serif" font-size="14.00" fill="#000000">DebugPanelComponent</text>
</g>
<!-- DebugPanelComponent&#45;&gt;AppModule -->
<g id="edge10" class="edge">
<title>DebugPanelComponent&#45;&gt;AppModule</title>
<path fill="none" stroke="#000000" d="M4309,-122.2222C4309,-140.8285 4309,-167 4309,-167 4309,-167 2938.7877,-167 2938.7877,-167"/>
<polygon fill="#000000" stroke="#000000" points="2938.7877,-163.5001 2928.7877,-167 2938.7876,-170.5001 2938.7877,-163.5001"/>
</g>
<!-- DeployInstanceComponent -->
<g id="node11" class="node">
<title>DeployInstanceComponent</title>
<polygon fill="#ffffb3" stroke="#000000" points="4216.6839,-122 4047.3161,-122 4047.3161,-86 4216.6839,-86 4216.6839,-122"/>
<text text-anchor="middle" x="4132" y="-99.8" font-family="Times,serif" font-size="14.00" fill="#000000">DeployInstanceComponent</text>
</g>
<!-- DeployInstanceComponent&#45;&gt;AppModule -->
<g id="edge11" class="edge">
<title>DeployInstanceComponent&#45;&gt;AppModule</title>
<path fill="none" stroke="#000000" d="M4132,-122.302C4132,-140.2699 4132,-165 4132,-165 4132,-165 2938.7794,-165 2938.7794,-165"/>
<polygon fill="#000000" stroke="#000000" points="2938.7794,-161.5001 2928.7794,-165 2938.7793,-168.5001 2938.7794,-161.5001"/>
</g>
<!-- DeviceGroupCreatedComponent -->
<g id="node12" class="node">
<title>DeviceGroupCreatedComponent</title>
<polygon fill="#ffffb3" stroke="#000000" points="4029.2724,-122 3828.7276,-122 3828.7276,-86 4029.2724,-86 4029.2724,-122"/>
<text text-anchor="middle" x="3929" y="-99.8" font-family="Times,serif" font-size="14.00" fill="#000000">DeviceGroupCreatedComponent</text>
</g>
<!-- DeviceGroupCreatedComponent&#45;&gt;AppModule -->
<g id="edge12" class="edge">
<title>DeviceGroupCreatedComponent&#45;&gt;AppModule</title>
<path fill="none" stroke="#000000" d="M3929,-122.0225C3929,-139.3734 3929,-163 3929,-163 3929,-163 2938.8139,-163 2938.8139,-163"/>
<polygon fill="#000000" stroke="#000000" points="2938.8139,-159.5001 2928.8139,-163 2938.8138,-166.5001 2938.8139,-159.5001"/>
</g>
<!-- DevicesComponent -->
<g id="node13" class="node">
<title>DevicesComponent</title>
<polygon fill="#ffffb3" stroke="#000000" points="3811.4187,-122 3684.5813,-122 3684.5813,-86 3811.4187,-86 3811.4187,-122"/>
<text text-anchor="middle" x="3748" y="-99.8" font-family="Times,serif" font-size="14.00" fill="#000000">DevicesComponent</text>
</g>
<!-- DevicesComponent&#45;&gt;AppModule -->
<g id="edge13" class="edge">
<title>DevicesComponent&#45;&gt;AppModule</title>
<path fill="none" stroke="#000000" d="M3748,-122.0352C3748,-138.7344 3748,-161 3748,-161 3748,-161 2938.8188,-161 2938.8188,-161"/>
<polygon fill="#000000" stroke="#000000" points="2938.8188,-157.5001 2928.8188,-161 2938.8188,-164.5001 2938.8188,-157.5001"/>
</g>
<!-- EditClusterComponent -->
<g id="node14" class="node">
<title>EditClusterComponent</title>
<polygon fill="#ffffb3" stroke="#000000" points="3666.6038,-122 3521.3962,-122 3521.3962,-86 3666.6038,-86 3666.6038,-122"/>
<text text-anchor="middle" x="3594" y="-99.8" font-family="Times,serif" font-size="14.00" fill="#000000">EditClusterComponent</text>
</g>
<!-- EditClusterComponent&#45;&gt;AppModule -->
<g id="edge14" class="edge">
<title>EditClusterComponent&#45;&gt;AppModule</title>
<path fill="none" stroke="#000000" d="M3594,-122.0091C3594,-138.0494 3594,-159 3594,-159 3594,-159 2938.8473,-159 2938.8473,-159"/>
<polygon fill="#000000" stroke="#000000" points="2938.8474,-155.5001 2928.8473,-159 2938.8473,-162.5001 2938.8474,-155.5001"/>
</g>
<!-- EditUserComponent -->
<g id="node15" class="node">
<title>EditUserComponent</title>
<polygon fill="#ffffb3" stroke="#000000" points="3503.5926,-122 3372.4074,-122 3372.4074,-86 3503.5926,-86 3503.5926,-122"/>
<text text-anchor="middle" x="3438" y="-99.8" font-family="Times,serif" font-size="14.00" fill="#000000">EditUserComponent</text>
</g>
<!-- EditUserComponent&#45;&gt;AppModule -->
<g id="edge15" class="edge">
<title>EditUserComponent&#45;&gt;AppModule</title>
<path fill="none" stroke="#000000" d="M3438,-122.2396C3438,-137.5706 3438,-157 3438,-157 3438,-157 2938.8668,-157 2938.8668,-157"/>
<polygon fill="#000000" stroke="#000000" points="2938.8668,-153.5001 2928.8668,-157 2938.8668,-160.5001 2938.8668,-153.5001"/>
</g>
<!-- FilterPipe -->
<g id="node16" class="node">
<title>FilterPipe</title>
<polygon fill="#ffffb3" stroke="#000000" points="3354.7177,-122 3283.2823,-122 3283.2823,-86 3354.7177,-86 3354.7177,-122"/>
<text text-anchor="middle" x="3319" y="-99.8" font-family="Times,serif" font-size="14.00" fill="#000000">FilterPipe</text>
</g>
<!-- FilterPipe&#45;&gt;AppModule -->
<g id="edge16" class="edge">
<title>FilterPipe&#45;&gt;AppModule</title>
<path fill="none" stroke="#000000" d="M3319,-122.1243C3319,-136.7832 3319,-155 3319,-155 3319,-155 2938.8145,-155 2938.8145,-155"/>
<polygon fill="#000000" stroke="#000000" points="2938.8145,-151.5001 2928.8145,-155 2938.8145,-158.5001 2938.8145,-151.5001"/>
</g>
<!-- GroupConfigurationComponent -->
<g id="node17" class="node">
<title>GroupConfigurationComponent</title>
<polygon fill="#ffffb3" stroke="#000000" points="3265.6441,-122 3070.3559,-122 3070.3559,-86 3265.6441,-86 3265.6441,-122"/>
<text text-anchor="middle" x="3168" y="-99.8" font-family="Times,serif" font-size="14.00" fill="#000000">GroupConfigurationComponent</text>
</g>
<!-- GroupConfigurationComponent&#45;&gt;AppModule -->
<g id="edge17" class="edge">
<title>GroupConfigurationComponent&#45;&gt;AppModule</title>
<path fill="none" stroke="#000000" d="M3168,-122.2458C3168,-136.1772 3168,-153 3168,-153 3168,-153 2938.7651,-153 2938.7651,-153"/>
<polygon fill="#000000" stroke="#000000" points="2938.7652,-149.5001 2928.7651,-153 2938.7651,-156.5001 2938.7652,-149.5001"/>
</g>
<!-- InfrastructureComponent -->
<g id="node18" class="node">
<title>InfrastructureComponent</title>
<polygon fill="#ffffb3" stroke="#000000" points="3051.5058,-122 2894.4942,-122 2894.4942,-86 3051.5058,-86 3051.5058,-122"/>
<text text-anchor="middle" x="2973" y="-99.8" font-family="Times,serif" font-size="14.00" fill="#000000">InfrastructureComponent</text>
</g>
<!-- InfrastructureComponent&#45;&gt;AppModule -->
<g id="edge18" class="edge">
<title>InfrastructureComponent&#45;&gt;AppModule</title>
<path fill="none" stroke="#000000" d="M2911.5378,-122.1061C2911.5378,-122.1061 2911.5378,-140.991 2911.5378,-140.991"/>
<polygon fill="#000000" stroke="#000000" points="2908.0379,-140.9909 2911.5378,-150.991 2915.0379,-140.991 2908.0379,-140.9909"/>
</g>
<!-- InstanceInfoComponent -->
<g id="node19" class="node">
<title>InstanceInfoComponent</title>
<polygon fill="#ffffb3" stroke="#000000" points="2876.7935,-122 2725.2065,-122 2725.2065,-86 2876.7935,-86 2876.7935,-122"/>
<text text-anchor="middle" x="2801" y="-99.8" font-family="Times,serif" font-size="14.00" fill="#000000">InstanceInfoComponent</text>
</g>
<!-- InstanceInfoComponent&#45;&gt;AppModule -->
<g id="edge19" class="edge">
<title>InstanceInfoComponent&#45;&gt;AppModule</title>
<path fill="none" stroke="#000000" d="M2860.9092,-122.1061C2860.9092,-122.1061 2860.9092,-140.991 2860.9092,-140.991"/>
<polygon fill="#000000" stroke="#000000" points="2857.4093,-140.9909 2860.9092,-150.991 2864.4093,-140.991 2857.4093,-140.9909"/>
</g>
<!-- LoginComponent -->
<g id="node20" class="node">
<title>LoginComponent</title>
<polygon fill="#ffffb3" stroke="#000000" points="2707.2758,-122 2592.7242,-122 2592.7242,-86 2707.2758,-86 2707.2758,-122"/>
<text text-anchor="middle" x="2650" y="-99.8" font-family="Times,serif" font-size="14.00" fill="#000000">LoginComponent</text>
</g>
<!-- LoginComponent&#45;&gt;AppModule -->
<g id="edge20" class="edge">
<title>LoginComponent&#45;&gt;AppModule</title>
<path fill="none" stroke="#000000" d="M2650,-122.2458C2650,-136.1772 2650,-153 2650,-153 2650,-153 2835.1747,-153 2835.1747,-153"/>
<polygon fill="#000000" stroke="#000000" points="2835.1747,-156.5001 2845.1747,-153 2835.1747,-149.5001 2835.1747,-156.5001"/>
</g>
<!-- MainComponent -->
<g id="node21" class="node">
<title>MainComponent</title>
<polygon fill="#ffffb3" stroke="#000000" points="2574.3823,-122 2463.6177,-122 2463.6177,-86 2574.3823,-86 2574.3823,-122"/>
<text text-anchor="middle" x="2519" y="-99.8" font-family="Times,serif" font-size="14.00" fill="#000000">MainComponent</text>
</g>
<!-- MainComponent&#45;&gt;AppModule -->
<g id="edge21" class="edge">
<title>MainComponent&#45;&gt;AppModule</title>
<path fill="none" stroke="#000000" d="M2519,-122.1243C2519,-136.7832 2519,-155 2519,-155 2519,-155 2835.144,-155 2835.144,-155"/>
<polygon fill="#000000" stroke="#000000" points="2835.144,-158.5001 2845.144,-155 2835.144,-151.5001 2835.144,-158.5001"/>
</g>
<!-- NotificationsComponent -->
<g id="node22" class="node">
<title>NotificationsComponent</title>
<polygon fill="#ffffb3" stroke="#000000" points="2445.427,-122 2290.573,-122 2290.573,-86 2445.427,-86 2445.427,-122"/>
<text text-anchor="middle" x="2368" y="-99.8" font-family="Times,serif" font-size="14.00" fill="#000000">NotificationsComponent</text>
</g>
<!-- NotificationsComponent&#45;&gt;AppModule -->
<g id="edge22" class="edge">
<title>NotificationsComponent&#45;&gt;AppModule</title>
<path fill="none" stroke="#000000" d="M2368,-122.2396C2368,-137.5706 2368,-157 2368,-157 2368,-157 2834.9677,-157 2834.9677,-157"/>
<polygon fill="#000000" stroke="#000000" points="2834.9677,-160.5001 2844.9677,-157 2834.9676,-153.5001 2834.9677,-160.5001"/>
</g>
<!-- OrganizationComponent -->
<g id="node23" class="node">
<title>OrganizationComponent</title>
<polygon fill="#ffffb3" stroke="#000000" points="2273.4158,-122 2118.5842,-122 2118.5842,-86 2273.4158,-86 2273.4158,-122"/>
<text text-anchor="middle" x="2196" y="-99.8" font-family="Times,serif" font-size="14.00" fill="#000000">OrganizationComponent</text>
</g>
<!-- OrganizationComponent&#45;&gt;AppModule -->
<g id="edge23" class="edge">
<title>OrganizationComponent&#45;&gt;AppModule</title>
<path fill="none" stroke="#000000" d="M2196,-122.0091C2196,-138.0494 2196,-159 2196,-159 2196,-159 2835.331,-159 2835.331,-159"/>
<polygon fill="#000000" stroke="#000000" points="2835.331,-162.5001 2845.331,-159 2835.331,-155.5001 2835.331,-162.5001"/>
</g>
<!-- RegisterApplicationComponent -->
<g id="node24" class="node">
<title>RegisterApplicationComponent</title>
<polygon fill="#ffffb3" stroke="#000000" points="2101.0828,-122 1906.9172,-122 1906.9172,-86 2101.0828,-86 2101.0828,-122"/>
<text text-anchor="middle" x="2004" y="-99.8" font-family="Times,serif" font-size="14.00" fill="#000000">RegisterApplicationComponent</text>
</g>
<!-- RegisterApplicationComponent&#45;&gt;AppModule -->
<g id="edge24" class="edge">
<title>RegisterApplicationComponent&#45;&gt;AppModule</title>
<path fill="none" stroke="#000000" d="M2004,-122.0352C2004,-138.7344 2004,-161 2004,-161 2004,-161 2835.3007,-161 2835.3007,-161"/>
<polygon fill="#000000" stroke="#000000" points="2835.3008,-164.5001 2845.3007,-161 2835.3007,-157.5001 2835.3008,-164.5001"/>
</g>
<!-- RegisteredInfoComponent -->
<g id="node25" class="node">
<title>RegisteredInfoComponent</title>
<polygon fill="#ffffb3" stroke="#000000" points="1889.0211,-122 1724.9789,-122 1724.9789,-86 1889.0211,-86 1889.0211,-122"/>
<text text-anchor="middle" x="1807" y="-99.8" font-family="Times,serif" font-size="14.00" fill="#000000">RegisteredInfoComponent</text>
</g>
<!-- RegisteredInfoComponent&#45;&gt;AppModule -->
<g id="edge25" class="edge">
<title>RegisteredInfoComponent&#45;&gt;AppModule</title>
<path fill="none" stroke="#000000" d="M1807,-122.0225C1807,-139.3734 1807,-163 1807,-163 1807,-163 2835.3245,-163 2835.3245,-163"/>
<polygon fill="#000000" stroke="#000000" points="2835.3245,-166.5001 2845.3245,-163 2835.3244,-159.5001 2835.3245,-166.5001"/>
</g>
<!-- ResourcesComponent -->
<g id="node26" class="node">
<title>ResourcesComponent</title>
<polygon fill="#ffffb3" stroke="#000000" points="1706.3627,-122 1567.6373,-122 1567.6373,-86 1706.3627,-86 1706.3627,-122"/>
<text text-anchor="middle" x="1637" y="-99.8" font-family="Times,serif" font-size="14.00" fill="#000000">ResourcesComponent</text>
</g>
<!-- ResourcesComponent&#45;&gt;AppModule -->
<g id="edge26" class="edge">
<title>ResourcesComponent&#45;&gt;AppModule</title>
<path fill="none" stroke="#000000" d="M1637,-122.302C1637,-140.2699 1637,-165 1637,-165 1637,-165 2835.0528,-165 2835.0528,-165"/>
<polygon fill="#000000" stroke="#000000" points="2835.0529,-168.5001 2845.0528,-165 2835.0528,-161.5001 2835.0529,-168.5001"/>
</g>
<!-- RuleInfoComponent -->
<g id="node27" class="node">
<title>RuleInfoComponent</title>
<polygon fill="#ffffb3" stroke="#000000" points="1549.5954,-122 1418.4046,-122 1418.4046,-86 1549.5954,-86 1549.5954,-122"/>
<text text-anchor="middle" x="1484" y="-99.8" font-family="Times,serif" font-size="14.00" fill="#000000">RuleInfoComponent</text>
</g>
<!-- RuleInfoComponent&#45;&gt;AppModule -->
<g id="edge27" class="edge">
<title>RuleInfoComponent&#45;&gt;AppModule</title>
<path fill="none" stroke="#000000" d="M1484,-122.2222C1484,-140.8285 1484,-167 1484,-167 1484,-167 2835.011,-167 2835.011,-167"/>
<polygon fill="#000000" stroke="#000000" points="2835.011,-170.5001 2845.011,-167 2835.011,-163.5001 2835.011,-170.5001"/>
</g>
<!-- ServiceInfoComponent -->
<g id="node28" class="node">
<title>ServiceInfoComponent</title>
<polygon fill="#ffffb3" stroke="#000000" points="1400.1317,-122 1253.8683,-122 1253.8683,-86 1400.1317,-86 1400.1317,-122"/>
<text text-anchor="middle" x="1327" y="-99.8" font-family="Times,serif" font-size="14.00" fill="#000000">ServiceInfoComponent</text>
</g>
<!-- ServiceInfoComponent&#45;&gt;AppModule -->
<g id="edge28" class="edge">
<title>ServiceInfoComponent&#45;&gt;AppModule</title>
<path fill="none" stroke="#000000" d="M1327,-122.1061C1327,-141.3391 1327,-169 1327,-169 1327,-169 2835.2738,-169 2835.2738,-169"/>
<polygon fill="#000000" stroke="#000000" points="2835.2738,-172.5001 2845.2738,-169 2835.2737,-165.5001 2835.2738,-172.5001"/>
</g>
<!-- ServiceInstancesInfoComponent -->
<g id="node29" class="node">
<title>ServiceInstancesInfoComponent</title>
<polygon fill="#ffffb3" stroke="#000000" points="1235.2156,-122 1036.7844,-122 1036.7844,-86 1235.2156,-86 1235.2156,-122"/>
<text text-anchor="middle" x="1136" y="-99.8" font-family="Times,serif" font-size="14.00" fill="#000000">ServiceInstancesInfoComponent</text>
</g>
<!-- ServiceInstancesInfoComponent&#45;&gt;AppModule -->
<g id="edge29" class="edge">
<title>ServiceInstancesInfoComponent&#45;&gt;AppModule</title>
<path fill="none" stroke="#000000" d="M1136,-122.308C1136,-142.1455 1136,-171 1136,-171 1136,-171 2835.015,-171 2835.015,-171"/>
<polygon fill="#000000" stroke="#000000" points="2835.015,-174.5001 2845.015,-171 2835.0149,-167.5001 2835.015,-174.5001"/>
</g>
<!-- SidebarComponent -->
<g id="node30" class="node">
<title>SidebarComponent</title>
<polygon fill="#ffffb3" stroke="#000000" points="1019.0954,-122 894.9046,-122 894.9046,-86 1019.0954,-86 1019.0954,-122"/>
<text text-anchor="middle" x="957" y="-99.8" font-family="Times,serif" font-size="14.00" fill="#000000">SidebarComponent</text>
</g>
<!-- SidebarComponent&#45;&gt;AppModule -->
<g id="edge30" class="edge">
<title>SidebarComponent&#45;&gt;AppModule</title>
<path fill="none" stroke="#000000" d="M957,-122.1289C957,-142.5724 957,-173 957,-173 957,-173 2834.8943,-173 2834.8943,-173"/>
<polygon fill="#000000" stroke="#000000" points="2834.8943,-176.5001 2844.8943,-173 2834.8943,-169.5001 2834.8943,-176.5001"/>
</g>
<!-- SortByPipe -->
<g id="node31" class="node">
<title>SortByPipe</title>
<polygon fill="#ffffb3" stroke="#000000" points="877.0594,-122 796.9406,-122 796.9406,-86 877.0594,-86 877.0594,-122"/>
<text text-anchor="middle" x="837" y="-99.8" font-family="Times,serif" font-size="14.00" fill="#000000">SortByPipe</text>
</g>
<!-- SortByPipe&#45;&gt;AppModule -->
<g id="edge31" class="edge">
<title>SortByPipe&#45;&gt;AppModule</title>
<path fill="none" stroke="#000000" d="M837,-122.2843C837,-143.3211 837,-175 837,-175 837,-175 2835.1215,-175 2835.1215,-175"/>
<polygon fill="#000000" stroke="#000000" points="2835.1216,-178.5001 2845.1215,-175 2835.1215,-171.5001 2835.1216,-178.5001"/>
</g>
<!-- TruncatePipe -->
<g id="node32" class="node">
<title>TruncatePipe</title>
<polygon fill="#ffffb3" stroke="#000000" points="778.1361,-122 687.8639,-122 687.8639,-86 778.1361,-86 778.1361,-122"/>
<text text-anchor="middle" x="733" y="-99.8" font-family="Times,serif" font-size="14.00" fill="#000000">TruncatePipe</text>
</g>
<!-- TruncatePipe&#45;&gt;AppModule -->
<g id="edge32" class="edge">
<title>TruncatePipe&#45;&gt;AppModule</title>
<path fill="none" stroke="#000000" d="M733,-122.0449C733,-143.6623 733,-177 733,-177 733,-177 2834.9389,-177 2834.9389,-177"/>
<polygon fill="#000000" stroke="#000000" points="2834.9389,-180.5001 2844.9389,-177 2834.9388,-173.5001 2834.9389,-180.5001"/>
</g>
<!-- UserInfoComponent -->
<g id="node33" class="node">
<title>UserInfoComponent</title>
<polygon fill="#ffffb3" stroke="#000000" points="669.58,-122 538.42,-122 538.42,-86 669.58,-86 669.58,-122"/>
<text text-anchor="middle" x="604" y="-99.8" font-family="Times,serif" font-size="14.00" fill="#000000">UserInfoComponent</text>
</g>
<!-- UserInfoComponent&#45;&gt;AppModule -->
<g id="edge33" class="edge">
<title>UserInfoComponent&#45;&gt;AppModule</title>
<path fill="none" stroke="#000000" d="M604,-122.1554C604,-144.3519 604,-179 604,-179 604,-179 2834.9313,-179 2834.9313,-179"/>
<polygon fill="#000000" stroke="#000000" points="2834.9313,-182.5001 2844.9313,-179 2834.9313,-175.5001 2834.9313,-182.5001"/>
</g>
<!-- LoginComponent  -->
<g id="node35" class="node">
<title>LoginComponent </title>
<polygon fill="#fb8072" stroke="#000000" points="2878.2759,-252 2759.7241,-252 2759.7241,-216 2878.2759,-216 2878.2759,-252"/>
<text text-anchor="middle" x="2819" y="-229.8" font-family="Times,serif" font-size="14.00" fill="#000000">LoginComponent </text>
</g>
<!-- AppModule&#45;&gt;LoginComponent  -->
<g id="edge34" class="edge">
<title>AppModule&#45;&gt;LoginComponent </title>
<path fill="none" stroke="#000000" stroke-dasharray="5,2" d="M2861.6548,-187.1061C2861.6548,-187.1061 2861.6548,-205.991 2861.6548,-205.991"/>
<polygon fill="#000000" stroke="#000000" points="2858.1549,-205.9909 2861.6548,-215.991 2865.1549,-205.991 2858.1549,-205.9909"/>
</g>
<!-- AppComponent  -->
<g id="node36" class="node">
<title>AppComponent </title>
<polygon fill="#80b1d3" stroke="#000000" points="3010.439,-252 2901.561,-252 2901.561,-216 3010.439,-216 3010.439,-252"/>
<text text-anchor="middle" x="2956" y="-229.8" font-family="Times,serif" font-size="14.00" fill="#000000">AppComponent </text>
</g>
<!-- AppModule&#45;&gt;AppComponent  -->
<g id="edge35" class="edge">
<title>AppModule&#45;&gt;AppComponent </title>
<path fill="none" stroke="#000000" stroke-dasharray="1,5" d="M2915.1794,-187.1061C2915.1794,-187.1061 2915.1794,-205.991 2915.1794,-205.991"/>
<polygon fill="#000000" stroke="#000000" points="2911.6794,-205.9909 2915.1794,-215.991 2918.6794,-205.991 2911.6794,-205.9909"/>
</g>
<!-- AuthService -->
<g id="node37" class="node">
<title>AuthService</title>
<ellipse fill="#fdb462" stroke="#000000" cx="455" cy="-104" rx="59.1083" ry="18"/>
<text text-anchor="middle" x="455" y="-99.8" font-family="Times,serif" font-size="14.00" fill="#000000">AuthService</text>
</g>
<!-- AuthService&#45;&gt;AppModule -->
<g id="edge36" class="edge">
<title>AuthService&#45;&gt;AppModule</title>
<path fill="none" stroke="#000000" d="M455,-122.2479C455,-145.0179 455,-181 455,-181 455,-181 2835.2998,-181 2835.2998,-181"/>
<polygon fill="#000000" stroke="#000000" points="2835.2998,-184.5001 2845.2998,-181 2835.2997,-177.5001 2835.2998,-184.5001"/>
</g>
<!-- BackendService -->
<g id="node38" class="node">
<title>BackendService</title>
<ellipse fill="#fdb462" stroke="#000000" cx="304" cy="-104" rx="73.556" ry="18"/>
<text text-anchor="middle" x="304" y="-99.8" font-family="Times,serif" font-size="14.00" fill="#000000">BackendService</text>
</g>
<!-- BackendService&#45;&gt;AppModule -->
<g id="edge37" class="edge">
<title>BackendService&#45;&gt;AppModule</title>
<path fill="none" stroke="#000000" d="M304,-122.3228C304,-145.6602 304,-183 304,-183 304,-183 2835.1175,-183 2835.1175,-183"/>
<polygon fill="#000000" stroke="#000000" points="2835.1176,-186.5001 2845.1175,-183 2835.1175,-179.5001 2835.1176,-186.5001"/>
</g>
<!-- UpdateEventsService -->
<g id="node39" class="node">
<title>UpdateEventsService</title>
<ellipse fill="#fdb462" stroke="#000000" cx="118" cy="-104" rx="94.3195" ry="18"/>
<text text-anchor="middle" x="118" y="-99.8" font-family="Times,serif" font-size="14.00" fill="#000000">UpdateEventsService</text>
</g>
<!-- UpdateEventsService&#45;&gt;AppModule -->
<g id="edge38" class="edge">
<title>UpdateEventsService&#45;&gt;AppModule</title>
<path fill="none" stroke="#000000" d="M118,-122.3802C118,-146.2785 118,-185 118,-185 118,-185 2835.1626,-185 2835.1626,-185"/>
<polygon fill="#000000" stroke="#000000" points="2835.1627,-188.5001 2845.1626,-185 2835.1626,-181.5001 2835.1627,-188.5001"/>
</g>
</g>
</svg>
