<?xml version="1.0" encoding="UTF-8" standalone="no"?>
<!DOCTYPE svg PUBLIC "-//W3C//DTD SVG 1.1//EN"
 "http://www.w3.org/Graphics/SVG/1.1/DTD/svg11.dtd">
<!-- Generated by graphviz version 2.40.1 (20161225.0304)
 -->
<!-- Title: dependencies Pages: 1 -->
<svg width="3249pt" height="284pt"
 viewBox="0.00 0.00 3249.00 284.00" xmlns="http://www.w3.org/2000/svg" xmlns:xlink="http://www.w3.org/1999/xlink">
<g id="graph0" class="graph" transform="scale(1 1) rotate(0) translate(4 280)">
<title>dependencies</title>
<polygon fill="#ffffff" stroke="transparent" points="-4,4 -4,-280 3245,-280 3245,4 -4,4"/>
<text text-anchor="start" x="1599.5091" y="-42.4" font-family="sans-serif" font-weight="bold" font-size="14.00" fill="#000000">Legend</text>
<polygon fill="#ffffb3" stroke="transparent" points="1386.5,-10 1386.5,-30 1406.5,-30 1406.5,-10 1386.5,-10"/>
<text text-anchor="start" x="1410.129" y="-15.4" font-family="sans-serif" font-size="14.00" fill="#000000"> &#160;Declarations</text>
<polygon fill="#8dd3c7" stroke="transparent" points="1499.5,-10 1499.5,-30 1519.5,-30 1519.5,-10 1499.5,-10"/>
<text text-anchor="start" x="1523.2251" y="-15.4" font-family="sans-serif" font-size="14.00" fill="#000000"> &#160;Module</text>
<polygon fill="#80b1d3" stroke="transparent" points="1585.5,-10 1585.5,-30 1605.5,-30 1605.5,-10 1585.5,-10"/>
<text text-anchor="start" x="1609.2812" y="-15.4" font-family="sans-serif" font-size="14.00" fill="#000000"> &#160;Bootstrap</text>
<polygon fill="#fdb462" stroke="transparent" points="1682.5,-10 1682.5,-30 1702.5,-30 1702.5,-10 1682.5,-10"/>
<text text-anchor="start" x="1706.1732" y="-15.4" font-family="sans-serif" font-size="14.00" fill="#000000"> &#160;Providers</text>
<polygon fill="#fb8072" stroke="transparent" points="1778.5,-10 1778.5,-30 1798.5,-30 1798.5,-10 1778.5,-10"/>
<text text-anchor="start" x="1802.2258" y="-15.4" font-family="sans-serif" font-size="14.00" fill="#000000"> &#160;Exports</text>
<g id="clust1" class="cluster">
<title>cluster_AppModule</title>
<polygon fill="none" stroke="#000000" stroke-dasharray="1,5" points="8,-70 8,-268 3233,-268 3233,-70 8,-70"/>
</g>
<g id="clust2" class="cluster">
<title>cluster_AppModule_declarations</title>
<polygon fill="none" stroke="#000000" points="530,-78 530,-130 3225,-130 3225,-78 530,-78"/>
</g>
<g id="clust22" class="cluster">
<title>cluster_AppModule_exports</title>
<polygon fill="none" stroke="#000000" points="1491,-208 1491,-260 1625,-260 1625,-208 1491,-208"/>
</g>
<g id="clust23" class="cluster">
<title>cluster_AppModule_bootstrap</title>
<polygon fill="none" stroke="#000000" points="1633,-208 1633,-260 1757,-260 1757,-208 1633,-208"/>
</g>
<g id="clust24" class="cluster">
<title>cluster_AppModule_providers</title>
<polygon fill="none" stroke="#000000" points="16,-78 16,-130 522,-130 522,-78 16,-78"/>
</g>
<!-- AbbreviatePipe -->
<g id="node1" class="node">
<title>AbbreviatePipe</title>
<polygon fill="#ffffb3" stroke="#000000" points="3216.58,-122 3113.42,-122 3113.42,-86 3216.58,-86 3216.58,-122"/>
<text text-anchor="middle" x="3165" y="-99.8" font-family="Times,serif" font-size="14.00" fill="#000000">AbbreviatePipe</text>
</g>
<!-- AppModule -->
<g id="node19" class="node">
<title>AppModule</title>
<polygon fill="#8dd3c7" stroke="#000000" points="1667.6571,-187 1664.6571,-191 1643.6571,-191 1640.6571,-187 1584.3429,-187 1584.3429,-151 1667.6571,-151 1667.6571,-187"/>
<text text-anchor="middle" x="1626" y="-164.8" font-family="Times,serif" font-size="14.00" fill="#000000">AppModule</text>
</g>
<!-- AbbreviatePipe&#45;&gt;AppModule -->
<g id="edge1" class="edge">
<title>AbbreviatePipe&#45;&gt;AppModule</title>
<path fill="none" stroke="#000000" d="M3165,-122.1532C3165,-145.7566 3165,-184 3165,-184 3165,-184 1677.9627,-184 1677.9627,-184"/>
<polygon fill="#000000" stroke="#000000" points="1677.9627,-180.5001 1667.9627,-184 1677.9627,-187.5001 1677.9627,-180.5001"/>
</g>
<!-- AddUserComponent -->
<g id="node2" class="node">
<title>AddUserComponent</title>
<polygon fill="#ffffb3" stroke="#000000" points="3095.8655,-122 2964.1345,-122 2964.1345,-86 3095.8655,-86 3095.8655,-122"/>
<text text-anchor="middle" x="3030" y="-99.8" font-family="Times,serif" font-size="14.00" fill="#000000">AddUserComponent</text>
</g>
<!-- AddUserComponent&#45;&gt;AppModule -->
<g id="edge2" class="edge">
<title>AddUserComponent&#45;&gt;AppModule</title>
<path fill="none" stroke="#000000" d="M3030,-122.2479C3030,-145.0179 3030,-181 3030,-181 3030,-181 1678.0189,-181 1678.0189,-181"/>
<polygon fill="#000000" stroke="#000000" points="1678.019,-177.5001 1668.0189,-181 1678.0189,-184.5001 1678.019,-177.5001"/>
</g>
<!-- AppComponent -->
<g id="node3" class="node">
<title>AppComponent</title>
<polygon fill="#ffffb3" stroke="#000000" points="2945.9399,-122 2840.0601,-122 2840.0601,-86 2945.9399,-86 2945.9399,-122"/>
<text text-anchor="middle" x="2893" y="-99.8" font-family="Times,serif" font-size="14.00" fill="#000000">AppComponent</text>
</g>
<!-- AppComponent&#45;&gt;AppModule -->
<g id="edge3" class="edge">
<title>AppComponent&#45;&gt;AppModule</title>
<path fill="none" stroke="#000000" d="M2893,-122.2921C2893,-144.2057 2893,-178 2893,-178 2893,-178 1677.7945,-178 1677.7945,-178"/>
<polygon fill="#000000" stroke="#000000" points="1677.7945,-174.5001 1667.7945,-178 1677.7944,-181.5001 1677.7945,-174.5001"/>
</g>
<!-- ApplicationsComponent -->
<g id="node4" class="node">
<title>ApplicationsComponent</title>
<polygon fill="#ffffb3" stroke="#000000" points="2822.3753,-122 2669.6247,-122 2669.6247,-86 2822.3753,-86 2822.3753,-122"/>
<text text-anchor="middle" x="2746" y="-99.8" font-family="Times,serif" font-size="14.00" fill="#000000">ApplicationsComponent</text>
</g>
<!-- ApplicationsComponent&#45;&gt;AppModule -->
<g id="edge4" class="edge">
<title>ApplicationsComponent&#45;&gt;AppModule</title>
<path fill="none" stroke="#000000" d="M2746,-122.0267C2746,-142.7672 2746,-174 2746,-174 2746,-174 1677.8612,-174 1677.8612,-174"/>
<polygon fill="#000000" stroke="#000000" points="1677.8613,-170.5001 1667.8612,-174 1677.8612,-177.5001 1677.8613,-170.5001"/>
</g>
<!-- AppsInfoComponent -->
<g id="node5" class="node">
<title>AppsInfoComponent</title>
<polygon fill="#ffffb3" stroke="#000000" points="2651.205,-122 2516.795,-122 2516.795,-86 2651.205,-86 2651.205,-122"/>
<text text-anchor="middle" x="2584" y="-99.8" font-family="Times,serif" font-size="14.00" fill="#000000">AppsInfoComponent</text>
</g>
<!-- AppsInfoComponent&#45;&gt;AppModule -->
<g id="edge5" class="edge">
<title>AppsInfoComponent&#45;&gt;AppModule</title>
<path fill="none" stroke="#000000" d="M2584,-122.308C2584,-142.1455 2584,-171 2584,-171 2584,-171 1677.7801,-171 1677.7801,-171"/>
<polygon fill="#000000" stroke="#000000" points="1677.7801,-167.5001 1667.7801,-171 1677.78,-174.5001 1677.7801,-167.5001"/>
</g>
<!-- ChangePasswordComponent -->
<g id="node6" class="node">
<title>ChangePasswordComponent</title>
<polygon fill="#ffffb3" stroke="#000000" points="2498.752,-122 2321.248,-122 2321.248,-86 2498.752,-86 2498.752,-122"/>
<text text-anchor="middle" x="2410" y="-99.8" font-family="Times,serif" font-size="14.00" fill="#000000">ChangePasswordComponent</text>
</g>
<!-- ChangePasswordComponent&#45;&gt;AppModule -->
<g id="edge6" class="edge">
<title>ChangePasswordComponent&#45;&gt;AppModule</title>
<path fill="none" stroke="#000000" d="M2410,-122.1686C2410,-141.0898 2410,-168 2410,-168 2410,-168 1677.8741,-168 1677.8741,-168"/>
<polygon fill="#000000" stroke="#000000" points="1677.8741,-164.5001 1667.8741,-168 1677.874,-171.5001 1677.8741,-164.5001"/>
</g>
<!-- ClusterComponent -->
<g id="node7" class="node">
<title>ClusterComponent</title>
<polygon fill="#ffffb3" stroke="#000000" points="2302.7702,-122 2181.2298,-122 2181.2298,-86 2302.7702,-86 2302.7702,-122"/>
<text text-anchor="middle" x="2242" y="-99.8" font-family="Times,serif" font-size="14.00" fill="#000000">ClusterComponent</text>
</g>
<!-- ClusterComponent&#45;&gt;AppModule -->
<g id="edge7" class="edge">
<title>ClusterComponent&#45;&gt;AppModule</title>
<path fill="none" stroke="#000000" d="M2242,-122.302C2242,-140.2699 2242,-165 2242,-165 2242,-165 1677.8559,-165 1677.8559,-165"/>
<polygon fill="#000000" stroke="#000000" points="1677.8559,-161.5001 1667.8559,-165 1677.8559,-168.5001 1677.8559,-161.5001"/>
</g>
<!-- DebugPanelComponent -->
<g id="node8" class="node">
<title>DebugPanelComponent</title>
<polygon fill="#ffffb3" stroke="#000000" points="2162.7562,-122 2013.2438,-122 2013.2438,-86 2162.7562,-86 2162.7562,-122"/>
<text text-anchor="middle" x="2088" y="-99.8" font-family="Times,serif" font-size="14.00" fill="#000000">DebugPanelComponent</text>
</g>
<!-- DebugPanelComponent&#45;&gt;AppModule -->
<g id="edge8" class="edge">
<title>DebugPanelComponent&#45;&gt;AppModule</title>
<path fill="none" stroke="#000000" d="M2088,-122.0352C2088,-138.7344 2088,-161 2088,-161 2088,-161 1677.8143,-161 1677.8143,-161"/>
<polygon fill="#000000" stroke="#000000" points="1677.8143,-157.5001 1667.8143,-161 1677.8142,-164.5001 1677.8143,-157.5001"/>
</g>
<!-- EditClusterComponent -->
<g id="node9" class="node">
<title>EditClusterComponent</title>
<polygon fill="#ffffb3" stroke="#000000" points="1995.6038,-122 1850.3962,-122 1850.3962,-86 1995.6038,-86 1995.6038,-122"/>
<text text-anchor="middle" x="1923" y="-99.8" font-family="Times,serif" font-size="14.00" fill="#000000">EditClusterComponent</text>
</g>
<!-- EditClusterComponent&#45;&gt;AppModule -->
<g id="edge9" class="edge">
<title>EditClusterComponent&#45;&gt;AppModule</title>
<path fill="none" stroke="#000000" d="M1923,-122.2819C1923,-137.9478 1923,-158 1923,-158 1923,-158 1677.9229,-158 1677.9229,-158"/>
<polygon fill="#000000" stroke="#000000" points="1677.923,-154.5001 1667.9229,-158 1677.9229,-161.5001 1677.923,-154.5001"/>
</g>
<!-- EditUserComponent -->
<g id="node10" class="node">
<title>EditUserComponent</title>
<polygon fill="#ffffb3" stroke="#000000" points="1832.5926,-122 1701.4074,-122 1701.4074,-86 1832.5926,-86 1832.5926,-122"/>
<text text-anchor="middle" x="1767" y="-99.8" font-family="Times,serif" font-size="14.00" fill="#000000">EditUserComponent</text>
</g>
<!-- EditUserComponent&#45;&gt;AppModule -->
<g id="edge10" class="edge">
<title>EditUserComponent&#45;&gt;AppModule</title>
<path fill="none" stroke="#000000" d="M1725.4616,-122.1243C1725.4616,-136.7832 1725.4616,-155 1725.4616,-155 1725.4616,-155 1677.8924,-155 1677.8924,-155"/>
<polygon fill="#000000" stroke="#000000" points="1677.8924,-151.5001 1667.8924,-155 1677.8924,-158.5001 1677.8924,-151.5001"/>
</g>
<!-- LoginComponent -->
<g id="node11" class="node">
<title>LoginComponent</title>
<polygon fill="#ffffb3" stroke="#000000" points="1683.2758,-122 1568.7242,-122 1568.7242,-86 1683.2758,-86 1683.2758,-122"/>
<text text-anchor="middle" x="1626" y="-99.8" font-family="Times,serif" font-size="14.00" fill="#000000">LoginComponent</text>
</g>
<!-- LoginComponent&#45;&gt;AppModule -->
<g id="edge11" class="edge">
<title>LoginComponent&#45;&gt;AppModule</title>
<path fill="none" stroke="#000000" d="M1626,-122.1061C1626,-122.1061 1626,-140.991 1626,-140.991"/>
<polygon fill="#000000" stroke="#000000" points="1622.5001,-140.9909 1626,-150.991 1629.5001,-140.991 1622.5001,-140.9909"/>
</g>
<!-- MainComponent -->
<g id="node12" class="node">
<title>MainComponent</title>
<polygon fill="#ffffb3" stroke="#000000" points="1550.3823,-122 1439.6177,-122 1439.6177,-86 1550.3823,-86 1550.3823,-122"/>
<text text-anchor="middle" x="1495" y="-99.8" font-family="Times,serif" font-size="14.00" fill="#000000">MainComponent</text>
</g>
<!-- MainComponent&#45;&gt;AppModule -->
<g id="edge12" class="edge">
<title>MainComponent&#45;&gt;AppModule</title>
<path fill="none" stroke="#000000" d="M1524.6517,-122.1243C1524.6517,-136.7832 1524.6517,-155 1524.6517,-155 1524.6517,-155 1574.1926,-155 1574.1926,-155"/>
<polygon fill="#000000" stroke="#000000" points="1574.1927,-158.5001 1584.1926,-155 1574.1926,-151.5001 1574.1927,-158.5001"/>
</g>
<!-- NotificationsComponent -->
<g id="node13" class="node">
<title>NotificationsComponent</title>
<polygon fill="#ffffb3" stroke="#000000" points="1421.427,-122 1266.573,-122 1266.573,-86 1421.427,-86 1421.427,-122"/>
<text text-anchor="middle" x="1344" y="-99.8" font-family="Times,serif" font-size="14.00" fill="#000000">NotificationsComponent</text>
</g>
<!-- NotificationsComponent&#45;&gt;AppModule -->
<g id="edge13" class="edge">
<title>NotificationsComponent&#45;&gt;AppModule</title>
<path fill="none" stroke="#000000" d="M1344,-122.2819C1344,-137.9478 1344,-158 1344,-158 1344,-158 1574.0863,-158 1574.0863,-158"/>
<polygon fill="#000000" stroke="#000000" points="1574.0863,-161.5001 1584.0863,-158 1574.0862,-154.5001 1574.0863,-161.5001"/>
</g>
<!-- OrganizationComponent -->
<g id="node14" class="node">
<title>OrganizationComponent</title>
<polygon fill="#ffffb3" stroke="#000000" points="1249.4158,-122 1094.5842,-122 1094.5842,-86 1249.4158,-86 1249.4158,-122"/>
<text text-anchor="middle" x="1172" y="-99.8" font-family="Times,serif" font-size="14.00" fill="#000000">OrganizationComponent</text>
</g>
<!-- OrganizationComponent&#45;&gt;AppModule -->
<g id="edge14" class="edge">
<title>OrganizationComponent&#45;&gt;AppModule</title>
<path fill="none" stroke="#000000" d="M1172,-122.0352C1172,-138.7344 1172,-161 1172,-161 1172,-161 1574.1025,-161 1574.1025,-161"/>
<polygon fill="#000000" stroke="#000000" points="1574.1026,-164.5001 1584.1025,-161 1574.1025,-157.5001 1574.1026,-164.5001"/>
</g>
<!-- ResourcesComponent -->
<g id="node15" class="node">
<title>ResourcesComponent</title>
<polygon fill="#ffffb3" stroke="#000000" points="1076.3627,-122 937.6373,-122 937.6373,-86 1076.3627,-86 1076.3627,-122"/>
<text text-anchor="middle" x="1007" y="-99.8" font-family="Times,serif" font-size="14.00" fill="#000000">ResourcesComponent</text>
</g>
<!-- ResourcesComponent&#45;&gt;AppModule -->
<g id="edge15" class="edge">
<title>ResourcesComponent&#45;&gt;AppModule</title>
<path fill="none" stroke="#000000" d="M1007,-122.302C1007,-140.2699 1007,-165 1007,-165 1007,-165 1573.9403,-165 1573.9403,-165"/>
<polygon fill="#000000" stroke="#000000" points="1573.9403,-168.5001 1583.9403,-165 1573.9402,-161.5001 1573.9403,-168.5001"/>
</g>
<!-- SidebarComponent -->
<g id="node16" class="node">
<title>SidebarComponent</title>
<polygon fill="#ffffb3" stroke="#000000" points="920.0954,-122 795.9046,-122 795.9046,-86 920.0954,-86 920.0954,-122"/>
<text text-anchor="middle" x="858" y="-99.8" font-family="Times,serif" font-size="14.00" fill="#000000">SidebarComponent</text>
</g>
<!-- SidebarComponent&#45;&gt;AppModule -->
<g id="edge16" class="edge">
<title>SidebarComponent&#45;&gt;AppModule</title>
<path fill="none" stroke="#000000" d="M858,-122.1686C858,-141.0898 858,-168 858,-168 858,-168 1574.1636,-168 1574.1636,-168"/>
<polygon fill="#000000" stroke="#000000" points="1574.1636,-171.5001 1584.1636,-168 1574.1635,-164.5001 1574.1636,-171.5001"/>
</g>
<!-- TruncatePipe -->
<g id="node17" class="node">
<title>TruncatePipe</title>
<polygon fill="#ffffb3" stroke="#000000" points="778.1361,-122 687.8639,-122 687.8639,-86 778.1361,-86 778.1361,-122"/>
<text text-anchor="middle" x="733" y="-99.8" font-family="Times,serif" font-size="14.00" fill="#000000">TruncatePipe</text>
</g>
<!-- TruncatePipe&#45;&gt;AppModule -->
<g id="edge17" class="edge">
<title>TruncatePipe&#45;&gt;AppModule</title>
<path fill="none" stroke="#000000" d="M733,-122.308C733,-142.1455 733,-171 733,-171 733,-171 1574.1265,-171 1574.1265,-171"/>
<polygon fill="#000000" stroke="#000000" points="1574.1265,-174.5001 1584.1265,-171 1574.1265,-167.5001 1574.1265,-174.5001"/>
</g>
<!-- UserInfoComponent -->
<g id="node18" class="node">
<title>UserInfoComponent</title>
<polygon fill="#ffffb3" stroke="#000000" points="669.58,-122 538.42,-122 538.42,-86 669.58,-86 669.58,-122"/>
<text text-anchor="middle" x="604" y="-99.8" font-family="Times,serif" font-size="14.00" fill="#000000">UserInfoComponent</text>
</g>
<!-- UserInfoComponent&#45;&gt;AppModule -->
<g id="edge18" class="edge">
<title>UserInfoComponent&#45;&gt;AppModule</title>
<path fill="none" stroke="#000000" d="M604,-122.0267C604,-142.7672 604,-174 604,-174 604,-174 1574.0311,-174 1574.0311,-174"/>
<polygon fill="#000000" stroke="#000000" points="1574.0311,-177.5001 1584.0311,-174 1574.031,-170.5001 1574.0311,-177.5001"/>
</g>
<!-- LoginComponent  -->
<g id="node20" class="node">
<title>LoginComponent </title>
<polygon fill="#fb8072" stroke="#000000" points="1617.2759,-252 1498.7241,-252 1498.7241,-216 1617.2759,-216 1617.2759,-252"/>
<text text-anchor="middle" x="1558" y="-229.8" font-family="Times,serif" font-size="14.00" fill="#000000">LoginComponent </text>
</g>
<!-- AppModule&#45;&gt;LoginComponent  -->
<g id="edge19" class="edge">
<title>AppModule&#45;&gt;LoginComponent </title>
<path fill="none" stroke="#000000" stroke-dasharray="5,2" d="M1600.6548,-187.1061C1600.6548,-187.1061 1600.6548,-205.991 1600.6548,-205.991"/>
<polygon fill="#000000" stroke="#000000" points="1597.1549,-205.9909 1600.6548,-215.991 1604.1549,-205.991 1597.1549,-205.9909"/>
</g>
<!-- AppComponent  -->
<g id="node21" class="node">
<title>AppComponent </title>
<polygon fill="#80b1d3" stroke="#000000" points="1749.439,-252 1640.561,-252 1640.561,-216 1749.439,-216 1749.439,-252"/>
<text text-anchor="middle" x="1695" y="-229.8" font-family="Times,serif" font-size="14.00" fill="#000000">AppComponent </text>
</g>
<!-- AppModule&#45;&gt;AppComponent  -->
<g id="edge20" class="edge">
<title>AppModule&#45;&gt;AppComponent </title>
<path fill="none" stroke="#000000" stroke-dasharray="1,5" d="M1654.1793,-187.1061C1654.1793,-187.1061 1654.1793,-205.991 1654.1793,-205.991"/>
<polygon fill="#000000" stroke="#000000" points="1650.6794,-205.9909 1654.1793,-215.991 1657.6794,-205.991 1650.6794,-205.9909"/>
</g>
<!-- AuthService -->
<g id="node22" class="node">
<title>AuthService</title>
<ellipse fill="#fdb462" stroke="#000000" cx="455" cy="-104" rx="59.1083" ry="18"/>
<text text-anchor="middle" x="455" y="-99.8" font-family="Times,serif" font-size="14.00" fill="#000000">AuthService</text>
</g>
<!-- AuthService&#45;&gt;AppModule -->
<g id="edge21" class="edge">
<title>AuthService&#45;&gt;AppModule</title>
<path fill="none" stroke="#000000" d="M455,-122.2921C455,-144.2057 455,-178 455,-178 455,-178 1574.3235,-178 1574.3235,-178"/>
<polygon fill="#000000" stroke="#000000" points="1574.3235,-181.5001 1584.3235,-178 1574.3235,-174.5001 1574.3235,-181.5001"/>
</g>
<!-- BackendService -->
<g id="node23" class="node">
<title>BackendService</title>
<ellipse fill="#fdb462" stroke="#000000" cx="304" cy="-104" rx="73.556" ry="18"/>
<text text-anchor="middle" x="304" y="-99.8" font-family="Times,serif" font-size="14.00" fill="#000000">BackendService</text>
</g>
<!-- BackendService&#45;&gt;AppModule -->
<g id="edge22" class="edge">
<title>BackendService&#45;&gt;AppModule</title>
<path fill="none" stroke="#000000" d="M304,-122.2479C304,-145.0179 304,-181 304,-181 304,-181 1574.2517,-181 1574.2517,-181"/>
<polygon fill="#000000" stroke="#000000" points="1574.2518,-184.5001 1584.2517,-181 1574.2517,-177.5001 1574.2518,-184.5001"/>
</g>
<!-- UpdateEventsService -->
<g id="node24" class="node">
<title>UpdateEventsService</title>
<ellipse fill="#fdb462" stroke="#000000" cx="118" cy="-104" rx="94.3195" ry="18"/>
<text text-anchor="middle" x="118" y="-99.8" font-family="Times,serif" font-size="14.00" fill="#000000">UpdateEventsService</text>
</g>
<!-- UpdateEventsService&#45;&gt;AppModule -->
<g id="edge23" class="edge">
<title>UpdateEventsService&#45;&gt;AppModule</title>
<path fill="none" stroke="#000000" d="M118,-122.1532C118,-145.7566 118,-184 118,-184 118,-184 1574.0935,-184 1574.0935,-184"/>
<polygon fill="#000000" stroke="#000000" points="1574.0936,-187.5001 1584.0935,-184 1574.0935,-180.5001 1574.0936,-187.5001"/>
</g>
</g>
</svg>
