<?xml version="1.0" encoding="UTF-8" standalone="no"?>
<!DOCTYPE svg PUBLIC "-//W3C//DTD SVG 1.1//EN"
 "http://www.w3.org/Graphics/SVG/1.1/DTD/svg11.dtd">
<!-- Generated by graphviz version 2.40.1 (20161225.0304)
 -->
<!-- Title: dependencies Pages: 1 -->
<svg width="2155pt" height="284pt"
 viewBox="0.00 0.00 2155.00 284.00" xmlns="http://www.w3.org/2000/svg" xmlns:xlink="http://www.w3.org/1999/xlink">
<g id="graph0" class="graph" transform="scale(1 1) rotate(0) translate(4 280)">
<title>dependencies</title>
<polygon fill="#ffffff" stroke="transparent" points="-4,4 -4,-280 2151,-280 2151,4 -4,4"/>
<text text-anchor="start" x="1052.5091" y="-42.4" font-family="sans-serif" font-weight="bold" font-size="14.00" fill="#000000">Legend</text>
<polygon fill="#ffffb3" stroke="transparent" points="839.5,-10 839.5,-30 859.5,-30 859.5,-10 839.5,-10"/>
<text text-anchor="start" x="863.129" y="-15.4" font-family="sans-serif" font-size="14.00" fill="#000000"> &#160;Declarations</text>
<polygon fill="#8dd3c7" stroke="transparent" points="952.5,-10 952.5,-30 972.5,-30 972.5,-10 952.5,-10"/>
<text text-anchor="start" x="976.2251" y="-15.4" font-family="sans-serif" font-size="14.00" fill="#000000"> &#160;Module</text>
<polygon fill="#80b1d3" stroke="transparent" points="1038.5,-10 1038.5,-30 1058.5,-30 1058.5,-10 1038.5,-10"/>
<text text-anchor="start" x="1062.2812" y="-15.4" font-family="sans-serif" font-size="14.00" fill="#000000"> &#160;Bootstrap</text>
<polygon fill="#fdb462" stroke="transparent" points="1135.5,-10 1135.5,-30 1155.5,-30 1155.5,-10 1135.5,-10"/>
<text text-anchor="start" x="1159.1732" y="-15.4" font-family="sans-serif" font-size="14.00" fill="#000000"> &#160;Providers</text>
<polygon fill="#fb8072" stroke="transparent" points="1231.5,-10 1231.5,-30 1251.5,-30 1251.5,-10 1231.5,-10"/>
<text text-anchor="start" x="1255.2258" y="-15.4" font-family="sans-serif" font-size="14.00" fill="#000000"> &#160;Exports</text>
<g id="clust1" class="cluster">
<title>cluster_AppModule</title>
<polygon fill="none" stroke="#000000" stroke-dasharray="1,5" points="8,-70 8,-268 2139,-268 2139,-70 8,-70"/>
</g>
<g id="clust2" class="cluster">
<title>cluster_AppModule_declarations</title>
<polygon fill="none" stroke="#000000" points="324,-78 324,-130 2131,-130 2131,-78 324,-78"/>
</g>
<g id="clust16" class="cluster">
<title>cluster_AppModule_exports</title>
<polygon fill="none" stroke="#000000" points="970,-208 970,-260 1104,-260 1104,-208 970,-208"/>
</g>
<g id="clust17" class="cluster">
<title>cluster_AppModule_bootstrap</title>
<polygon fill="none" stroke="#000000" points="1112,-208 1112,-260 1236,-260 1236,-208 1112,-208"/>
</g>
<g id="clust18" class="cluster">
<title>cluster_AppModule_providers</title>
<polygon fill="none" stroke="#000000" points="16,-78 16,-130 316,-130 316,-78 16,-78"/>
</g>
<!-- AddUserComponent -->
<g id="node1" class="node">
<title>AddUserComponent</title>
<polygon fill="#ffffb3" stroke="#000000" points="2122.8655,-122 1991.1345,-122 1991.1345,-86 2122.8655,-86 2122.8655,-122"/>
<text text-anchor="middle" x="2057" y="-99.8" font-family="Times,serif" font-size="14.00" fill="#000000">AddUserComponent</text>
</g>
<!-- AppModule -->
<g id="node13" class="node">
<title>AppModule</title>
<polygon fill="#8dd3c7" stroke="#000000" points="1146.6571,-187 1143.6571,-191 1122.6571,-191 1119.6571,-187 1063.3429,-187 1063.3429,-151 1146.6571,-151 1146.6571,-187"/>
<text text-anchor="middle" x="1105" y="-164.8" font-family="Times,serif" font-size="14.00" fill="#000000">AppModule</text>
</g>
<!-- AddUserComponent&#45;&gt;AppModule -->
<g id="edge1" class="edge">
<title>AddUserComponent&#45;&gt;AppModule</title>
<path fill="none" stroke="#000000" d="M2057,-122.0908C2057,-145.1328 2057,-182 2057,-182 2057,-182 1156.826,-182 1156.826,-182"/>
<polygon fill="#000000" stroke="#000000" points="1156.826,-178.5001 1146.826,-182 1156.826,-185.5001 1156.826,-178.5001"/>
</g>
<!-- AppComponent -->
<g id="node2" class="node">
<title>AppComponent</title>
<polygon fill="#ffffb3" stroke="#000000" points="1972.9399,-122 1867.0601,-122 1867.0601,-86 1972.9399,-86 1972.9399,-122"/>
<text text-anchor="middle" x="1920" y="-99.8" font-family="Times,serif" font-size="14.00" fill="#000000">AppComponent</text>
</g>
<!-- AppComponent&#45;&gt;AppModule -->
<g id="edge2" class="edge">
<title>AppComponent&#45;&gt;AppModule</title>
<path fill="none" stroke="#000000" d="M1920,-122.0449C1920,-143.6623 1920,-177 1920,-177 1920,-177 1156.8187,-177 1156.8187,-177"/>
<polygon fill="#000000" stroke="#000000" points="1156.8187,-173.5001 1146.8187,-177 1156.8186,-180.5001 1156.8187,-173.5001"/>
</g>
<!-- DebugPanelComponent -->
<g id="node3" class="node">
<title>DebugPanelComponent</title>
<polygon fill="#ffffb3" stroke="#000000" points="1848.7562,-122 1699.2438,-122 1699.2438,-86 1848.7562,-86 1848.7562,-122"/>
<text text-anchor="middle" x="1774" y="-99.8" font-family="Times,serif" font-size="14.00" fill="#000000">DebugPanelComponent</text>
</g>
<!-- DebugPanelComponent&#45;&gt;AppModule -->
<g id="edge3" class="edge">
<title>DebugPanelComponent&#45;&gt;AppModule</title>
<path fill="none" stroke="#000000" d="M1774,-122.2228C1774,-142.3652 1774,-172 1774,-172 1774,-172 1156.8489,-172 1156.8489,-172"/>
<polygon fill="#000000" stroke="#000000" points="1156.849,-168.5001 1146.8489,-172 1156.8489,-175.5001 1156.849,-168.5001"/>
</g>
<!-- EditClusterComponent -->
<g id="node4" class="node">
<title>EditClusterComponent</title>
<polygon fill="#ffffb3" stroke="#000000" points="1681.6038,-122 1536.3962,-122 1536.3962,-86 1681.6038,-86 1681.6038,-122"/>
<text text-anchor="middle" x="1609" y="-99.8" font-family="Times,serif" font-size="14.00" fill="#000000">EditClusterComponent</text>
</g>
<!-- EditClusterComponent&#45;&gt;AppModule -->
<g id="edge4" class="edge">
<title>EditClusterComponent&#45;&gt;AppModule</title>
<path fill="none" stroke="#000000" d="M1609,-122.2222C1609,-140.8285 1609,-167 1609,-167 1609,-167 1156.6732,-167 1156.6732,-167"/>
<polygon fill="#000000" stroke="#000000" points="1156.6733,-163.5001 1146.6732,-167 1156.6732,-170.5001 1156.6733,-163.5001"/>
</g>
<!-- EditUserComponent -->
<g id="node5" class="node">
<title>EditUserComponent</title>
<polygon fill="#ffffb3" stroke="#000000" points="1518.5926,-122 1387.4074,-122 1387.4074,-86 1518.5926,-86 1518.5926,-122"/>
<text text-anchor="middle" x="1453" y="-99.8" font-family="Times,serif" font-size="14.00" fill="#000000">EditUserComponent</text>
</g>
<!-- EditUserComponent&#45;&gt;AppModule -->
<g id="edge5" class="edge">
<title>EditUserComponent&#45;&gt;AppModule</title>
<path fill="none" stroke="#000000" d="M1453,-122.0336C1453,-139.0597 1453,-162 1453,-162 1453,-162 1156.9769,-162 1156.9769,-162"/>
<polygon fill="#000000" stroke="#000000" points="1156.977,-158.5001 1146.9769,-162 1156.9769,-165.5001 1156.977,-158.5001"/>
</g>
<!-- LoginComponent -->
<g id="node6" class="node">
<title>LoginComponent</title>
<polygon fill="#ffffb3" stroke="#000000" points="1369.2758,-122 1254.7242,-122 1254.7242,-86 1369.2758,-86 1369.2758,-122"/>
<text text-anchor="middle" x="1312" y="-99.8" font-family="Times,serif" font-size="14.00" fill="#000000">LoginComponent</text>
</g>
<!-- LoginComponent&#45;&gt;AppModule -->
<g id="edge6" class="edge">
<title>LoginComponent&#45;&gt;AppModule</title>
<path fill="none" stroke="#000000" d="M1312,-122.2396C1312,-137.5706 1312,-157 1312,-157 1312,-157 1156.8895,-157 1156.8895,-157"/>
<polygon fill="#000000" stroke="#000000" points="1156.8896,-153.5001 1146.8895,-157 1156.8895,-160.5001 1156.8896,-153.5001"/>
</g>
<!-- MainComponent -->
<g id="node7" class="node">
<title>MainComponent</title>
<polygon fill="#ffffb3" stroke="#000000" points="1236.3823,-122 1125.6177,-122 1125.6177,-86 1236.3823,-86 1236.3823,-122"/>
<text text-anchor="middle" x="1181" y="-99.8" font-family="Times,serif" font-size="14.00" fill="#000000">MainComponent</text>
</g>
<!-- MainComponent&#45;&gt;AppModule -->
<g id="edge7" class="edge">
<title>MainComponent&#45;&gt;AppModule</title>
<path fill="none" stroke="#000000" d="M1136.1936,-122.1061C1136.1936,-122.1061 1136.1936,-140.991 1136.1936,-140.991"/>
<polygon fill="#000000" stroke="#000000" points="1132.6936,-140.9909 1136.1936,-150.991 1139.6936,-140.991 1132.6936,-140.9909"/>
</g>
<!-- NotificationsComponent -->
<g id="node8" class="node">
<title>NotificationsComponent</title>
<polygon fill="#ffffb3" stroke="#000000" points="1107.427,-122 952.573,-122 952.573,-86 1107.427,-86 1107.427,-122"/>
<text text-anchor="middle" x="1030" y="-99.8" font-family="Times,serif" font-size="14.00" fill="#000000">NotificationsComponent</text>
</g>
<!-- NotificationsComponent&#45;&gt;AppModule -->
<g id="edge8" class="edge">
<title>NotificationsComponent&#45;&gt;AppModule</title>
<path fill="none" stroke="#000000" d="M1085.1925,-122.1061C1085.1925,-122.1061 1085.1925,-140.991 1085.1925,-140.991"/>
<polygon fill="#000000" stroke="#000000" points="1081.6926,-140.9909 1085.1925,-150.991 1088.6926,-140.991 1081.6926,-140.9909"/>
</g>
<!-- OrganizationComponent -->
<g id="node9" class="node">
<title>OrganizationComponent</title>
<polygon fill="#ffffb3" stroke="#000000" points="935.4158,-122 780.5842,-122 780.5842,-86 935.4158,-86 935.4158,-122"/>
<text text-anchor="middle" x="858" y="-99.8" font-family="Times,serif" font-size="14.00" fill="#000000">OrganizationComponent</text>
</g>
<!-- OrganizationComponent&#45;&gt;AppModule -->
<g id="edge9" class="edge">
<title>OrganizationComponent&#45;&gt;AppModule</title>
<path fill="none" stroke="#000000" d="M858,-122.2396C858,-137.5706 858,-157 858,-157 858,-157 1053.0998,-157 1053.0998,-157"/>
<polygon fill="#000000" stroke="#000000" points="1053.0999,-160.5001 1063.0998,-157 1053.0998,-153.5001 1053.0999,-160.5001"/>
</g>
<!-- ResourcesComponent -->
<g id="node10" class="node">
<title>ResourcesComponent</title>
<polygon fill="#ffffb3" stroke="#000000" points="762.3627,-122 623.6373,-122 623.6373,-86 762.3627,-86 762.3627,-122"/>
<text text-anchor="middle" x="693" y="-99.8" font-family="Times,serif" font-size="14.00" fill="#000000">ResourcesComponent</text>
</g>
<!-- ResourcesComponent&#45;&gt;AppModule -->
<g id="edge10" class="edge">
<title>ResourcesComponent&#45;&gt;AppModule</title>
<path fill="none" stroke="#000000" d="M693,-122.0336C693,-139.0597 693,-162 693,-162 693,-162 1053.2279,-162 1053.2279,-162"/>
<polygon fill="#000000" stroke="#000000" points="1053.228,-165.5001 1063.2279,-162 1053.2279,-158.5001 1053.228,-165.5001"/>
</g>
<!-- SidebarComponent -->
<g id="node11" class="node">
<title>SidebarComponent</title>
<polygon fill="#ffffb3" stroke="#000000" points="606.0954,-122 481.9046,-122 481.9046,-86 606.0954,-86 606.0954,-122"/>
<text text-anchor="middle" x="544" y="-99.8" font-family="Times,serif" font-size="14.00" fill="#000000">SidebarComponent</text>
</g>
<!-- SidebarComponent&#45;&gt;AppModule -->
<g id="edge11" class="edge">
<title>SidebarComponent&#45;&gt;AppModule</title>
<path fill="none" stroke="#000000" d="M544,-122.2222C544,-140.8285 544,-167 544,-167 544,-167 1053.2921,-167 1053.2921,-167"/>
<polygon fill="#000000" stroke="#000000" points="1053.2922,-170.5001 1063.2921,-167 1053.2921,-163.5001 1053.2922,-170.5001"/>
</g>
<!-- UserInfoComponent -->
<g id="node12" class="node">
<title>UserInfoComponent</title>
<polygon fill="#ffffb3" stroke="#000000" points="463.58,-122 332.42,-122 332.42,-86 463.58,-86 463.58,-122"/>
<text text-anchor="middle" x="398" y="-99.8" font-family="Times,serif" font-size="14.00" fill="#000000">UserInfoComponent</text>
</g>
<!-- UserInfoComponent&#45;&gt;AppModule -->
<g id="edge12" class="edge">
<title>UserInfoComponent&#45;&gt;AppModule</title>
<path fill="none" stroke="#000000" d="M398,-122.2228C398,-142.3652 398,-172 398,-172 398,-172 1053.1527,-172 1053.1527,-172"/>
<polygon fill="#000000" stroke="#000000" points="1053.1527,-175.5001 1063.1527,-172 1053.1526,-168.5001 1053.1527,-175.5001"/>
</g>
<!-- LoginComponent  -->
<g id="node14" class="node">
<title>LoginComponent </title>
<polygon fill="#fb8072" stroke="#000000" points="1096.2759,-252 977.7241,-252 977.7241,-216 1096.2759,-216 1096.2759,-252"/>
<text text-anchor="middle" x="1037" y="-229.8" font-family="Times,serif" font-size="14.00" fill="#000000">LoginComponent </text>
</g>
<!-- AppModule&#45;&gt;LoginComponent  -->
<g id="edge13" class="edge">
<title>AppModule&#45;&gt;LoginComponent </title>
<path fill="none" stroke="#000000" stroke-dasharray="5,2" d="M1079.6548,-187.1061C1079.6548,-187.1061 1079.6548,-205.991 1079.6548,-205.991"/>
<polygon fill="#000000" stroke="#000000" points="1076.1549,-205.9909 1079.6548,-215.991 1083.1549,-205.991 1076.1549,-205.9909"/>
</g>
<!-- AppComponent  -->
<g id="node15" class="node">
<title>AppComponent </title>
<polygon fill="#80b1d3" stroke="#000000" points="1228.439,-252 1119.561,-252 1119.561,-216 1228.439,-216 1228.439,-252"/>
<text text-anchor="middle" x="1174" y="-229.8" font-family="Times,serif" font-size="14.00" fill="#000000">AppComponent </text>
</g>
<!-- AppModule&#45;&gt;AppComponent  -->
<g id="edge14" class="edge">
<title>AppModule&#45;&gt;AppComponent </title>
<path fill="none" stroke="#000000" stroke-dasharray="1,5" d="M1133.1793,-187.1061C1133.1793,-187.1061 1133.1793,-205.991 1133.1793,-205.991"/>
<polygon fill="#000000" stroke="#000000" points="1129.6794,-205.9909 1133.1793,-215.991 1136.6794,-205.991 1129.6794,-205.9909"/>
</g>
<!-- AuthService -->
<g id="node16" class="node">
<title>AuthService</title>
<ellipse fill="#fdb462" stroke="#000000" cx="249" cy="-104" rx="59.1083" ry="18"/>
<text text-anchor="middle" x="249" y="-99.8" font-family="Times,serif" font-size="14.00" fill="#000000">AuthService</text>
</g>
<!-- AuthService&#45;&gt;AppModule -->
<g id="edge15" class="edge">
<title>AuthService&#45;&gt;AppModule</title>
<path fill="none" stroke="#000000" d="M249,-122.0449C249,-143.6623 249,-177 249,-177 249,-177 1053.1339,-177 1053.1339,-177"/>
<polygon fill="#000000" stroke="#000000" points="1053.1339,-180.5001 1063.1339,-177 1053.1338,-173.5001 1053.1339,-180.5001"/>
</g>
<!-- BackendService -->
<g id="node17" class="node">
<title>BackendService</title>
<ellipse fill="#fdb462" stroke="#000000" cx="98" cy="-104" rx="73.556" ry="18"/>
<text text-anchor="middle" x="98" y="-99.8" font-family="Times,serif" font-size="14.00" fill="#000000">BackendService</text>
</g>
<!-- BackendService&#45;&gt;AppModule -->
<g id="edge16" class="edge">
<title>BackendService&#45;&gt;AppModule</title>
<path fill="none" stroke="#000000" d="M98,-122.0908C98,-145.1328 98,-182 98,-182 98,-182 1053.3303,-182 1053.3303,-182"/>
<polygon fill="#000000" stroke="#000000" points="1053.3304,-185.5001 1063.3303,-182 1053.3303,-178.5001 1053.3304,-185.5001"/>
</g>
</g>
</svg>
