<?xml version="1.0" encoding="UTF-8" standalone="no"?>
<!DOCTYPE svg PUBLIC "-//W3C//DTD SVG 1.1//EN"
 "http://www.w3.org/Graphics/SVG/1.1/DTD/svg11.dtd">
<!-- Generated by graphviz version 2.40.1 (20161225.0304)
 -->
<!-- Title: dependencies Pages: 1 -->
<svg width="4585pt" height="284pt"
 viewBox="0.00 0.00 4585.00 284.00" xmlns="http://www.w3.org/2000/svg" xmlns:xlink="http://www.w3.org/1999/xlink">
<g id="graph0" class="graph" transform="scale(1 1) rotate(0) translate(4 280)">
<title>dependencies</title>
<polygon fill="#ffffff" stroke="transparent" points="-4,4 -4,-280 4581,-280 4581,4 -4,4"/>
<text text-anchor="start" x="2267.5091" y="-42.4" font-family="sans-serif" font-weight="bold" font-size="14.00" fill="#000000">Legend</text>
<polygon fill="#ffffb3" stroke="transparent" points="2054.5,-10 2054.5,-30 2074.5,-30 2074.5,-10 2054.5,-10"/>
<text text-anchor="start" x="2078.129" y="-15.4" font-family="sans-serif" font-size="14.00" fill="#000000"> &#160;Declarations</text>
<polygon fill="#8dd3c7" stroke="transparent" points="2167.5,-10 2167.5,-30 2187.5,-30 2187.5,-10 2167.5,-10"/>
<text text-anchor="start" x="2191.2251" y="-15.4" font-family="sans-serif" font-size="14.00" fill="#000000"> &#160;Module</text>
<polygon fill="#80b1d3" stroke="transparent" points="2253.5,-10 2253.5,-30 2273.5,-30 2273.5,-10 2253.5,-10"/>
<text text-anchor="start" x="2277.2812" y="-15.4" font-family="sans-serif" font-size="14.00" fill="#000000"> &#160;Bootstrap</text>
<polygon fill="#fdb462" stroke="transparent" points="2350.5,-10 2350.5,-30 2370.5,-30 2370.5,-10 2350.5,-10"/>
<text text-anchor="start" x="2374.1732" y="-15.4" font-family="sans-serif" font-size="14.00" fill="#000000"> &#160;Providers</text>
<polygon fill="#fb8072" stroke="transparent" points="2446.5,-10 2446.5,-30 2466.5,-30 2466.5,-10 2446.5,-10"/>
<text text-anchor="start" x="2470.2258" y="-15.4" font-family="sans-serif" font-size="14.00" fill="#000000"> &#160;Exports</text>
<g id="clust1" class="cluster">
<title>cluster_AppModule</title>
<polygon fill="none" stroke="#000000" stroke-dasharray="1,5" points="8,-70 8,-268 4569,-268 4569,-70 8,-70"/>
</g>
<g id="clust2" class="cluster">
<title>cluster_AppModule_declarations</title>
<polygon fill="none" stroke="#000000" points="530,-78 530,-130 4561,-130 4561,-78 530,-78"/>
</g>
<g id="clust30" class="cluster">
<title>cluster_AppModule_exports</title>
<polygon fill="none" stroke="#000000" points="2125,-208 2125,-260 2259,-260 2259,-208 2125,-208"/>
</g>
<g id="clust31" class="cluster">
<title>cluster_AppModule_bootstrap</title>
<polygon fill="none" stroke="#000000" points="2267,-208 2267,-260 2391,-260 2391,-208 2267,-208"/>
</g>
<g id="clust32" class="cluster">
<title>cluster_AppModule_providers</title>
<polygon fill="none" stroke="#000000" points="16,-78 16,-130 522,-130 522,-78 16,-78"/>
</g>
<!-- AbbreviatePipe -->
<g id="node1" class="node">
<title>AbbreviatePipe</title>
<polygon fill="#ffffb3" stroke="#000000" points="4552.58,-122 4449.42,-122 4449.42,-86 4552.58,-86 4552.58,-122"/>
<text text-anchor="middle" x="4501" y="-99.8" font-family="Times,serif" font-size="14.00" fill="#000000">AbbreviatePipe</text>
</g>
<!-- AppModule -->
<g id="node27" class="node">
<title>AppModule</title>
<polygon fill="#8dd3c7" stroke="#000000" points="2301.6571,-187 2298.6571,-191 2277.6571,-191 2274.6571,-187 2218.3429,-187 2218.3429,-151 2301.6571,-151 2301.6571,-187"/>
<text text-anchor="middle" x="2260" y="-164.8" font-family="Times,serif" font-size="14.00" fill="#000000">AppModule</text>
</g>
<!-- AbbreviatePipe&#45;&gt;AppModule -->
<g id="edge1" class="edge">
<title>AbbreviatePipe&#45;&gt;AppModule</title>
<path fill="none" stroke="#000000" d="M4501,-122.3802C4501,-146.2785 4501,-185 4501,-185 4501,-185 2311.7824,-185 2311.7824,-185"/>
<polygon fill="#000000" stroke="#000000" points="2311.7825,-181.5001 2301.7824,-185 2311.7824,-188.5001 2311.7825,-181.5001"/>
</g>
<!-- AddDevicesGroupComponent -->
<g id="node2" class="node">
<title>AddDevicesGroupComponent</title>
<polygon fill="#ffffb3" stroke="#000000" points="4431.292,-122 4244.708,-122 4244.708,-86 4431.292,-86 4431.292,-122"/>
<text text-anchor="middle" x="4338" y="-99.8" font-family="Times,serif" font-size="14.00" fill="#000000">AddDevicesGroupComponent</text>
</g>
<!-- AddDevicesGroupComponent&#45;&gt;AppModule -->
<g id="edge2" class="edge">
<title>AddDevicesGroupComponent&#45;&gt;AppModule</title>
<path fill="none" stroke="#000000" d="M4338,-122.3228C4338,-145.6602 4338,-183 4338,-183 4338,-183 2311.9784,-183 2311.9784,-183"/>
<polygon fill="#000000" stroke="#000000" points="2311.9785,-179.5001 2301.9784,-183 2311.9784,-186.5001 2311.9785,-179.5001"/>
</g>
<!-- AddLabelComponent -->
<g id="node3" class="node">
<title>AddLabelComponent</title>
<polygon fill="#ffffb3" stroke="#000000" points="4226.8118,-122 4089.1882,-122 4089.1882,-86 4226.8118,-86 4226.8118,-122"/>
<text text-anchor="middle" x="4158" y="-99.8" font-family="Times,serif" font-size="14.00" fill="#000000">AddLabelComponent</text>
</g>
<!-- AddLabelComponent&#45;&gt;AppModule -->
<g id="edge3" class="edge">
<title>AddLabelComponent&#45;&gt;AppModule</title>
<path fill="none" stroke="#000000" d="M4158,-122.0109C4158,-144.4852 4158,-180 4158,-180 4158,-180 2311.8544,-180 2311.8544,-180"/>
<polygon fill="#000000" stroke="#000000" points="2311.8545,-176.5001 2301.8544,-180 2311.8544,-183.5001 2311.8545,-176.5001"/>
</g>
<!-- AddUserComponent -->
<g id="node4" class="node">
<title>AddUserComponent</title>
<polygon fill="#ffffb3" stroke="#000000" points="4070.8655,-122 3939.1345,-122 3939.1345,-86 4070.8655,-86 4070.8655,-122"/>
<text text-anchor="middle" x="4005" y="-99.8" font-family="Times,serif" font-size="14.00" fill="#000000">AddUserComponent</text>
</g>
<!-- AddUserComponent&#45;&gt;AppModule -->
<g id="edge4" class="edge">
<title>AddUserComponent&#45;&gt;AppModule</title>
<path fill="none" stroke="#000000" d="M4005,-122.2921C4005,-144.2057 4005,-178 4005,-178 4005,-178 2311.8412,-178 2311.8412,-178"/>
<polygon fill="#000000" stroke="#000000" points="2311.8412,-174.5001 2301.8412,-178 2311.8411,-181.5001 2311.8412,-174.5001"/>
</g>
<!-- AppComponent -->
<g id="node5" class="node">
<title>AppComponent</title>
<polygon fill="#ffffb3" stroke="#000000" points="3920.9399,-122 3815.0601,-122 3815.0601,-86 3920.9399,-86 3920.9399,-122"/>
<text text-anchor="middle" x="3868" y="-99.8" font-family="Times,serif" font-size="14.00" fill="#000000">AppComponent</text>
</g>
<!-- AppComponent&#45;&gt;AppModule -->
<g id="edge5" class="edge">
<title>AppComponent&#45;&gt;AppModule</title>
<path fill="none" stroke="#000000" d="M3868,-122.2843C3868,-143.3211 3868,-175 3868,-175 3868,-175 2311.7731,-175 2311.7731,-175"/>
<polygon fill="#000000" stroke="#000000" points="2311.7731,-171.5001 2301.7731,-175 2311.773,-178.5001 2311.7731,-171.5001"/>
</g>
<!-- ApplicationsComponent -->
<g id="node6" class="node">
<title>ApplicationsComponent</title>
<polygon fill="#ffffb3" stroke="#000000" points="3797.3753,-122 3644.6247,-122 3644.6247,-86 3797.3753,-86 3797.3753,-122"/>
<text text-anchor="middle" x="3721" y="-99.8" font-family="Times,serif" font-size="14.00" fill="#000000">ApplicationsComponent</text>
</g>
<!-- ApplicationsComponent&#45;&gt;AppModule -->
<g id="edge6" class="edge">
<title>ApplicationsComponent&#45;&gt;AppModule</title>
<path fill="none" stroke="#000000" d="M3721,-122.1289C3721,-142.5724 3721,-173 3721,-173 3721,-173 2311.7595,-173 2311.7595,-173"/>
<polygon fill="#000000" stroke="#000000" points="2311.7596,-169.5001 2301.7595,-173 2311.7595,-176.5001 2311.7596,-169.5001"/>
</g>
<!-- AppsInfoComponent -->
<g id="node7" class="node">
<title>AppsInfoComponent</title>
<polygon fill="#ffffb3" stroke="#000000" points="3626.205,-122 3491.795,-122 3491.795,-86 3626.205,-86 3626.205,-122"/>
<text text-anchor="middle" x="3559" y="-99.8" font-family="Times,serif" font-size="14.00" fill="#000000">AppsInfoComponent</text>
</g>
<!-- AppsInfoComponent&#45;&gt;AppModule -->
<g id="edge7" class="edge">
<title>AppsInfoComponent&#45;&gt;AppModule</title>
<path fill="none" stroke="#000000" d="M3559,-122.308C3559,-142.1455 3559,-171 3559,-171 3559,-171 2311.7488,-171 2311.7488,-171"/>
<polygon fill="#000000" stroke="#000000" points="2311.7489,-167.5001 2301.7488,-171 2311.7488,-174.5001 2311.7489,-167.5001"/>
</g>
<!-- ChangePasswordComponent -->
<g id="node8" class="node">
<title>ChangePasswordComponent</title>
<polygon fill="#ffffb3" stroke="#000000" points="3473.752,-122 3296.248,-122 3296.248,-86 3473.752,-86 3473.752,-122"/>
<text text-anchor="middle" x="3385" y="-99.8" font-family="Times,serif" font-size="14.00" fill="#000000">ChangePasswordComponent</text>
</g>
<!-- ChangePasswordComponent&#45;&gt;AppModule -->
<g id="edge8" class="edge">
<title>ChangePasswordComponent&#45;&gt;AppModule</title>
<path fill="none" stroke="#000000" d="M3385,-122.1686C3385,-141.0898 3385,-168 3385,-168 3385,-168 2311.7102,-168 2311.7102,-168"/>
<polygon fill="#000000" stroke="#000000" points="2311.7102,-164.5001 2301.7102,-168 2311.7102,-171.5001 2311.7102,-164.5001"/>
</g>
<!-- ClusterComponent -->
<g id="node9" class="node">
<title>ClusterComponent</title>
<polygon fill="#ffffb3" stroke="#000000" points="3277.7702,-122 3156.2298,-122 3156.2298,-86 3277.7702,-86 3277.7702,-122"/>
<text text-anchor="middle" x="3217" y="-99.8" font-family="Times,serif" font-size="14.00" fill="#000000">ClusterComponent</text>
</g>
<!-- ClusterComponent&#45;&gt;AppModule -->
<g id="edge9" class="edge">
<title>ClusterComponent&#45;&gt;AppModule</title>
<path fill="none" stroke="#000000" d="M3217,-122.2667C3217,-140.5552 3217,-166 3217,-166 3217,-166 2311.7365,-166 2311.7365,-166"/>
<polygon fill="#000000" stroke="#000000" points="2311.7365,-162.5001 2301.7365,-166 2311.7364,-169.5001 2311.7365,-162.5001"/>
</g>
<!-- DebugPanelComponent -->
<g id="node10" class="node">
<title>DebugPanelComponent</title>
<polygon fill="#ffffb3" stroke="#000000" points="3137.7562,-122 2988.2438,-122 2988.2438,-86 3137.7562,-86 3137.7562,-122"/>
<text text-anchor="middle" x="3063" y="-99.8" font-family="Times,serif" font-size="14.00" fill="#000000">DebugPanelComponent</text>
</g>
<!-- DebugPanelComponent&#45;&gt;AppModule -->
<g id="edge10" class="edge">
<title>DebugPanelComponent&#45;&gt;AppModule</title>
<path fill="none" stroke="#000000" d="M3063,-122.0225C3063,-139.3734 3063,-163 3063,-163 3063,-163 2311.7616,-163 2311.7616,-163"/>
<polygon fill="#000000" stroke="#000000" points="2311.7616,-159.5001 2301.7616,-163 2311.7616,-166.5001 2311.7616,-159.5001"/>
</g>
<!-- DeviceGroupCreatedComponent -->
<g id="node11" class="node">
<title>DeviceGroupCreatedComponent</title>
<polygon fill="#ffffb3" stroke="#000000" points="2970.2724,-122 2769.7276,-122 2769.7276,-86 2970.2724,-86 2970.2724,-122"/>
<text text-anchor="middle" x="2870" y="-99.8" font-family="Times,serif" font-size="14.00" fill="#000000">DeviceGroupCreatedComponent</text>
</g>
<!-- DeviceGroupCreatedComponent&#45;&gt;AppModule -->
<g id="edge11" class="edge">
<title>DeviceGroupCreatedComponent&#45;&gt;AppModule</title>
<path fill="none" stroke="#000000" d="M2870,-122.0352C2870,-138.7344 2870,-161 2870,-161 2870,-161 2311.9278,-161 2311.9278,-161"/>
<polygon fill="#000000" stroke="#000000" points="2311.9278,-157.5001 2301.9278,-161 2311.9277,-164.5001 2311.9278,-157.5001"/>
</g>
<!-- DevicesComponent -->
<g id="node12" class="node">
<title>DevicesComponent</title>
<polygon fill="#ffffb3" stroke="#000000" points="2752.4187,-122 2625.5813,-122 2625.5813,-86 2752.4187,-86 2752.4187,-122"/>
<text text-anchor="middle" x="2689" y="-99.8" font-family="Times,serif" font-size="14.00" fill="#000000">DevicesComponent</text>
</g>
<!-- DevicesComponent&#45;&gt;AppModule -->
<g id="edge12" class="edge">
<title>DevicesComponent&#45;&gt;AppModule</title>
<path fill="none" stroke="#000000" d="M2689,-122.0091C2689,-138.0494 2689,-159 2689,-159 2689,-159 2311.9154,-159 2311.9154,-159"/>
<polygon fill="#000000" stroke="#000000" points="2311.9155,-155.5001 2301.9154,-159 2311.9154,-162.5001 2311.9155,-155.5001"/>
</g>
<!-- EditClusterComponent -->
<g id="node13" class="node">
<title>EditClusterComponent</title>
<polygon fill="#ffffb3" stroke="#000000" points="2607.6038,-122 2462.3962,-122 2462.3962,-86 2607.6038,-86 2607.6038,-122"/>
<text text-anchor="middle" x="2535" y="-99.8" font-family="Times,serif" font-size="14.00" fill="#000000">EditClusterComponent</text>
</g>
<!-- EditClusterComponent&#45;&gt;AppModule -->
<g id="edge13" class="edge">
<title>EditClusterComponent&#45;&gt;AppModule</title>
<path fill="none" stroke="#000000" d="M2535,-122.1871C2535,-137.1824 2535,-156 2535,-156 2535,-156 2311.7666,-156 2311.7666,-156"/>
<polygon fill="#000000" stroke="#000000" points="2311.7666,-152.5001 2301.7666,-156 2311.7665,-159.5001 2311.7666,-152.5001"/>
</g>
<!-- EditUserComponent -->
<g id="node14" class="node">
<title>EditUserComponent</title>
<polygon fill="#ffffb3" stroke="#000000" points="2444.5926,-122 2313.4074,-122 2313.4074,-86 2444.5926,-86 2444.5926,-122"/>
<text text-anchor="middle" x="2379" y="-99.8" font-family="Times,serif" font-size="14.00" fill="#000000">EditUserComponent</text>
</g>
<!-- EditUserComponent&#45;&gt;AppModule -->
<g id="edge14" class="edge">
<title>EditUserComponent&#45;&gt;AppModule</title>
<path fill="none" stroke="#000000" d="M2348.4616,-122.0511C2348.4616,-136.373 2348.4616,-154 2348.4616,-154 2348.4616,-154 2311.8993,-154 2311.8993,-154"/>
<polygon fill="#000000" stroke="#000000" points="2311.8993,-150.5001 2301.8993,-154 2311.8992,-157.5001 2311.8993,-150.5001"/>
</g>
<!-- FilterPipe -->
<g id="node15" class="node">
<title>FilterPipe</title>
<polygon fill="#ffffb3" stroke="#000000" points="2295.7177,-122 2224.2823,-122 2224.2823,-86 2295.7177,-86 2295.7177,-122"/>
<text text-anchor="middle" x="2260" y="-99.8" font-family="Times,serif" font-size="14.00" fill="#000000">FilterPipe</text>
</g>
<!-- FilterPipe&#45;&gt;AppModule -->
<g id="edge15" class="edge">
<title>FilterPipe&#45;&gt;AppModule</title>
<path fill="none" stroke="#000000" d="M2260,-122.1061C2260,-122.1061 2260,-140.991 2260,-140.991"/>
<polygon fill="#000000" stroke="#000000" points="2256.5001,-140.9909 2260,-150.991 2263.5001,-140.991 2256.5001,-140.9909"/>
</g>
<!-- GroupConfigurationComponent -->
<g id="node16" class="node">
<title>GroupConfigurationComponent</title>
<polygon fill="#ffffb3" stroke="#000000" points="2206.6441,-122 2011.3559,-122 2011.3559,-86 2206.6441,-86 2206.6441,-122"/>
<text text-anchor="middle" x="2109" y="-99.8" font-family="Times,serif" font-size="14.00" fill="#000000">GroupConfigurationComponent</text>
</g>
<!-- GroupConfigurationComponent&#45;&gt;AppModule -->
<g id="edge16" class="edge">
<title>GroupConfigurationComponent&#45;&gt;AppModule</title>
<path fill="none" stroke="#000000" d="M2169.8421,-122.0511C2169.8421,-136.373 2169.8421,-154 2169.8421,-154 2169.8421,-154 2208.0883,-154 2208.0883,-154"/>
<polygon fill="#000000" stroke="#000000" points="2208.0884,-157.5001 2218.0883,-154 2208.0883,-150.5001 2208.0884,-157.5001"/>
</g>
<!-- LoginComponent -->
<g id="node17" class="node">
<title>LoginComponent</title>
<polygon fill="#ffffb3" stroke="#000000" points="1993.2758,-122 1878.7242,-122 1878.7242,-86 1993.2758,-86 1993.2758,-122"/>
<text text-anchor="middle" x="1936" y="-99.8" font-family="Times,serif" font-size="14.00" fill="#000000">LoginComponent</text>
</g>
<!-- LoginComponent&#45;&gt;AppModule -->
<g id="edge17" class="edge">
<title>LoginComponent&#45;&gt;AppModule</title>
<path fill="none" stroke="#000000" d="M1936,-122.1871C1936,-137.1824 1936,-156 1936,-156 1936,-156 2208.306,-156 2208.306,-156"/>
<polygon fill="#000000" stroke="#000000" points="2208.306,-159.5001 2218.306,-156 2208.3059,-152.5001 2208.306,-159.5001"/>
</g>
<!-- MainComponent -->
<g id="node18" class="node">
<title>MainComponent</title>
<polygon fill="#ffffb3" stroke="#000000" points="1860.3823,-122 1749.6177,-122 1749.6177,-86 1860.3823,-86 1860.3823,-122"/>
<text text-anchor="middle" x="1805" y="-99.8" font-family="Times,serif" font-size="14.00" fill="#000000">MainComponent</text>
</g>
<!-- MainComponent&#45;&gt;AppModule -->
<g id="edge18" class="edge">
<title>MainComponent&#45;&gt;AppModule</title>
<path fill="none" stroke="#000000" d="M1805,-122.0091C1805,-138.0494 1805,-159 1805,-159 1805,-159 2208.0103,-159 2208.0103,-159"/>
<polygon fill="#000000" stroke="#000000" points="2208.0103,-162.5001 2218.0103,-159 2208.0102,-155.5001 2208.0103,-162.5001"/>
</g>
<!-- NotificationsComponent -->
<g id="node19" class="node">
<title>NotificationsComponent</title>
<polygon fill="#ffffb3" stroke="#000000" points="1731.427,-122 1576.573,-122 1576.573,-86 1731.427,-86 1731.427,-122"/>
<text text-anchor="middle" x="1654" y="-99.8" font-family="Times,serif" font-size="14.00" fill="#000000">NotificationsComponent</text>
</g>
<!-- NotificationsComponent&#45;&gt;AppModule -->
<g id="edge19" class="edge">
<title>NotificationsComponent&#45;&gt;AppModule</title>
<path fill="none" stroke="#000000" d="M1654,-122.0352C1654,-138.7344 1654,-161 1654,-161 1654,-161 2207.8684,-161 2207.8684,-161"/>
<polygon fill="#000000" stroke="#000000" points="2207.8684,-164.5001 2217.8684,-161 2207.8684,-157.5001 2207.8684,-164.5001"/>
</g>
<!-- OrganizationComponent -->
<g id="node20" class="node">
<title>OrganizationComponent</title>
<polygon fill="#ffffb3" stroke="#000000" points="1559.4158,-122 1404.5842,-122 1404.5842,-86 1559.4158,-86 1559.4158,-122"/>
<text text-anchor="middle" x="1482" y="-99.8" font-family="Times,serif" font-size="14.00" fill="#000000">OrganizationComponent</text>
</g>
<!-- OrganizationComponent&#45;&gt;AppModule -->
<g id="edge20" class="edge">
<title>OrganizationComponent&#45;&gt;AppModule</title>
<path fill="none" stroke="#000000" d="M1482,-122.0225C1482,-139.3734 1482,-163 1482,-163 1482,-163 2208.1713,-163 2208.1713,-163"/>
<polygon fill="#000000" stroke="#000000" points="2208.1714,-166.5001 2218.1713,-163 2208.1713,-159.5001 2208.1714,-166.5001"/>
</g>
<!-- RegisterApplicationComponent -->
<g id="node21" class="node">
<title>RegisterApplicationComponent</title>
<polygon fill="#ffffb3" stroke="#000000" points="1387.0828,-122 1192.9172,-122 1192.9172,-86 1387.0828,-86 1387.0828,-122"/>
<text text-anchor="middle" x="1290" y="-99.8" font-family="Times,serif" font-size="14.00" fill="#000000">RegisterApplicationComponent</text>
</g>
<!-- RegisterApplicationComponent&#45;&gt;AppModule -->
<g id="edge21" class="edge">
<title>RegisterApplicationComponent&#45;&gt;AppModule</title>
<path fill="none" stroke="#000000" d="M1290,-122.2667C1290,-140.5552 1290,-166 1290,-166 1290,-166 2208.3203,-166 2208.3203,-166"/>
<polygon fill="#000000" stroke="#000000" points="2208.3203,-169.5001 2218.3203,-166 2208.3203,-162.5001 2208.3203,-169.5001"/>
</g>
<!-- ResourcesComponent -->
<g id="node22" class="node">
<title>ResourcesComponent</title>
<polygon fill="#ffffb3" stroke="#000000" points="1175.3627,-122 1036.6373,-122 1036.6373,-86 1175.3627,-86 1175.3627,-122"/>
<text text-anchor="middle" x="1106" y="-99.8" font-family="Times,serif" font-size="14.00" fill="#000000">ResourcesComponent</text>
</g>
<!-- ResourcesComponent&#45;&gt;AppModule -->
<g id="edge22" class="edge">
<title>ResourcesComponent&#45;&gt;AppModule</title>
<path fill="none" stroke="#000000" d="M1106,-122.1686C1106,-141.0898 1106,-168 1106,-168 1106,-168 2208.2468,-168 2208.2468,-168"/>
<polygon fill="#000000" stroke="#000000" points="2208.2468,-171.5001 2218.2468,-168 2208.2467,-164.5001 2208.2468,-171.5001"/>
</g>
<!-- SidebarComponent -->
<g id="node23" class="node">
<title>SidebarComponent</title>
<polygon fill="#ffffb3" stroke="#000000" points="1019.0954,-122 894.9046,-122 894.9046,-86 1019.0954,-86 1019.0954,-122"/>
<text text-anchor="middle" x="957" y="-99.8" font-family="Times,serif" font-size="14.00" fill="#000000">SidebarComponent</text>
</g>
<!-- SidebarComponent&#45;&gt;AppModule -->
<g id="edge23" class="edge">
<title>SidebarComponent&#45;&gt;AppModule</title>
<path fill="none" stroke="#000000" d="M957,-122.308C957,-142.1455 957,-171 957,-171 957,-171 2208.1226,-171 2208.1226,-171"/>
<polygon fill="#000000" stroke="#000000" points="2208.1227,-174.5001 2218.1226,-171 2208.1226,-167.5001 2208.1227,-174.5001"/>
</g>
<!-- SortByPipe -->
<g id="node24" class="node">
<title>SortByPipe</title>
<polygon fill="#ffffb3" stroke="#000000" points="877.0594,-122 796.9406,-122 796.9406,-86 877.0594,-86 877.0594,-122"/>
<text text-anchor="middle" x="837" y="-99.8" font-family="Times,serif" font-size="14.00" fill="#000000">SortByPipe</text>
</g>
<!-- SortByPipe&#45;&gt;AppModule -->
<g id="edge24" class="edge">
<title>SortByPipe&#45;&gt;AppModule</title>
<path fill="none" stroke="#000000" d="M837,-122.1289C837,-142.5724 837,-173 837,-173 837,-173 2208.183,-173 2208.183,-173"/>
<polygon fill="#000000" stroke="#000000" points="2208.183,-176.5001 2218.183,-173 2208.1829,-169.5001 2208.183,-176.5001"/>
</g>
<!-- TruncatePipe -->
<g id="node25" class="node">
<title>TruncatePipe</title>
<polygon fill="#ffffb3" stroke="#000000" points="778.1361,-122 687.8639,-122 687.8639,-86 778.1361,-86 778.1361,-122"/>
<text text-anchor="middle" x="733" y="-99.8" font-family="Times,serif" font-size="14.00" fill="#000000">TruncatePipe</text>
</g>
<!-- TruncatePipe&#45;&gt;AppModule -->
<g id="edge25" class="edge">
<title>TruncatePipe&#45;&gt;AppModule</title>
<path fill="none" stroke="#000000" d="M733,-122.2843C733,-143.3211 733,-175 733,-175 733,-175 2207.9659,-175 2207.9659,-175"/>
<polygon fill="#000000" stroke="#000000" points="2207.9659,-178.5001 2217.9659,-175 2207.9659,-171.5001 2207.9659,-178.5001"/>
</g>
<!-- UserInfoComponent -->
<g id="node26" class="node">
<title>UserInfoComponent</title>
<polygon fill="#ffffb3" stroke="#000000" points="669.58,-122 538.42,-122 538.42,-86 669.58,-86 669.58,-122"/>
<text text-anchor="middle" x="604" y="-99.8" font-family="Times,serif" font-size="14.00" fill="#000000">UserInfoComponent</text>
</g>
<!-- UserInfoComponent&#45;&gt;AppModule -->
<g id="edge26" class="edge">
<title>UserInfoComponent&#45;&gt;AppModule</title>
<path fill="none" stroke="#000000" d="M604,-122.2921C604,-144.2057 604,-178 604,-178 604,-178 2208.2367,-178 2208.2367,-178"/>
<polygon fill="#000000" stroke="#000000" points="2208.2367,-181.5001 2218.2367,-178 2208.2367,-174.5001 2208.2367,-181.5001"/>
</g>
<!-- LoginComponent  -->
<g id="node28" class="node">
<title>LoginComponent </title>
<polygon fill="#fb8072" stroke="#000000" points="2251.2759,-252 2132.7241,-252 2132.7241,-216 2251.2759,-216 2251.2759,-252"/>
<text text-anchor="middle" x="2192" y="-229.8" font-family="Times,serif" font-size="14.00" fill="#000000">LoginComponent </text>
</g>
<!-- AppModule&#45;&gt;LoginComponent  -->
<g id="edge27" class="edge">
<title>AppModule&#45;&gt;LoginComponent </title>
<path fill="none" stroke="#000000" stroke-dasharray="5,2" d="M2234.6548,-187.1061C2234.6548,-187.1061 2234.6548,-205.991 2234.6548,-205.991"/>
<polygon fill="#000000" stroke="#000000" points="2231.1549,-205.9909 2234.6548,-215.991 2238.1549,-205.991 2231.1549,-205.9909"/>
</g>
<!-- AppComponent  -->
<g id="node29" class="node">
<title>AppComponent </title>
<polygon fill="#80b1d3" stroke="#000000" points="2383.439,-252 2274.561,-252 2274.561,-216 2383.439,-216 2383.439,-252"/>
<text text-anchor="middle" x="2329" y="-229.8" font-family="Times,serif" font-size="14.00" fill="#000000">AppComponent </text>
</g>
<!-- AppModule&#45;&gt;AppComponent  -->
<g id="edge28" class="edge">
<title>AppModule&#45;&gt;AppComponent </title>
<path fill="none" stroke="#000000" stroke-dasharray="1,5" d="M2288.1794,-187.1061C2288.1794,-187.1061 2288.1794,-205.991 2288.1794,-205.991"/>
<polygon fill="#000000" stroke="#000000" points="2284.6794,-205.9909 2288.1794,-215.991 2291.6794,-205.991 2284.6794,-205.9909"/>
</g>
<!-- AuthService -->
<g id="node30" class="node">
<title>AuthService</title>
<ellipse fill="#fdb462" stroke="#000000" cx="455" cy="-104" rx="59.1083" ry="18"/>
<text text-anchor="middle" x="455" y="-99.8" font-family="Times,serif" font-size="14.00" fill="#000000">AuthService</text>
</g>
<!-- AuthService&#45;&gt;AppModule -->
<g id="edge29" class="edge">
<title>AuthService&#45;&gt;AppModule</title>
<path fill="none" stroke="#000000" d="M455,-122.0109C455,-144.4852 455,-180 455,-180 455,-180 2208.0396,-180 2208.0396,-180"/>
<polygon fill="#000000" stroke="#000000" points="2208.0396,-183.5001 2218.0396,-180 2208.0396,-176.5001 2208.0396,-183.5001"/>
</g>
<!-- BackendService -->
<g id="node31" class="node">
<title>BackendService</title>
<ellipse fill="#fdb462" stroke="#000000" cx="304" cy="-104" rx="73.556" ry="18"/>
<text text-anchor="middle" x="304" y="-99.8" font-family="Times,serif" font-size="14.00" fill="#000000">BackendService</text>
</g>
<!-- BackendService&#45;&gt;AppModule -->
<g id="edge30" class="edge">
<title>BackendService&#45;&gt;AppModule</title>
<path fill="none" stroke="#000000" d="M304,-122.3228C304,-145.6602 304,-183 304,-183 304,-183 2208.2412,-183 2208.2412,-183"/>
<polygon fill="#000000" stroke="#000000" points="2208.2413,-186.5001 2218.2412,-183 2208.2412,-179.5001 2208.2413,-186.5001"/>
</g>
<!-- UpdateEventsService -->
<g id="node32" class="node">
<title>UpdateEventsService</title>
<ellipse fill="#fdb462" stroke="#000000" cx="118" cy="-104" rx="94.3195" ry="18"/>
<text text-anchor="middle" x="118" y="-99.8" font-family="Times,serif" font-size="14.00" fill="#000000">UpdateEventsService</text>
</g>
<!-- UpdateEventsService&#45;&gt;AppModule -->
<g id="edge31" class="edge">
<title>UpdateEventsService&#45;&gt;AppModule</title>
<path fill="none" stroke="#000000" d="M118,-122.3802C118,-146.2785 118,-185 118,-185 118,-185 2208.1732,-185 2208.1732,-185"/>
<polygon fill="#000000" stroke="#000000" points="2208.1732,-188.5001 2218.1732,-185 2208.1731,-181.5001 2208.1732,-188.5001"/>
</g>
</g>
</svg>
